<?xml version="1.0" encoding="utf-8"?>
<!-- Generator: Adobe Illustrator 27.4.1, SVG Export Plug-In . SVG Version: 6.00 Build 0)  -->
<svg version="1.1" id="Layer_1" xmlns="http://www.w3.org/2000/svg" xmlns:xlink="http://www.w3.org/1999/xlink" x="0px" y="0px"
	 viewBox="0 0 686 135" style="enable-background:new 0 0 686 135;" xml:space="preserve">
<style type="text/css">
	.st0{fill:#FFFFFF;}
	.st1{fill:#F1F1F8;}
	.st2{enable-background:new    ;}
	.st3{fill:#3C3C3C;}
	.st4{fill:#9A9CA7;}
	.st5{clip-path:url(#SVGID_00000103242741508268420200000001712330161759779000_);}
	.st6{fill:#F5615A;}
	.st7{opacity:0.3;}
	.st8{clip-path:url(#SVGID_00000060740506800506939070000012017312819509459886_);}
	.st9{clip-path:url(#SVGID_00000008112594777832215120000001887360432691418770_);}
	.st10{clip-path:url(#SVGID_00000065050453525623678630000010465119413808260739_);}
	.st11{fill:#A844E1;}
	.st12{fill:#F6F7FB;}
	.st13{fill:#7CBB02;}
	.st14{fill:#F2DFD5;}
	.st15{fill:#00A0F3;}
	.st16{fill:#FEB904;}
	.st17{opacity:0.12;enable-background:new    ;}
	.st18{fill:#231F20;}
	.st19{clip-path:url(#SVGID_00000079448095514315530850000008946531304730323333_);}
	.st20{clip-path:url(#SVGID_00000116237182641934242910000011514564267125199496_);}
	.st21{fill:#F9BA00;}
	.st22{fill:#D48B4D;}
	.st23{fill:#9C571A;}
	.st24{fill:#11201C;}
	.st25{fill:#E6E6E6;}
	.st26{fill:#333333;}
	.st27{fill:#FFE2D1;}
	.st28{fill:#4C4C4C;}
	.st29{clip-path:url(#SVGID_00000144323138300716833140000016356914625052524423_);}
	.st30{clip-path:url(#SVGID_00000042718919524489462240000001120149817402122410_);}
	.st31{clip-path:url(#SVGID_00000010279458824523106880000014645033513780489870_);}
	.st32{fill:#86C62F;}
	.st33{fill:#ECEFF9;}
	.st34{fill:#FCAA06;}
	.st35{fill:#DAE4EA;}
	.st36{fill:#14AFF4;}
	.st37{fill:#CCD6DB;}
	.st38{fill:#F6B545;}
	.st39{fill:#0091EA;}
	.st40{fill:#FF5850;}
	.st41{fill:#EA4242;}
	.st42{fill:#D4E3EE;}
	.st43{fill:none;}
	.st44{fill:#F2FFDB;}
</style>
<g id="popup-4" transform="translate(-41 -527.53)">
	<g id="Rectangle_840" transform="translate(41 527.53)">
		<g>
			<path class="st0" d="M656,133.5H30c-3.8,0-7.6-0.8-11.1-2.2c-3.4-1.4-6.4-3.5-9.1-6.1c-2.6-2.6-4.7-5.7-6.1-9.1
				c-1.5-3.5-2.2-7.2-2.2-11.1V30c0-3.8,0.8-7.6,2.2-11.1c1.4-3.4,3.5-6.4,6.1-9.1s5.7-4.7,9.1-6.1c3.5-1.5,7.2-2.2,11.1-2.2h626
				c3.8,0,7.6,0.8,11.1,2.2c3.4,1.4,6.4,3.5,9.1,6.1s4.7,5.7,6.1,9.1c1.5,3.5,2.2,7.2,2.2,11.1v75c0,3.8-0.8,7.6-2.2,11.1
				c-1.4,3.4-3.5,6.4-6.1,9.1c-2.6,2.6-5.7,4.7-9.1,6.1C663.6,132.7,659.8,133.5,656,133.5z"/>
		</g>
		<g>
			<path class="st1" d="M30,3c-3.6,0-7.2,0.7-10.5,2.1c-3.2,1.4-6.1,3.3-8.6,5.8c-2.5,2.5-4.4,5.4-5.8,8.6C3.7,22.8,3,26.4,3,30v75
				c0,3.6,0.7,7.2,2.1,10.5c1.4,3.2,3.3,6.1,5.8,8.6c2.5,2.5,5.4,4.4,8.6,5.8c3.3,1.4,6.9,2.1,10.5,2.1h626c3.6,0,7.2-0.7,10.5-2.1
				c3.2-1.4,6.1-3.3,8.6-5.8c2.5-2.5,4.4-5.4,5.8-8.6c1.4-3.3,2.1-6.9,2.1-10.5V30c0-3.6-0.7-7.2-2.1-10.5c-1.4-3.2-3.3-6.1-5.8-8.6
				c-2.5-2.5-5.4-4.4-8.6-5.8C663.2,3.7,659.6,3,656,3H30 M30,0h626c16.6,0,30,13.4,30,30v75c0,16.6-13.4,30-30,30H30
				c-16.6,0-30-13.4-30-30V30C0,13.4,13.4,0,30,0z"/>
		</g>
	</g>
	<g class="st2">
		<path class="st3" d="M176,590.4v-18.2h5.7l4.2,10.2h0.5l4.1-10.2h5.8v18.2h-4.1v-15.6l0.6,0l-4.8,11.8H184l-4.9-11.8l0.6,0v15.6
			H176z"/>
		<path class="st3" d="M202.6,590.1l-4.2-13.4h4l4,13.4H202.6z M199.9,595.8v-3.4h2.9c0.4,0,0.8-0.1,1.1-0.2s0.5-0.3,0.7-0.5
			c0.2-0.2,0.3-0.6,0.4-1l3.4-14h3.8l-3.8,14.8c-0.3,1.1-0.6,1.9-1.1,2.6s-1.1,1.1-1.9,1.4c-0.8,0.3-1.8,0.4-3,0.4H199.9z
			 M204.2,590.1V587h2.9v3.1H204.2z"/>
		<path class="st3" d="M228.2,590.9c-1.6,0-3.1-0.3-4.2-0.9s-2.2-1.3-2.9-2.3c-0.8-0.9-1.3-1.9-1.7-3c-0.4-1.1-0.5-2.2-0.5-3.2V581
			c0-1.1,0.2-2.3,0.6-3.4c0.4-1.1,0.9-2.1,1.7-3c0.8-0.9,1.7-1.6,2.9-2.2c1.2-0.5,2.5-0.8,4.1-0.8c1.7,0,3.1,0.3,4.4,0.9
			c1.3,0.6,2.3,1.5,3,2.6c0.8,1.1,1.2,2.4,1.3,3.8h-4.1c-0.1-0.7-0.4-1.4-0.8-1.9c-0.4-0.5-1-0.9-1.6-1.2c-0.6-0.3-1.4-0.4-2.2-0.4
			s-1.5,0.1-2.2,0.4c-0.6,0.3-1.2,0.7-1.6,1.2c-0.4,0.5-0.8,1.1-1,1.8c-0.2,0.7-0.3,1.5-0.3,2.4c0,0.9,0.1,1.6,0.3,2.3
			c0.2,0.7,0.6,1.3,1,1.8c0.4,0.5,1,0.9,1.6,1.2c0.6,0.3,1.4,0.4,2.2,0.4c1.3,0,2.3-0.3,3.2-0.9c0.9-0.6,1.4-1.5,1.6-2.5h4.1
			c-0.2,1.3-0.6,2.6-1.3,3.7s-1.8,2-3,2.7S229.9,590.9,228.2,590.9z"/>
		<path class="st3" d="M244.2,590.9c-1.6,0-2.8-0.5-3.6-1.5c-0.9-1-1.3-2.6-1.3-4.7v-8h4v8.2c0,0.7,0.2,1.3,0.6,1.8s1,0.6,1.7,0.6
			c0.7,0,1.3-0.2,1.7-0.7c0.4-0.5,0.7-1.1,0.7-1.8v-8h4v13.7h-3.2v-5.8h0.2c0,1.4-0.2,2.5-0.5,3.5c-0.3,0.9-0.9,1.6-1.6,2.1
			c-0.7,0.5-1.6,0.7-2.6,0.7H244.2z"/>
		<path class="st3" d="M260.9,590.9c-1.9,0-3.5-0.4-4.6-1.2c-1.1-0.8-1.7-1.9-1.8-3.4h3.5c0.1,0.4,0.3,0.8,0.8,1.2
			c0.5,0.3,1.1,0.5,2.1,0.5c0.7,0,1.3-0.1,1.7-0.4c0.5-0.2,0.7-0.6,0.7-1c0-0.4-0.2-0.7-0.5-1c-0.4-0.2-1-0.4-1.9-0.5l-1.1-0.1
			c-1.6-0.2-2.9-0.6-3.7-1.4c-0.8-0.7-1.2-1.7-1.2-2.9c0-1,0.2-1.8,0.7-2.4c0.5-0.7,1.2-1.1,2-1.5c0.9-0.3,1.8-0.5,2.9-0.5
			c1.8,0,3.2,0.4,4.3,1.2s1.7,1.9,1.7,3.4h-3.6c0-0.4-0.3-0.8-0.7-1.1c-0.4-0.3-1-0.5-1.8-0.5c-0.6,0-1.1,0.1-1.5,0.3
			c-0.4,0.2-0.5,0.5-0.5,1c0,0.4,0.2,0.7,0.5,0.9s0.8,0.3,1.6,0.4l1.1,0.1c1.7,0.2,3,0.6,3.9,1.4c0.9,0.8,1.4,1.8,1.4,3
			c0,0.9-0.2,1.7-0.8,2.4c-0.5,0.7-1.2,1.2-2.1,1.6C263.2,590.7,262.2,590.9,260.9,590.9z"/>
		<path class="st3" d="M267.9,579.7v-3h9.8v3H267.9z M275.8,590.6c-1.4,0-2.5-0.2-3.3-0.5c-0.9-0.3-1.5-0.9-1.9-1.7
			c-0.4-0.8-0.6-1.9-0.6-3.3l0-12.1h3.7v12.2c0,0.7,0.2,1.1,0.5,1.5c0.3,0.3,0.8,0.5,1.5,0.5h2v3.4H275.8z"/>
		<path class="st3" d="M287.1,590.9c-1.2,0-2.3-0.2-3.2-0.6s-1.7-0.9-2.4-1.5c-0.6-0.7-1.1-1.4-1.5-2.2c-0.3-0.8-0.5-1.7-0.5-2.7
			v-0.6c0-1,0.2-1.9,0.5-2.7s0.9-1.6,1.5-2.3c0.7-0.6,1.5-1.2,2.4-1.5c0.9-0.4,2-0.6,3.1-0.6c1.2,0,2.2,0.2,3.2,0.6
			c0.9,0.4,1.7,0.9,2.4,1.5c0.6,0.7,1.1,1.4,1.5,2.3s0.5,1.8,0.5,2.7v0.6c0,0.9-0.2,1.8-0.5,2.7s-0.8,1.6-1.5,2.2s-1.4,1.2-2.4,1.5
			C289.4,590.7,288.3,590.9,287.1,590.9z M287.1,587.5c0.8,0,1.4-0.2,2-0.5c0.5-0.3,0.9-0.8,1.2-1.4c0.3-0.6,0.4-1.3,0.4-2
			c0-0.8-0.1-1.5-0.4-2.1c-0.3-0.6-0.7-1.1-1.2-1.4c-0.5-0.3-1.2-0.5-1.9-0.5c-0.7,0-1.4,0.2-1.9,0.5c-0.5,0.3-0.9,0.8-1.2,1.4
			c-0.3,0.6-0.4,1.3-0.4,2.1c0,0.7,0.1,1.4,0.4,2c0.3,0.6,0.7,1.1,1.2,1.4C285.7,587.4,286.3,587.5,287.1,587.5z"/>
		<path class="st3" d="M297.4,590.4v-13.7h3.2v5.9h-0.2c0-1.4,0.2-2.6,0.5-3.5c0.4-0.9,0.9-1.6,1.6-2.1c0.7-0.5,1.6-0.7,2.6-0.7h0.2
			c1,0,1.9,0.2,2.6,0.7c0.7,0.5,1.2,1.2,1.6,2.1c0.4,0.9,0.5,2.1,0.5,3.5h-1c0-1.4,0.2-2.6,0.5-3.5c0.4-0.9,0.9-1.6,1.6-2.1
			c0.7-0.5,1.6-0.7,2.6-0.7h0.2c1,0,1.9,0.2,2.6,0.7c0.7,0.5,1.2,1.2,1.6,2.1c0.4,0.9,0.5,2.1,0.5,3.5v7.8h-4v-8
			c0-0.7-0.2-1.3-0.6-1.8c-0.4-0.5-0.9-0.7-1.6-0.7c-0.7,0-1.3,0.2-1.7,0.7s-0.6,1.1-0.6,1.9v8h-4v-8c0-0.7-0.2-1.3-0.6-1.8
			c-0.4-0.5-0.9-0.7-1.6-0.7c-0.7,0-1.3,0.2-1.7,0.7c-0.4,0.5-0.6,1.1-0.6,1.9v8H297.4z"/>
		<path class="st3" d="M327.5,590.4v-18.2h4.1v18.2H327.5z M331.1,590.4v-3.6h7.6v3.6H331.1z"/>
		<path class="st3" d="M347.3,590.9c-1.2,0-2.2-0.2-3.1-0.6c-0.9-0.4-1.6-0.9-2.2-1.6s-1.1-1.4-1.4-2.3c-0.3-0.8-0.5-1.7-0.5-2.6
			v-0.5c0-0.9,0.2-1.8,0.5-2.6c0.3-0.8,0.8-1.6,1.4-2.3c0.6-0.7,1.3-1.2,2.2-1.6c0.9-0.4,1.9-0.6,3-0.6c1.5,0,2.7,0.3,3.7,1
			c1,0.7,1.8,1.5,2.3,2.6c0.5,1.1,0.8,2.2,0.8,3.5v1.4h-12.1v-2.3h9.7l-1.3,1.1c0-0.8-0.1-1.5-0.3-2.1s-0.6-1-1-1.3
			c-0.5-0.3-1-0.5-1.7-0.5c-0.7,0-1.3,0.2-1.8,0.5s-0.8,0.8-1.1,1.4s-0.4,1.4-0.4,2.2c0,0.8,0.1,1.5,0.3,2.1s0.6,1.1,1.1,1.4
			c0.5,0.3,1.1,0.5,2,0.5c0.7,0,1.3-0.1,1.8-0.4c0.5-0.3,0.8-0.6,1-1h3.7c-0.2,0.9-0.6,1.7-1.2,2.5c-0.6,0.7-1.3,1.3-2.2,1.7
			S348.5,590.9,347.3,590.9z"/>
		<path class="st3" d="M361.8,590.9c-1.9,0-3.5-0.4-4.6-1.2c-1.1-0.8-1.7-1.9-1.8-3.4h3.5c0.1,0.4,0.3,0.8,0.8,1.2
			c0.5,0.3,1.1,0.5,2.1,0.5c0.7,0,1.3-0.1,1.7-0.4c0.5-0.2,0.7-0.6,0.7-1c0-0.4-0.2-0.7-0.5-1c-0.4-0.2-1-0.4-1.9-0.5l-1.1-0.1
			c-1.6-0.2-2.9-0.6-3.7-1.4c-0.8-0.7-1.2-1.7-1.2-2.9c0-1,0.2-1.8,0.7-2.4c0.5-0.7,1.2-1.1,2-1.5c0.9-0.3,1.8-0.5,2.9-0.5
			c1.8,0,3.2,0.4,4.3,1.2s1.7,1.9,1.7,3.4H364c0-0.4-0.3-0.8-0.7-1.1c-0.4-0.3-1-0.5-1.8-0.5c-0.6,0-1.1,0.1-1.5,0.3
			c-0.4,0.2-0.5,0.5-0.5,1c0,0.4,0.2,0.7,0.5,0.9s0.8,0.3,1.6,0.4l1.1,0.1c1.7,0.2,3,0.6,3.9,1.4c0.9,0.8,1.4,1.8,1.4,3
			c0,0.9-0.2,1.7-0.8,2.4c-0.5,0.7-1.2,1.2-2.1,1.6C364.2,590.7,363.1,590.9,361.8,590.9z"/>
		<path class="st3" d="M375.7,590.9c-1.9,0-3.5-0.4-4.6-1.2c-1.1-0.8-1.7-1.9-1.8-3.4h3.5c0.1,0.4,0.3,0.8,0.8,1.2
			c0.5,0.3,1.1,0.5,2.1,0.5c0.7,0,1.3-0.1,1.7-0.4c0.5-0.2,0.7-0.6,0.7-1c0-0.4-0.2-0.7-0.5-1c-0.4-0.2-1-0.4-1.9-0.5l-1.1-0.1
			c-1.6-0.2-2.9-0.6-3.7-1.4c-0.8-0.7-1.2-1.7-1.2-2.9c0-1,0.2-1.8,0.7-2.4c0.5-0.7,1.2-1.1,2-1.5c0.9-0.3,1.8-0.5,2.9-0.5
			c1.8,0,3.2,0.4,4.3,1.2s1.7,1.9,1.7,3.4h-3.6c0-0.4-0.3-0.8-0.7-1.1c-0.4-0.3-1-0.5-1.8-0.5c-0.6,0-1.1,0.1-1.5,0.3
			c-0.4,0.2-0.5,0.5-0.5,1c0,0.4,0.2,0.7,0.5,0.9s0.8,0.3,1.6,0.4l1.1,0.1c1.7,0.2,3,0.6,3.9,1.4c0.9,0.8,1.4,1.8,1.4,3
			c0,0.9-0.2,1.7-0.8,2.4c-0.5,0.7-1.2,1.2-2.1,1.6C378.1,590.7,377,590.9,375.7,590.9z"/>
		<path class="st3" d="M391.1,590.9c-1.2,0-2.3-0.2-3.2-0.6s-1.7-0.9-2.4-1.5c-0.6-0.7-1.1-1.4-1.5-2.2c-0.3-0.8-0.5-1.7-0.5-2.7
			v-0.6c0-1,0.2-1.9,0.5-2.7c0.4-0.9,0.9-1.6,1.5-2.3c0.7-0.6,1.5-1.2,2.4-1.5s2-0.6,3.1-0.6c1.2,0,2.2,0.2,3.2,0.6
			c0.9,0.4,1.7,0.9,2.4,1.5c0.6,0.7,1.1,1.4,1.5,2.3c0.3,0.9,0.5,1.8,0.5,2.7v0.6c0,0.9-0.2,1.8-0.5,2.7s-0.8,1.6-1.5,2.2
			c-0.6,0.7-1.4,1.2-2.4,1.5S392.3,590.9,391.1,590.9z M391.1,587.5c0.8,0,1.4-0.2,2-0.5c0.5-0.3,0.9-0.8,1.2-1.4
			c0.3-0.6,0.4-1.3,0.4-2c0-0.8-0.1-1.5-0.4-2.1c-0.3-0.6-0.7-1.1-1.2-1.4c-0.5-0.3-1.2-0.5-1.9-0.5c-0.7,0-1.4,0.2-1.9,0.5
			c-0.5,0.3-0.9,0.8-1.2,1.4c-0.3,0.6-0.4,1.3-0.4,2.1c0,0.7,0.1,1.4,0.4,2c0.3,0.6,0.7,1.1,1.2,1.4
			C389.7,587.4,390.4,587.5,391.1,587.5z"/>
		<path class="st3" d="M401.4,590.4v-13.7h3.2v5.9h-0.2c0-1.4,0.2-2.6,0.5-3.5c0.4-0.9,0.9-1.6,1.6-2.1s1.6-0.7,2.7-0.7h0.2
			c1.6,0,2.8,0.5,3.7,1.6c0.8,1,1.3,2.6,1.3,4.7v7.8h-4v-8c0-0.7-0.2-1.3-0.6-1.8c-0.4-0.5-1-0.7-1.7-0.7c-0.8,0-1.4,0.2-1.8,0.7
			c-0.5,0.5-0.7,1.1-0.7,1.9v8H401.4z"/>
		<path class="st3" d="M423,590.9c-1.9,0-3.5-0.4-4.6-1.2c-1.1-0.8-1.7-1.9-1.8-3.4h3.5c0.1,0.4,0.3,0.8,0.8,1.2s1.1,0.5,2.1,0.5
			c0.7,0,1.3-0.1,1.7-0.4c0.5-0.2,0.7-0.6,0.7-1c0-0.4-0.2-0.7-0.5-1c-0.4-0.2-1-0.4-1.9-0.5L422,585c-1.7-0.2-2.9-0.6-3.7-1.4
			c-0.8-0.7-1.2-1.7-1.2-2.9c0-1,0.2-1.8,0.7-2.4c0.5-0.7,1.2-1.1,2-1.5c0.9-0.3,1.8-0.5,2.9-0.5c1.8,0,3.2,0.4,4.3,1.2
			c1.1,0.8,1.7,1.9,1.7,3.4h-3.6c-0.1-0.4-0.3-0.8-0.7-1.1c-0.4-0.3-1-0.5-1.8-0.5c-0.6,0-1.1,0.1-1.5,0.3c-0.4,0.2-0.5,0.5-0.5,1
			c0,0.4,0.2,0.7,0.5,0.9s0.8,0.3,1.5,0.4l1.1,0.1c1.7,0.2,3,0.6,3.9,1.4c0.9,0.8,1.4,1.8,1.4,3c0,0.9-0.2,1.7-0.8,2.4
			c-0.5,0.7-1.2,1.2-2.1,1.6C425.3,590.7,424.2,590.9,423,590.9z"/>
	</g>
	<g class="st2">
		<path class="st4" d="M175.5,622.4v-12.4h1.5v11h5.7v1.3H175.5z"/>
		<path class="st4" d="M188.8,622.6c-0.9,0-1.7-0.2-2.3-0.6s-1.1-1-1.5-1.7c-0.3-0.7-0.5-1.5-0.5-2.5c0-1,0.2-1.8,0.5-2.5
			s0.8-1.3,1.5-1.7c0.6-0.4,1.4-0.6,2.2-0.6c0.5,0,1,0.1,1.4,0.2c0.5,0.2,0.9,0.4,1.3,0.8c0.4,0.4,0.7,0.8,0.9,1.4s0.3,1.3,0.3,2.2
			v0.6h-7.1V617h5.7c0-0.5-0.1-1-0.3-1.4c-0.2-0.4-0.5-0.7-0.9-1c-0.4-0.2-0.8-0.4-1.3-0.4c-0.6,0-1.1,0.1-1.5,0.4
			c-0.4,0.3-0.7,0.6-1,1.1c-0.2,0.4-0.3,0.9-0.3,1.4v0.8c0,0.7,0.1,1.3,0.4,1.8c0.2,0.5,0.6,0.9,1,1.1c0.4,0.3,0.9,0.4,1.5,0.4
			c0.4,0,0.7-0.1,1-0.2c0.3-0.1,0.6-0.3,0.8-0.5c0.2-0.2,0.4-0.5,0.5-0.8l1.4,0.4c-0.1,0.5-0.4,0.9-0.7,1.2
			c-0.3,0.4-0.8,0.6-1.3,0.8C189.9,622.5,189.4,622.6,188.8,622.6z"/>
		<path class="st4" d="M201.3,615.2l-1.3,0.4c-0.1-0.2-0.2-0.4-0.4-0.6c-0.2-0.2-0.4-0.4-0.6-0.5s-0.6-0.2-1-0.2
			c-0.6,0-1,0.1-1.4,0.4s-0.6,0.6-0.6,1c0,0.4,0.1,0.6,0.4,0.8c0.3,0.2,0.7,0.4,1.2,0.5l1.4,0.3c0.8,0.2,1.4,0.5,1.9,0.9
			c0.4,0.4,0.6,0.9,0.6,1.6c0,0.5-0.2,1-0.5,1.4c-0.3,0.4-0.7,0.7-1.3,1c-0.5,0.2-1.2,0.4-1.9,0.4c-0.9,0-1.7-0.2-2.3-0.6
			c-0.6-0.4-1-1-1.2-1.8l1.4-0.3c0.1,0.5,0.4,0.9,0.7,1.1c0.4,0.2,0.8,0.4,1.4,0.4c0.7,0,1.2-0.1,1.6-0.4c0.4-0.3,0.6-0.6,0.6-1
			c0-0.3-0.1-0.6-0.3-0.8c-0.2-0.2-0.6-0.4-1-0.5l-1.5-0.4c-0.8-0.2-1.5-0.5-1.9-0.9s-0.6-1-0.6-1.6c0-0.5,0.1-1,0.4-1.4
			s0.7-0.7,1.2-0.9c0.5-0.2,1.1-0.3,1.7-0.3c0.9,0,1.6,0.2,2.2,0.6C200.7,614,201.1,614.6,201.3,615.2z"/>
		<path class="st4" d="M210.2,615.2l-1.3,0.4c-0.1-0.2-0.2-0.4-0.4-0.6c-0.2-0.2-0.4-0.4-0.6-0.5s-0.6-0.2-1-0.2
			c-0.6,0-1,0.1-1.4,0.4s-0.6,0.6-0.6,1c0,0.4,0.1,0.6,0.4,0.8c0.3,0.2,0.7,0.4,1.2,0.5l1.4,0.3c0.8,0.2,1.4,0.5,1.9,0.9
			c0.4,0.4,0.6,0.9,0.6,1.6c0,0.5-0.2,1-0.5,1.4c-0.3,0.4-0.7,0.7-1.3,1c-0.5,0.2-1.2,0.4-1.9,0.4c-0.9,0-1.7-0.2-2.3-0.6
			c-0.6-0.4-1-1-1.2-1.8l1.4-0.3c0.1,0.5,0.4,0.9,0.7,1.1c0.4,0.2,0.8,0.4,1.4,0.4c0.7,0,1.2-0.1,1.6-0.4c0.4-0.3,0.6-0.6,0.6-1
			c0-0.3-0.1-0.6-0.3-0.8c-0.2-0.2-0.6-0.4-1-0.5l-1.5-0.4c-0.8-0.2-1.5-0.5-1.9-0.9s-0.6-1-0.6-1.6c0-0.5,0.1-1,0.4-1.4
			s0.7-0.7,1.2-0.9c0.5-0.2,1.1-0.3,1.7-0.3c0.9,0,1.6,0.2,2.2,0.6C209.6,614,210,614.6,210.2,615.2z"/>
		<path class="st4" d="M216.3,622.6c-0.8,0-1.6-0.2-2.2-0.6s-1.1-1-1.5-1.7c-0.4-0.7-0.5-1.6-0.5-2.5c0-1,0.2-1.8,0.5-2.5
			c0.4-0.7,0.8-1.3,1.5-1.7s1.4-0.6,2.2-0.6c0.8,0,1.6,0.2,2.2,0.6s1.1,1,1.5,1.7c0.4,0.7,0.5,1.6,0.5,2.5c0,1-0.2,1.8-0.5,2.5
			c-0.4,0.7-0.8,1.3-1.5,1.7S217.1,622.6,216.3,622.6z M216.3,621.3c0.6,0,1.2-0.2,1.6-0.5c0.4-0.3,0.7-0.8,0.9-1.3s0.3-1.1,0.3-1.7
			s-0.1-1.2-0.3-1.7s-0.5-1-0.9-1.3s-0.9-0.5-1.6-0.5c-0.6,0-1.2,0.2-1.6,0.5s-0.7,0.8-0.9,1.3s-0.3,1.1-0.3,1.7s0.1,1.2,0.3,1.7
			s0.5,1,0.9,1.3C215.1,621.2,215.7,621.3,216.3,621.3z"/>
		<path class="st4" d="M224.1,616.8v5.6h-1.4v-9.3h1.4v1.4h0.1c0.2-0.5,0.5-0.8,1-1.1c0.4-0.3,1-0.4,1.7-0.4c0.6,0,1.2,0.1,1.6,0.4
			c0.5,0.3,0.8,0.6,1.1,1.2c0.3,0.5,0.4,1.2,0.4,2v5.9h-1.4v-5.8c0-0.7-0.2-1.3-0.6-1.7c-0.4-0.4-0.9-0.6-1.6-0.6
			c-0.5,0-0.9,0.1-1.2,0.3c-0.4,0.2-0.6,0.5-0.8,0.9C224.2,615.8,224.1,616.3,224.1,616.8z"/>
		<path class="st4" d="M239.2,615.2l-1.3,0.4c-0.1-0.2-0.2-0.4-0.4-0.6c-0.2-0.2-0.4-0.4-0.6-0.5s-0.6-0.2-1-0.2
			c-0.6,0-1,0.1-1.4,0.4s-0.6,0.6-0.6,1c0,0.4,0.1,0.6,0.4,0.8c0.3,0.2,0.7,0.4,1.2,0.5l1.4,0.3c0.8,0.2,1.4,0.5,1.9,0.9
			c0.4,0.4,0.6,0.9,0.6,1.6c0,0.5-0.2,1-0.5,1.4c-0.3,0.4-0.7,0.7-1.3,1c-0.5,0.2-1.2,0.4-1.9,0.4c-0.9,0-1.7-0.2-2.3-0.6
			c-0.6-0.4-1-1-1.2-1.8l1.4-0.3c0.1,0.5,0.4,0.9,0.7,1.1c0.4,0.2,0.8,0.4,1.4,0.4c0.7,0,1.2-0.1,1.6-0.4c0.4-0.3,0.6-0.6,0.6-1
			c0-0.3-0.1-0.6-0.3-0.8c-0.2-0.2-0.6-0.4-1-0.5l-1.5-0.4c-0.8-0.2-1.5-0.5-1.9-0.9s-0.6-1-0.6-1.6c0-0.5,0.1-1,0.4-1.4
			s0.7-0.7,1.2-0.9c0.5-0.2,1.1-0.3,1.7-0.3c0.9,0,1.6,0.2,2.2,0.6C238.6,614,239,614.6,239.2,615.2z"/>
		<path class="st4" d="M250.1,622.6c-0.9,0-1.6-0.2-2.2-0.6c-0.6-0.4-1.1-1-1.4-1.7c-0.3-0.7-0.5-1.5-0.5-2.5c0-0.9,0.2-1.8,0.5-2.5
			c0.3-0.7,0.8-1.3,1.5-1.7c0.6-0.4,1.4-0.6,2.2-0.6c0.7,0,1.2,0.1,1.8,0.4c0.5,0.2,1,0.6,1.3,1c0.3,0.4,0.5,0.9,0.6,1.5h-1.4
			c-0.1-0.4-0.3-0.8-0.7-1.1c-0.4-0.3-0.9-0.5-1.5-0.5c-0.6,0-1,0.1-1.5,0.4c-0.4,0.3-0.7,0.7-1,1.2c-0.2,0.5-0.3,1.1-0.3,1.8
			c0,0.7,0.1,1.3,0.3,1.9c0.2,0.5,0.5,0.9,1,1.2s0.9,0.4,1.5,0.4c0.4,0,0.7-0.1,1-0.2c0.3-0.1,0.6-0.3,0.8-0.6
			c0.2-0.2,0.4-0.5,0.4-0.9h1.4c-0.1,0.5-0.3,1-0.6,1.5s-0.7,0.8-1.2,1C251.3,622.5,250.7,622.6,250.1,622.6z"/>
		<path class="st4" d="M255.8,622.4v-9.3h1.4v1.4h0.1c0.2-0.5,0.5-0.8,0.9-1.1c0.4-0.3,0.9-0.4,1.5-0.4c0.1,0,0.2,0,0.4,0
			c0.2,0,0.3,0,0.4,0v1.4c0,0-0.2,0-0.3-0.1s-0.4,0-0.5,0c-0.5,0-0.9,0.1-1.2,0.3c-0.4,0.2-0.6,0.4-0.8,0.8
			c-0.2,0.3-0.3,0.7-0.3,1.1v5.9H255.8z"/>
		<path class="st4" d="M265.7,622.6c-0.9,0-1.7-0.2-2.3-0.6s-1.1-1-1.5-1.7c-0.3-0.7-0.5-1.5-0.5-2.5c0-1,0.2-1.8,0.5-2.5
			s0.8-1.3,1.5-1.7c0.6-0.4,1.4-0.6,2.2-0.6c0.5,0,1,0.1,1.4,0.2c0.5,0.2,0.9,0.4,1.3,0.8c0.4,0.4,0.7,0.8,0.9,1.4s0.3,1.3,0.3,2.2
			v0.6h-7.1V617h5.7c0-0.5-0.1-1-0.3-1.4c-0.2-0.4-0.5-0.7-0.9-1c-0.4-0.2-0.8-0.4-1.3-0.4c-0.6,0-1.1,0.1-1.5,0.4
			c-0.4,0.3-0.7,0.6-1,1.1c-0.2,0.4-0.3,0.9-0.3,1.4v0.8c0,0.7,0.1,1.3,0.4,1.8c0.2,0.5,0.6,0.9,1,1.1c0.4,0.3,0.9,0.4,1.5,0.4
			c0.4,0,0.7-0.1,1-0.2c0.3-0.1,0.6-0.3,0.8-0.5c0.2-0.2,0.4-0.5,0.5-0.8l1.4,0.4c-0.1,0.5-0.4,0.9-0.7,1.2
			c-0.3,0.4-0.8,0.6-1.3,0.8C266.9,622.5,266.3,622.6,265.7,622.6z"/>
		<path class="st4" d="M274.5,622.6c-0.6,0-1.1-0.1-1.6-0.3c-0.5-0.2-0.9-0.5-1.1-1s-0.4-0.9-0.4-1.5c0-0.5,0.1-1,0.3-1.3
			c0.2-0.3,0.5-0.6,0.8-0.8c0.4-0.2,0.7-0.3,1.2-0.4c0.4-0.1,0.9-0.2,1.3-0.2c0.6-0.1,1-0.1,1.4-0.2c0.4,0,0.6-0.1,0.8-0.2
			c0.2-0.1,0.2-0.3,0.2-0.5v0c0-0.6-0.2-1.1-0.5-1.4c-0.3-0.3-0.8-0.5-1.5-0.5c-0.7,0-1.2,0.1-1.6,0.4s-0.7,0.6-0.8,1l-1.4-0.5
			c0.2-0.6,0.6-1,1-1.3c0.4-0.3,0.8-0.5,1.3-0.7s1-0.2,1.4-0.2c0.3,0,0.6,0,1,0.1c0.4,0.1,0.8,0.2,1.1,0.4c0.4,0.2,0.7,0.5,0.9,1
			c0.2,0.4,0.4,1,0.4,1.8v6.1h-1.4v-1.3h-0.1c-0.1,0.2-0.3,0.4-0.5,0.6c-0.2,0.2-0.5,0.4-0.9,0.6C275.4,622.6,275,622.6,274.5,622.6
			z M274.7,621.4c0.6,0,1-0.1,1.4-0.3c0.4-0.2,0.7-0.5,0.9-0.9c0.2-0.3,0.3-0.7,0.3-1.1v-1.3c-0.1,0.1-0.2,0.1-0.4,0.2
			c-0.2,0.1-0.4,0.1-0.7,0.2s-0.5,0.1-0.8,0.1s-0.4,0.1-0.6,0.1c-0.4,0-0.7,0.1-1,0.2c-0.3,0.1-0.6,0.3-0.8,0.5s-0.3,0.5-0.3,0.9
			c0,0.5,0.2,0.9,0.6,1.1C273.6,621.2,274.1,621.4,274.7,621.4z"/>
		<path class="st4" d="M285.3,613.1v1.2h-4.8v-1.2H285.3z M281.9,610.9h1.4v8.8c0,0.4,0.1,0.7,0.2,0.9s0.3,0.3,0.5,0.4
			c0.2,0.1,0.4,0.1,0.6,0.1c0.2,0,0.3,0,0.4,0c0.1,0,0.2,0,0.2,0l0.3,1.3c-0.1,0-0.2,0.1-0.4,0.1c-0.2,0-0.4,0.1-0.7,0.1
			c-0.4,0-0.8-0.1-1.2-0.3c-0.4-0.2-0.7-0.4-1-0.8s-0.4-0.8-0.4-1.3V610.9z"/>
		<path class="st4" d="M291.3,622.6c-0.9,0-1.7-0.2-2.3-0.6s-1.1-1-1.5-1.7c-0.3-0.7-0.5-1.5-0.5-2.5c0-1,0.2-1.8,0.5-2.5
			s0.8-1.3,1.5-1.7c0.6-0.4,1.4-0.6,2.2-0.6c0.5,0,1,0.1,1.4,0.2c0.5,0.2,0.9,0.4,1.3,0.8c0.4,0.4,0.7,0.8,0.9,1.4s0.3,1.3,0.3,2.2
			v0.6H288V617h5.7c0-0.5-0.1-1-0.3-1.4c-0.2-0.4-0.5-0.7-0.9-1c-0.4-0.2-0.8-0.4-1.3-0.4c-0.6,0-1.1,0.1-1.5,0.4
			c-0.4,0.3-0.7,0.6-1,1.1c-0.2,0.4-0.3,0.9-0.3,1.4v0.8c0,0.7,0.1,1.3,0.4,1.8c0.2,0.5,0.6,0.9,1,1.1c0.4,0.3,0.9,0.4,1.5,0.4
			c0.4,0,0.7-0.1,1-0.2c0.3-0.1,0.6-0.3,0.8-0.5c0.2-0.2,0.4-0.5,0.5-0.8l1.4,0.4c-0.1,0.5-0.4,0.9-0.7,1.2
			c-0.3,0.4-0.8,0.6-1.3,0.8C292.5,622.5,291.9,622.6,291.3,622.6z"/>
		<path class="st4" d="M300.8,622.6c-0.8,0-1.5-0.2-2-0.6c-0.6-0.4-1.1-0.9-1.4-1.7c-0.3-0.7-0.5-1.6-0.5-2.6c0-1,0.2-1.8,0.5-2.5
			c0.3-0.7,0.8-1.3,1.4-1.7c0.6-0.4,1.3-0.6,2.1-0.6c0.6,0,1.1,0.1,1.4,0.3s0.6,0.4,0.8,0.7c0.2,0.3,0.3,0.5,0.4,0.6h0.1v-4.6h1.4
			v12.4h-1.4V621h-0.2c-0.1,0.2-0.3,0.4-0.4,0.6c-0.2,0.3-0.5,0.5-0.8,0.7C301.9,622.5,301.4,622.6,300.8,622.6z M301,621.3
			c0.6,0,1.1-0.1,1.4-0.4s0.7-0.7,0.9-1.2c0.2-0.5,0.3-1.2,0.3-1.9c0-0.7-0.1-1.3-0.3-1.8c-0.2-0.5-0.5-0.9-0.9-1.2
			s-0.9-0.4-1.5-0.4c-0.6,0-1.1,0.2-1.5,0.5c-0.4,0.3-0.7,0.7-0.9,1.2s-0.3,1.1-0.3,1.8c0,0.7,0.1,1.3,0.3,1.8
			c0.2,0.5,0.5,1,0.9,1.3C299.9,621.2,300.4,621.3,301,621.3z"/>
		<path class="st4" d="M316.8,613.1v1.2h-5v-1.2H316.8z M313.3,622.4v-10.6c0-0.5,0.1-1,0.4-1.3c0.2-0.4,0.6-0.6,1-0.8
			c0.4-0.2,0.8-0.3,1.3-0.3c0.4,0,0.6,0,0.9,0.1c0.2,0.1,0.4,0.1,0.5,0.2l-0.4,1.2c-0.1,0-0.2-0.1-0.3-0.1c-0.1,0-0.3-0.1-0.5-0.1
			c-0.5,0-0.8,0.1-1,0.4c-0.2,0.2-0.3,0.6-0.3,1v10.2H313.3z"/>
		<path class="st4" d="M322.1,622.6c-0.8,0-1.6-0.2-2.2-0.6s-1.1-1-1.5-1.7c-0.4-0.7-0.5-1.6-0.5-2.5c0-1,0.2-1.8,0.5-2.5
			c0.4-0.7,0.8-1.3,1.5-1.7s1.4-0.6,2.2-0.6c0.8,0,1.6,0.2,2.2,0.6s1.1,1,1.5,1.7c0.4,0.7,0.5,1.6,0.5,2.5c0,1-0.2,1.8-0.5,2.5
			c-0.4,0.7-0.8,1.3-1.5,1.7S323,622.6,322.1,622.6z M322.1,621.3c0.6,0,1.2-0.2,1.6-0.5c0.4-0.3,0.7-0.8,0.9-1.3s0.3-1.1,0.3-1.7
			s-0.1-1.2-0.3-1.7s-0.5-1-0.9-1.3s-0.9-0.5-1.6-0.5c-0.6,0-1.2,0.2-1.6,0.5s-0.7,0.8-0.9,1.3s-0.3,1.1-0.3,1.7s0.1,1.2,0.3,1.7
			s0.5,1,0.9,1.3C321,621.2,321.5,621.3,322.1,621.3z"/>
		<path class="st4" d="M328.5,622.4v-9.3h1.4v1.4h0.1c0.2-0.5,0.5-0.8,0.9-1.1c0.4-0.3,0.9-0.4,1.5-0.4c0.1,0,0.2,0,0.4,0
			c0.2,0,0.3,0,0.4,0v1.4c0,0-0.2,0-0.3-0.1s-0.4,0-0.5,0c-0.5,0-0.9,0.1-1.2,0.3c-0.4,0.2-0.6,0.4-0.8,0.8
			c-0.2,0.3-0.3,0.7-0.3,1.1v5.9H328.5z"/>
		<path class="st4" d="M340.5,625.9c-0.2,0-0.5,0-0.6-0.1c-0.2,0-0.3-0.1-0.4-0.1l0.4-1.3c0.3,0.1,0.7,0.1,0.9,0.1
			c0.3,0,0.5-0.1,0.7-0.4s0.4-0.6,0.6-1l0.3-0.7l-3.4-9.3h1.5l2.6,7.4h0.1l2.6-7.4h1.5l-3.9,10.6c-0.2,0.5-0.4,0.9-0.7,1.2
			c-0.3,0.3-0.6,0.5-0.9,0.7C341.4,625.8,341,625.9,340.5,625.9z"/>
		<path class="st4" d="M352.5,622.6c-0.8,0-1.6-0.2-2.2-0.6s-1.1-1-1.5-1.7c-0.4-0.7-0.5-1.6-0.5-2.5c0-1,0.2-1.8,0.5-2.5
			c0.4-0.7,0.8-1.3,1.5-1.7s1.4-0.6,2.2-0.6c0.8,0,1.6,0.2,2.2,0.6s1.1,1,1.5,1.7c0.4,0.7,0.5,1.6,0.5,2.5c0,1-0.2,1.8-0.5,2.5
			c-0.4,0.7-0.8,1.3-1.5,1.7S353.4,622.6,352.5,622.6z M352.5,621.3c0.6,0,1.2-0.2,1.6-0.5c0.4-0.3,0.7-0.8,0.9-1.3s0.3-1.1,0.3-1.7
			s-0.1-1.2-0.3-1.7s-0.5-1-0.9-1.3s-0.9-0.5-1.6-0.5c-0.6,0-1.2,0.2-1.6,0.5s-0.7,0.8-0.9,1.3s-0.3,1.1-0.3,1.7s0.1,1.2,0.3,1.7
			s0.5,1,0.9,1.3C351.4,621.2,351.9,621.3,352.5,621.3z"/>
		<path class="st4" d="M364.7,618.6v-5.5h1.4v9.3h-1.4v-1.6h-0.1c-0.2,0.5-0.6,0.9-1,1.2c-0.5,0.3-1,0.5-1.7,0.5
			c-0.6,0-1.1-0.1-1.5-0.4s-0.8-0.6-1.1-1.2c-0.3-0.5-0.4-1.2-0.4-2v-5.9h1.4v5.8c0,0.7,0.2,1.2,0.6,1.6s0.9,0.6,1.5,0.6
			c0.4,0,0.7-0.1,1.1-0.3s0.7-0.5,0.9-0.8S364.7,619.2,364.7,618.6z"/>
		<path class="st4" d="M373.7,622.4v-12.4h1.4v4.6h0.1c0.1-0.2,0.3-0.4,0.4-0.6c0.2-0.3,0.5-0.5,0.8-0.7c0.4-0.2,0.8-0.3,1.4-0.3
			c0.8,0,1.5,0.2,2.1,0.6s1.1,0.9,1.4,1.7c0.3,0.7,0.5,1.6,0.5,2.5c0,1-0.2,1.8-0.5,2.6s-0.8,1.3-1.4,1.7c-0.6,0.4-1.3,0.6-2,0.6
			c-0.6,0-1.1-0.1-1.4-0.3s-0.6-0.4-0.8-0.7c-0.2-0.3-0.3-0.5-0.4-0.6h-0.2v1.4H373.7z M375.1,617.8c0,0.7,0.1,1.3,0.3,1.9
			s0.5,1,0.9,1.2s0.9,0.4,1.4,0.4c0.6,0,1.1-0.2,1.5-0.5c0.4-0.3,0.7-0.7,0.9-1.3c0.2-0.5,0.3-1.1,0.3-1.8c0-0.7-0.1-1.2-0.3-1.8
			s-0.5-0.9-0.9-1.2c-0.4-0.3-0.9-0.5-1.5-0.5c-0.6,0-1.1,0.1-1.5,0.4c-0.4,0.3-0.7,0.7-0.9,1.2
			C375.2,616.5,375.1,617.1,375.1,617.8z"/>
		<path class="st4" d="M384.7,625.9c-0.2,0-0.5,0-0.6-0.1s-0.3-0.1-0.4-0.1l0.4-1.3c0.3,0.1,0.7,0.1,0.9,0.1c0.3,0,0.5-0.1,0.7-0.4
			s0.4-0.6,0.6-1l0.3-0.7l-3.4-9.3h1.5l2.6,7.4h0.1l2.6-7.4h1.5l-3.9,10.6c-0.2,0.5-0.4,0.9-0.7,1.2c-0.3,0.3-0.6,0.5-0.9,0.7
			C385.5,625.8,385.1,625.9,384.7,625.9z"/>
		<path class="st4" d="M398.9,625.9c-0.2,0-0.5,0-0.6-0.1c-0.2,0-0.3-0.1-0.4-0.1l0.4-1.3c0.3,0.1,0.7,0.1,0.9,0.1
			c0.3,0,0.5-0.1,0.7-0.4s0.4-0.6,0.6-1l0.3-0.7l-3.4-9.3h1.5l2.6,7.4h0.1l2.6-7.4h1.5l-3.9,10.6c-0.2,0.5-0.4,0.9-0.7,1.2
			c-0.3,0.3-0.6,0.5-0.9,0.7C399.8,625.8,399.4,625.9,398.9,625.9z"/>
		<path class="st4" d="M410.9,622.6c-0.8,0-1.6-0.2-2.2-0.6s-1.1-1-1.5-1.7c-0.4-0.7-0.5-1.6-0.5-2.5c0-1,0.2-1.8,0.5-2.5
			c0.4-0.7,0.8-1.3,1.5-1.7s1.4-0.6,2.2-0.6s1.6,0.2,2.2,0.6c0.6,0.4,1.1,1,1.5,1.7c0.4,0.7,0.5,1.6,0.5,2.5c0,1-0.2,1.8-0.5,2.5
			c-0.4,0.7-0.8,1.3-1.5,1.7C412.5,622.4,411.7,622.6,410.9,622.6z M410.9,621.3c0.6,0,1.2-0.2,1.6-0.5c0.4-0.3,0.7-0.8,0.9-1.3
			s0.3-1.1,0.3-1.7s-0.1-1.2-0.3-1.7s-0.5-1-0.9-1.3c-0.4-0.3-0.9-0.5-1.6-0.5s-1.2,0.2-1.6,0.5s-0.7,0.8-0.9,1.3s-0.3,1.1-0.3,1.7
			s0.1,1.2,0.3,1.7s0.5,1,0.9,1.3C409.8,621.2,410.3,621.3,410.9,621.3z"/>
		<path class="st4" d="M423.1,618.6v-5.5h1.4v9.3h-1.4v-1.6H423c-0.2,0.5-0.6,0.9-1,1.2s-1,0.5-1.7,0.5c-0.6,0-1.1-0.1-1.5-0.4
			s-0.8-0.6-1.1-1.2c-0.3-0.5-0.4-1.2-0.4-2v-5.9h1.4v5.8c0,0.7,0.2,1.2,0.6,1.6c0.4,0.4,0.9,0.6,1.5,0.6c0.4,0,0.7-0.1,1.1-0.3
			s0.7-0.5,0.9-0.8S423.1,619.2,423.1,618.6z"/>
		<path class="st4" d="M427.2,622.4v-9.3h1.4v1.4h0.1c0.2-0.5,0.5-0.8,0.9-1.1c0.4-0.3,0.9-0.4,1.5-0.4c0.1,0,0.2,0,0.4,0
			c0.2,0,0.3,0,0.4,0v1.4c0,0-0.2,0-0.3-0.1c-0.2,0-0.4,0-0.5,0c-0.5,0-0.9,0.1-1.2,0.3c-0.4,0.2-0.6,0.4-0.8,0.8
			c-0.2,0.3-0.3,0.7-0.3,1.1v5.9H427.2z"/>
		<path class="st4" d="M442.3,613.1v1.2h-4.8v-1.2H442.3z M438.9,610.9h1.4v8.8c0,0.4,0.1,0.7,0.2,0.9s0.3,0.3,0.5,0.4
			c0.2,0.1,0.4,0.1,0.6,0.1c0.2,0,0.3,0,0.4,0c0.1,0,0.2,0,0.2,0l0.3,1.3c-0.1,0-0.2,0.1-0.4,0.1s-0.4,0.1-0.7,0.1
			c-0.4,0-0.8-0.1-1.2-0.3c-0.4-0.2-0.7-0.4-1-0.8s-0.4-0.8-0.4-1.3V610.9z"/>
		<path class="st4" d="M448.2,622.6c-0.9,0-1.7-0.2-2.3-0.6s-1.1-1-1.5-1.7c-0.3-0.7-0.5-1.5-0.5-2.5c0-1,0.2-1.8,0.5-2.5
			s0.8-1.3,1.5-1.7c0.6-0.4,1.4-0.6,2.2-0.6c0.5,0,1,0.1,1.4,0.2c0.5,0.2,0.9,0.4,1.3,0.8c0.4,0.4,0.7,0.8,0.9,1.4
			c0.2,0.6,0.3,1.3,0.3,2.2v0.6h-7.1V617h5.7c0-0.5-0.1-1-0.3-1.4c-0.2-0.4-0.5-0.7-0.9-1c-0.4-0.2-0.8-0.4-1.3-0.4
			c-0.6,0-1.1,0.1-1.5,0.4c-0.4,0.3-0.7,0.6-1,1.1c-0.2,0.4-0.3,0.9-0.3,1.4v0.8c0,0.7,0.1,1.3,0.4,1.8c0.2,0.5,0.6,0.9,1,1.1
			c0.4,0.3,0.9,0.4,1.5,0.4c0.4,0,0.7-0.1,1-0.2c0.3-0.1,0.6-0.3,0.8-0.5c0.2-0.2,0.4-0.5,0.5-0.8l1.4,0.4c-0.1,0.5-0.4,0.9-0.7,1.2
			c-0.3,0.4-0.8,0.6-1.3,0.8C449.4,622.5,448.9,622.6,448.2,622.6z"/>
		<path class="st4" d="M457,622.6c-0.6,0-1.1-0.1-1.6-0.3c-0.5-0.2-0.9-0.5-1.1-1s-0.4-0.9-0.4-1.5c0-0.5,0.1-1,0.3-1.3
			c0.2-0.3,0.5-0.6,0.8-0.8c0.3-0.2,0.7-0.3,1.2-0.4c0.4-0.1,0.9-0.2,1.3-0.2c0.6-0.1,1-0.1,1.4-0.2c0.4,0,0.6-0.1,0.8-0.2
			c0.2-0.1,0.2-0.3,0.2-0.5v0c0-0.6-0.2-1.1-0.5-1.4s-0.8-0.5-1.5-0.5c-0.7,0-1.2,0.1-1.6,0.4c-0.4,0.3-0.7,0.6-0.8,1l-1.4-0.5
			c0.2-0.6,0.6-1,1-1.3c0.4-0.3,0.8-0.5,1.3-0.7c0.5-0.1,1-0.2,1.4-0.2c0.3,0,0.6,0,1,0.1c0.4,0.1,0.8,0.2,1.1,0.4
			c0.4,0.2,0.7,0.5,0.9,1c0.2,0.4,0.4,1,0.4,1.8v6.1h-1.4v-1.3h-0.1c-0.1,0.2-0.3,0.4-0.5,0.6s-0.5,0.4-0.9,0.6
			C458,622.6,457.5,622.6,457,622.6z M457.2,621.4c0.6,0,1-0.1,1.4-0.3c0.4-0.2,0.7-0.5,0.9-0.9c0.2-0.3,0.3-0.7,0.3-1.1v-1.3
			c-0.1,0.1-0.2,0.1-0.4,0.2c-0.2,0.1-0.4,0.1-0.7,0.2s-0.5,0.1-0.8,0.1c-0.2,0-0.4,0.1-0.6,0.1c-0.4,0-0.7,0.1-1,0.2
			c-0.3,0.1-0.6,0.3-0.8,0.5s-0.3,0.5-0.3,0.9c0,0.5,0.2,0.9,0.6,1.1C456.2,621.2,456.6,621.4,457.2,621.4z"/>
		<path class="st4" d="M467.6,622.6c-0.9,0-1.6-0.2-2.2-0.6c-0.6-0.4-1.1-1-1.4-1.7c-0.3-0.7-0.5-1.5-0.5-2.5c0-0.9,0.2-1.8,0.5-2.5
			c0.3-0.7,0.8-1.3,1.5-1.7c0.6-0.4,1.4-0.6,2.2-0.6c0.7,0,1.2,0.1,1.8,0.4c0.5,0.2,1,0.6,1.3,1c0.3,0.4,0.5,0.9,0.6,1.5h-1.4
			c-0.1-0.4-0.3-0.8-0.7-1.1c-0.4-0.3-0.9-0.5-1.5-0.5c-0.6,0-1,0.1-1.5,0.4c-0.4,0.3-0.7,0.7-1,1.2c-0.2,0.5-0.3,1.1-0.3,1.8
			c0,0.7,0.1,1.3,0.3,1.9c0.2,0.5,0.5,0.9,1,1.2s0.9,0.4,1.5,0.4c0.4,0,0.7-0.1,1-0.2c0.3-0.1,0.6-0.3,0.8-0.6
			c0.2-0.2,0.4-0.5,0.4-0.9h1.4c-0.1,0.5-0.3,1-0.6,1.5s-0.7,0.8-1.2,1C468.9,622.5,468.3,622.6,467.6,622.6z"/>
		<path class="st4" d="M474.8,616.8v5.6h-1.4v-12.4h1.4v4.5h0.1c0.2-0.5,0.5-0.9,1-1.1c0.4-0.3,1-0.4,1.7-0.4c0.6,0,1.2,0.1,1.7,0.4
			c0.5,0.3,0.8,0.6,1.1,1.2c0.3,0.5,0.4,1.2,0.4,2v5.9h-1.4v-5.8c0-0.7-0.2-1.3-0.6-1.7c-0.4-0.4-0.9-0.6-1.6-0.6
			c-0.5,0-0.9,0.1-1.3,0.3s-0.7,0.5-0.9,0.9C474.9,615.8,474.8,616.3,474.8,616.8z"/>
		<path class="st4" d="M487.3,622.6c-0.9,0-1.7-0.2-2.3-0.6c-0.6-0.4-1.1-1-1.5-1.7c-0.3-0.7-0.5-1.5-0.5-2.5c0-1,0.2-1.8,0.5-2.5
			c0.3-0.7,0.8-1.3,1.5-1.7c0.6-0.4,1.4-0.6,2.2-0.6c0.5,0,1,0.1,1.4,0.2c0.5,0.2,0.9,0.4,1.3,0.8c0.4,0.4,0.7,0.8,0.9,1.4
			s0.3,1.3,0.3,2.2v0.6H484V617h5.7c0-0.5-0.1-1-0.3-1.4c-0.2-0.4-0.5-0.7-0.9-1c-0.4-0.2-0.8-0.4-1.3-0.4c-0.6,0-1.1,0.1-1.5,0.4
			c-0.4,0.3-0.7,0.6-1,1.1c-0.2,0.4-0.3,0.9-0.3,1.4v0.8c0,0.7,0.1,1.3,0.4,1.8c0.2,0.5,0.6,0.9,1,1.1s0.9,0.4,1.5,0.4
			c0.4,0,0.7-0.1,1-0.2c0.3-0.1,0.6-0.3,0.8-0.5c0.2-0.2,0.4-0.5,0.5-0.8l1.4,0.4c-0.1,0.5-0.4,0.9-0.7,1.2
			c-0.3,0.4-0.8,0.6-1.3,0.8C488.5,622.5,487.9,622.6,487.3,622.6z"/>
		<path class="st4" d="M493.3,622.4v-9.3h1.4v1.4h0.1c0.2-0.5,0.5-0.8,0.9-1.1c0.4-0.3,0.9-0.4,1.5-0.4c0.1,0,0.2,0,0.4,0
			c0.2,0,0.3,0,0.4,0v1.4c0,0-0.2,0-0.3-0.1s-0.4,0-0.5,0c-0.5,0-0.9,0.1-1.2,0.3c-0.4,0.2-0.6,0.4-0.8,0.8
			c-0.2,0.3-0.3,0.7-0.3,1.1v5.9H493.3z"/>
		<path class="st4" d="M506.2,615.2l-1.3,0.4c-0.1-0.2-0.2-0.4-0.4-0.6c-0.2-0.2-0.4-0.4-0.6-0.5s-0.6-0.2-1-0.2
			c-0.6,0-1,0.1-1.4,0.4c-0.4,0.3-0.6,0.6-0.6,1c0,0.4,0.1,0.6,0.4,0.8s0.7,0.4,1.2,0.5l1.4,0.3c0.8,0.2,1.4,0.5,1.9,0.9
			c0.4,0.4,0.6,0.9,0.6,1.6c0,0.5-0.2,1-0.5,1.4c-0.3,0.4-0.7,0.7-1.3,1c-0.5,0.2-1.2,0.4-1.9,0.4c-0.9,0-1.7-0.2-2.3-0.6
			c-0.6-0.4-1-1-1.2-1.8l1.4-0.3c0.1,0.5,0.4,0.9,0.7,1.1c0.4,0.2,0.8,0.4,1.4,0.4c0.7,0,1.2-0.1,1.6-0.4c0.4-0.3,0.6-0.6,0.6-1
			c0-0.3-0.1-0.6-0.3-0.8c-0.2-0.2-0.6-0.4-1-0.5l-1.5-0.4c-0.8-0.2-1.5-0.5-1.9-0.9c-0.4-0.4-0.6-1-0.6-1.6c0-0.5,0.1-1,0.4-1.4
			s0.7-0.7,1.2-0.9c0.5-0.2,1.1-0.3,1.7-0.3c0.9,0,1.6,0.2,2.2,0.6C505.6,614,506,614.6,506.2,615.2z"/>
		<path class="st4" d="M509.5,622.5c-0.3,0-0.6-0.1-0.8-0.3c-0.2-0.2-0.3-0.5-0.3-0.8s0.1-0.6,0.3-0.8c0.2-0.2,0.5-0.3,0.8-0.3
			c0.3,0,0.6,0.1,0.8,0.3c0.2,0.2,0.3,0.5,0.3,0.8c0,0.2,0,0.4-0.1,0.5s-0.2,0.3-0.4,0.4C509.9,622.5,509.7,622.5,509.5,622.5z"/>
	</g>
	<g id="Group_2033" transform="translate(75 558.041)">
		<g id="Group_2026">
			<g id="Component_7_1" transform="translate(0 0.067)">
				<g id="Mask_Group_619">
					<g id="Category_Icon_A_few_basics-01">
						<g id="Group_2015">
							<g>
								<defs>
									<path id="SVGID_1_" d="M25.2,33.8H8.5C3.8,33.8,0,30,0,25.2V8.5C0,3.8,3.8,0,8.5,0h16.7c4.7,0,8.5,3.8,8.5,8.5v16.7
										C33.8,30,30,33.8,25.2,33.8z"/>
								</defs>
								<clipPath id="SVGID_00000116221094367606978560000018312759930812693439_">
									<use xlink:href="#SVGID_1_"  style="overflow:visible;"/>
								</clipPath>
								<g id="Group_2014" style="clip-path:url(#SVGID_00000116221094367606978560000018312759930812693439_);">
									<g id="Mask_Group_14">
										<g id="Category_Icon_A_few_basics-01-2">
											<g id="Path_843">
												<path class="st6" d="M25.2,33.8H8.5C3.8,33.8,0,30,0,25.2V8.5C0,3.8,3.8,0,8.5,0h16.7c4.7,0,8.5,3.8,8.5,8.5v16.7
													C33.8,30,30,33.8,25.2,33.8z"/>
											</g>
											<g id="Group_660" transform="translate(7.485 8.118)">
												<g id="Group_649" transform="translate(11.929 2.219)" class="st7">
													<g id="Path_844">
														<path d="M4.8,0.6C4.2,0.3,3.7,0.1,3.1,0C2-0.2,0.9,0.3,0.3,1.2C0.1,1.4,0,1.7,0,2C0,2.8,0.2,3.7,0.6,4.3
															C0.8,4.6,0.9,4.9,1,5.2c0.2,0.5,0.1,1.1-0.1,1.6C0.6,7.1,0.4,7.5,0.3,7.9C0,8.6,0.1,9.5,0.5,10.1
															c0.5,0.5,1.3,0.8,2,0.7c1.1-0.1,2.6-1.2,3.8-4.9c0.2-0.7,0.4-1.3,0.4-2C6.7,2.5,6,1.2,4.8,0.6z"/>
													</g>
												</g>
												<g id="Group_650" transform="translate(11.314)" class="st7">
													<g id="Ellipse_120">
														<path d="M1,0c0.3,0,0.5,0.1,0.7,0.3C2,0.9,2,1.5,1.6,2C1.4,2.4,0.8,2.5,0.5,2.2C0.4,2.2,0.3,2.1,0.3,2
															c-0.4-0.5-0.4-1.2,0-1.7C0.4,0.1,0.7,0,1,0z"/>
													</g>
												</g>
												<g id="Group_651" transform="translate(15.267 0.326)" class="st7">
													<g id="Ellipse_121">
														<path d="M0,0.7c0.1-0.2,0.2-0.4,0.4-0.5C0.7-0.1,1,0,1.3,0.2c0,0.1,0.1,0.1,0.1,0.2c0.2,0.4,0,0.9-0.3,1.2
															C0.8,1.8,0.4,1.8,0.2,1.5c0-0.1-0.1-0.1-0.1-0.2C0,1.1,0,0.9,0,0.7z"/>
													</g>
												</g>
												<g id="Group_652" transform="translate(16.817 1.234)" class="st7">
													<g id="Ellipse_122">
														<path d="M0,0.6c0-0.2,0.2-0.3,0.3-0.5C0.6-0.1,0.9,0,1.1,0.2c0,0,0.1,0.1,0.1,0.1c0.1,0.4,0,0.8-0.3,1
															C0.6,1.5,0.3,1.5,0.1,1.3c0,0-0.1-0.1-0.1-0.1C0,0.9,0,0.7,0,0.6z"/>
													</g>
												</g>
												<g id="Group_653" transform="translate(17.982 2.227)" class="st7">
													<g id="Ellipse_123">
														<path d="M0,0.5c0.1-0.2,0.2-0.3,0.3-0.4C0.6-0.1,0.9,0,1,0.2c0,0,0.1,0.1,0.1,0.1C1.2,0.7,1,1,0.7,1.2
															C0.5,1.4,0.2,1.3,0.1,1.1C0.1,1.1,0,1,0,1C0,0.8,0,0.6,0,0.5z"/>
													</g>
												</g>
												<g id="Group_654" transform="translate(0.547 7.934)" class="st7">
													<g id="Path_845">
														<path d="M6,4.3C6.4,3.7,6.7,2.8,6.6,2c0-0.3-0.1-0.6-0.3-0.9C5.7,0.3,4.6-0.2,3.5,0C2.9,0.1,2.4,0.3,1.8,0.6
															C0.6,1.2-0.1,2.5,0,3.8c0,0.7,0.1,1.4,0.4,2c1.2,3.8,2.6,4.8,3.8,4.9c0.7,0,1.5-0.2,2-0.7C6.6,9.5,6.6,8.7,6.3,8
															C6.2,7.5,6,7.1,5.8,6.8C5.5,6.3,5.5,5.7,5.6,5.2C5.7,4.9,5.8,4.6,6,4.3z"/>
													</g>
												</g>
												<g id="Group_655" transform="translate(5.866 5.717)" class="st7">
													<g id="Ellipse_124">
														<path d="M1,0c0.3,0,0.5,0.1,0.7,0.3C2,0.9,2,1.5,1.6,2C1.4,2.4,0.8,2.5,0.5,2.2C0.4,2.2,0.3,2.1,0.3,2
															c-0.4-0.5-0.4-1.2,0-1.7C0.4,0.1,0.7,0,1,0z"/>
													</g>
												</g>
												<g id="Group_656" transform="translate(4.014 5.636)" class="st7">
													<g id="Ellipse_125">
														<path d="M0.7,0c0.2,0,0.4,0.1,0.5,0.3c0.3,0.4,0.3,0.9,0,1.3C1.1,1.9,0.7,1.9,0.4,1.7c-0.1,0-0.1-0.1-0.2-0.2
															c-0.3-0.4-0.3-0.9,0-1.3C0.3,0.1,0.5,0,0.7,0z"/>
													</g>
												</g>
												<g id="Group_657" transform="translate(2.388 6.035)" class="st7">
													<g id="Ellipse_126">
														<path d="M0.5,0C0.7,0,0.9,0,1,0.1c0.4,0.3,0.5,0.8,0.3,1.2C1.3,1.6,0.9,1.8,0.6,1.7c-0.1,0-0.1-0.1-0.2-0.1
															C0.1,1.3-0.1,0.8,0.1,0.4C0.1,0.2,0.3,0.1,0.5,0L0.5,0z"/>
													</g>
												</g>
												<g id="Group_658" transform="translate(1.05 6.949)" class="st7">
													<g id="Ellipse_127">
														<path d="M0.4,0c0.2,0,0.3,0,0.5,0.1c0.3,0.2,0.4,0.6,0.3,1C1.1,1.4,0.8,1.5,0.5,1.4c-0.1,0-0.1,0-0.1-0.1
															C0,1.1-0.1,0.7,0.1,0.3C0.1,0.2,0.2,0.1,0.4,0z"/>
													</g>
												</g>
												<g id="Group_659" transform="translate(0 7.944)" class="st7">
													<g id="Ellipse_128">
														<path d="M0.3,0c0.1,0,0.3,0,0.4,0.1C1,0.3,1.2,0.6,1.1,1C1,1.2,0.7,1.4,0.5,1.3c-0.1,0-0.1,0-0.1-0.1
															C0.1,1-0.1,0.7,0,0.3C0.1,0.2,0.2,0.1,0.3,0z"/>
													</g>
												</g>
											</g>
										</g>
									</g>
								</g>
							</g>
						</g>
					</g>
				</g>
			</g>
			<g id="Component_7_1-2" transform="translate(40.131)">
				<g id="Mask_Group_619-2">
					<g id="Category_Icon_A_few_basics-01-2-2">
						<g id="Group_2017">
							<g>
								<defs>
									<path id="SVGID_00000118379869603272463780000009086518838222596500_" d="M25.3,33.8H8.6C3.8,33.8,0,30,0,25.3V8.6
										C0,3.8,3.8,0,8.6,0h16.7c4.7,0,8.5,3.8,8.6,8.6v16.7C33.8,30,30,33.8,25.3,33.8z"/>
								</defs>
								<clipPath id="SVGID_00000108270441755442701360000012170104029854912654_">
									<use xlink:href="#SVGID_00000118379869603272463780000009086518838222596500_"  style="overflow:visible;"/>
								</clipPath>
								<g id="Group_2016" style="clip-path:url(#SVGID_00000108270441755442701360000012170104029854912654_);">
									<g id="Mask_Group_14-2" transform="translate(7.488 8.122)">
										<g id="Category_Icon_A_few_basics-01-2-3">
											<g id="Group_660-2">
												<g id="Group_649-2" transform="translate(11.934 2.22)" class="st7">
													<g id="Path_844-2">
														<path d="M4.8,0.6C4.2,0.3,3.7,0.1,3.1,0C2-0.2,0.9,0.3,0.3,1.2C0.1,1.4,0,1.7,0,2C0,2.8,0.2,3.7,0.6,4.3
															C0.8,4.6,0.9,4.9,1,5.2c0.2,0.5,0.1,1.1-0.1,1.6C0.6,7.1,0.4,7.5,0.3,7.9C0,8.6,0.1,9.5,0.5,10.1
															c0.5,0.5,1.3,0.8,2,0.7c1.1-0.1,2.6-1.2,3.8-4.9c0.2-0.7,0.4-1.3,0.4-2C6.7,2.5,6,1.2,4.8,0.6L4.8,0.6z"/>
													</g>
												</g>
												<g id="Group_650-2" transform="translate(11.319)" class="st7">
													<g id="Ellipse_120-2">
														<path d="M1,0c0.3,0,0.5,0.1,0.7,0.3C2,0.9,2,1.5,1.6,2C1.4,2.4,0.8,2.5,0.5,2.2C0.4,2.2,0.3,2.1,0.3,2
															c-0.4-0.5-0.4-1.2,0-1.7C0.4,0.1,0.7,0,1,0z"/>
													</g>
												</g>
												<g id="Group_651-2" transform="translate(15.273 0.326)" class="st7">
													<g id="Ellipse_121-2">
														<path d="M0,0.7c0.1-0.2,0.2-0.4,0.4-0.5C0.7-0.1,1,0,1.3,0.2c0,0.1,0.1,0.1,0.1,0.2c0.2,0.4,0,0.9-0.3,1.2
															C0.8,1.8,0.4,1.8,0.2,1.5c0-0.1-0.1-0.1-0.1-0.2C0,1.1,0,0.9,0,0.7z"/>
													</g>
												</g>
												<g id="Group_652-2" transform="translate(16.824 1.235)" class="st7">
													<g id="Ellipse_122-2">
														<path d="M0,0.6c0-0.2,0.2-0.3,0.3-0.5C0.6-0.1,0.9,0,1.1,0.2c0,0,0.1,0.1,0.1,0.1c0.1,0.4,0,0.8-0.3,1
															C0.6,1.5,0.3,1.5,0.1,1.3c0,0-0.1-0.1-0.1-0.1C0,0.9,0,0.7,0,0.6z"/>
													</g>
												</g>
												<g id="Group_653-2" transform="translate(17.989 2.228)" class="st7">
													<g id="Ellipse_123-2">
														<path d="M0,0.5c0.1-0.2,0.2-0.3,0.3-0.4C0.6-0.1,0.9,0,1,0.2c0,0,0.1,0.1,0.1,0.1C1.2,0.7,1,1,0.7,1.2
															C0.5,1.4,0.2,1.3,0.1,1.1C0.1,1.1,0,1,0,1C0,0.8,0,0.6,0,0.5z"/>
													</g>
												</g>
												<g id="Group_654-2" transform="translate(0.547 7.937)" class="st7">
													<g id="Path_845-2">
														<path d="M6,4.3C6.4,3.7,6.7,2.8,6.6,2c0-0.3-0.1-0.6-0.3-0.9C5.7,0.3,4.6-0.2,3.5,0C3,0.1,2.4,0.3,1.8,0.6
															C0.6,1.2-0.1,2.5,0,3.8c0,0.7,0.1,1.4,0.4,2c1.2,3.8,2.6,4.8,3.8,4.9c0.7,0,1.5-0.2,2-0.7C6.6,9.5,6.6,8.7,6.3,8
															C6.2,7.6,6,7.2,5.8,6.8C5.5,6.3,5.5,5.7,5.6,5.2C5.7,4.9,5.8,4.6,6,4.3L6,4.3z"/>
													</g>
												</g>
												<g id="Group_655-2" transform="translate(5.869 5.719)" class="st7">
													<g id="Ellipse_124-2">
														<path d="M1,0c0.3,0,0.5,0.1,0.7,0.3C2,0.9,2,1.5,1.6,2C1.4,2.4,0.9,2.5,0.5,2.2C0.4,2.2,0.3,2.1,0.3,2
															c-0.4-0.5-0.4-1.2,0-1.7C0.4,0.1,0.7,0,1,0z"/>
													</g>
												</g>
												<g id="Group_656-2" transform="translate(4.016 5.639)" class="st7">
													<g id="Ellipse_125-2">
														<path d="M0.7,0c0.2,0,0.4,0.1,0.5,0.3c0.3,0.4,0.3,0.9,0,1.3C1.1,1.9,0.7,1.9,0.4,1.7c-0.1,0-0.1-0.1-0.2-0.2
															c-0.3-0.4-0.3-0.9,0-1.3C0.3,0.1,0.5,0,0.7,0z"/>
													</g>
												</g>
												<g id="Group_657-2" transform="translate(2.389 6.038)" class="st7">
													<g id="Ellipse_126-2">
														<path d="M0.5,0C0.7,0,0.9,0,1,0.1c0.4,0.3,0.5,0.8,0.3,1.2C1.3,1.6,0.9,1.8,0.6,1.7c-0.1,0-0.1-0.1-0.2-0.1
															C0,1.3-0.1,0.8,0.1,0.4C0.1,0.2,0.3,0.1,0.5,0L0.5,0z"/>
													</g>
												</g>
												<g id="Group_658-2" transform="translate(1.051 6.952)" class="st7">
													<g id="Ellipse_127-2">
														<path d="M0.4,0c0.2,0,0.3,0,0.5,0.1c0.3,0.2,0.4,0.6,0.3,1C1.1,1.4,0.8,1.5,0.5,1.4c-0.1,0-0.1,0-0.1-0.1
															C0,1.1-0.1,0.7,0.1,0.3C0.1,0.2,0.2,0.1,0.4,0L0.4,0z"/>
													</g>
												</g>
												<g id="Group_659-2" transform="translate(0 7.948)" class="st7">
													<g id="Ellipse_128-2">
														<path d="M0.3,0c0.1,0,0.3,0,0.4,0.1C1,0.3,1.2,0.6,1.1,1C1,1.2,0.7,1.4,0.5,1.3c-0.1,0-0.1,0-0.1-0.1
															C0.1,1-0.1,0.7,0,0.3C0.1,0.2,0.2,0.1,0.3,0z"/>
													</g>
												</g>
											</g>
										</g>
									</g>
								</g>
							</g>
						</g>
						<g id="Group_2021">
							<g>
								<defs>
									<path id="SVGID_00000001650956966477671610000003452148641803367306_" d="M25.3,33.8H8.6C3.8,33.8,0,30,0,25.3V8.6
										C0,3.8,3.8,0,8.6,0h16.7c4.7,0,8.5,3.8,8.6,8.6v16.7C33.8,30,30,33.8,25.3,33.8z"/>
								</defs>
								<clipPath id="SVGID_00000125573895294463829450000014963257373350147003_">
									<use xlink:href="#SVGID_00000001650956966477671610000003452148641803367306_"  style="overflow:visible;"/>
								</clipPath>
								<g id="Group_2020" style="clip-path:url(#SVGID_00000125573895294463829450000014963257373350147003_);">
									<g id="Mask_Group_6">
										<g id="Category_Icon_Holiday_Travel-01">
											<g id="Group_2019">
												<g>
													<defs>
														<path id="SVGID_00000039814075182387196440000000254498313974330803_" d="M25.3,33.8H8.6C3.8,33.8,0,30,0,25.3V8.6
															C0,3.8,3.8,0,8.6,0h16.7c4.7,0,8.5,3.8,8.6,8.6v16.7C33.8,30,30,33.8,25.3,33.8z"/>
													</defs>
													<clipPath id="SVGID_00000002347333395037780070000009300961634695337882_">
														<use xlink:href="#SVGID_00000039814075182387196440000000254498313974330803_"  style="overflow:visible;"/>
													</clipPath>
													<g id="Group_2018" style="clip-path:url(#SVGID_00000002347333395037780070000009300961634695337882_);">
														<g id="Mask_Group_8">
															<g id="Category_Icon_Holiday_Travel-01-2">
																<g id="Path_730">
																	<path class="st11" d="M25.3,33.8H8.6C3.8,33.8,0,30,0,25.3V8.6C0,3.8,3.8,0,8.6,0h16.7c4.7,0,8.5,3.8,8.6,8.6v16.7
																		C33.8,30,30,33.8,25.3,33.8z"/>
																</g>
																<g id="icon" transform="translate(7.587 7.392)">
																	<g id="Path_731">
																		<path class="st12" d="M0.3,4.7l2-1l2-1c0,0,0,0,0.1,0c0,0,0,0,0.1,0l2.7-0.4l2.7-0.4l0.1,0l0.1,0l2-0.9l2-0.9
																			c0.3-0.1,0.6,0,0.7,0.3c0,0,0,0,0,0c0,0,0,0,0,0s0,0,0,0L16.7,7l1.9,6.6c0.1,0.2-0.1,0.5-0.3,0.6l-2,0.9l-2,0.9
																			l-0.1,0l-0.1,0l-2.7,0.4L8.7,17l-0.1,0l-0.1,0l-2,0.9l-2,0.9c-0.3,0.1-0.6,0-0.7-0.3c0,0,0,0,0,0c0,0,0,0,0,0l0,0
																			l-1.9-6.6L0,5.3C-0.1,5.1,0.1,4.8,0.3,4.7L0.3,4.7z"/>
																	</g>
																	<g id="Path_732">
																		<path class="st13" d="M6,15.7l0.7-1.4l0.7-1.4l0.4-0.6l0.4-0.6L8,10.1L7.9,8.5L7.1,8.8L6.3,9.1L4.7,10l-1.6,0.9
																			L4,14l0.9,3.1l0.5-0.2l0.5-0.2l0-0.5L6,15.7z"/>
																	</g>
																	<g id="Path_733">
																		<path class="st14" d="M12.1,6.5l-0.4,0.3l-0.4,0.3L10,7.6L8.8,8.1L8.9,10l0.1,1.9l-0.7,1.1l-0.7,1.1l-0.5,1.2
																			l-0.5,1.2l0.8-0.4l0.8-0.4l2.5-0.4l2.5-0.4l1.1-0.5l1.1-0.5l-1.8-3.6L12.1,6.5z"/>
																	</g>
																	<g id="Path_734">
																		<path class="st13" d="M16.4,13.4l0.3-0.1l0.3-0.1l-1.2-4.2l-1.2-4.3l-0.9,0.7l-0.9,0.7l1.9,3.6L16.4,13.4z"/>
																	</g>
																	<g id="Path_735">
																		<path class="st15" d="M5.9,7.8l2.5-1l2.5-1l1.6-1.2l1.6-1.2l-0.2-0.8l-0.2-0.8L12,2.6l-1.7,0.8L7.7,3.8L5,4.2
																			L3.3,5L1.6,5.8l0.6,1.9l0.6,1.9l1.6-0.9L5.9,7.8z"/>
																	</g>
																	<g id="Path_736">
																		<path class="st16" d="M12.6,6.1l0.9-0.7l0.9-0.7L14.4,4l-0.2-0.6l-1.6,1.2l-1.6,1.2l-2.5,1l-2.5,1L4.4,8.8
																			L2.8,9.7l0.2,0.6l0.2,0.6L4.7,10l1.6-0.9l0.8-0.3l0.8-0.3L8,10.1l0.2,1.6l-0.4,0.6l-0.4,0.6l-0.7,1.4L6,15.7
																			l0,0.5l0,0.5l0.4-0.2l0.4-0.2l0.5-1.2L7.7,14l0.7-1.1l0.7-1.1L9,10L8.8,8.1l1.2-0.5l1.2-0.5l0.4-0.3l0.4-0.3
																			l1.8,3.6l1.8,3.6l0.4-0.2l0.4-0.2l-1.9-3.6L12.6,6.1z"/>
																	</g>
																	<g id="Path_737" class="st17">
																		<path class="st18" d="M8.6,17l-2,0.9l-2,0.9c-0.3,0.1-0.6,0-0.8-0.3c0,0,0,0,0,0c0,0,0,0,0,0c0,0,0,0,0,0
																			l-1.9-6.5L0,5.4C0,5.1,0.1,4.8,0.3,4.7l2-1l2-1l2.1,7.1L8.6,17z M10.1,1.9L12.1,9l2.1,7.1l2-0.9l2-0.9
																			c0.3-0.1,0.4-0.4,0.3-0.7L16.7,7l-1.9-6.6c-0.1-0.3-0.4-0.5-0.7-0.4c0,0,0,0,0,0l0,0l0,0L12,1L10.1,1.9z"/>
																	</g>
																</g>
															</g>
														</g>
													</g>
												</g>
											</g>
										</g>
									</g>
								</g>
							</g>
						</g>
					</g>
				</g>
			</g>
			<g id="Component_7_1-3" transform="translate(0.071 40.146)">
				<g id="Mask_Group_619-3">
					<g id="Category_Icon_A_few_basics-01-3">
						<g id="Group_2023">
							<g>
								<defs>
									<path id="SVGID_00000096031574142298353780000014256321669795515784_" d="M25.2,33.8H8.5C3.8,33.8,0,30,0,25.2V8.5
										C0,3.8,3.8,0,8.5,0h16.7c4.7,0,8.5,3.8,8.5,8.5v16.7C33.8,30,30,33.8,25.2,33.8L25.2,33.8z"/>
								</defs>
								<clipPath id="SVGID_00000095340650660645233170000012001999778135367856_">
									<use xlink:href="#SVGID_00000096031574142298353780000014256321669795515784_"  style="overflow:visible;"/>
								</clipPath>
								<g id="Group_2022" style="clip-path:url(#SVGID_00000095340650660645233170000012001999778135367856_);">
									<g id="Mask_Group_14-3" transform="translate(7.485 8.118)">
										<g id="Category_Icon_A_few_basics-01-2-4">
											<g id="Group_660-3">
												<g id="Group_649-3" transform="translate(11.929 2.219)" class="st7">
													<g id="Path_844-3">
														<path d="M4.8,0.6C4.2,0.3,3.7,0.1,3.1,0C2-0.2,0.9,0.3,0.3,1.2C0.1,1.4,0,1.7,0,2C0,2.8,0.2,3.6,0.6,4.3
															C0.8,4.6,0.9,4.9,1,5.2c0.2,0.5,0.1,1.1-0.1,1.6C0.6,7.1,0.4,7.5,0.3,7.9C0,8.6,0.1,9.4,0.5,10.1
															c0.5,0.5,1.3,0.8,2,0.7c1.1-0.1,2.6-1.2,3.8-4.9c0.2-0.7,0.4-1.3,0.4-2C6.7,2.5,6,1.2,4.8,0.6L4.8,0.6z"/>
													</g>
												</g>
												<g id="Group_650-3" transform="translate(11.314)" class="st7">
													<g id="Ellipse_120-3">
														<path d="M1,0c0.3,0,0.5,0.1,0.7,0.3C2,0.9,2,1.5,1.6,2C1.4,2.4,0.9,2.5,0.5,2.2C0.4,2.2,0.3,2.1,0.3,2
															c-0.4-0.5-0.4-1.2,0-1.7C0.4,0.1,0.7,0,1,0z"/>
													</g>
												</g>
												<g id="Group_651-3" transform="translate(15.266 0.326)" class="st7">
													<g id="Ellipse_121-3">
														<path d="M0,0.7c0.1-0.2,0.2-0.4,0.4-0.5C0.7-0.1,1,0,1.3,0.2c0,0.1,0.1,0.1,0.1,0.2c0.2,0.4,0,0.9-0.3,1.2
															C0.8,1.8,0.4,1.8,0.2,1.5c0-0.1-0.1-0.1-0.1-0.2C0,1.1,0,0.9,0,0.7z"/>
													</g>
												</g>
												<g id="Group_652-3" transform="translate(16.816 1.234)" class="st7">
													<g id="Ellipse_122-3">
														<path d="M0,0.6c0-0.2,0.2-0.3,0.3-0.5C0.6-0.1,0.9,0,1.1,0.2c0,0,0.1,0.1,0.1,0.1c0.1,0.4,0,0.8-0.3,1
															C0.6,1.5,0.3,1.5,0.1,1.3c0,0-0.1-0.1-0.1-0.1C0,0.9,0,0.7,0,0.6z"/>
													</g>
												</g>
												<g id="Group_653-3" transform="translate(17.981 2.227)" class="st7">
													<g id="Ellipse_123-3">
														<path d="M0.1,0.5c0.1-0.2,0.2-0.3,0.3-0.4C0.6-0.1,0.9,0,1,0.2c0,0,0.1,0.1,0.1,0.1C1.2,0.7,1,1,0.8,1.2
															C0.5,1.4,0.2,1.3,0.1,1.1C0.1,1.1,0.1,1,0,1C0,0.8,0,0.6,0.1,0.5z"/>
													</g>
												</g>
												<g id="Group_654-3" transform="translate(0.547 7.934)" class="st7">
													<g id="Path_845-3">
														<path d="M6,4.3C6.4,3.7,6.7,2.8,6.6,2c0-0.3-0.1-0.6-0.3-0.9C5.7,0.3,4.6-0.2,3.5,0C3,0.1,2.4,0.3,1.8,0.6
															C0.7,1.2-0.1,2.5,0,3.8c0,0.7,0.1,1.4,0.4,2c1.2,3.8,2.6,4.8,3.8,4.9c0.7,0,1.5-0.2,2-0.7C6.6,9.5,6.6,8.7,6.3,8
															C6.2,7.5,6,7.1,5.8,6.8C5.5,6.3,5.5,5.7,5.6,5.2C5.7,4.9,5.8,4.6,6,4.3z"/>
													</g>
												</g>
												<g id="Group_655-3" transform="translate(5.866 5.716)" class="st7">
													<g id="Ellipse_124-3">
														<path d="M1,0c0.3,0,0.5,0.1,0.7,0.4C2,0.8,2,1.5,1.6,2C1.4,2.4,0.8,2.5,0.5,2.2C0.4,2.2,0.3,2.1,0.3,2
															c-0.4-0.5-0.4-1.2,0-1.7C0.4,0.1,0.7,0,1,0z"/>
													</g>
												</g>
												<g id="Group_656-3" transform="translate(4.014 5.636)" class="st7">
													<g id="Ellipse_125-3">
														<path d="M0.7,0c0.2,0,0.4,0.1,0.5,0.3c0.3,0.4,0.3,0.9,0,1.3C1.1,1.9,0.7,1.9,0.4,1.7c-0.1,0-0.1-0.1-0.2-0.2
															c-0.3-0.4-0.3-0.9,0-1.3C0.3,0.1,0.5,0,0.7,0z"/>
													</g>
												</g>
												<g id="Group_657-3" transform="translate(2.388 6.035)" class="st7">
													<g id="Ellipse_126-3">
														<path d="M0.5,0C0.7,0,0.9,0,1,0.1c0.4,0.3,0.5,0.8,0.3,1.2C1.3,1.6,0.9,1.8,0.6,1.7c-0.1,0-0.1-0.1-0.2-0.1
															C0,1.3-0.1,0.8,0.1,0.4C0.1,0.2,0.3,0.1,0.5,0z"/>
													</g>
												</g>
												<g id="Group_658-3" transform="translate(1.05 6.948)" class="st7">
													<g id="Ellipse_127-3">
														<path d="M0.4,0c0.2,0,0.3,0,0.5,0.1c0.3,0.2,0.4,0.6,0.3,1C1.1,1.4,0.8,1.5,0.5,1.4c-0.1,0-0.1,0-0.1-0.1
															C0,1.1-0.1,0.7,0.1,0.3C0.1,0.2,0.2,0.1,0.4,0L0.4,0z"/>
													</g>
												</g>
												<g id="Group_659-3" transform="translate(0 7.944)" class="st7">
													<g id="Ellipse_128-3">
														<path d="M0.3,0c0.1,0,0.3,0,0.4,0.1C1,0.3,1.2,0.6,1.1,1C1,1.2,0.7,1.4,0.5,1.3c-0.1,0-0.1,0-0.1-0.1
															C0.1,1-0.1,0.7,0,0.3C0.1,0.2,0.2,0.1,0.3,0z"/>
													</g>
												</g>
											</g>
										</g>
									</g>
								</g>
							</g>
						</g>
						<g id="Group_2025">
							<g>
								<defs>
									<path id="SVGID_00000135658739127933307060000013940671733007261581_" d="M25.2,33.8H8.5C3.8,33.8,0,30,0,25.2V8.5
										C0,3.8,3.8,0,8.5,0h16.7c4.7,0,8.5,3.8,8.5,8.5v16.7C33.8,30,30,33.8,25.2,33.8L25.2,33.8z"/>
								</defs>
								<clipPath id="SVGID_00000124883412187643911410000005016420762233446542_">
									<use xlink:href="#SVGID_00000135658739127933307060000013940671733007261581_"  style="overflow:visible;"/>
								</clipPath>
								<g id="Group_2024" style="clip-path:url(#SVGID_00000124883412187643911410000005016420762233446542_);">
									<g id="Mask_Group_4">
										<g id="Category_Icon_Family_Pets-01">
											<g id="Path_694">
												<path class="st21" d="M25.2,33.8H8.5C3.8,33.8,0,30,0,25.2V8.5C0,3.8,3.8,0,8.5,0h16.7c4.7,0,8.5,3.8,8.5,8.5v16.7
													C33.8,30,30,33.8,25.2,33.8L25.2,33.8z"/>
											</g>
											<g id="Group_631" transform="translate(6.159 10.047)">
												<g id="Path_695">
													<path class="st22" d="M12.4,13.8H8.7c-3.8,0-6.9-3.1-6.9-6.9l0,0C1.9,3.1,4.9,0,8.7,0h3.6c3.8,0,6.9,3.1,6.9,6.9l0,0
														C19.3,10.7,16.2,13.8,12.4,13.8z"/>
												</g>
												<g id="Group_623" transform="translate(0.027 0.606)">
													<g id="Group_621">
														<g id="Group_620">
															<g id="Path_696">
																<path class="st23" d="M4.6,10.8l0.2-0.2l0.2-0.2C5.8,9.6,6,8.5,5.6,7.6L5.3,6.7L5.1,5.9c-0.4-1.3-0.5-2.7,0-4l0.5-1
																	L6,0c0,0-0.1,0-0.5,0.2C4.7,0.6,4,1.2,3.4,1.8C1.5,3.5,0.3,5.8,0,8.3"/>
															</g>
														</g>
													</g>
													<g id="Ellipse_101">
														<path class="st24" d="M7.7,4.2c0.5,0,1,0.4,1,1s-0.4,1-1,1c-0.5,0-1-0.4-1-1c0-0.3,0.1-0.5,0.3-0.7
															C7.2,4.3,7.5,4.2,7.7,4.2z"/>
													</g>
													<g id="Ellipse_102">
														<path class="st0" d="M7.7,4.6C7.9,4.6,8,4.8,8,4.9S7.9,5.2,7.7,5.2c-0.2,0-0.3-0.1-0.3-0.3c0-0.1,0-0.2,0.1-0.2
															C7.6,4.6,7.6,4.6,7.7,4.6z"/>
													</g>
													<g id="Group_622" transform="translate(12.345 4.2)">
														<g id="Ellipse_103">
															<path class="st24" d="M1,0c0.5,0,1,0.4,1,1S1.5,2,1,2C0.4,2,0,1.5,0,1c0-0.3,0.1-0.5,0.3-0.7C0.5,0.1,0.7,0,1,0z"/>
														</g>
														<g id="Ellipse_104">
															<path class="st0" d="M1,0.4c0.2,0,0.3,0.1,0.3,0.3S1.1,1,1,1C0.8,1,0.7,0.9,0.7,0.7c0-0.1,0-0.2,0.1-0.2
																C0.8,0.4,0.9,0.4,1,0.4z"/>
														</g>
													</g>
												</g>
												<g id="Path_697">
													<path class="st23" d="M16.5,11.4l-0.2-0.2l-0.2-0.2c-0.7-0.8-0.9-1.8-0.6-2.8l0.3-0.8l0.3-0.8c0.4-1.3,0.5-2.7,0-4
														l-0.5-1l-0.5-1c0,0,0.1,0,0.5,0.2c0.8,0.4,1.5,1,2.1,1.6c1.9,1.7,3.1,4,3.4,6.5"/>
												</g>
												<g id="Ellipse_105">
													<path class="st23" d="M2.9,6.2c1.6,0,2.9,1.3,2.9,2.9c0,1.6-1.3,2.9-2.9,2.9C1.3,12,0,10.7,0,9.1C0,8.3,0.3,7.6,0.9,7
														C1.4,6.5,2.1,6.2,2.9,6.2z"/>
												</g>
												<g id="Group_630" transform="translate(7.594 12.132)">
													<g id="Group_629">
														<g id="Group_628">
															<g id="Group_624" transform="translate(0 1.087)">
																<g id="Ellipse_106">
																	<path class="st25" d="M0.2,0c0.1,0,0.2,0.1,0.2,0.2c0,0.1-0.1,0.2-0.2,0.2C0.1,0.5,0,0.4,0,0.2
																		c0-0.1,0-0.1,0.1-0.2C0.1,0,0.1,0,0.2,0z"/>
																</g>
																<g id="Ellipse_107">
																	<path class="st26" d="M0.2,0.1c0.1,0,0.2,0.1,0.2,0.1S0.3,0.4,0.2,0.4c-0.1,0-0.2-0.1-0.2-0.1
																		C0.1,0.2,0.1,0.1,0.2,0.1C0.2,0.1,0.2,0.1,0.2,0.1z"/>
																</g>
															</g>
															<g id="Group_625" transform="translate(1.65 0.376)">
																<g id="Ellipse_108">
																	<path class="st25" d="M0.2,0c0.1,0,0.2,0.1,0.2,0.2c0,0.1-0.1,0.2-0.2,0.2C0.1,0.5,0,0.4,0,0.3
																		c0-0.1,0-0.1,0.1-0.2C0.1,0,0.1,0,0.2,0z"/>
																</g>
																<g id="Ellipse_109">
																	<path class="st26" d="M0.2,0.1c0.1,0,0.2,0.1,0.2,0.1S0.3,0.4,0.2,0.4c-0.1,0-0.2-0.1-0.2-0.1
																		C0.1,0.2,0.1,0.1,0.2,0.1C0.2,0.1,0.2,0.1,0.2,0.1z"/>
																</g>
															</g>
															<g id="Group_626" transform="translate(2.389)">
																<g id="Ellipse_110">
																	<path class="st25" d="M0.2,0c0.1,0,0.2,0.1,0.2,0.2S0.4,0.4,0.2,0.5S0,0.4,0,0.2c0-0.1,0-0.1,0.1-0.2
																		C0.1,0,0.1,0,0.2,0z"/>
																</g>
																<g id="Ellipse_111">
																	<path class="st26" d="M0.2,0.1c0.1,0,0.2,0.1,0.2,0.1S0.3,0.4,0.2,0.4c-0.1,0-0.2-0.1-0.2-0.1
																		C0.1,0.2,0.1,0.1,0.2,0.1z"/>
																</g>
															</g>
															<g id="Group_627" transform="translate(0.859 0.765)">
																<g id="Ellipse_112">
																	<path class="st25" d="M0.2,0c0.1,0,0.2,0.1,0.2,0.2c0,0.1-0.1,0.2-0.2,0.2C0.1,0.5,0,0.4,0,0.2
																		c0-0.1,0-0.1,0.1-0.2C0.1,0,0.1,0,0.2,0z"/>
																</g>
																<g id="Ellipse_113">
																	<path class="st26" d="M0.2,0.1c0.1,0,0.2,0.1,0.2,0.1S0.3,0.4,0.2,0.4c-0.1,0-0.2-0.1-0.2-0.1
																		C0.1,0.2,0.1,0.1,0.2,0.1z"/>
																</g>
															</g>
														</g>
													</g>
												</g>
												<g id="Ellipse_114">
													<path class="st27" d="M8.6,9.3c1.5,0,2.6,1.2,2.6,2.6c0,1.5-1.2,2.6-2.6,2.6c-1.5,0-2.6-1.2-2.6-2.6
														c0-0.7,0.3-1.4,0.8-1.9C7.2,9.6,7.9,9.3,8.6,9.3z"/>
												</g>
												<g id="Ellipse_115">
													<path class="st27" d="M12.6,9.3c1.5,0,2.6,1.2,2.6,2.6c0,1.5-1.2,2.6-2.6,2.6c-1.5,0-2.6-1.2-2.6-2.6
														c0-0.7,0.3-1.4,0.8-1.9C11.2,9.6,11.9,9.3,12.6,9.3z"/>
												</g>
												<g id="Ellipse_116">
													<path class="st23" d="M18.2,6.2c1.6,0,2.9,1.3,2.9,2.9c0,1.6-1.3,2.9-2.9,2.9c-1.6,0-2.9-1.3-2.9-2.9
														c0-0.8,0.3-1.5,0.9-2.1S17.4,6.2,18.2,6.2z"/>
												</g>
												<g id="Path_698">
													<path class="st27" d="M14.3,9.9l-0.7-0.8l-0.7-0.8c-0.4-0.4-0.7-0.8-1-1.3c-0.2-0.5-0.4-1-0.3-1.5V0h-2v5.5
														c0,0.5-0.1,1-0.4,1.5c-0.3,0.5-0.6,0.9-1,1.3L7.5,9.1L6.8,9.9c-0.3,0.4-0.5,0.9-0.5,1.3v1.1c0,1.1,0.9,2.1,2,2.1h0
														c0.7,0,1.4-0.4,1.8-1H11c0.4,0.6,1.1,1,1.8,1c1.1,0,2.1-0.9,2.1-2.1v-1.1C14.8,10.8,14.7,10.3,14.3,9.9L14.3,9.9z"/>
												</g>
												<g id="Path_699">
													<path class="st24" d="M10.5,8.7h0.2c0.5,0,1,0.2,1.3,0.5c0.3,0.4,0.3,0.9,0,1.3c-0.6,1.1-1.2,1.3-1.7,1.2
														c-0.6-0.2-1-0.7-1.4-1.2c-0.4-0.4-0.4-0.9,0-1.3C9.4,8.8,9.9,8.7,10.5,8.7L10.5,8.7z"/>
												</g>
												<g id="Ellipse_117">
													<path class="st28" d="M10.5,9.1c0.2,0,0.3,0,0.5,0.1c0.1,0,0.2,0.1,0.2,0.2s-0.1,0.1-0.2,0.2c-0.3,0.1-0.6,0.1-0.9,0
														c-0.1,0-0.2-0.1-0.2-0.2S9.9,9.2,10,9.2C10.2,9.1,10.3,9.1,10.5,9.1z"/>
												</g>
											</g>
										</g>
									</g>
								</g>
							</g>
						</g>
					</g>
				</g>
			</g>
		</g>
		<g id="Component_7_1-4" transform="translate(40.198 40.178)">
			<g id="Mask_Group_619-4">
				<g id="Category_Icon_A_few_basics-01-4">
					<g id="Group_2028">
						<g>
							<defs>
								<path id="SVGID_00000144321984739781635680000009242335664029118119_" d="M25.3,33.8H8.6C3.8,33.8,0,30,0,25.3V8.6
									C0,3.8,3.8,0,8.6,0h16.7c4.7,0,8.5,3.8,8.6,8.6v16.7C33.8,30,30,33.8,25.3,33.8z"/>
							</defs>
							<clipPath id="SVGID_00000163035604957405810850000012514849657245846702_">
								<use xlink:href="#SVGID_00000144321984739781635680000009242335664029118119_"  style="overflow:visible;"/>
							</clipPath>
							<g id="Group_2027" style="clip-path:url(#SVGID_00000163035604957405810850000012514849657245846702_);">
								<g id="Mask_Group_14-4" transform="translate(7.488 8.121)">
									<g id="Category_Icon_A_few_basics-01-2-5">
										<g id="Group_660-4">
											<g id="Group_649-4" transform="translate(11.934 2.22)" class="st7">
												<g id="Path_844-4">
													<path d="M4.8,0.6C4.2,0.3,3.7,0.1,3.1,0C2-0.2,0.9,0.3,0.3,1.2C0.1,1.4,0,1.7,0,2C0,2.8,0.2,3.7,0.6,4.3
														C0.8,4.6,0.9,4.9,1,5.2c0.2,0.5,0.1,1.1-0.1,1.6C0.6,7.1,0.4,7.5,0.3,7.9C0,8.6,0.1,9.5,0.5,10.1
														c0.5,0.5,1.3,0.8,2,0.7c1.1-0.1,2.6-1.2,3.8-4.9c0.2-0.7,0.4-1.3,0.4-2C6.7,2.5,6,1.2,4.8,0.6L4.8,0.6z"/>
												</g>
											</g>
											<g id="Group_650-4" transform="translate(11.319)" class="st7">
												<g id="Ellipse_120-4">
													<path d="M1,0c0.3,0,0.5,0.1,0.7,0.4C2,0.9,2,1.5,1.6,2C1.4,2.4,0.8,2.5,0.5,2.2C0.4,2.2,0.3,2.1,0.3,2
														c-0.4-0.5-0.4-1.2,0-1.7C0.4,0.1,0.7,0,1,0z"/>
												</g>
											</g>
											<g id="Group_651-4" transform="translate(15.273 0.326)" class="st7">
												<g id="Ellipse_121-4">
													<path d="M0,0.7c0.1-0.2,0.2-0.4,0.4-0.5C0.7-0.1,1,0,1.3,0.2c0,0.1,0.1,0.1,0.1,0.2c0.2,0.4,0,0.9-0.3,1.2
														C0.8,1.8,0.4,1.8,0.2,1.5c0-0.1-0.1-0.1-0.1-0.2C0,1.1,0,0.9,0,0.7z"/>
												</g>
											</g>
											<g id="Group_652-4" transform="translate(16.824 1.235)" class="st7">
												<g id="Ellipse_122-4">
													<path d="M0,0.6c0-0.2,0.2-0.3,0.3-0.5C0.6-0.1,0.9,0,1.1,0.2c0,0,0.1,0.1,0.1,0.1c0.1,0.4,0,0.8-0.3,1
														C0.6,1.5,0.3,1.5,0.1,1.3c0,0-0.1-0.1-0.1-0.1C0,0.9,0,0.7,0,0.6z"/>
												</g>
											</g>
											<g id="Group_653-4" transform="translate(17.989 2.228)" class="st7">
												<g id="Ellipse_123-4">
													<path d="M0,0.5c0.1-0.2,0.2-0.3,0.3-0.4C0.6-0.1,0.9,0,1,0.2c0,0,0.1,0.1,0.1,0.1C1.2,0.7,1,1,0.7,1.2
														C0.5,1.4,0.2,1.3,0.1,1.1C0.1,1.1,0,1,0,1C0,0.8,0,0.6,0,0.5z"/>
												</g>
											</g>
											<g id="Group_654-4" transform="translate(0.547 7.937)" class="st7">
												<g id="Path_845-4">
													<path d="M6,4.3C6.4,3.7,6.7,2.8,6.6,2c0-0.3-0.1-0.6-0.3-0.9C5.7,0.3,4.6-0.2,3.5,0C3,0.1,2.4,0.3,1.8,0.6
														C0.6,1.2-0.1,2.5,0,3.8c0,0.7,0.1,1.4,0.4,2c1.2,3.8,2.6,4.8,3.8,4.9c0.7,0,1.5-0.2,2-0.7C6.6,9.5,6.6,8.7,6.3,8
														C6.2,7.5,6,7.1,5.8,6.8C5.5,6.3,5.5,5.7,5.6,5.2C5.7,4.9,5.8,4.6,6,4.3L6,4.3z"/>
												</g>
											</g>
											<g id="Group_655-4" transform="translate(5.869 5.719)" class="st7">
												<g id="Ellipse_124-4">
													<path d="M1,0c0.3,0,0.5,0.1,0.7,0.4C2,0.9,2,1.5,1.6,2C1.4,2.4,0.8,2.5,0.5,2.2C0.4,2.2,0.3,2.1,0.3,2
														c-0.4-0.5-0.4-1.2,0-1.7C0.4,0.1,0.7,0,1,0z"/>
												</g>
											</g>
											<g id="Group_656-4" transform="translate(4.016 5.639)" class="st7">
												<g id="Ellipse_125-4">
													<path d="M0.7,0c0.2,0,0.4,0.1,0.5,0.3c0.3,0.4,0.3,0.9,0,1.3C1.1,1.9,0.7,1.9,0.4,1.7c-0.1,0-0.1-0.1-0.2-0.2
														c-0.3-0.4-0.3-0.9,0-1.3C0.3,0.1,0.5,0,0.7,0z"/>
												</g>
											</g>
											<g id="Group_657-4" transform="translate(2.389 6.038)" class="st7">
												<g id="Ellipse_126-4">
													<path d="M0.5,0C0.7,0,0.9,0,1,0.1c0.4,0.3,0.5,0.8,0.3,1.2C1.3,1.6,0.9,1.8,0.6,1.7c-0.1,0-0.1-0.1-0.2-0.1
														C0,1.3-0.1,0.8,0.1,0.4C0.1,0.2,0.3,0.1,0.5,0L0.5,0z"/>
												</g>
											</g>
											<g id="Group_658-4" transform="translate(1.051 6.952)" class="st7">
												<g id="Ellipse_127-4">
													<path d="M0.4,0c0.2,0,0.3,0,0.5,0.1c0.3,0.2,0.4,0.6,0.3,1C1.1,1.4,0.8,1.5,0.5,1.4c-0.1,0-0.1,0-0.1-0.1
														C0,1.1-0.1,0.7,0.1,0.3C0.1,0.2,0.2,0.1,0.4,0z"/>
												</g>
											</g>
											<g id="Group_659-4" transform="translate(0 7.948)" class="st7">
												<g id="Ellipse_128-4">
													<path d="M0.3,0c0.1,0,0.3,0,0.4,0.1C1,0.3,1.2,0.6,1.1,1C1,1.2,0.7,1.4,0.5,1.3c-0.1,0-0.1,0-0.1-0.1
														C0.1,1-0.1,0.7,0,0.3C0.1,0.2,0.2,0.1,0.3,0L0.3,0z"/>
												</g>
											</g>
										</g>
									</g>
								</g>
							</g>
						</g>
					</g>
					<g id="Group_2032">
						<g>
							<defs>
								<path id="SVGID_00000168107480330969072570000001527245921103376259_" d="M25.3,33.8H8.6C3.8,33.8,0,30,0,25.3V8.6
									C0,3.8,3.8,0,8.6,0h16.7c4.7,0,8.5,3.8,8.6,8.6v16.7C33.8,30,30,33.8,25.3,33.8z"/>
							</defs>
							<clipPath id="SVGID_00000112623369857054989480000005781880383223156883_">
								<use xlink:href="#SVGID_00000168107480330969072570000001527245921103376259_"  style="overflow:visible;"/>
							</clipPath>
							<g id="Group_2031" style="clip-path:url(#SVGID_00000112623369857054989480000005781880383223156883_);">
								<g id="Mask_Group_9">
									<g id="Category_Icon_Shopping_numbers_Colours-01">
										<g id="Group_2030">
											<g>
												<defs>
													<path id="SVGID_00000143617280917470891300000007533099555942007193_" d="M25.3,33.8H8.6C3.8,33.8,0,30,0,25.3V8.6
														C0,3.8,3.8,0,8.6,0h16.7c4.7,0,8.5,3.8,8.6,8.6v16.7C33.8,30,30,33.8,25.3,33.8z"/>
												</defs>
												<clipPath id="SVGID_00000120541604589696918250000008399885391354615936_">
													<use xlink:href="#SVGID_00000143617280917470891300000007533099555942007193_"  style="overflow:visible;"/>
												</clipPath>
												<g id="Group_2029" style="clip-path:url(#SVGID_00000120541604589696918250000008399885391354615936_);">
													<g id="Mask_Group_12">
														<g id="Category_Icon_Shopping_numbers_Colours-01-2">
															<g id="Path_807">
																<path class="st32" d="M25.3,33.8H8.6C3.8,33.8,0,30,0,25.3V8.6C0,3.8,3.8,0,8.6,0h16.7c4.7,0,8.5,3.8,8.6,8.6v16.7
																	C33.8,30,30,33.8,25.3,33.8z"/>
															</g>
															<g id="Group_648" transform="translate(8.243 10.322)">
																<g id="Rectangle_201">
																	<path class="st16" d="M0.8,1.6h16v11.2h-16V1.6z"/>
																</g>
																<g id="Path_808">
																	<path class="st33" d="M15.2,10.4V5.6H8v4.8H7.6v0.8h8v-0.8H15.2L15.2,10.4z"/>
																</g>
																<g id="Path_809">
																	<path class="st34" d="M16.8,5.6h-16V7c0.7,0.3,1.4,0.2,2-0.2c0.7,0.5,1.7,0.5,2.4,0c0.7,0.5,1.7,0.5,2.4,0
																		c0.7,0.5,1.7,0.5,2.4,0c0.7,0.5,1.7,0.5,2.4,0c0.7,0.5,1.7,0.5,2.4,0c0.6,0.4,1.3,0.5,2,0.2L16.8,5.6L16.8,5.6
																		L16.8,5.6z"/>
																</g>
																<g id="Path_810">
																	<path class="st35" d="M17.6,13.2v1.2H0v-1.2c0-0.4,0.4-0.8,0.8-0.8h16C17.3,12.4,17.6,12.8,17.6,13.2L17.6,13.2z"
																		/>
																</g>
																<g id="Rectangle_202">
																	<path class="st33" d="M2,5.6h4.8v8.8H2V5.6L2,5.6z"/>
																</g>
																<g id="Rectangle_203">
																	<path class="st15" d="M8.4,6h6.4v4.4H8.4V6z"/>
																</g>
																<g id="Path_811">
																	<path class="st36" d="M10.8,10.4H9.6l0.8-2.2L11.2,6h1.2l-0.8,2.2L10.8,10.4z"/>
																</g>
																<g id="Path_812">
																	<path class="st36" d="M11.6,10.4h-0.4L12,8.2L12.8,6h0.4l-0.8,2.2L11.6,10.4z"/>
																</g>
																<g id="Group_645" transform="translate(2.806 6.015)">
																	<g id="Rectangle_204">
																		<path class="st15" d="M0,0h3.2v3.2H0V0L0,0z"/>
																	</g>
																	<g id="Rectangle_205">
																		<path class="st15" d="M0,3.6h3.2v3.6H0V3.6z"/>
																	</g>
																</g>
																<g id="Rectangle_206">
																	<path class="st33" d="M8.4,8h6.5v0.4H8.4V8z"/>
																</g>
																<g id="Path_813">
																	<path class="st37" d="M7.2,14v-1.6H6.8v2h10.8V14L7.2,14L7.2,14z"/>
																</g>
																<g id="Path_814">
																	<path class="st37" d="M1.6,12.4V14H0v0.4h2v-2L1.6,12.4L1.6,12.4z"/>
																</g>
																<g id="Rectangle_207">
																	<path class="st38" d="M7.6,11.2h8v0.4h-8V11.2z"/>
																</g>
																<g id="Path_815">
																	<path class="st35" d="M2.8,6.8c0.7,0.5,1.7,0.5,2.4,0c0.5,0.3,1,0.5,1.6,0.4V5.6H2v1.6C2.3,7.1,2.6,7,2.8,6.8
																		L2.8,6.8z"/>
																</g>
																<g id="Path_816">
																	<path class="st35" d="M15.2,5.6H8V7c0.7,0.3,1.4,0.2,2-0.2c0.7,0.5,1.7,0.5,2.4,0c0.7,0.5,1.7,0.5,2.4,0
																		c0.1,0,0.1,0.1,0.2,0.1C15.1,7,15.2,7,15.2,7L15.2,5.6L15.2,5.6L15.2,5.6z"/>
																</g>
																<g id="Path_817">
																	<path class="st39" d="M2.8,6.8c0.7,0.5,1.7,0.5,2.4,0C5.4,7,5.7,7.1,6,7.2V6H2.8L2.8,6.8L2.8,6.8z"/>
																</g>
																<g id="Path_818">
																	<path class="st39" d="M8.4,6v1.2C9,7.3,9.6,7.2,10,6.8c0.7,0.5,1.7,0.5,2.4,0c0.7,0.5,1.7,0.5,2.4,0V6L8.4,6L8.4,6
																		z"/>
																</g>
																<g id="Path_819">
																	<path class="st15" d="M12.8,7.1L13,6.5L13.2,6h-0.4l-0.2,0.4l-0.2,0.4c0.1,0,0.1,0.1,0.2,0.1
																		C12.7,7,12.8,7,12.8,7.1z"/>
																</g>
																<g id="Path_820">
																	<path class="st15" d="M12.1,7l0.2-0.5L12.4,6h-1.2L11,6.6l-0.2,0.6C11.2,7.3,11.7,7.2,12.1,7L12.1,7z"/>
																</g>
																<g id="Path_821">
																	<path class="st35" d="M16.8,1.6h-16c-0.2,0-0.4-0.2-0.4-0.4V0.4C0.4,0.2,0.6,0,0.8,0h16.1c0.2,0,0.4,0.2,0.4,0.4
																		v0.8C17.2,1.4,17.1,1.6,16.8,1.6L16.8,1.6L16.8,1.6z"/>
																</g>
																<g id="Path_822">
																	<path class="st37" d="M16.8,0.4v0.4c0,0.2-0.2,0.4-0.4,0.4H0.8c-0.1,0-0.2,0.1-0.2,0.2c0,0.1,0.1,0.2,0.2,0.2
																		c0,0,0,0,0,0h16c0.2,0,0.4-0.2,0.4-0.4V0.4l0,0c0-0.1-0.1-0.2-0.2-0.2c0,0,0,0,0,0C16.9,0.2,16.8,0.3,16.8,0.4
																		C16.8,0.4,16.8,0.4,16.8,0.4L16.8,0.4z"/>
																</g>
																<g id="Rectangle_208">
																	<path class="st34" d="M0.8,1.6h16V2h-16V1.6z"/>
																</g>
																<g id="Path_823">
																	<path class="st36" d="M4,13.2H3.2l0.6-1.8l0.6-1.8h0.8l-0.6,1.8L4,13.2z"/>
																</g>
																<g id="Path_824">
																	<path class="st36" d="M4.8,13.2H4.4L5,11.4l0.6-1.8H6l-0.6,1.8L4.8,13.2z"/>
																</g>
																<g id="Rectangle_209">
																	<path class="st15" d="M2.8,9.6H6V10H2.8V9.6z"/>
																</g>
																<g id="Path_825">
																	<path class="st36" d="M5.9,10L6,9.8L6,9.6H5.6L5.6,9.8L5.5,10H5.9z"/>
																</g>
																<g id="Path_826">
																	<path class="st36" d="M5.1,10l0.1-0.2l0.1-0.2H4.4L4.4,9.8L4.3,10H5.1L5.1,10z"/>
																</g>
																<g id="Path_827">
																	<path class="st36" d="M4,9.2H3.2l0.6-1.8l0.6-1.8h0.8L4.6,7.4L4,9.2z"/>
																</g>
																<g id="Path_828">
																	<path class="st36" d="M4.8,9.2H4.4L5,7.4l0.6-1.8H6L5.4,7.4L4.8,9.2z"/>
																</g>
																<g id="Path_829">
																	<path class="st15" d="M5.5,6L5.3,6.4L5.2,6.8c0.1,0,0.1,0.1,0.2,0.1C5.4,7,5.5,7,5.5,7l0.2-0.5L5.9,6L5.7,6L5.5,6z
																		"/>
																</g>
																<g id="Path_830">
																	<path class="st15" d="M4.3,6L4.1,6.6L3.9,7.2c0.3,0,0.6,0,0.8-0.1l0.2-0.5L5.1,6L4.3,6L4.3,6z"/>
																</g>
																<g id="Group_647" transform="translate(0.403 2.418)">
																	<g id="Path_831">
																		<path class="st40" d="M16.8,2.4H0l0.8-1.2L1.6,0h13.6L16,1.2L16.8,2.4z"/>
																	</g>
																	<g id="Path_832">
																		<path class="st0" d="M4.8,2.4H2.4L3,1.2L3.6,0h2L5.2,1.2L4.8,2.4z"/>
																	</g>
																	<g id="Path_833">
																		<path class="st0" d="M12,2.4h2.4l-0.6-1.2L13.2,0h-2l0.4,1.2L12,2.4z"/>
																	</g>
																	<g id="Path_834">
																		<path class="st0" d="M9.6,2.4H7.2l0.2-1.2L7.6,0h1.6l0.2,1.2L9.6,2.4z"/>
																	</g>
																	<g id="Path_835">
																		<path class="st41" d="M0,2.4v1.2c0.7,0.5,1.7,0.5,2.4,0h2.4c0.7,0.5,1.7,0.5,2.4,0h2.4c0.7,0.5,1.7,0.5,2.4,0h2.4
																			c0.7,0.5,1.7,0.5,2.4,0V2.4H0z"/>
																	</g>
																	<g id="Path_836">
																		<path class="st42" d="M2.4,2.4v1.2c0.7,0.5,1.7,0.5,2.4,0V2.4H2.4z"/>
																	</g>
																	<g id="Group_646" transform="translate(7.209 2.39)">
																		<g id="Path_837">
																			<path class="st42" d="M0,0v1.2c0.7,0.5,1.7,0.5,2.4,0V0H0z"/>
																		</g>
																	</g>
																	<g id="Path_838">
																		<path class="st42" d="M12,2.4v1.2c0.7,0.5,1.7,0.5,2.4,0V2.4H12z"/>
																	</g>
																</g>
															</g>
														</g>
													</g>
												</g>
											</g>
										</g>
									</g>
								</g>
							</g>
						</g>
					</g>
				</g>
			</g>
		</g>
	</g>
	<g id="Group_2067" transform="translate(-5 -172.081)">
		<g id="Ellipse_408" transform="translate(678 721)">
			<g>
				<circle class="st43" cx="16.5" cy="16.5" r="16.5"/>
			</g>
			<g>
				<path class="st16" d="M16.5,33C7.4,33,0,25.6,0,16.5S7.4,0,16.5,0S33,7.4,33,16.5S25.6,33,16.5,33z M16.5,3C9.1,3,3,9.1,3,16.5
					S9.1,30,16.5,30S30,23.9,30,16.5S23.9,3,16.5,3z"/>
			</g>
		</g>
	</g>
	<g id="Group_2068" transform="translate(603.323 503.603)">
		<g id="Rectangle_195">
			<rect x="82" y="60.2" transform="matrix(0.7071 -0.7071 0.7071 0.7071 -20.3024 77.6003)" class="st16" width="3" height="6.3"/>
		</g>
		<g id="Rectangle_196">
			
				<rect x="82.1" y="60.3" transform="matrix(0.7071 -0.7071 0.7071 0.7071 -18.1289 79.8656)" class="st16" width="10.5" height="3"/>
		</g>
	</g>
	<g id="Group_3058" transform="translate(48 -194.795)">
		<g id="Group_2316" transform="translate(629 809)">
			<g id="Component_4_12">
				<g id="Ellipse_89">
					<circle class="st44" cx="12.5" cy="12.5" r="12.5"/>
				</g>
			</g>
			<g id="Group_2312" transform="translate(6.453 13.479) rotate(-45)">
				<g id="Group_2313">
					<g id="Rectangle_196-2">
						
							<rect x="5.4" y="-0.3" transform="matrix(-0.7071 -0.7071 0.7071 -0.7071 8.7731 8.8073)" class="st13" width="1.6" height="5.7"/>
					</g>
					<g id="Rectangle_934">
						
							<rect x="3.3" y="3.9" transform="matrix(-1 2.535182e-06 -2.535182e-06 -1 10.845 9.464)" class="st13" width="4.2" height="1.6"/>
					</g>
					<g id="Rectangle_935">
						
							<rect x="3.3" y="1.3" transform="matrix(-1 2.535182e-06 -2.535182e-06 -1 8.13 6.749)" class="st13" width="1.6" height="4.2"/>
					</g>
					<g id="Rectangle_936">
						
							<rect x="-0.3" y="5.4" transform="matrix(-0.7071 -0.7071 0.7071 -0.7071 2.362168e-02 12.431)" class="st13" width="5.7" height="1.6"/>
					</g>
				</g>
			</g>
		</g>
	</g>
</g>
</svg>
