<svg width="1082" height="506" viewBox="0 0 1082 506" fill="none" xmlns="http://www.w3.org/2000/svg">
<g opacity="0.3">
<path opacity="0.6" fill-rule="evenodd" clip-rule="evenodd" d="M214.02 473.317L135.829 350.673C130.817 342.839 127.336 334.091 125.577 324.911C123.9 316.149 123.875 307.141 125.509 298.368C127.086 289.744 130.312 281.52 134.999 274.161C139.803 266.63 146.105 260.209 153.495 255.314C160.892 250.417 169.214 247.153 177.923 245.734C186.424 244.361 195.109 244.701 203.483 246.733C212.009 248.783 220.074 252.465 227.252 257.581C234.767 262.949 241.193 269.744 246.184 277.594L324.375 400.238C329.384 408.073 332.865 416.82 334.626 425.998C336.299 434.762 336.321 443.77 334.695 452.542C333.112 461.166 329.888 469.39 325.205 476.75C320.397 484.286 314.089 490.71 306.692 495.607C299.301 500.497 290.983 503.758 282.28 505.177C273.779 506.553 265.095 506.215 256.72 504.178C248.193 502.134 240.127 498.451 232.951 493.33C225.435 487.963 219.007 481.168 214.02 473.317H214.02Z" fill="#1191D1"/>
<path opacity="0.3" fill-rule="evenodd" clip-rule="evenodd" d="M332.394 170.972C347.784 195.592 341.014 228.489 317.271 244.449C293.528 260.41 261.804 253.388 246.413 228.767C231.022 204.148 237.792 171.25 261.536 155.29C281.969 141.553 308.905 144.633 325.964 162.653C328.372 165.195 330.526 167.983 332.394 170.972V170.972Z" fill="#1191D1"/>
<path opacity="0.15" fill-rule="evenodd" clip-rule="evenodd" d="M71.7022 95.4814L200.029 10.424C207.264 5.61676 215.388 2.37591 223.901 0.90337C232.162 -0.50715 240.614 -0.263844 248.784 1.61897C261.35 4.49408 272.822 11.0489 281.791 20.4789C284.845 23.6848 287.584 27.1912 289.969 30.9441C294.764 38.4611 298.064 46.8669 299.678 55.6831C301.222 64.1414 301.157 72.824 299.487 81.2569C297.857 89.6374 294.641 97.6139 290.019 104.74C285.241 112.074 279.036 118.331 271.793 123.123L143.48 208.169C136.247 212.979 128.122 216.218 119.609 217.689C111.348 219.102 102.896 218.86 94.7256 216.975C86.4946 215.105 78.6907 211.639 71.7411 206.763C64.4969 201.681 58.3065 195.189 53.5269 187.66C48.724 180.146 45.4238 171.739 43.815 162.921C42.2686 154.458 42.3294 145.772 43.9958 137.333C45.628 128.951 48.8456 120.976 53.4661 113.848C58.2411 106.519 64.4393 100.266 71.6772 95.4766L71.7022 95.4814Z" fill="#1191D1"/>
<path opacity="0.2" fill-rule="evenodd" clip-rule="evenodd" d="M899.353 393.738L787.887 449.115C781.603 452.248 774.754 454.028 767.768 454.345C760.991 454.639 754.222 453.582 747.839 451.233C738.02 447.637 729.44 441.193 723.154 432.69C721.012 429.797 719.154 426.696 717.605 423.433C714.485 416.895 712.655 409.792 712.22 402.533C711.807 395.567 712.708 388.586 714.875 381.968C717.006 375.389 720.371 369.298 724.783 364.033C729.342 358.618 734.939 354.214 741.231 351.096L852.684 295.725C858.968 292.591 865.816 290.812 872.802 290.496C879.579 290.2 886.35 291.258 892.732 293.606C899.166 295.951 905.099 299.538 910.208 304.169C915.534 308.999 919.875 314.854 922.979 321.401C926.104 327.937 927.934 335.041 928.364 342.302C928.78 349.27 927.881 356.257 925.717 362.879C923.584 369.458 920.219 375.549 915.808 380.814C911.252 386.227 905.659 390.627 899.373 393.744L899.353 393.738Z" fill="#1191D1"/>
<path opacity="0.3" fill-rule="evenodd" clip-rule="evenodd" d="M970.905 38.7112L1021.77 145.436C1025.03 152.256 1026.97 159.655 1027.49 167.225C1027.98 174.453 1027.11 181.71 1024.94 188.607C1022.83 195.388 1019.43 201.684 1014.94 207.133C1010.34 212.707 1004.64 217.234 998.219 220.424C991.792 223.613 984.781 225.393 977.64 225.648C970.668 225.887 963.718 224.729 957.184 222.24C950.529 219.722 944.405 215.935 939.133 211.083C933.617 205.995 929.114 199.868 925.871 193.04L875.011 86.3151C871.75 79.4951 869.807 72.0967 869.291 64.527C868.804 57.2986 869.668 50.0445 871.835 43.1459C873.952 36.3632 877.35 30.0686 881.837 24.619C886.442 19.0406 892.142 14.5107 898.57 11.3215C904.993 8.13627 912 6.35881 919.137 6.10378C926.108 5.86035 933.058 7.01828 939.593 9.51059C946.25 12.0261 952.375 15.8129 957.643 20.6687C963.161 25.7551 967.665 31.8822 970.905 38.7112L970.905 38.7112Z" fill="#1191D1"/>
</g>
</svg>
