<svg width="1140" height="280" viewBox="0 0 1140 280" fill="none" xmlns="http://www.w3.org/2000/svg">
<g opacity="0.3">
<mask id="mask0_12_24" style="mask-type:luminance" maskUnits="userSpaceOnUse" x="0" y="0" width="1140" height="280">
<path fill-rule="evenodd" clip-rule="evenodd" d="M0 40C0 17.9086 17.9086 0 40 0H1100C1122.09 0 1140 17.9086 1140 40V240C1140 262.091 1122.09 280 1100 280H40C17.9086 280 0 262.091 0 240V40Z" fill="white"/>
</mask>
<g mask="url(#mask0_12_24)">
<path opacity="0.6" fill-rule="evenodd" clip-rule="evenodd" d="M91.3836 438.264L-7.12754 293.491C-13.4421 284.244 -17.8277 273.918 -20.0431 263.081C-22.1565 252.738 -22.1879 242.105 -20.1294 231.748C-18.1417 221.568 -14.0778 211.86 -8.17343 203.174C-2.11986 194.284 5.81944 186.705 15.1303 180.926C24.4491 175.146 34.9334 171.293 45.9064 169.618C56.6164 167.997 67.5579 168.398 78.109 170.797C88.8504 173.218 99.011 177.563 108.055 183.602C117.523 189.939 125.619 197.961 131.906 207.226L230.417 351.999C236.728 361.248 241.114 371.573 243.333 382.407C245.44 392.752 245.468 403.385 243.419 413.74C241.426 423.92 237.364 433.628 231.463 442.317C225.406 451.211 217.459 458.795 208.14 464.575C198.827 470.348 188.349 474.197 177.383 475.872C166.673 477.497 155.732 477.098 145.181 474.694C134.438 472.28 124.275 467.933 115.235 461.888C105.765 455.553 97.6668 447.531 91.3836 438.264H91.3836Z" fill="#1191D1"/>
<path opacity="0.3" fill-rule="evenodd" clip-rule="evenodd" d="M240.617 80.6626C259.947 109.763 251.444 148.646 221.623 167.51C191.802 186.375 151.957 178.076 132.627 148.975C113.296 119.876 121.799 80.9914 151.62 62.1277C177.285 45.8912 211.115 49.5317 232.542 70.83C235.565 73.8353 238.271 77.1298 240.617 80.6626Z" fill="#1191D1"/>
<path opacity="0.15" fill-rule="evenodd" clip-rule="evenodd" d="M-87.6053 -7.79528L73.9258 -108.019C83.0326 -113.684 93.2579 -117.502 103.974 -119.238C114.372 -120.9 125.011 -120.613 135.295 -118.394C151.113 -115.007 165.553 -107.283 176.842 -96.1715C180.686 -92.394 184.134 -88.2623 187.136 -83.8402C193.172 -74.9829 197.326 -65.0782 199.357 -54.6901C201.302 -44.7235 201.219 -34.4927 199.118 -24.5561C197.065 -14.6814 193.017 -5.28258 187.199 3.11378C181.185 11.7556 173.375 19.1289 164.258 24.7746L2.74488 124.985C-6.35998 130.654 -16.5873 134.47 -27.3032 136.204C-37.7011 137.868 -48.3405 137.583 -58.6247 135.362C-68.9854 133.159 -78.8085 129.074 -87.5562 123.329C-96.6748 117.34 -104.467 109.692 -110.483 100.819C-116.529 91.966 -120.683 82.0594 -122.708 71.6693C-124.655 61.6971 -124.578 51.4626 -122.48 41.5185C-120.426 31.6419 -116.376 22.245 -110.56 13.8468C-104.549 5.21056 -96.7474 -2.1571 -87.6367 -7.8009L-87.6053 -7.79528Z" fill="#1191D1"/>
<path opacity="0.2" fill-rule="evenodd" clip-rule="evenodd" d="M1052.08 258.234L911.762 323.403C903.851 327.089 895.23 329.184 886.436 329.557C877.904 329.903 869.383 328.658 861.349 325.895C848.988 321.663 838.188 314.079 830.274 304.073C827.578 300.668 825.239 297.02 823.289 293.18C819.361 285.485 817.058 277.127 816.51 268.583C815.99 260.386 817.125 252.17 819.852 244.383C822.535 236.641 826.771 229.473 832.324 223.277C838.064 216.904 845.11 211.721 853.03 208.053L993.331 142.891C1001.24 139.203 1009.86 137.109 1018.65 136.737C1027.19 136.389 1035.71 137.634 1043.74 140.398C1051.84 143.157 1059.31 147.378 1065.74 152.828C1072.45 158.512 1077.91 165.403 1081.82 173.107C1085.75 180.799 1088.06 189.158 1088.6 197.703C1089.12 205.904 1087.99 214.125 1085.27 221.919C1082.58 229.661 1078.35 236.829 1072.79 243.024C1067.06 249.394 1060.02 254.573 1052.1 258.241L1052.08 258.234Z" fill="#1191D1"/>
<path opacity="0.3" fill-rule="evenodd" clip-rule="evenodd" d="M1148.73 -68.8144L1212.78 56.9457C1216.89 64.9821 1219.34 73.7 1219.99 82.6198C1220.61 91.1374 1219.52 99.6883 1216.78 107.816C1214.12 115.807 1209.84 123.225 1204.19 129.646C1198.39 136.214 1191.22 141.549 1183.13 145.307C1175.03 149.065 1166.2 151.163 1157.21 151.463C1148.43 151.745 1139.68 150.381 1131.45 147.447C1123.07 144.48 1115.35 140.018 1108.71 134.3C1101.77 128.305 1096.09 121.085 1092.01 113.04L1027.95 -12.7202C1023.85 -20.7566 1021.4 -29.4746 1020.75 -38.3943C1020.14 -46.9119 1021.23 -55.4598 1023.96 -63.5888C1026.62 -71.5813 1030.9 -78.9985 1036.55 -85.42C1042.35 -91.9934 1049.53 -97.3313 1057.63 -101.089C1065.72 -104.843 1074.54 -106.937 1083.53 -107.238C1092.31 -107.524 1101.06 -106.16 1109.29 -103.223C1117.68 -100.259 1125.39 -95.7968 1132.02 -90.0749C1138.97 -84.0814 1144.65 -76.8615 1148.73 -68.8144L1148.73 -68.8144Z" fill="#1191D1"/>
</g>
</g>
</svg>
