<?xml version="1.0" encoding="UTF-8"?> <svg xmlns="http://www.w3.org/2000/svg" width="1179" height="637" viewBox="0 0 1179 637" fill="none"><path d="M769.702 469.656H324.799C322.23 469.656 320.149 471.737 320.149 474.305V494.999C320.149 497.567 322.23 499.649 324.799 499.649H330.585V636.417H769.702" fill="#F2C9A7"></path><path d="M924.95 273.049C924.729 265.433 924.138 257.241 923.252 248.666C922.883 244.4 922.559 241.684 922.411 240.636H923.415C926.411 240.636 928.832 238.215 928.832 235.219V209.994C928.832 206.997 926.411 204.577 923.415 204.577H916.95C914.367 189.861 911.371 174.923 908.212 160.458C907.799 157.536 907.238 155.425 906.884 154.259H910.086C913.142 154.259 915.636 151.779 915.636 148.709V125.122C915.636 122.067 913.157 119.573 910.086 119.573H898.706C893.245 97.4322 888.212 78.8933 885.083 67.7199C884.758 66.5686 884.315 65.4911 883.754 64.4726H883.902C880.684 59.0261 876.227 57.55 876.227 57.55H831.577C831.577 57.55 827.621 59.0113 824.935 63.0113C824.905 63.0556 824.89 63.0851 824.861 63.1294C824.831 63.1737 824.802 63.218 824.772 63.2623C823.872 64.6054 823.178 66.111 822.721 67.7346C819.592 78.9229 814.558 97.447 809.097 119.587H798.411C795.355 119.587 792.861 122.067 792.861 125.137V148.724C792.861 151.779 795.341 154.274 798.411 154.274H800.949C800.757 155.13 800.566 155.986 800.374 156.857V156.901C796.935 172.458 793.643 188.665 790.853 204.592H785.097C782.101 204.592 779.68 207.012 779.68 210.009V235.234C779.68 238.23 782.101 240.651 785.097 240.651H785.451L785.289 242.068C785.215 242.643 785.156 243.219 785.082 243.78L785.008 244.4C783.901 254.245 783.149 264.4 782.868 273.049H924.965H924.95Z" fill="#F2C9A7"></path><path d="M870.278 0H838.219C835.105 0 832.58 2.5244 832.58 5.63841V73.934C832.58 77.048 835.105 79.5724 838.219 79.5724H870.278C873.392 79.5724 875.916 77.048 875.916 73.934V5.63841C875.916 2.5244 873.392 0 870.278 0Z" fill="#F2C9A7"></path><path d="M788.551 273.05H919.932C930.338 273.05 938.78 281.493 938.78 291.899V636.402H769.717V291.899C769.717 281.493 778.16 273.05 788.566 273.05H788.551Z" fill="#F2C9A7"></path><path d="M835.99 529.258H967.371C977.777 529.258 986.22 537.701 986.22 548.107V636.402H817.156V548.107C817.156 537.701 825.599 529.258 836.005 529.258H835.99Z" fill="#F2C9A7"></path><path d="M680.964 392.106V368.696C680.964 365.582 678.439 363.058 675.325 363.058H510.955C507.841 363.058 505.317 365.582 505.317 368.696V392.106C505.317 395.22 507.841 397.744 510.955 397.744H675.325C678.439 397.744 680.964 395.22 680.964 392.106Z" fill="#F2C9A7"></path><path d="M510.409 498.704V475.294C510.409 472.18 507.885 469.656 504.771 469.656H325.803C322.689 469.656 320.164 472.18 320.164 475.294V498.704C320.164 501.818 322.689 504.342 325.803 504.342H504.771C507.885 504.342 510.409 501.818 510.409 498.704Z" fill="#F2C9A7"></path><path d="M1178.28 324.755V301.345C1178.28 298.231 1175.76 295.707 1172.64 295.707H1063.05C1059.93 295.707 1057.41 298.231 1057.41 301.345V324.755C1057.41 327.869 1059.93 330.393 1063.05 330.393H1172.64C1175.76 330.393 1178.28 327.869 1178.28 324.755Z" fill="#F2C9A7"></path><path d="M1178.28 523.619V500.21C1178.28 497.096 1175.76 494.571 1172.64 494.571H1063.05C1059.93 494.571 1057.41 497.096 1057.41 500.21V523.619C1057.41 526.733 1059.93 529.258 1063.05 529.258H1172.64C1175.76 529.258 1178.28 526.733 1178.28 523.619Z" fill="#F2C9A7"></path><path d="M1178.27 424.179V400.77C1178.27 397.656 1175.74 395.131 1172.63 395.131H1063.03C1059.92 395.131 1057.39 397.656 1057.39 400.77V424.179C1057.39 427.293 1059.92 429.818 1063.03 429.818H1172.63C1175.74 429.818 1178.27 427.293 1178.27 424.179Z" fill="#F2C9A7"></path><path d="M517.11 469.656H669.199V390.083H517.11V469.656Z" fill="#F2C9A7"></path><path d="M680.978 320.194V296.784C680.978 293.67 678.454 291.146 675.34 291.146H510.97C507.856 291.146 505.331 293.67 505.331 296.784V320.194C505.331 323.308 507.856 325.832 510.97 325.832H675.34C678.454 325.832 680.978 323.308 680.978 320.194Z" fill="#F2C9A7"></path><path d="M517.11 397.744H669.199V318.172H517.11V397.744Z" fill="#F2C9A7"></path><path d="M1178.28 219.219V636.403H1075.24V322.26C1075.24 265.389 1121.41 219.219 1178.28 219.219Z" fill="#F2C9A7"></path><path d="M279.559 544.786H14.3469V636.388H279.559V544.786Z" fill="#F2C9A7"></path><path d="M126.229 456.283L247.854 420.726V519.841H126.229V456.283Z" fill="#F2C9A7"></path><path d="M282.157 405.224L102.225 448.123L105.456 461.676L285.388 418.777L282.157 405.224Z" fill="#F2C9A7"></path><path d="M288.799 516.712H5.10698C2.28644 516.712 0 518.998 0 521.819V548.978C0 551.798 2.28644 554.085 5.10698 554.085H288.799C291.619 554.085 293.906 551.798 293.906 548.978V521.819C293.906 518.998 291.619 516.712 288.799 516.712Z" fill="#F2C9A7"></path></svg> 