<svg xmlns="http://www.w3.org/2000/svg" xmlns:xlink="http://www.w3.org/1999/xlink" width="319" height="254" viewBox="0 0 319 254">
  <defs>
    <clipPath id="clip-path">
      <path id="Path_6885" data-name="Path 6885" d="M159.7,26.3a47.217,47.217,0,0,0-31,11.5H105.8v72.4h23a47.629,47.629,0,1,0,30.9-83.9Z"/>
    </clipPath>
  </defs>
  <g id="item-1" transform="translate(-0.2)">
    <path id="Rectangle_561-4" d="M10.2,0h299a10.029,10.029,0,0,1,10,10V244a10.029,10.029,0,0,1-10,10H10.2a10.029,10.029,0,0,1-10-10V10A10.029,10.029,0,0,1,10.2,0Z" fill="#fff"/>
    <g id="Group_7735" data-name="Group 7735">
      <g id="Group_7734" data-name="Group 7734">
        <path id="Path_6818" data-name="Path 6818" d="M110.7,149.7h3.2v9.9a5.467,5.467,0,0,1-.8,2.9,5.1,5.1,0,0,1-2.2,1.9,6.971,6.971,0,0,1-3.3.7,6.711,6.711,0,0,1-3.3-.7,5.853,5.853,0,0,1-2.2-1.9,5.467,5.467,0,0,1-.8-2.9v-9.9h3.2v9.6a2.934,2.934,0,0,0,.4,1.6A2.905,2.905,0,0,0,106,162a2.934,2.934,0,0,0,1.6.4,2.726,2.726,0,0,0,1.6-.4,3.838,3.838,0,0,0,1.1-1.1,2.934,2.934,0,0,0,.4-1.6v-9.6Z" fill="#3c3c3c"/>
        <path id="Path_6819" data-name="Path 6819" d="M126.1,156.8l-2.9.2a2.117,2.117,0,0,0-.3-.7,2.652,2.652,0,0,0-.6-.5,2.958,2.958,0,0,0-1-.2,2.133,2.133,0,0,0-1.2.3,1.02,1.02,0,0,0-.5.8.908.908,0,0,0,.3.7,3.832,3.832,0,0,0,1.1.5l2.1.4a5.271,5.271,0,0,1,2.5,1.1,2.792,2.792,0,0,1,.8,2,2.883,2.883,0,0,1-.7,2,3.524,3.524,0,0,1-1.8,1.3,7.082,7.082,0,0,1-2.6.5,5.7,5.7,0,0,1-3.6-1,3.78,3.78,0,0,1-1.6-2.6l3.1-.2a1.64,1.64,0,0,0,.7,1.1,2.116,2.116,0,0,0,1.4.4,2.269,2.269,0,0,0,1.3-.3,1.02,1.02,0,0,0,.5-.8.755.755,0,0,0-.4-.7,2.817,2.817,0,0,0-1.1-.4l-2-.4a4.21,4.21,0,0,1-2.5-1.2,3.227,3.227,0,0,1-.8-2.1,3.077,3.077,0,0,1,.6-1.9,4.345,4.345,0,0,1,1.7-1.2,6.772,6.772,0,0,1,2.6-.4,5.714,5.714,0,0,1,3.4.9A3.839,3.839,0,0,1,126.1,156.8Z" fill="#3c3c3c"/>
        <path id="Path_6820" data-name="Path 6820" d="M133.6,165.2a5.559,5.559,0,0,1-3-.7,6.365,6.365,0,0,1-2-2,7.214,7.214,0,0,1,0-6.2,5.535,5.535,0,0,1,1.9-2.1,5.426,5.426,0,0,1,2.9-.7,4.638,4.638,0,0,1,2.1.4,6.19,6.19,0,0,1,1.7,1.1,4.185,4.185,0,0,1,1.1,1.8,6.772,6.772,0,0,1,.4,2.6v.9H129v-2h6.7a2.133,2.133,0,0,0-.3-1.2,2.047,2.047,0,0,0-.8-.8,2.663,2.663,0,0,0-1.2-.3,2.768,2.768,0,0,0-1.3.3,1.962,1.962,0,0,0-.9.9,2.663,2.663,0,0,0-.3,1.2v1.9a3.339,3.339,0,0,0,.3,1.5,2.836,2.836,0,0,0,.9,1,2.092,2.092,0,0,0,1.4.3,3.083,3.083,0,0,0,1-.1,2.994,2.994,0,0,0,.8-.4,1.794,1.794,0,0,0,.5-.7l2.9.2a3.84,3.84,0,0,1-.9,1.8,4.739,4.739,0,0,1-1.8,1.2C135.4,165.1,134.5,165.2,133.6,165.2Z" fill="#3c3c3c"/>
        <path id="Path_6821" data-name="Path 6821" d="M140.9,165V153.5H144v2h.1a3.088,3.088,0,0,1,1.1-1.6,2.618,2.618,0,0,1,1.7-.5h.5a.9.9,0,0,1,.5.1v2.8c-.1,0-.4-.1-.6-.1-.3,0-.5-.1-.7-.1a2.133,2.133,0,0,0-1.2.3,2.361,2.361,0,0,0-.9.8,2.663,2.663,0,0,0-.3,1.2v6.5h-3.3Z" fill="#3c3c3c"/>
        <path id="Path_6822" data-name="Path 6822" d="M157,165h-3.5l5.3-15.3H163l5.3,15.3h-3.5L161,153.2h-.1Zm-.2-6H165v2.5h-8.2Z" fill="#3c3c3c"/>
        <path id="Path_6823" data-name="Path 6823" d="M174.3,165.2a3.986,3.986,0,0,1-2.4-.7,4.8,4.8,0,0,1-1.7-2,7.943,7.943,0,0,1-.6-3.2,8.109,8.109,0,0,1,.6-3.3,4.466,4.466,0,0,1,4-2.7,3.808,3.808,0,0,1,1.6.3,2.723,2.723,0,0,1,1,.8,2.361,2.361,0,0,1,.6.9h.1v-5.7h3.2V165h-3.1v-1.8h-.1a4.7,4.7,0,0,1-.6.9,3.134,3.134,0,0,1-1.1.8A3.339,3.339,0,0,1,174.3,165.2Zm1-2.5a2.01,2.01,0,0,0,1.3-.4,2.55,2.55,0,0,0,.8-1.2,5.55,5.55,0,0,0,0-3.6,3.6,3.6,0,0,0-.8-1.2,2.313,2.313,0,0,0-2.6,0,3.6,3.6,0,0,0-.8,1.2,4.671,4.671,0,0,0-.3,1.7,4.844,4.844,0,0,0,.3,1.8,3.6,3.6,0,0,0,.8,1.2A1.9,1.9,0,0,0,175.3,162.7Z" fill="#3c3c3c"/>
        <path id="Path_6824" data-name="Path 6824" d="M183.4,165V153.5h3v2h.1a2.76,2.76,0,0,1,1.2-1.6,3.379,3.379,0,0,1,2-.6,3.173,3.173,0,0,1,2,.6,2.609,2.609,0,0,1,1.1,1.6h.1a2.929,2.929,0,0,1,1.3-1.6,3.8,3.8,0,0,1,2.2-.6,3.392,3.392,0,0,1,2.6,1,3.8,3.8,0,0,1,1,2.9v7.7h-3.2v-7.1a1.978,1.978,0,0,0-.5-1.4,1.9,1.9,0,0,0-1.3-.5,1.728,1.728,0,0,0-1.3.5,2.168,2.168,0,0,0-.5,1.4v7h-3.1v-7.1a1.715,1.715,0,0,0-1.8-1.8,1.689,1.689,0,0,0-1,.3,2.336,2.336,0,0,0-.7.7,1.978,1.978,0,0,0-.2,1.1v6.9h-3Z" fill="#3c3c3c"/>
        <path id="Path_6825" data-name="Path 6825" d="M204.1,152.1a1.656,1.656,0,0,1-1.2-.5,1.46,1.46,0,0,1,0-2.2,1.69,1.69,0,0,1,2.4,0,1.46,1.46,0,0,1,0,2.2A1.656,1.656,0,0,1,204.1,152.1ZM202.6,165V153.5h3.2V165Z" fill="#3c3c3c"/>
        <path id="Path_6826" data-name="Path 6826" d="M211.4,158.4V165h-3.2V153.5h3v2h.1a3.435,3.435,0,0,1,1.3-1.6,3.8,3.8,0,0,1,2.2-.6,4.648,4.648,0,0,1,2.1.5,2.94,2.94,0,0,1,1.4,1.5,5.556,5.556,0,0,1,.5,2.3v7.3h-3.2v-6.7a2.545,2.545,0,0,0-.5-1.6,2.172,2.172,0,0,0-2.6-.3,3.043,3.043,0,0,0-.8.8A2.768,2.768,0,0,0,211.4,158.4Z" fill="#3c3c3c"/>
      </g>
    </g>
    <g id="Group_7737" data-name="Group 7737">
      <g id="Group_7736" data-name="Group 7736">
        <path id="Path_6827" data-name="Path 6827" d="M50.9,183.6h2.3l3.9,9.6h.1l3.9-9.6h2.3V196H61.6v-8.9h-.1L57.9,196H56.4l-3.6-8.9h-.1v9H50.9V183.6Z" fill="#707070"/>
        <path id="Path_6828" data-name="Path 6828" d="M68.7,196.2a4.146,4.146,0,0,1-1.6-.3,1.818,1.818,0,0,1-1.1-1,2.41,2.41,0,0,1-.4-1.5,2.5,2.5,0,0,1,.3-1.3,3.043,3.043,0,0,1,.8-.8,3.582,3.582,0,0,1,1.1-.4,5.852,5.852,0,0,1,1.3-.2c.6-.1,1-.1,1.4-.2a1.884,1.884,0,0,0,.8-.2c.2-.1.2-.3.2-.5h0a1.594,1.594,0,0,0-.4-1.2,1.7,1.7,0,0,0-1.3-.4,1.955,1.955,0,0,0-1.4.4,2.757,2.757,0,0,0-.7.9l-1.7-.4a3.39,3.39,0,0,1,.9-1.4,5.67,5.67,0,0,1,1.3-.8,4.145,4.145,0,0,1,1.6-.2,4.868,4.868,0,0,1,1.2.1,3.08,3.08,0,0,1,1.2.5,2.837,2.837,0,0,1,.9,1,3.867,3.867,0,0,1,.4,1.7v6.2H71.7v-1.3h-.1a3.039,3.039,0,0,1-.5.7,3.49,3.49,0,0,1-.9.6A7.5,7.5,0,0,0,68.7,196.2Zm.4-1.4a2.768,2.768,0,0,0,1.3-.3,2.047,2.047,0,0,0,.8-.8,1.929,1.929,0,0,0,.3-1v-1.2c-.1.1-.2.1-.4.2a1.268,1.268,0,0,1-.6.1c-.2,0-.5.1-.7.1s-.4.1-.6.1a2.959,2.959,0,0,0-1,.2,4.349,4.349,0,0,0-.7.4,1.136,1.136,0,0,0-.3.8,1.231,1.231,0,0,0,.5,1A2.891,2.891,0,0,0,69.1,194.8Z" fill="#707070"/>
        <path id="Path_6829" data-name="Path 6829" d="M77.5,190.5V196H75.7v-9.3h1.7v1.5h.1a2.335,2.335,0,0,1,1-1.2,3.064,3.064,0,0,1,1.7-.4,3.287,3.287,0,0,1,1.7.4,3.179,3.179,0,0,1,1.1,1.2,3.807,3.807,0,0,1,.4,1.9V196H81.6v-5.7a2.545,2.545,0,0,0-.5-1.6,1.816,1.816,0,0,0-1.4-.6,2.016,2.016,0,0,0-1.1.3,2.047,2.047,0,0,0-.8.8A2.768,2.768,0,0,0,77.5,190.5Z" fill="#707070"/>
        <path id="Path_6830" data-name="Path 6830" d="M88.5,196.2a4.146,4.146,0,0,1-1.6-.3,1.818,1.818,0,0,1-1.1-1,2.41,2.41,0,0,1-.4-1.5,2.5,2.5,0,0,1,.3-1.3,3.043,3.043,0,0,1,.8-.8,3.582,3.582,0,0,1,1.1-.4,5.852,5.852,0,0,1,1.3-.2c.6-.1,1-.1,1.4-.2a1.884,1.884,0,0,0,.8-.2c.2-.1.2-.3.2-.5h0a1.594,1.594,0,0,0-.4-1.2,1.7,1.7,0,0,0-1.3-.4,1.955,1.955,0,0,0-1.4.4,2.757,2.757,0,0,0-.7.9l-1.7-.4a3.39,3.39,0,0,1,.9-1.4,5.67,5.67,0,0,1,1.3-.8,4.145,4.145,0,0,1,1.6-.2,4.868,4.868,0,0,1,1.2.1,3.08,3.08,0,0,1,1.2.5,2.837,2.837,0,0,1,.9,1,3.867,3.867,0,0,1,.4,1.7v6.2H91.5v-1.3h-.1a3.039,3.039,0,0,1-.5.7,3.49,3.49,0,0,1-.9.6A7.518,7.518,0,0,0,88.5,196.2Zm.4-1.4a2.768,2.768,0,0,0,1.3-.3,2.047,2.047,0,0,0,.8-.8,1.929,1.929,0,0,0,.3-1v-1.2c-.1.1-.2.1-.4.2a1.268,1.268,0,0,1-.6.1c-.2,0-.5.1-.7.1s-.4.1-.6.1a2.959,2.959,0,0,0-1,.2,4.349,4.349,0,0,0-.7.4,1.136,1.136,0,0,0-.3.8,1.231,1.231,0,0,0,.5,1A2.891,2.891,0,0,0,88.9,194.8Z" fill="#707070"/>
        <path id="Path_6831" data-name="Path 6831" d="M99.4,199.7a5.412,5.412,0,0,1-1.9-.3,2.871,2.871,0,0,1-1.3-.8,3.047,3.047,0,0,1-.7-1l1.6-.6c.1.2.3.4.4.6a1.794,1.794,0,0,0,.7.5,3.73,3.73,0,0,0,1.2.2,3.1,3.1,0,0,0,1.7-.5,2.015,2.015,0,0,0,.7-1.6v-1.8h-.1c-.1.2-.3.4-.5.7a1.555,1.555,0,0,1-.8.6,2.9,2.9,0,0,1-1.4.3,4.552,4.552,0,0,1-2-.5,4.061,4.061,0,0,1-1.4-1.5,6.5,6.5,0,0,1,0-5,3.809,3.809,0,0,1,3.4-2.2,2.9,2.9,0,0,1,1.4.3,1.853,1.853,0,0,1,.8.7c.2.3.4.5.5.7h.1V187h1.8v9.5a3.173,3.173,0,0,1-.6,2,3.269,3.269,0,0,1-1.5,1.1A16.238,16.238,0,0,0,99.4,199.7Zm0-5.3a1.844,1.844,0,0,0,1.3-.4,1.879,1.879,0,0,0,.8-1.1,4.145,4.145,0,0,0,.3-1.6,3.808,3.808,0,0,0-.3-1.6,4.44,4.44,0,0,0-.8-1.1,1.844,1.844,0,0,0-1.3-.4,2.3,2.3,0,0,0-1.4.4,2.836,2.836,0,0,0-.8,1.1,4.417,4.417,0,0,0,0,3.2A3.134,3.134,0,0,0,98,194,1.955,1.955,0,0,0,99.4,194.4Z" fill="#707070"/>
        <path id="Path_6832" data-name="Path 6832" d="M110,196.2a4.751,4.751,0,0,1-2.4-.6,3.14,3.14,0,0,1-1.5-1.7,5.1,5.1,0,0,1-.5-2.5,6.551,6.551,0,0,1,.5-2.5,4.978,4.978,0,0,1,1.5-1.7,4.143,4.143,0,0,1,2.3-.6,4.013,4.013,0,0,1,1.5.3,3.528,3.528,0,0,1,1.3.8,4.2,4.2,0,0,1,.9,1.4,6.229,6.229,0,0,1,.3,2.1v.6h-7.4v-1.4h5.6a2.768,2.768,0,0,0-.3-1.3,2.068,2.068,0,0,0-2-1.2,2.01,2.01,0,0,0-1.3.4,2.189,2.189,0,0,0-.9,1,2.768,2.768,0,0,0-.3,1.3v1.1a4.145,4.145,0,0,0,.3,1.6,2.189,2.189,0,0,0,.9,1,3.194,3.194,0,0,0,1.4.3,2.11,2.11,0,0,0,1.6-.5,1.794,1.794,0,0,0,.5-.7l1.7.3a3.293,3.293,0,0,1-.7,1.3,3.805,3.805,0,0,1-1.3.9A3.985,3.985,0,0,1,110,196.2Z" fill="#707070"/>
        <path id="Path_6833" data-name="Path 6833" d="M121.6,199.5a1.483,1.483,0,0,1-.7-.1,4.331,4.331,0,0,1-.5-.1l.4-1.5a2.768,2.768,0,0,0,.9.1.908.908,0,0,0,.7-.3,1.934,1.934,0,0,0,.5-.9l.2-.6-3.4-9.4h1.9l2.3,7.2h.1l2.3-7.2h1.9l-3.8,10.5a3.458,3.458,0,0,1-.7,1.2,3.915,3.915,0,0,1-1,.8A2.016,2.016,0,0,1,121.6,199.5Z" fill="#707070"/>
        <path id="Path_6834" data-name="Path 6834" d="M134,196.2a4.383,4.383,0,0,1-2.3-.6,3.53,3.53,0,0,1-1.5-1.7,5.1,5.1,0,0,1-.5-2.5,6.175,6.175,0,0,1,.5-2.5,4.978,4.978,0,0,1,1.5-1.7,4.143,4.143,0,0,1,2.3-.6,4.383,4.383,0,0,1,2.3.6,3.53,3.53,0,0,1,1.5,1.7,5.1,5.1,0,0,1,.5,2.5,6.175,6.175,0,0,1-.5,2.5,4.978,4.978,0,0,1-1.5,1.7A4.143,4.143,0,0,1,134,196.2Zm0-1.5a2.116,2.116,0,0,0,1.4-.4,2.55,2.55,0,0,0,.8-1.2,4.417,4.417,0,0,0,0-3.2,3.6,3.6,0,0,0-.8-1.2,1.978,1.978,0,0,0-1.4-.5,2.168,2.168,0,0,0-1.4.5,2.55,2.55,0,0,0-.8,1.2,4.417,4.417,0,0,0,0,3.2,3.6,3.6,0,0,0,.8,1.2A3.255,3.255,0,0,0,134,194.7Z" fill="#707070"/>
        <path id="Path_6835" data-name="Path 6835" d="M146.2,192.2v-5.4H148v9.3h-1.8v-1.6h-.1a2.94,2.94,0,0,1-1,1.2,3.371,3.371,0,0,1-1.7.5,2.934,2.934,0,0,1-1.6-.4,3.179,3.179,0,0,1-1.1-1.2,3.807,3.807,0,0,1-.4-1.9v-5.9h1.8v5.7a2.456,2.456,0,0,0,.5,1.5,1.816,1.816,0,0,0,1.4.6,1.929,1.929,0,0,0,1-.3,2.047,2.047,0,0,0,.8-.8A2.01,2.01,0,0,0,146.2,192.2Z" fill="#707070"/>
        <path id="Path_6836" data-name="Path 6836" d="M150.5,196v-9.3h1.7v1.5h.1a2.73,2.73,0,0,1,.9-1.2,2.41,2.41,0,0,1,1.5-.4h.8v1.7a.756.756,0,0,1-.4-.1c-.2-.1-.4,0-.6,0a2.016,2.016,0,0,0-1.1.3,2.7,2.7,0,0,0-.8.7,2.016,2.016,0,0,0-.3,1.1V196Z" fill="#707070"/>
        <path id="Path_6837" data-name="Path 6837" d="M168.4,189l-1.6.3-.3-.6c-.1-.2-.3-.3-.6-.5a2.388,2.388,0,0,0-.9-.2,2.768,2.768,0,0,0-1.3.3,1.05,1.05,0,0,0-.5.9.779.779,0,0,0,.3.7,3.832,3.832,0,0,0,1.1.5l1.5.3a3.745,3.745,0,0,1,1.9.9,2.111,2.111,0,0,1,.6,1.6,2.694,2.694,0,0,1-.5,1.5,3.249,3.249,0,0,1-1.3,1,5.917,5.917,0,0,1-2,.4,3.9,3.9,0,0,1-2.5-.7,2.47,2.47,0,0,1-1.2-1.9l1.7-.3a1.265,1.265,0,0,0,.7,1,2.5,2.5,0,0,0,1.3.3,1.955,1.955,0,0,0,1.4-.4.957.957,0,0,0,.5-.9.908.908,0,0,0-.3-.7,1.88,1.88,0,0,0-1-.4l-1.6-.3a3.745,3.745,0,0,1-1.9-.9,2.271,2.271,0,0,1-.6-1.6,2.389,2.389,0,0,1,.5-1.4,3.448,3.448,0,0,1,1.3-1,5.412,5.412,0,0,1,1.9-.3,4.265,4.265,0,0,1,2.4.6A2.534,2.534,0,0,1,168.4,189Z" fill="#707070"/>
        <path id="Path_6838" data-name="Path 6838" d="M174.9,186.7v1.4h-5.1v-1.4Zm-3.7-2.2H173v8.8a1.549,1.549,0,0,0,.2.8.781.781,0,0,0,.4.4.9.9,0,0,0,.5.1h.7l.3,1.5c-.1,0-.3.1-.4.1-.2,0-.4.1-.7.1a2.768,2.768,0,0,1-1.3-.3,3.915,3.915,0,0,1-1-.8,2.116,2.116,0,0,1-.4-1.4v-9.3Z" fill="#707070"/>
        <path id="Path_6839" data-name="Path 6839" d="M182.8,192.2v-5.4h1.8v9.3h-1.8v-1.6h-.1a2.94,2.94,0,0,1-1,1.2,3.371,3.371,0,0,1-1.7.5,2.934,2.934,0,0,1-1.6-.4,3.179,3.179,0,0,1-1.1-1.2,3.807,3.807,0,0,1-.4-1.9v-5.9h1.8v5.7a2.456,2.456,0,0,0,.5,1.5,1.816,1.816,0,0,0,1.4.6,1.929,1.929,0,0,0,1-.3,2.047,2.047,0,0,0,.8-.8A2.01,2.01,0,0,0,182.8,192.2Z" fill="#707070"/>
        <path id="Path_6840" data-name="Path 6840" d="M190.5,196.2a3.606,3.606,0,0,1-2-.6,4.389,4.389,0,0,1-1.4-1.6,7.01,7.01,0,0,1,0-5.2,3.168,3.168,0,0,1,1.4-1.6,3.606,3.606,0,0,1,2-.6,2.9,2.9,0,0,1,1.4.3,1.853,1.853,0,0,1,.8.7,4.233,4.233,0,0,0,.5.7h.1v-4.6h1.8V196h-1.8v-1.4h-.2c-.1.2-.3.4-.5.7a2.7,2.7,0,0,1-.8.7A2.363,2.363,0,0,1,190.5,196.2Zm.4-1.6a1.844,1.844,0,0,0,1.3-.4,2.55,2.55,0,0,0,.8-1.2,4.967,4.967,0,0,0,0-3.4,2.421,2.421,0,0,0-.8-1.1,2.01,2.01,0,0,0-1.3-.4,2.3,2.3,0,0,0-1.4.4,2.55,2.55,0,0,0-.8,1.2,4.146,4.146,0,0,0-.3,1.6,4.671,4.671,0,0,0,.3,1.7,3.6,3.6,0,0,0,.8,1.2A2.116,2.116,0,0,0,190.9,194.6Z" fill="#707070"/>
        <path id="Path_6841" data-name="Path 6841" d="M201.7,196.2a4.751,4.751,0,0,1-2.4-.6,3.14,3.14,0,0,1-1.5-1.7,5.1,5.1,0,0,1-.5-2.5,6.551,6.551,0,0,1,.5-2.5,4.978,4.978,0,0,1,1.5-1.7,4.143,4.143,0,0,1,2.3-.6,4.013,4.013,0,0,1,1.5.3,3.528,3.528,0,0,1,1.3.8,4.194,4.194,0,0,1,.9,1.4,6.229,6.229,0,0,1,.3,2.1v.6h-7.4v-1.4h5.6a2.768,2.768,0,0,0-.3-1.3,2.068,2.068,0,0,0-2-1.2,2.01,2.01,0,0,0-1.3.4,2.189,2.189,0,0,0-.9,1,2.768,2.768,0,0,0-.3,1.3v1.1a4.146,4.146,0,0,0,.3,1.6,2.189,2.189,0,0,0,.9,1,3.194,3.194,0,0,0,1.4.3,2.11,2.11,0,0,0,1.6-.5,1.794,1.794,0,0,0,.5-.7l1.7.3a3.293,3.293,0,0,1-.7,1.3,3.805,3.805,0,0,1-1.3.9A4.672,4.672,0,0,1,201.7,196.2Z" fill="#707070"/>
        <path id="Path_6842" data-name="Path 6842" d="M209.5,190.5V196h-1.8v-9.3h1.7v1.5h.1a2.335,2.335,0,0,1,1-1.2,3.064,3.064,0,0,1,1.7-.4,3.287,3.287,0,0,1,1.7.4,3.179,3.179,0,0,1,1.1,1.2,3.807,3.807,0,0,1,.4,1.9V196h-1.8v-5.7a2.545,2.545,0,0,0-.5-1.6,1.816,1.816,0,0,0-1.4-.6,2.016,2.016,0,0,0-1.1.3,2.047,2.047,0,0,0-.8.8A1.943,1.943,0,0,0,209.5,190.5Z" fill="#707070"/>
        <path id="Path_6843" data-name="Path 6843" d="M222.1,186.7v1.4H217v-1.4Zm-3.7-2.2h1.8v8.8a1.549,1.549,0,0,0,.2.8.781.781,0,0,0,.4.4.9.9,0,0,0,.5.1h.7l.3,1.5c-.1,0-.3.1-.4.1-.2,0-.4.1-.7.1a2.768,2.768,0,0,1-1.3-.3,3.915,3.915,0,0,1-1-.8,2.116,2.116,0,0,1-.4-1.4v-9.3Z" fill="#707070"/>
        <path id="Path_6844" data-name="Path 6844" d="M231.1,189l-1.6.3-.3-.6c-.1-.2-.3-.3-.6-.5a2.388,2.388,0,0,0-.9-.2,2.768,2.768,0,0,0-1.3.3,1.05,1.05,0,0,0-.5.9.779.779,0,0,0,.3.7,3.832,3.832,0,0,0,1.1.5l1.5.3a3.745,3.745,0,0,1,1.9.9,2.111,2.111,0,0,1,.6,1.6,2.694,2.694,0,0,1-.5,1.5,3.249,3.249,0,0,1-1.3,1,5.917,5.917,0,0,1-2,.4,3.9,3.9,0,0,1-2.5-.7,2.47,2.47,0,0,1-1.2-1.9l1.7-.3a1.265,1.265,0,0,0,.7,1,2.5,2.5,0,0,0,1.3.3,1.955,1.955,0,0,0,1.4-.4.957.957,0,0,0,.5-.9.908.908,0,0,0-.3-.7,1.88,1.88,0,0,0-1-.4l-1.6-.3a3.745,3.745,0,0,1-1.9-.9,2.271,2.271,0,0,1-.6-1.6,2.389,2.389,0,0,1,.5-1.4,3.448,3.448,0,0,1,1.3-1,5.412,5.412,0,0,1,1.9-.3,4.265,4.265,0,0,1,2.4.6A2.945,2.945,0,0,1,231.1,189Z" fill="#707070"/>
        <path id="Path_6845" data-name="Path 6845" d="M240.4,196.2a4.146,4.146,0,0,1-1.6-.3,1.818,1.818,0,0,1-1.1-1,2.41,2.41,0,0,1-.4-1.5,2.5,2.5,0,0,1,.3-1.3,3.043,3.043,0,0,1,.8-.8,3.582,3.582,0,0,1,1.1-.4,5.852,5.852,0,0,1,1.3-.2c.6-.1,1-.1,1.4-.2a1.884,1.884,0,0,0,.8-.2c.2-.1.2-.3.2-.5h0a1.594,1.594,0,0,0-.4-1.2,1.7,1.7,0,0,0-1.3-.4,1.955,1.955,0,0,0-1.4.4,2.757,2.757,0,0,0-.7.9l-1.7-.4a3.39,3.39,0,0,1,.9-1.4,5.669,5.669,0,0,1,1.3-.8,4.145,4.145,0,0,1,1.6-.2,4.868,4.868,0,0,1,1.2.1,3.08,3.08,0,0,1,1.2.5,2.836,2.836,0,0,1,.9,1,3.867,3.867,0,0,1,.4,1.7v6.2h-1.8v-1.3h-.1a3.039,3.039,0,0,1-.5.7,3.49,3.49,0,0,1-.9.6A7.518,7.518,0,0,0,240.4,196.2Zm.4-1.4a2.768,2.768,0,0,0,1.3-.3,2.047,2.047,0,0,0,.8-.8,1.929,1.929,0,0,0,.3-1v-1.2c-.1.1-.2.1-.4.2a1.268,1.268,0,0,1-.6.1c-.2,0-.5.1-.7.1s-.4.1-.6.1a2.959,2.959,0,0,0-1,.2,4.349,4.349,0,0,0-.7.4,1.136,1.136,0,0,0-.3.8,1.231,1.231,0,0,0,.5,1A2.891,2.891,0,0,0,240.8,194.8Z" fill="#707070"/>
        <path id="Path_6846" data-name="Path 6846" d="M249.2,190.5V196h-1.8v-9.3h1.7v1.5h.1a2.335,2.335,0,0,1,1-1.2,3.064,3.064,0,0,1,1.7-.4,3.287,3.287,0,0,1,1.7.4,3.179,3.179,0,0,1,1.1,1.2,3.807,3.807,0,0,1,.4,1.9V196h-1.8v-5.7a2.545,2.545,0,0,0-.5-1.6,1.678,1.678,0,0,0-1.4-.6,2.016,2.016,0,0,0-1.1.3,2.047,2.047,0,0,0-.8.8A2.768,2.768,0,0,0,249.2,190.5Z" fill="#707070"/>
        <path id="Path_6847" data-name="Path 6847" d="M261,196.2a3.606,3.606,0,0,1-2-.6,4.389,4.389,0,0,1-1.4-1.6,7.01,7.01,0,0,1,0-5.2,3.168,3.168,0,0,1,1.4-1.6,3.606,3.606,0,0,1,2-.6,2.9,2.9,0,0,1,1.4.3,1.852,1.852,0,0,1,.8.7,4.233,4.233,0,0,0,.5.7h.1v-4.6h1.8V196h-1.8v-1.4h-.2c-.1.2-.3.4-.5.7a2.7,2.7,0,0,1-.8.7A3.475,3.475,0,0,1,261,196.2Zm.4-1.6a1.844,1.844,0,0,0,1.3-.4,2.55,2.55,0,0,0,.8-1.2,4.967,4.967,0,0,0,0-3.4,2.421,2.421,0,0,0-.8-1.1,2.01,2.01,0,0,0-1.3-.4,2.3,2.3,0,0,0-1.4.4,2.55,2.55,0,0,0-.8,1.2,4.145,4.145,0,0,0-.3,1.6,4.672,4.672,0,0,0,.3,1.7,3.6,3.6,0,0,0,.8,1.2A2.116,2.116,0,0,0,261.4,194.6Z" fill="#707070"/>
      </g>
    </g>
    <g id="Group_7739" data-name="Group 7739">
      <g id="Group_7738" data-name="Group 7738">
        <path id="Path_6848" data-name="Path 6848" d="M54,210.7v1.4H49v-1.4Zm-3.7-2.2h1.8v8.8a1.549,1.549,0,0,0,.2.8.781.781,0,0,0,.4.4.9.9,0,0,0,.5.1h.7l.3,1.5c-.1,0-.3.1-.4.1-.2,0-.4.1-.7.1a2.768,2.768,0,0,1-1.3-.3,3.915,3.915,0,0,1-1-.8,2.116,2.116,0,0,1-.4-1.4v-9.3Z" fill="#707070"/>
        <path id="Path_6849" data-name="Path 6849" d="M60,220.2a4.751,4.751,0,0,1-2.4-.6,3.14,3.14,0,0,1-1.5-1.7,5.1,5.1,0,0,1-.5-2.5,6.551,6.551,0,0,1,.5-2.5,4.978,4.978,0,0,1,1.5-1.7,4.143,4.143,0,0,1,2.3-.6,4.013,4.013,0,0,1,1.5.3,3.528,3.528,0,0,1,1.3.8,4.194,4.194,0,0,1,.9,1.4,6.229,6.229,0,0,1,.3,2.1v.6H56.5v-1.4h5.6a2.768,2.768,0,0,0-.3-1.3,2.068,2.068,0,0,0-2-1.2,2.01,2.01,0,0,0-1.3.4,2.189,2.189,0,0,0-.9,1,2.768,2.768,0,0,0-.3,1.3v1.1a4.146,4.146,0,0,0,.3,1.6,2.189,2.189,0,0,0,.9,1,3.194,3.194,0,0,0,1.4.3,2.11,2.11,0,0,0,1.6-.5,1.794,1.794,0,0,0,.5-.7l1.7.3A3.293,3.293,0,0,1,63,219a3.805,3.805,0,0,1-1.3.9A3.985,3.985,0,0,1,60,220.2Z" fill="#707070"/>
        <path id="Path_6850" data-name="Path 6850" d="M68.7,220.2a4.146,4.146,0,0,1-1.6-.3,1.818,1.818,0,0,1-1.1-1,2.41,2.41,0,0,1-.4-1.5,2.5,2.5,0,0,1,.3-1.3,3.043,3.043,0,0,1,.8-.8,3.582,3.582,0,0,1,1.1-.4,5.852,5.852,0,0,1,1.3-.2c.6-.1,1-.1,1.4-.2a1.884,1.884,0,0,0,.8-.2c.2-.1.2-.3.2-.5h0a1.594,1.594,0,0,0-.4-1.2,1.7,1.7,0,0,0-1.3-.4,1.955,1.955,0,0,0-1.4.4,2.757,2.757,0,0,0-.7.9l-1.7-.4a3.39,3.39,0,0,1,.9-1.4,5.67,5.67,0,0,1,1.3-.8,4.145,4.145,0,0,1,1.6-.2,4.868,4.868,0,0,1,1.2.1,3.08,3.08,0,0,1,1.2.5,2.837,2.837,0,0,1,.9,1,3.867,3.867,0,0,1,.4,1.7v6.2H71.7v-1.3h-.1a3.039,3.039,0,0,1-.5.7,3.49,3.49,0,0,1-.9.6A7.5,7.5,0,0,0,68.7,220.2Zm.4-1.4a2.768,2.768,0,0,0,1.3-.3,2.047,2.047,0,0,0,.8-.8,1.929,1.929,0,0,0,.3-1v-1.2c-.1.1-.2.1-.4.2a1.268,1.268,0,0,1-.6.1c-.2,0-.5.1-.7.1s-.4.1-.6.1a2.959,2.959,0,0,0-1,.2,4.349,4.349,0,0,0-.7.4,1.136,1.136,0,0,0-.3.8,1.231,1.231,0,0,0,.5,1A2.891,2.891,0,0,0,69.1,218.8Z" fill="#707070"/>
        <path id="Path_6851" data-name="Path 6851" d="M79.6,220.2a4.142,4.142,0,0,1-2.3-.6,4.978,4.978,0,0,1-1.5-1.7,6.175,6.175,0,0,1-.5-2.5,6.551,6.551,0,0,1,.5-2.5,4.978,4.978,0,0,1,1.5-1.7,4.143,4.143,0,0,1,2.3-.6,4.058,4.058,0,0,1,1.9.4,2.85,2.85,0,0,1,1.3,1.1,4.418,4.418,0,0,1,.6,1.6H81.6a1.9,1.9,0,0,0-.7-1.1,1.978,1.978,0,0,0-1.4-.5,2.01,2.01,0,0,0-1.3.4,2.445,2.445,0,0,0-.9,1.1,4.671,4.671,0,0,0-.3,1.7,4.844,4.844,0,0,0,.3,1.8,2.405,2.405,0,0,0,2.2,1.5,2.388,2.388,0,0,0,.9-.2,3.038,3.038,0,0,0,.7-.5,1.884,1.884,0,0,0,.4-.9h1.8a4.418,4.418,0,0,1-.6,1.6,3.482,3.482,0,0,1-1.3,1.1A2.573,2.573,0,0,1,79.6,220.2Z" fill="#707070"/>
        <path id="Path_6852" data-name="Path 6852" d="M87.1,214.5V220H85.3V207.6h1.8v4.6h.1a2.335,2.335,0,0,1,1-1.2,3.007,3.007,0,0,1,1.8-.4,3.287,3.287,0,0,1,1.7.4,3.179,3.179,0,0,1,1.1,1.2,3.807,3.807,0,0,1,.4,1.9V220H91.4v-5.7a2.545,2.545,0,0,0-.5-1.6,1.887,1.887,0,0,0-1.5-.6,2.016,2.016,0,0,0-1.1.3,2.047,2.047,0,0,0-.8.8A2.01,2.01,0,0,0,87.1,214.5Z" fill="#707070"/>
        <path id="Path_6853" data-name="Path 6853" d="M99.6,220.2a4.751,4.751,0,0,1-2.4-.6,3.14,3.14,0,0,1-1.5-1.7,5.1,5.1,0,0,1-.5-2.5,6.551,6.551,0,0,1,.5-2.5,4.978,4.978,0,0,1,1.5-1.7,4.143,4.143,0,0,1,2.3-.6,4.013,4.013,0,0,1,1.5.3,3.528,3.528,0,0,1,1.3.8,4.2,4.2,0,0,1,.9,1.4,6.229,6.229,0,0,1,.3,2.1v.6H96.1v-1.4h5.6a2.768,2.768,0,0,0-.3-1.3,2.068,2.068,0,0,0-2-1.2,2.01,2.01,0,0,0-1.3.4,2.189,2.189,0,0,0-.9,1,2.768,2.768,0,0,0-.3,1.3v1.1a4.145,4.145,0,0,0,.3,1.6,2.189,2.189,0,0,0,.9,1,3.194,3.194,0,0,0,1.4.3,2.11,2.11,0,0,0,1.6-.5,1.794,1.794,0,0,0,.5-.7l1.7.3a3.293,3.293,0,0,1-.7,1.3,3.805,3.805,0,0,1-1.3.9A4.672,4.672,0,0,1,99.6,220.2Z" fill="#707070"/>
        <path id="Path_6854" data-name="Path 6854" d="M105.5,220v-9.3h1.7v1.5h.1a2.73,2.73,0,0,1,.9-1.2,2.41,2.41,0,0,1,1.5-.4h.8v1.7a.756.756,0,0,1-.4-.1c-.2-.1-.4,0-.6,0a2.016,2.016,0,0,0-1.1.3,2.7,2.7,0,0,0-.8.7,2.016,2.016,0,0,0-.3,1.1V220Z" fill="#707070"/>
        <path id="Path_6855" data-name="Path 6855" d="M119,213l-1.6.3-.3-.6c-.1-.2-.3-.3-.6-.5a2.388,2.388,0,0,0-.9-.2,2.768,2.768,0,0,0-1.3.3,1.05,1.05,0,0,0-.5.9.779.779,0,0,0,.3.7,3.832,3.832,0,0,0,1.1.5l1.5.3a3.745,3.745,0,0,1,1.9.9,2.111,2.111,0,0,1,.6,1.6,2.694,2.694,0,0,1-.5,1.5,3.249,3.249,0,0,1-1.3,1,5.917,5.917,0,0,1-2,.4,3.9,3.9,0,0,1-2.5-.7,2.47,2.47,0,0,1-1.2-1.9l1.7-.3a1.265,1.265,0,0,0,.7,1,2.5,2.5,0,0,0,1.3.3,1.955,1.955,0,0,0,1.4-.4.957.957,0,0,0,.5-.9.908.908,0,0,0-.3-.7,1.88,1.88,0,0,0-1-.4l-1.6-.3a3.745,3.745,0,0,1-1.9-.9,2.271,2.271,0,0,1-.6-1.6,2.389,2.389,0,0,1,.5-1.4,3.448,3.448,0,0,1,1.3-1,5.412,5.412,0,0,1,1.9-.3,4.265,4.265,0,0,1,2.4.6A2.944,2.944,0,0,1,119,213Z" fill="#707070"/>
        <path id="Path_6856" data-name="Path 6856" d="M129.6,220.2a4.383,4.383,0,0,1-2.3-.6,3.53,3.53,0,0,1-1.5-1.7,5.1,5.1,0,0,1-.5-2.5,6.175,6.175,0,0,1,.5-2.5,4.978,4.978,0,0,1,1.5-1.7,4.143,4.143,0,0,1,2.3-.6,4.383,4.383,0,0,1,2.3.6,3.53,3.53,0,0,1,1.5,1.7,5.1,5.1,0,0,1,.5,2.5,6.175,6.175,0,0,1-.5,2.5,4.978,4.978,0,0,1-1.5,1.7A4.143,4.143,0,0,1,129.6,220.2Zm0-1.5a2.116,2.116,0,0,0,1.4-.4,2.55,2.55,0,0,0,.8-1.2,4.417,4.417,0,0,0,0-3.2,3.6,3.6,0,0,0-.8-1.2,1.978,1.978,0,0,0-1.4-.5,2.168,2.168,0,0,0-1.4.5,2.55,2.55,0,0,0-.8,1.2,4.417,4.417,0,0,0,0,3.2,3.6,3.6,0,0,0,.8,1.2A2.891,2.891,0,0,0,129.6,218.7Z" fill="#707070"/>
        <path id="Path_6857" data-name="Path 6857" d="M137.7,214.5V220h-1.8v-9.3h1.7v1.5h.1a2.335,2.335,0,0,1,1-1.2,3.064,3.064,0,0,1,1.7-.4,3.287,3.287,0,0,1,1.7.4,3.179,3.179,0,0,1,1.1,1.2,3.807,3.807,0,0,1,.4,1.9V220h-1.8v-5.7a2.545,2.545,0,0,0-.5-1.6,1.816,1.816,0,0,0-1.4-.6,2.016,2.016,0,0,0-1.1.3,2.047,2.047,0,0,0-.8.8A2.768,2.768,0,0,0,137.7,214.5Z" fill="#707070"/>
        <path id="Path_6858" data-name="Path 6858" d="M154.9,210.7v1.4h-5.1v-1.4Zm-3.7-2.2H153v8.8a1.549,1.549,0,0,0,.2.8.781.781,0,0,0,.4.4.9.9,0,0,0,.5.1h.7l.3,1.5c-.1,0-.3.1-.4.1-.2,0-.4.1-.7.1a2.768,2.768,0,0,1-1.3-.3,3.915,3.915,0,0,1-1-.8,2.116,2.116,0,0,1-.4-1.4v-9.3Z" fill="#707070"/>
        <path id="Path_6859" data-name="Path 6859" d="M158.7,214.5V220h-1.8V207.6h1.8v4.6h.1a2.335,2.335,0,0,1,1-1.2,3.007,3.007,0,0,1,1.8-.4,3.287,3.287,0,0,1,1.7.4,3.179,3.179,0,0,1,1.1,1.2,3.807,3.807,0,0,1,.4,1.9V220H163v-5.7a2.545,2.545,0,0,0-.5-1.6,1.887,1.887,0,0,0-1.5-.6,2.016,2.016,0,0,0-1.1.3,2.047,2.047,0,0,0-.8.8A2.01,2.01,0,0,0,158.7,214.5Z" fill="#707070"/>
        <path id="Path_6860" data-name="Path 6860" d="M171.1,220.2a4.751,4.751,0,0,1-2.4-.6,3.14,3.14,0,0,1-1.5-1.7,5.1,5.1,0,0,1-.5-2.5,6.551,6.551,0,0,1,.5-2.5,4.978,4.978,0,0,1,1.5-1.7,4.143,4.143,0,0,1,2.3-.6,4.013,4.013,0,0,1,1.5.3,3.528,3.528,0,0,1,1.3.8,4.194,4.194,0,0,1,.9,1.4,6.229,6.229,0,0,1,.3,2.1v.6h-7.4v-1.4h5.6a2.768,2.768,0,0,0-.3-1.3,2.068,2.068,0,0,0-2-1.2,2.01,2.01,0,0,0-1.3.4,2.189,2.189,0,0,0-.9,1,2.768,2.768,0,0,0-.3,1.3v1.1a4.146,4.146,0,0,0,.3,1.6,2.189,2.189,0,0,0,.9,1,3.194,3.194,0,0,0,1.4.3,2.11,2.11,0,0,0,1.6-.5,1.794,1.794,0,0,0,.5-.7l1.7.3a3.293,3.293,0,0,1-.7,1.3,3.805,3.805,0,0,1-1.3.9A3.985,3.985,0,0,1,171.1,220.2Z" fill="#707070"/>
        <path id="Path_6861" data-name="Path 6861" d="M185.1,220.2a3.606,3.606,0,0,1-2-.6,4.389,4.389,0,0,1-1.4-1.6,7.01,7.01,0,0,1,0-5.2,3.168,3.168,0,0,1,1.4-1.6,3.606,3.606,0,0,1,2-.6,2.9,2.9,0,0,1,1.4.3,1.853,1.853,0,0,1,.8.7,4.233,4.233,0,0,0,.5.7h.1v-4.6h1.8V220h-1.8v-1.4h-.2c-.1.2-.3.4-.5.7a2.7,2.7,0,0,1-.8.7A2.363,2.363,0,0,1,185.1,220.2Zm.4-1.6a1.844,1.844,0,0,0,1.3-.4,2.55,2.55,0,0,0,.8-1.2,4.967,4.967,0,0,0,0-3.4,2.421,2.421,0,0,0-.8-1.1,2.01,2.01,0,0,0-1.3-.4,2.3,2.3,0,0,0-1.4.4,2.55,2.55,0,0,0-.8,1.2,4.146,4.146,0,0,0-.3,1.6,4.671,4.671,0,0,0,.3,1.7,3.6,3.6,0,0,0,.8,1.2A2.116,2.116,0,0,0,185.5,218.6Z" fill="#707070"/>
        <path id="Path_6862" data-name="Path 6862" d="M195,220.2a4.146,4.146,0,0,1-1.6-.3,1.818,1.818,0,0,1-1.1-1,2.41,2.41,0,0,1-.4-1.5,2.5,2.5,0,0,1,.3-1.3,3.043,3.043,0,0,1,.8-.8,3.582,3.582,0,0,1,1.1-.4,5.852,5.852,0,0,1,1.3-.2c.6-.1,1-.1,1.4-.2a1.884,1.884,0,0,0,.8-.2c.2-.1.2-.3.2-.5h0a1.594,1.594,0,0,0-.4-1.2,1.7,1.7,0,0,0-1.3-.4,1.955,1.955,0,0,0-1.4.4,2.757,2.757,0,0,0-.7.9l-1.7-.4a3.39,3.39,0,0,1,.9-1.4,5.669,5.669,0,0,1,1.3-.8,4.145,4.145,0,0,1,1.6-.2,4.868,4.868,0,0,1,1.2.1,3.08,3.08,0,0,1,1.2.5,2.836,2.836,0,0,1,.9,1,3.867,3.867,0,0,1,.4,1.7v6.2H198v-1.3h-.1a3.039,3.039,0,0,1-.5.7,3.49,3.49,0,0,1-.9.6A7.5,7.5,0,0,0,195,220.2Zm.4-1.4a2.768,2.768,0,0,0,1.3-.3,2.047,2.047,0,0,0,.8-.8,1.929,1.929,0,0,0,.3-1v-1.2c-.1.1-.2.1-.4.2a1.268,1.268,0,0,1-.6.1c-.2,0-.5.1-.7.1s-.4.1-.6.1a2.959,2.959,0,0,0-1,.2,4.349,4.349,0,0,0-.7.4,1.136,1.136,0,0,0-.3.8,1.231,1.231,0,0,0,.5,1A2.588,2.588,0,0,0,195.4,218.8Z" fill="#707070"/>
        <path id="Path_6863" data-name="Path 6863" d="M208.9,213l-1.6.3-.3-.6c-.1-.2-.3-.3-.6-.5a2.388,2.388,0,0,0-.9-.2,2.768,2.768,0,0,0-1.3.3,1.05,1.05,0,0,0-.5.9.779.779,0,0,0,.3.7,3.832,3.832,0,0,0,1.1.5l1.5.3a3.745,3.745,0,0,1,1.9.9,2.111,2.111,0,0,1,.6,1.6,2.694,2.694,0,0,1-.5,1.5,3.249,3.249,0,0,1-1.3,1,5.917,5.917,0,0,1-2,.4,3.9,3.9,0,0,1-2.5-.7,2.47,2.47,0,0,1-1.2-1.9l1.7-.3a1.265,1.265,0,0,0,.7,1,2.5,2.5,0,0,0,1.3.3,1.955,1.955,0,0,0,1.4-.4.957.957,0,0,0,.5-.9.908.908,0,0,0-.3-.7,1.88,1.88,0,0,0-1-.4l-1.6-.3a3.745,3.745,0,0,1-1.9-.9,2.271,2.271,0,0,1-.6-1.6,2.389,2.389,0,0,1,.5-1.4,3.448,3.448,0,0,1,1.3-1,5.412,5.412,0,0,1,1.9-.3,4.265,4.265,0,0,1,2.4.6A2.944,2.944,0,0,1,208.9,213Z" fill="#707070"/>
        <path id="Path_6864" data-name="Path 6864" d="M212.9,214.5V220h-1.8V207.6h1.8v4.6h.1a2.335,2.335,0,0,1,1-1.2,3.007,3.007,0,0,1,1.8-.4,3.287,3.287,0,0,1,1.7.4,3.179,3.179,0,0,1,1.1,1.2,3.807,3.807,0,0,1,.4,1.9V220h-1.8v-5.7a2.545,2.545,0,0,0-.5-1.6,1.887,1.887,0,0,0-1.5-.6,2.016,2.016,0,0,0-1.1.3,2.047,2.047,0,0,0-.8.8A2.01,2.01,0,0,0,212.9,214.5Z" fill="#707070"/>
        <path id="Path_6865" data-name="Path 6865" d="M221.4,220V207.6h1.8v4.6h.1c.1-.2.3-.4.5-.7a2.7,2.7,0,0,1,.8-.7,2.649,2.649,0,0,1,1.4-.3,3.606,3.606,0,0,1,2,.6,4.389,4.389,0,0,1,1.4,1.6,7.01,7.01,0,0,1,0,5.2,3.168,3.168,0,0,1-1.4,1.6,3.379,3.379,0,0,1-2,.6,2.9,2.9,0,0,1-1.4-.3,1.853,1.853,0,0,1-.8-.7c-.2-.3-.4-.5-.5-.7h-.2v1.4h-1.7Zm1.8-4.6a4.31,4.31,0,0,0,.3,1.7,3.6,3.6,0,0,0,.8,1.2,2.01,2.01,0,0,0,1.3.4,2.3,2.3,0,0,0,1.4-.4,2.55,2.55,0,0,0,.8-1.2,4.671,4.671,0,0,0,.3-1.7,3.808,3.808,0,0,0-.3-1.6,3.6,3.6,0,0,0-.8-1.2,2.116,2.116,0,0,0-1.4-.4,1.844,1.844,0,0,0-1.3.4,2.258,2.258,0,0,0-.8,1.1A4.31,4.31,0,0,0,223.2,215.4Z" fill="#707070"/>
        <path id="Path_6866" data-name="Path 6866" d="M235.8,220.2a4.383,4.383,0,0,1-2.3-.6,3.53,3.53,0,0,1-1.5-1.7,5.1,5.1,0,0,1-.5-2.5,6.175,6.175,0,0,1,.5-2.5,4.978,4.978,0,0,1,1.5-1.7,4.143,4.143,0,0,1,2.3-.6,4.383,4.383,0,0,1,2.3.6,3.53,3.53,0,0,1,1.5,1.7,5.1,5.1,0,0,1,.5,2.5,6.175,6.175,0,0,1-.5,2.5,4.978,4.978,0,0,1-1.5,1.7A4.143,4.143,0,0,1,235.8,220.2Zm0-1.5a2.116,2.116,0,0,0,1.4-.4,2.55,2.55,0,0,0,.8-1.2,4.417,4.417,0,0,0,0-3.2,3.6,3.6,0,0,0-.8-1.2,1.978,1.978,0,0,0-1.4-.5,2.168,2.168,0,0,0-1.4.5,2.55,2.55,0,0,0-.8,1.2,4.417,4.417,0,0,0,0,3.2,3.6,3.6,0,0,0,.8,1.2A3.255,3.255,0,0,0,235.8,218.7Z" fill="#707070"/>
        <path id="Path_6867" data-name="Path 6867" d="M244.9,220.2a4.146,4.146,0,0,1-1.6-.3,1.818,1.818,0,0,1-1.1-1,2.41,2.41,0,0,1-.4-1.5,2.5,2.5,0,0,1,.3-1.3,3.043,3.043,0,0,1,.8-.8,3.582,3.582,0,0,1,1.1-.4,5.852,5.852,0,0,1,1.3-.2c.6-.1,1-.1,1.4-.2a1.884,1.884,0,0,0,.8-.2c.2-.1.2-.3.2-.5h0a1.594,1.594,0,0,0-.4-1.2,1.7,1.7,0,0,0-1.3-.4,1.955,1.955,0,0,0-1.4.4,2.757,2.757,0,0,0-.7.9L242,213a3.39,3.39,0,0,1,.9-1.4,5.669,5.669,0,0,1,1.3-.8,4.145,4.145,0,0,1,1.6-.2,4.868,4.868,0,0,1,1.2.1,3.08,3.08,0,0,1,1.2.5,2.189,2.189,0,0,1,.9,1,3.985,3.985,0,0,1,.3,1.7v6.2h-1.8v-1.3h-.1a3.039,3.039,0,0,1-.5.7,3.49,3.49,0,0,1-.9.6C245.8,220.1,245.4,220.2,244.9,220.2Zm.3-1.4a2.768,2.768,0,0,0,1.3-.3,2.047,2.047,0,0,0,.8-.8,1.929,1.929,0,0,0,.3-1v-1.2c-.1.1-.2.1-.4.2a1.268,1.268,0,0,1-.6.1c-.2,0-.5.1-.7.1s-.4.1-.6.1a2.959,2.959,0,0,0-1,.2,4.349,4.349,0,0,0-.7.4,1.136,1.136,0,0,0-.3.8,1.231,1.231,0,0,0,.5,1A2.891,2.891,0,0,0,245.2,218.8Z" fill="#707070"/>
        <path id="Path_6868" data-name="Path 6868" d="M251.8,220v-9.3h1.7v1.5h.1a2.73,2.73,0,0,1,.9-1.2,2.41,2.41,0,0,1,1.5-.4h.8v1.7a.756.756,0,0,1-.4-.1h-.6a2.016,2.016,0,0,0-1.1.3,2.7,2.7,0,0,0-.8.7,2.016,2.016,0,0,0-.3,1.1V220Z" fill="#707070"/>
        <path id="Path_6869" data-name="Path 6869" d="M261.8,220.2a3.606,3.606,0,0,1-2-.6,4.389,4.389,0,0,1-1.4-1.6,7.01,7.01,0,0,1,0-5.2,3.168,3.168,0,0,1,1.4-1.6,3.606,3.606,0,0,1,2-.6,2.9,2.9,0,0,1,1.4.3,1.852,1.852,0,0,1,.8.7,4.233,4.233,0,0,0,.5.7h.1v-4.6h1.8V220h-1.8v-1.4h-.2c-.1.2-.3.4-.5.7a2.7,2.7,0,0,1-.8.7A3.475,3.475,0,0,1,261.8,220.2Zm.4-1.6a1.844,1.844,0,0,0,1.3-.4,2.55,2.55,0,0,0,.8-1.2,4.967,4.967,0,0,0,0-3.4,2.421,2.421,0,0,0-.8-1.1,2.01,2.01,0,0,0-1.3-.4,2.3,2.3,0,0,0-1.4.4,2.55,2.55,0,0,0-.8,1.2,4.145,4.145,0,0,0-.3,1.6,4.672,4.672,0,0,0,.3,1.7,3.6,3.6,0,0,0,.8,1.2A2.116,2.116,0,0,0,262.2,218.6Z" fill="#707070"/>
      </g>
    </g>
    <g id="Group_7778" data-name="Group 7778">
      <g id="Group_7740" data-name="Group 7740">
        <circle id="Ellipse_1514" data-name="Ellipse 1514" cx="47.6" cy="47.6" r="47.6" transform="translate(112.1 26.4)" fill="#daf0fc"/>
      </g>
      <g id="Group_7774" data-name="Group 7774">
        <g id="Group_7773" data-name="Group 7773" clip-path="url(#clip-path)">
          <g id="Group_7741" data-name="Group 7741">
            <path id="Path_6870" data-name="Path 6870" d="M213.1,110.2H118.6a7.7,7.7,0,0,1-7.7-7.7v-57a7.7,7.7,0,0,1,7.7-7.7h94.5a7.7,7.7,0,0,1,7.7,7.7v57A7.7,7.7,0,0,1,213.1,110.2Z" fill="#9bd5f5"/>
          </g>
          <g id="Group_7772" data-name="Group 7772">
            <g id="Group_7756" data-name="Group 7756">
              <g id="Group_7746" data-name="Group 7746">
                <g id="Group_7743" data-name="Group 7743">
                  <g id="Group_7742" data-name="Group 7742">
                    <path id="Path_6871" data-name="Path 6871" d="M136.4,48.3H120.8a1.6,1.6,0,1,1,0-3.2h15.6a1.6,1.6,0,1,1,0,3.2Z" fill="#57b8f3"/>
                  </g>
                </g>
                <g id="Group_7744" data-name="Group 7744">
                  <path id="Path_6872" data-name="Path 6872" d="M142.4,48.3h-.3a1.367,1.367,0,0,1-1.4-1.4v-.3a1.367,1.367,0,0,1,1.4-1.4h.3a1.367,1.367,0,0,1,1.4,1.4v.3A1.367,1.367,0,0,1,142.4,48.3Z" fill="#57b8f3"/>
                </g>
                <g id="Group_7745" data-name="Group 7745">
                  <path id="Path_6873" data-name="Path 6873" d="M148.1,48.3h-.3a1.367,1.367,0,0,1-1.4-1.4v-.3a1.367,1.367,0,0,1,1.4-1.4h.3a1.367,1.367,0,0,1,1.4,1.4v.3A1.312,1.312,0,0,1,148.1,48.3Z" fill="#57b8f3"/>
                </g>
              </g>
              <g id="Group_7755" data-name="Group 7755">
                <g id="Group_7748" data-name="Group 7748">
                  <g id="Group_7747" data-name="Group 7747">
                    <path id="Path_6874" data-name="Path 6874" d="M131,61.3a4.826,4.826,0,0,0,1.4-3.5,4.651,4.651,0,0,0-9.3.1,4.374,4.374,0,0,0,1.4,3.3.529.529,0,0,1-.1.8,8.62,8.62,0,0,0-5.2,7.4.472.472,0,0,0,.5.5h16.2a.472.472,0,0,0,.5-.5,8.62,8.62,0,0,0-5.2-7.4A.443.443,0,0,1,131,61.3Z" fill="#57b8f3"/>
                  </g>
                </g>
                <g id="Group_7750" data-name="Group 7750">
                  <g id="Group_7749" data-name="Group 7749">
                    <path id="Path_6875" data-name="Path 6875" d="M202,61.3a4.826,4.826,0,0,0,1.4-3.5,4.651,4.651,0,0,0-9.3.1,4.374,4.374,0,0,0,1.4,3.3.529.529,0,0,1-.1.8,8.62,8.62,0,0,0-5.2,7.4.472.472,0,0,0,.5.5h16.2a.472.472,0,0,0,.5-.5,8.62,8.62,0,0,0-5.2-7.4A.443.443,0,0,1,202,61.3Z" fill="#57b8f3"/>
                  </g>
                </g>
                <g id="Group_7752" data-name="Group 7752">
                  <g id="Group_7751" data-name="Group 7751">
                    <path id="Path_6876" data-name="Path 6876" d="M154.7,61.3a4.826,4.826,0,0,0,1.4-3.5,4.651,4.651,0,0,0-9.3.1,4.374,4.374,0,0,0,1.4,3.3.529.529,0,0,1-.1.8,8.62,8.62,0,0,0-5.2,7.4.472.472,0,0,0,.5.5h16.2a.472.472,0,0,0,.5-.5,8.62,8.62,0,0,0-5.2-7.4A.4.4,0,0,1,154.7,61.3Z" fill="#57b8f3"/>
                  </g>
                </g>
                <g id="Group_7754" data-name="Group 7754">
                  <g id="Group_7753" data-name="Group 7753">
                    <path id="Path_6877" data-name="Path 6877" d="M178.4,61.3a4.826,4.826,0,0,0,1.4-3.5,4.651,4.651,0,0,0-9.3.1,4.374,4.374,0,0,0,1.4,3.3.529.529,0,0,1-.1.8,8.62,8.62,0,0,0-5.2,7.4.472.472,0,0,0,.5.5h16.2a.472.472,0,0,0,.5-.5,8.62,8.62,0,0,0-5.2-7.4C178.2,61.9,178.1,61.5,178.4,61.3Z" fill="#57b8f3"/>
                  </g>
                </g>
              </g>
            </g>
            <g id="Group_7771" data-name="Group 7771">
              <g id="Group_7761" data-name="Group 7761">
                <g id="Group_7758" data-name="Group 7758">
                  <g id="Group_7757" data-name="Group 7757">
                    <path id="Path_6878" data-name="Path 6878" d="M136.4,80.6H120.8a1.6,1.6,0,1,1,0-3.2h15.6a1.6,1.6,0,1,1,0,3.2Z" fill="#57b8f3"/>
                  </g>
                </g>
                <g id="Group_7759" data-name="Group 7759">
                  <path id="Path_6879" data-name="Path 6879" d="M142.4,80.6h-.3a1.367,1.367,0,0,1-1.4-1.4v-.3a1.367,1.367,0,0,1,1.4-1.4h.3a1.367,1.367,0,0,1,1.4,1.4v.3A1.367,1.367,0,0,1,142.4,80.6Z" fill="#57b8f3"/>
                </g>
                <g id="Group_7760" data-name="Group 7760">
                  <path id="Path_6880" data-name="Path 6880" d="M148.1,80.6h-.3a1.367,1.367,0,0,1-1.4-1.4v-.3a1.367,1.367,0,0,1,1.4-1.4h.3a1.367,1.367,0,0,1,1.4,1.4v.3A1.312,1.312,0,0,1,148.1,80.6Z" fill="#57b8f3"/>
                </g>
              </g>
              <g id="Group_7770" data-name="Group 7770">
                <g id="Group_7763" data-name="Group 7763">
                  <g id="Group_7762" data-name="Group 7762">
                    <path id="Path_6881" data-name="Path 6881" d="M131,93.5a4.826,4.826,0,0,0,1.4-3.5,4.651,4.651,0,0,0-9.3.1,4.374,4.374,0,0,0,1.4,3.3.529.529,0,0,1-.1.8,8.62,8.62,0,0,0-5.2,7.4.472.472,0,0,0,.5.5h16.2a.472.472,0,0,0,.5-.5,8.62,8.62,0,0,0-5.2-7.4C130.9,94.2,130.8,93.8,131,93.5Z" fill="#57b8f3"/>
                  </g>
                </g>
                <g id="Group_7765" data-name="Group 7765">
                  <g id="Group_7764" data-name="Group 7764">
                    <path id="Path_6882" data-name="Path 6882" d="M202,93.5a4.826,4.826,0,0,0,1.4-3.5,4.651,4.651,0,0,0-9.3.1,4.374,4.374,0,0,0,1.4,3.3.529.529,0,0,1-.1.8,8.62,8.62,0,0,0-5.2,7.4.472.472,0,0,0,.5.5h16.2a.472.472,0,0,0,.5-.5,8.62,8.62,0,0,0-5.2-7.4C201.9,94.2,201.8,93.8,202,93.5Z" fill="#57b8f3"/>
                  </g>
                </g>
                <g id="Group_7767" data-name="Group 7767">
                  <g id="Group_7766" data-name="Group 7766">
                    <path id="Path_6883" data-name="Path 6883" d="M154.7,93.5a4.826,4.826,0,0,0,1.4-3.5,4.651,4.651,0,0,0-9.3.1,4.374,4.374,0,0,0,1.4,3.3.529.529,0,0,1-.1.8,8.62,8.62,0,0,0-5.2,7.4.472.472,0,0,0,.5.5h16.2a.472.472,0,0,0,.5-.5,8.62,8.62,0,0,0-5.2-7.4C154.5,94.2,154.5,93.8,154.7,93.5Z" fill="#57b8f3"/>
                  </g>
                </g>
                <g id="Group_7769" data-name="Group 7769">
                  <g id="Group_7768" data-name="Group 7768">
                    <path id="Path_6884" data-name="Path 6884" d="M178.4,93.5a4.826,4.826,0,0,0,1.4-3.5,4.651,4.651,0,0,0-9.3.1,4.374,4.374,0,0,0,1.4,3.3.529.529,0,0,1-.1.8,8.62,8.62,0,0,0-5.2,7.4.472.472,0,0,0,.5.5h16.2a.472.472,0,0,0,.5-.5,8.62,8.62,0,0,0-5.2-7.4C178.2,94.2,178.1,93.8,178.4,93.5Z" fill="#57b8f3"/>
                  </g>
                </g>
              </g>
            </g>
          </g>
        </g>
      </g>
      <g id="Group_7777" data-name="Group 7777">
        <g id="Group_7775" data-name="Group 7775">
          <path id="Path_6886" data-name="Path 6886" d="M207.7,99.1l-4.6-.8a15.326,15.326,0,0,0-1.1-2.7l2.7-3.8a.769.769,0,0,0-.1-1l-3-3a.769.769,0,0,0-1-.1l-3.8,2.7a15.326,15.326,0,0,0-2.7-1.1l-.8-4.6a.76.76,0,0,0-.8-.6h-4.3a.849.849,0,0,0-.8.7l-.7,4.6a15.326,15.326,0,0,0-2.7,1.1l-3.8-2.7a.769.769,0,0,0-1,.1l-3,3a.769.769,0,0,0-.1,1l2.7,3.8a15.327,15.327,0,0,0-1.1,2.7l-4.6.8a.849.849,0,0,0-.7.8v4.3a.871.871,0,0,0,.6.8l4.6.8a15.326,15.326,0,0,0,1.1,2.7l-2.7,3.8a.769.769,0,0,0,.1,1l3,3a.769.769,0,0,0,1,.1l3.8-2.7a15.326,15.326,0,0,0,2.7,1.1l.8,4.6a.849.849,0,0,0,.8.7h4.3a.871.871,0,0,0,.8-.6l.8-4.6c.9-.3,1.8-.7,2.7-1.1l3.8,2.7a.769.769,0,0,0,1-.1l3-3a.769.769,0,0,0,.1-1l-2.7-3.8a10.91,10.91,0,0,0,1.1-2.7l4.6-.8a.76.76,0,0,0,.6-.8v-4.3C208.3,99.5,208.1,99.2,207.7,99.1Zm-17.3,8.4a5.4,5.4,0,1,1,5.4-5.4A5.442,5.442,0,0,1,190.4,107.5Z" fill="#daf0fc"/>
        </g>
        <g id="Group_7776" data-name="Group 7776">
          <path id="Path_6887" data-name="Path 6887" d="M192.5,121.6h-4.3a2.354,2.354,0,0,1-2.3-1.9l-.6-3.7a6.117,6.117,0,0,1-1.2-.5l-3.1,2.1a2.423,2.423,0,0,1-3-.3l-3-3a2.286,2.286,0,0,1-.2-3l2.1-3a6.118,6.118,0,0,1-.5-1.2l-3.7-.6a2.354,2.354,0,0,1-1.9-2.3V99.9a2.354,2.354,0,0,1,1.9-2.3l3.6-.6a6.117,6.117,0,0,1,.5-1.2l-2.1-3a2.423,2.423,0,0,1,.3-3l3-3a2.286,2.286,0,0,1,3-.2l3,2.2c.4-.2.8-.3,1.2-.5l.6-3.6a2.276,2.276,0,0,1,2.3-1.9h4.3a2.354,2.354,0,0,1,2.3,1.9l.6,3.7a6.117,6.117,0,0,1,1.2.5l3-2.2a2.286,2.286,0,0,1,3,.2l3,3a2.423,2.423,0,0,1,.3,3L203.6,96c.2.4.3.8.5,1.2l3.7.6a2.354,2.354,0,0,1,1.9,2.3v4.3a2.354,2.354,0,0,1-1.9,2.3l-3.7.7a6.117,6.117,0,0,1-.5,1.2l2.2,3a2.286,2.286,0,0,1-.2,3l-3,3a2.423,2.423,0,0,1-3,.3l-3.1-2.2a6.117,6.117,0,0,1-1.2.5l-.7,3.7A2,2,0,0,1,192.5,121.6Zm-3.6-2.5Zm-.1-.6h3l.7-4a1.5,1.5,0,0,1,1.1-1.2,12.233,12.233,0,0,0,2.4-1,1.347,1.347,0,0,1,1.6.1l3.3,2.3,2.1-2.1-2.4-3.3a1.542,1.542,0,0,1-.1-1.6,13.324,13.324,0,0,0,1-2.4,1.5,1.5,0,0,1,1.2-1.1l4-.7v-3l-4-.7a1.383,1.383,0,0,1-1.2-1.1,12.234,12.234,0,0,0-1-2.4,1.542,1.542,0,0,1,.1-1.6l2.3-3.3-2.1-2.1-3.3,2.3a1.542,1.542,0,0,1-1.6.1,13.323,13.323,0,0,0-2.4-1,1.5,1.5,0,0,1-1.1-1.2l-.7-4h-3l-.6,3.9a1.383,1.383,0,0,1-1.1,1.2,12.233,12.233,0,0,0-2.4,1,1.528,1.528,0,0,1-1.6-.1l-3.3-2.3-2.1,2.1,2.3,3.3a1.542,1.542,0,0,1,.1,1.6,12.234,12.234,0,0,0-1,2.4,1.5,1.5,0,0,1-1.2,1.1l-3.9.7v3l3.9.7a1.5,1.5,0,0,1,1.2,1.1,12.234,12.234,0,0,0,1,2.4,1.347,1.347,0,0,1-.1,1.6l-2.3,3.2,2.1,2.1,3.3-2.3a1.542,1.542,0,0,1,1.6-.1,24.427,24.427,0,0,0,2.4,1,1.5,1.5,0,0,1,1.1,1.2Zm-9.5-3.4Zm22.2,0Zm5.9-14.5Zm-.6-.7ZM177.3,91Zm24.1-2Zm-11,20a6.9,6.9,0,1,1,6.9-6.9A6.914,6.914,0,0,1,190.4,109Zm0-10.8a3.9,3.9,0,0,0,0,7.8,3.842,3.842,0,0,0,3.9-3.9A3.97,3.97,0,0,0,190.4,98.2Z" fill="#1090e3"/>
        </g>
      </g>
    </g>
  </g>
</svg>
