<svg xmlns="http://www.w3.org/2000/svg" width="668" height="48" viewBox="0 0 668 48">
  <g id="search_bar" transform="translate(-50 -282)">
    <path id="Rectangle_561-5" d="M74,282H694a23.942,23.942,0,0,1,24,24h0a23.942,23.942,0,0,1-24,24H74a23.942,23.942,0,0,1-24-24h0A23.942,23.942,0,0,1,74,282Z" fill="#fff"/>
    <path id="search" d="M84.1,304.6a5.5,5.5,0,1,1-5.5-5.5A5.549,5.549,0,0,1,84.1,304.6Zm6.2,10.2a1.606,1.606,0,0,0-.5-1.1l-4.2-4.2a8.356,8.356,0,0,0,1.5-4.9,8.6,8.6,0,0,0-8.6-8.6h0a8.6,8.6,0,0,0-8.6,8.6h0a8.6,8.6,0,0,0,8.6,8.6h0a8.815,8.815,0,0,0,4.9-1.5l4.2,4.2a1.606,1.606,0,0,0,1.1.5A1.718,1.718,0,0,0,90.3,314.8Z" fill="#10a0f3"/>
    <g id="Group_7792" data-name="Group 7792">
      <g id="Group_7791" data-name="Group 7791">
        <path id="Path_6945" data-name="Path 6945" d="M108.1,302.9a1.653,1.653,0,0,0-.8-1.3,3.453,3.453,0,0,0-1.8-.5,5.066,5.066,0,0,0-1.3.2,2.178,2.178,0,0,0-.9.7,1.613,1.613,0,0,0-.3.9,2.353,2.353,0,0,0,.2.8,1.205,1.205,0,0,0,.5.5c.2.1.5.3.7.4a1.884,1.884,0,0,0,.8.2l1.2.3a5.639,5.639,0,0,1,1.2.4,7.456,7.456,0,0,1,1.2.7,4.3,4.3,0,0,1,.9,1,3.194,3.194,0,0,1,.3,1.4,3.243,3.243,0,0,1-2.1,3.2,6.175,6.175,0,0,1-2.5.5,6.051,6.051,0,0,1-2.4-.4,3.435,3.435,0,0,1-1.6-1.3,3.077,3.077,0,0,1-.6-1.9h1.9a2.1,2.1,0,0,0,.4,1.1,3.592,3.592,0,0,0,1,.7,5.066,5.066,0,0,0,1.3.2,3.194,3.194,0,0,0,1.4-.3,3.591,3.591,0,0,0,1-.7,2.1,2.1,0,0,0,.4-1.1,1.222,1.222,0,0,0-.3-.9,5.547,5.547,0,0,0-.8-.6,3.374,3.374,0,0,0-1.2-.4l-1.5-.4a6.738,6.738,0,0,1-2.4-1.2,2.583,2.583,0,0,1-.9-2.1,3.292,3.292,0,0,1,.6-1.9,3.978,3.978,0,0,1,1.6-1.2,5.381,5.381,0,0,1,2.2-.4,5.087,5.087,0,0,1,2.2.4,4.427,4.427,0,0,1,1.5,1.2,2.792,2.792,0,0,1,.6,1.8h-1.7Z" fill="#a0a2ac"/>
        <path id="Path_6946" data-name="Path 6946" d="M115.6,312.2a4.751,4.751,0,0,1-2.4-.6,3.14,3.14,0,0,1-1.5-1.7,5.1,5.1,0,0,1-.5-2.5,6.551,6.551,0,0,1,.5-2.5,4.978,4.978,0,0,1,1.5-1.7,4.143,4.143,0,0,1,2.3-.6,4.013,4.013,0,0,1,1.5.3,3.529,3.529,0,0,1,1.3.8,4.2,4.2,0,0,1,.9,1.4,6.229,6.229,0,0,1,.3,2.1v.6h-7.4v-1.4h5.6a2.768,2.768,0,0,0-.3-1.3,2.068,2.068,0,0,0-2-1.2,2.01,2.01,0,0,0-1.3.4,2.189,2.189,0,0,0-.9,1,2.768,2.768,0,0,0-.3,1.3v1.1a4.145,4.145,0,0,0,.3,1.6,2.189,2.189,0,0,0,.9,1,3.194,3.194,0,0,0,1.4.3,2.11,2.11,0,0,0,1.6-.5,1.794,1.794,0,0,0,.5-.7l1.7.3a3.293,3.293,0,0,1-.7,1.3,3.805,3.805,0,0,1-1.3.9A4.67,4.67,0,0,1,115.6,312.2Z" fill="#a0a2ac"/>
        <path id="Path_6947" data-name="Path 6947" d="M123.6,312.2a4.146,4.146,0,0,1-1.6-.3,1.818,1.818,0,0,1-1.1-1,2.41,2.41,0,0,1-.4-1.5,2.5,2.5,0,0,1,.3-1.3,3.043,3.043,0,0,1,.8-.8,3.582,3.582,0,0,1,1.1-.4,5.852,5.852,0,0,1,1.3-.2c.6-.1,1-.1,1.4-.2a1.884,1.884,0,0,0,.8-.2c.2-.1.2-.3.2-.5h0a1.594,1.594,0,0,0-.4-1.2,1.7,1.7,0,0,0-1.3-.4,1.955,1.955,0,0,0-1.4.4,2.757,2.757,0,0,0-.7.9l-1.7-.4a3.39,3.39,0,0,1,.9-1.4,5.67,5.67,0,0,1,1.3-.8,4.145,4.145,0,0,1,1.6-.2,4.868,4.868,0,0,1,1.2.1,3.08,3.08,0,0,1,1.2.5,2.836,2.836,0,0,1,.9,1,3.867,3.867,0,0,1,.4,1.7v6.2h-1.8v-1.3h-.1a3.039,3.039,0,0,1-.5.7,3.49,3.49,0,0,1-.9.6A7.5,7.5,0,0,0,123.6,312.2Zm.4-1.4a2.768,2.768,0,0,0,1.3-.3,2.047,2.047,0,0,0,.8-.8,1.929,1.929,0,0,0,.3-1v-1.2c-.1.1-.2.1-.4.2a1.268,1.268,0,0,1-.6.1c-.2,0-.5.1-.7.1s-.4.1-.6.1a2.958,2.958,0,0,0-1,.2,4.348,4.348,0,0,0-.7.4,1.136,1.136,0,0,0-.3.8,1.231,1.231,0,0,0,.5,1A2.89,2.89,0,0,0,124,310.8Z" fill="#a0a2ac"/>
        <path id="Path_6948" data-name="Path 6948" d="M130,312v-9.3h1.7v1.5h.1a2.73,2.73,0,0,1,.9-1.2,2.41,2.41,0,0,1,1.5-.4h.8v1.7a.756.756,0,0,1-.4-.1c-.2-.1-.4,0-.6,0a2.016,2.016,0,0,0-1.1.3,2.7,2.7,0,0,0-.8.7,2.016,2.016,0,0,0-.3,1.1V312H130Z" fill="#a0a2ac"/>
        <path id="Path_6949" data-name="Path 6949" d="M139.9,312.2a4.143,4.143,0,0,1-2.3-.6,4.978,4.978,0,0,1-1.5-1.7,6.175,6.175,0,0,1-.5-2.5,6.551,6.551,0,0,1,.5-2.5,4.978,4.978,0,0,1,1.5-1.7,4.143,4.143,0,0,1,2.3-.6,4.058,4.058,0,0,1,1.9.4,2.85,2.85,0,0,1,1.3,1.1,4.418,4.418,0,0,1,.6,1.6h-1.8a1.9,1.9,0,0,0-.7-1.1,1.978,1.978,0,0,0-1.4-.5,2.01,2.01,0,0,0-1.3.4,2.445,2.445,0,0,0-.9,1.1,4.671,4.671,0,0,0-.3,1.7,4.844,4.844,0,0,0,.3,1.8,2.405,2.405,0,0,0,2.2,1.5,2.388,2.388,0,0,0,.9-.2,3.039,3.039,0,0,0,.7-.5,1.884,1.884,0,0,0,.4-.9h1.8a4.418,4.418,0,0,1-.6,1.6,3.482,3.482,0,0,1-1.3,1.1A2.73,2.73,0,0,1,139.9,312.2Z" fill="#a0a2ac"/>
        <path id="Path_6950" data-name="Path 6950" d="M146.8,306.5V312H145V299.6h1.8v4.6h.1a2.335,2.335,0,0,1,1-1.2,3.007,3.007,0,0,1,1.8-.4,3.287,3.287,0,0,1,1.7.4,3.179,3.179,0,0,1,1.1,1.2,3.807,3.807,0,0,1,.4,1.9V312H151v-5.7a2.544,2.544,0,0,0-.5-1.6,1.887,1.887,0,0,0-1.5-.6,2.016,2.016,0,0,0-1.1.3,2.047,2.047,0,0,0-.8.8A2.769,2.769,0,0,0,146.8,306.5Z" fill="#a0a2ac"/>
        <path id="Path_6951" data-name="Path 6951" d="M155.9,312.1a1.222,1.222,0,0,1-.9-.4,1.268,1.268,0,0,1-.4-.9.909.909,0,0,1,.4-.8,1.267,1.267,0,0,1,.9-.4,1.086,1.086,0,0,1,.9.4,1.235,1.235,0,0,1,.4.8,1.421,1.421,0,0,1-.2.6c-.1.2-.3.3-.4.4A.831.831,0,0,1,155.9,312.1Zm4.5,0a1.222,1.222,0,0,1-.9-.4,1.086,1.086,0,0,1-.4-.9.909.909,0,0,1,.4-.8,1.267,1.267,0,0,1,.9-.4,1.222,1.222,0,0,1,.9.4,1.235,1.235,0,0,1,.4.8,1.421,1.421,0,0,1-.2.6c-.1.2-.3.3-.4.4A.831.831,0,0,1,160.4,312.1Zm4.5,0a1.222,1.222,0,0,1-.9-.4,1.086,1.086,0,0,1-.4-.9.909.909,0,0,1,.4-.8,1.267,1.267,0,0,1,.9-.4,1.222,1.222,0,0,1,.9.4,1.235,1.235,0,0,1,.4.8,1.421,1.421,0,0,1-.2.6c-.1.2-.3.3-.4.4A.831.831,0,0,1,164.9,312.1Z" fill="#a0a2ac"/>
      </g>
    </g>
  </g>
</svg>
