<?xml version="1.0" encoding="utf-8"?>
<!-- Generator: Adobe Illustrator 27.4.1, SVG Export Plug-In . SVG Version: 6.00 Build 0)  -->
<svg version="1.1" id="Layer_1" xmlns="http://www.w3.org/2000/svg" xmlns:xlink="http://www.w3.org/1999/xlink" x="0px" y="0px"
	 viewBox="0 0 686 135" style="enable-background:new 0 0 686 135;" xml:space="preserve">
<style type="text/css">
	.st0{fill:#FFFFFF;}
	.st1{fill:#F1F1F8;}
	.st2{enable-background:new    ;}
	.st3{fill:#3C3C3C;}
	.st4{fill:#9A9CA7;}
	.st5{clip-path:url(#SVGID_00000180352944932836328780000008193969922481282475_);}
	.st6{fill:#D14CEF;}
	.st7{fill:#06ADF8;}
	.st8{clip-path:url(#SVGID_00000003097135089345658670000004166011835468108990_);}
	.st9{opacity:0.1;clip-path:url(#SVGID_00000110464194115061188180000008875818992425474705_);}
	.st10{fill:#F5615A;}
	.st11{clip-path:url(#SVGID_00000065068362847426374290000004102145603895279278_);}
	.st12{opacity:0.1;clip-path:url(#SVGID_00000085943473967324537860000012540032465261527425_);}
	.st13{clip-path:url(#SVGID_00000181798001195409914250000015561820357117296055_);}
	.st14{opacity:0.1;clip-path:url(#SVGID_00000025442534504238052270000014019408367878067626_);}
	.st15{fill:#F9BA00;}
	.st16{fill:#F2AD00;}
	.st17{fill:none;}
	.st18{fill:#10A0F3;}
</style>
<g id="popup-1" transform="translate(-41 -648.67)">
	<g id="Rectangle_1070" transform="translate(41 648.67)">
		<g>
			<path class="st0" d="M656,134H30c-3.9,0-7.7-0.8-11.3-2.3c-3.5-1.5-6.6-3.6-9.2-6.2s-4.8-5.8-6.2-9.2C1.8,112.7,1,108.9,1,105V30
				c0-3.9,0.8-7.7,2.3-11.3c1.5-3.5,3.6-6.6,6.2-9.2s5.8-4.8,9.2-6.2C22.3,1.8,26.1,1,30,1h626c3.9,0,7.7,0.8,11.3,2.3
				c3.5,1.5,6.6,3.6,9.2,6.2s4.8,5.8,6.2,9.2c1.5,3.6,2.3,7.4,2.3,11.3v75c0,3.9-0.8,7.7-2.3,11.3c-1.5,3.5-3.6,6.6-6.2,9.2
				s-5.8,4.8-9.2,6.2C663.7,133.2,659.9,134,656,134z"/>
		</g>
		<g>
			<path class="st1" d="M30,2c-3.8,0-7.4,0.7-10.9,2.2c-3.3,1.4-6.3,3.4-8.9,6c-2.6,2.6-4.6,5.6-6,8.9C2.7,22.6,2,26.2,2,30v75
				c0,3.8,0.7,7.4,2.2,10.9c1.4,3.3,3.4,6.3,6,8.9c2.6,2.6,5.6,4.6,8.9,6c3.5,1.5,7.1,2.2,10.9,2.2h626c3.8,0,7.4-0.7,10.9-2.2
				c3.3-1.4,6.3-3.4,8.9-6c2.6-2.6,4.6-5.6,6-8.9c1.5-3.5,2.2-7.1,2.2-10.9V30c0-3.8-0.7-7.4-2.2-10.9c-1.4-3.3-3.4-6.3-6-8.9
				c-2.6-2.6-5.6-4.6-8.9-6C663.4,2.7,659.8,2,656,2H30 M30,0h626c16.6,0,30,13.4,30,30v75c0,16.6-13.4,30-30,30H30
				c-16.6,0-30-13.4-30-30V30C0,13.4,13.4,0,30,0z"/>
		</g>
	</g>
	<g class="st2">
		<path class="st3" d="M176,710.6v-17.7h3.9v17.7H176z M178.8,704.9v-3.1h4.3c0.6,0,1.1-0.1,1.5-0.3c0.4-0.2,0.7-0.6,1-1
			c0.2-0.4,0.4-0.9,0.4-1.5c0-0.6-0.1-1.1-0.4-1.5c-0.2-0.4-0.6-0.8-1-1c-0.4-0.2-0.9-0.3-1.5-0.3h-4.3v-3.3h4
			c1.5,0,2.7,0.2,3.8,0.7c1.1,0.4,1.9,1.1,2.5,2c0.6,0.9,0.9,2,0.9,3.3v0.4c0,1.3-0.3,2.4-0.9,3.2c-0.6,0.9-1.4,1.5-2.5,1.9
			c-1.1,0.4-2.3,0.6-3.8,0.6H178.8z M186.6,710.6l-5.2-7.5h4.3l5.4,7.5H186.6z"/>
		<path class="st3" d="M199.1,711c-1.1,0-2.1-0.2-3-0.6c-0.9-0.4-1.6-0.9-2.1-1.6c-0.6-0.7-1-1.4-1.3-2.2c-0.3-0.8-0.4-1.6-0.4-2.5
			v-0.5c0-0.9,0.1-1.7,0.4-2.5c0.3-0.8,0.7-1.5,1.3-2.2c0.6-0.6,1.3-1.1,2.1-1.5c0.8-0.4,1.8-0.6,2.9-0.6c1.4,0,2.6,0.3,3.6,0.9
			c1,0.6,1.7,1.5,2.2,2.5c0.5,1,0.8,2.1,0.8,3.3v1.3h-11.6v-2.2h9.3l-1.3,1c0-0.8-0.1-1.5-0.3-2c-0.2-0.6-0.5-1-1-1.3
			s-1-0.4-1.6-0.4c-0.7,0-1.2,0.1-1.7,0.4c-0.5,0.3-0.8,0.7-1.1,1.3c-0.2,0.6-0.4,1.3-0.4,2.1c0,0.8,0.1,1.5,0.3,2.1
			c0.2,0.6,0.6,1,1.1,1.4c0.5,0.3,1.1,0.5,1.9,0.5c0.7,0,1.3-0.1,1.7-0.4c0.4-0.3,0.8-0.6,0.9-1h3.5c-0.2,0.9-0.6,1.7-1.1,2.4
			c-0.6,0.7-1.3,1.2-2.1,1.6C201.1,710.8,200.2,711,199.1,711z"/>
		<path class="st3" d="M211.8,710.9c-0.9,0-1.8-0.2-2.5-0.5c-0.7-0.3-1.3-0.8-1.7-1.5c-0.4-0.6-0.6-1.4-0.6-2.3c0-1,0.2-1.7,0.7-2.4
			s1.2-1.1,2.1-1.4c0.9-0.3,1.9-0.4,3.1-0.4h2.8v2.1h-2.8c-0.7,0-1.2,0.2-1.5,0.5s-0.5,0.8-0.5,1.3c0,0.5,0.2,1,0.5,1.3
			c0.4,0.3,0.9,0.5,1.5,0.5c0.4,0,0.8-0.1,1.2-0.2c0.3-0.2,0.6-0.4,0.9-0.8c0.2-0.4,0.4-0.9,0.4-1.5l0.9,1c-0.1,0.9-0.3,1.7-0.7,2.3
			c-0.4,0.6-0.9,1.1-1.5,1.4C213.4,710.7,212.7,710.9,211.8,710.9z M216,710.6v-3.9h-0.6v-4.2c0-0.7-0.2-1.2-0.5-1.5
			c-0.3-0.3-0.8-0.5-1.5-0.5c-0.4,0-0.8,0-1.4,0c-0.6,0-1.2,0-1.8,0.1c-0.6,0-1.2,0.1-1.7,0.1v-3.2c0.4,0,0.8-0.1,1.3-0.1
			c0.5,0,1-0.1,1.5-0.1s1,0,1.5,0c1.3,0,2.5,0.2,3.4,0.6s1.6,1,2.1,1.7s0.7,1.8,0.7,3v8.1H216z"/>
		<path class="st3" d="M227.7,711c-0.9,0-1.8-0.2-2.5-0.5s-1.4-0.8-2-1.4c-0.6-0.6-1-1.3-1.3-2.1c-0.3-0.8-0.5-1.7-0.5-2.6v-0.6
			c0-0.9,0.1-1.8,0.4-2.6c0.3-0.8,0.7-1.5,1.2-2.1c0.5-0.6,1.2-1.1,1.9-1.4c0.8-0.3,1.6-0.5,2.5-0.5c1.1,0,2,0.2,2.7,0.7
			c0.8,0.5,1.4,1.1,1.8,2c0.4,0.9,0.7,2,0.7,3.3l-1-0.9v-9h3.9v17.5h-3v-5.4h0.5c0,1.2-0.3,2.3-0.8,3.2c-0.5,0.9-1.1,1.5-1.9,2
			C229.6,710.8,228.7,711,227.7,711z M228.6,707.8c0.6,0,1.1-0.1,1.6-0.4c0.5-0.3,0.9-0.7,1.2-1.2c0.3-0.5,0.4-1.1,0.4-1.8v-0.9
			c0-0.7-0.2-1.3-0.5-1.8c-0.3-0.5-0.7-0.8-1.2-1.1c-0.5-0.3-1-0.4-1.6-0.4c-0.6,0-1.2,0.2-1.7,0.5s-0.9,0.8-1.2,1.3s-0.4,1.2-0.4,2
			c0,0.8,0.1,1.4,0.4,2c0.3,0.6,0.7,1,1.2,1.3C227.4,707.6,228,707.8,228.6,707.8z"/>
		<path class="st3" d="M238,700.3v-2.9h5.6v2.9H238z M241.2,696.1c-0.7,0-1.3-0.2-1.6-0.6c-0.3-0.4-0.5-0.9-0.5-1.4
			c0-0.6,0.2-1.1,0.5-1.5c0.3-0.4,0.9-0.6,1.6-0.6c0.7,0,1.3,0.2,1.6,0.6c0.3,0.4,0.5,0.9,0.5,1.5c0,0.6-0.2,1.1-0.5,1.4
			C242.5,695.9,242,696.1,241.2,696.1z M239.7,710.6v-13.2h3.9v13.2H239.7z"/>
		<path class="st3" d="M247.1,710.6v-13.2h3.1v5.6H250c0-1.3,0.2-2.5,0.5-3.4c0.3-0.9,0.9-1.6,1.6-2s1.6-0.7,2.6-0.7h0.2
			c1.5,0,2.7,0.5,3.5,1.5s1.2,2.5,1.2,4.5v7.5h-3.9v-7.7c0-0.7-0.2-1.3-0.6-1.7c-0.4-0.4-1-0.7-1.7-0.7c-0.7,0-1.3,0.2-1.7,0.7
			c-0.4,0.4-0.7,1-0.7,1.8v7.7H247.1z"/>
		<path class="st3" d="M268,715.8c-0.6,0-1.3,0-2-0.1c-0.7,0-1.3-0.1-1.8-0.2v-3.2c0.6,0.1,1.2,0.1,1.8,0.2c0.7,0.1,1.3,0.1,1.9,0.1
			c1,0,1.9-0.1,2.5-0.4s1.1-0.6,1.4-1.1c0.3-0.5,0.5-1.1,0.5-1.9v-2.6l0.7-1.5c0,1.2-0.3,2.2-0.7,3c-0.4,0.8-1,1.5-1.8,1.9
			c-0.8,0.4-1.7,0.7-2.7,0.7c-0.9,0-1.7-0.2-2.4-0.5c-0.7-0.3-1.3-0.8-1.9-1.4c-0.5-0.6-0.9-1.3-1.2-2.1c-0.3-0.8-0.4-1.7-0.4-2.6
			v-0.6c0-0.9,0.1-1.8,0.4-2.6c0.3-0.8,0.7-1.5,1.3-2.1c0.5-0.6,1.2-1.1,1.9-1.4c0.7-0.3,1.6-0.5,2.5-0.5c1.1,0,2,0.2,2.8,0.7
			c0.8,0.5,1.4,1.1,1.8,2s0.7,2,0.7,3.2l-0.5,0.1v-5.7h3V709c0,1.6-0.3,2.9-0.9,3.9c-0.6,1-1.5,1.7-2.6,2.2
			C271.3,715.6,269.8,715.8,268,715.8z M269.1,707.4c0.6,0,1.1-0.1,1.6-0.4s0.9-0.6,1.1-1.1s0.4-1.1,0.4-1.8v-0.7
			c0-0.7-0.1-1.3-0.4-1.7c-0.3-0.5-0.7-0.8-1.2-1.1c-0.5-0.2-1-0.4-1.5-0.4c-0.6,0-1.2,0.1-1.7,0.4c-0.5,0.3-0.9,0.7-1.2,1.3
			c-0.3,0.5-0.4,1.2-0.4,1.9c0,0.8,0.1,1.4,0.4,1.9s0.7,0.9,1.2,1.2C267.9,707.3,268.4,707.4,269.1,707.4z"/>
	</g>
	<g class="st2">
		<path class="st4" d="M181.8,734.8c-0.1-0.6-0.3-1-0.8-1.3s-1.1-0.5-1.8-0.5c-0.5,0-1,0.1-1.3,0.2c-0.4,0.2-0.7,0.4-0.9,0.7
			c-0.2,0.3-0.3,0.6-0.3,1c0,0.3,0.1,0.6,0.2,0.8c0.1,0.2,0.3,0.4,0.6,0.6c0.2,0.1,0.5,0.3,0.7,0.4c0.3,0.1,0.5,0.2,0.7,0.2l1.2,0.3
			c0.3,0.1,0.6,0.2,1,0.3c0.4,0.1,0.7,0.3,1.1,0.6s0.6,0.5,0.8,0.9c0.2,0.4,0.3,0.8,0.3,1.4c0,0.6-0.2,1.2-0.5,1.7
			c-0.3,0.5-0.8,0.9-1.4,1.2c-0.6,0.3-1.4,0.4-2.3,0.4c-0.8,0-1.6-0.1-2.2-0.4c-0.6-0.3-1.1-0.6-1.4-1.1c-0.3-0.5-0.5-1-0.6-1.7h1.5
			c0,0.4,0.2,0.8,0.4,1.1s0.6,0.5,1,0.6c0.4,0.1,0.8,0.2,1.3,0.2c0.5,0,1-0.1,1.4-0.3c0.4-0.2,0.8-0.4,1-0.7s0.4-0.7,0.4-1.1
			c0-0.4-0.1-0.7-0.3-0.9s-0.5-0.4-0.9-0.6c-0.4-0.2-0.7-0.3-1.1-0.4l-1.4-0.4c-0.9-0.3-1.6-0.6-2.2-1.1c-0.5-0.5-0.8-1.1-0.8-1.9
			c0-0.7,0.2-1.2,0.5-1.7c0.4-0.5,0.8-0.9,1.4-1.1c0.6-0.3,1.3-0.4,2-0.4c0.8,0,1.4,0.1,2,0.4c0.6,0.3,1,0.6,1.4,1.1
			c0.3,0.5,0.5,1,0.5,1.6H181.8z"/>
		<path class="st4" d="M185.4,743.6v-11.6h1.3v11.6H185.4z M186.7,740.4l0-1.7h0.3l3.8-3.9h1.7l-4.1,4.1h-0.1L186.7,740.4z
			 M191,743.6l-3.4-4.3l1-0.9l4.2,5.2H191z"/>
		<path class="st4" d="M194.8,733.4c-0.3,0-0.5-0.1-0.7-0.3c-0.2-0.2-0.3-0.4-0.3-0.6s0.1-0.5,0.3-0.6c0.2-0.2,0.4-0.3,0.7-0.3
			s0.5,0.1,0.7,0.3c0.2,0.2,0.3,0.4,0.3,0.6s-0.1,0.5-0.3,0.6C195.3,733.3,195.1,733.4,194.8,733.4z M194.1,743.6v-8.7h1.3v8.7
			H194.1z"/>
		<path class="st4" d="M199.3,731.9v11.6h-1.3v-11.6H199.3z"/>
		<path class="st4" d="M203.1,731.9v11.6h-1.3v-11.6H203.1z"/>
		<path class="st4" d="M214.1,731.9v11.6h-1.4v-10.2h-0.1l-2.8,1.9v-1.4l2.9-1.9H214.1z"/>
		<path class="st4" d="M222.4,738.6c0-1.4,0.2-2.7,0.6-4c0.4-1.2,0.9-2.3,1.6-3.3h1.2c-0.3,0.4-0.5,0.8-0.8,1.4
			c-0.2,0.5-0.4,1.1-0.6,1.8c-0.2,0.7-0.3,1.3-0.4,2c-0.1,0.7-0.2,1.4-0.2,2.1c0,0.9,0.1,1.8,0.3,2.7c0.2,0.9,0.4,1.8,0.7,2.6
			c0.3,0.8,0.6,1.4,1,1.9h-1.2c-0.7-1-1.2-2.1-1.6-3.3C222.6,741.4,222.4,740.1,222.4,738.6z"/>
		<path class="st4" d="M231.8,731.9v11.6h-1.4v-10.2h-0.1l-2.8,1.9v-1.4l2.9-1.9H231.8z"/>
		<path class="st4" d="M239,743.7c-0.9,0-1.6-0.2-2.2-0.7s-1.1-1.1-1.4-2c-0.3-0.9-0.5-2-0.5-3.2c0-1.3,0.2-2.3,0.5-3.2
			c0.3-0.9,0.8-1.6,1.4-2c0.6-0.5,1.3-0.7,2.2-0.7s1.6,0.2,2.2,0.7c0.6,0.5,1.1,1.2,1.4,2c0.3,0.9,0.5,2,0.5,3.2
			c0,1.3-0.2,2.3-0.5,3.2c-0.3,0.9-0.8,1.6-1.4,2S239.8,743.7,239,743.7z M239,742.5c0.8,0,1.5-0.4,2-1.2s0.7-2,0.7-3.5
			c0-1-0.1-1.9-0.3-2.6c-0.2-0.7-0.5-1.2-0.9-1.6c-0.4-0.4-0.9-0.6-1.4-0.6c-0.8,0-1.5,0.4-2,1.2c-0.5,0.8-0.7,2-0.7,3.5
			c0,1,0.1,1.9,0.3,2.6c0.2,0.7,0.5,1.2,0.9,1.6C237.9,742.3,238.4,742.5,239,742.5z"/>
		<path class="st4" d="M249.7,743.6v-8.7h1.3v1.4h0.1c0.2-0.5,0.5-0.8,0.9-1.1c0.4-0.3,0.9-0.4,1.5-0.4c0.6,0,1.1,0.1,1.4,0.4
			c0.4,0.3,0.7,0.6,0.9,1.1h0.1c0.2-0.5,0.6-0.8,1-1.1c0.4-0.3,1-0.4,1.6-0.4c0.8,0,1.4,0.2,1.9,0.7c0.5,0.5,0.7,1.2,0.7,2.3v5.8
			h-1.3v-5.8c0-0.6-0.2-1.1-0.5-1.4s-0.8-0.4-1.2-0.4c-0.6,0-1.1,0.2-1.4,0.6c-0.3,0.4-0.5,0.8-0.5,1.4v5.7h-1.4v-6
			c0-0.5-0.2-0.9-0.5-1.2c-0.3-0.3-0.7-0.5-1.2-0.5c-0.3,0-0.7,0.1-1,0.3c-0.3,0.2-0.5,0.4-0.7,0.8c-0.2,0.3-0.3,0.7-0.3,1.1v5.5
			H249.7z"/>
		<path class="st4" d="M264.3,733.4c-0.3,0-0.5-0.1-0.7-0.3c-0.2-0.2-0.3-0.4-0.3-0.6s0.1-0.5,0.3-0.6c0.2-0.2,0.4-0.3,0.7-0.3
			s0.5,0.1,0.7,0.3c0.2,0.2,0.3,0.4,0.3,0.6s-0.1,0.5-0.3,0.6C264.8,733.3,264.5,733.4,264.3,733.4z M263.6,743.6v-8.7h1.3v8.7
			H263.6z"/>
		<path class="st4" d="M268.7,738.3v5.2h-1.3v-8.7h1.3v1.4h0.1c0.2-0.4,0.5-0.8,0.9-1.1c0.4-0.3,1-0.4,1.6-0.4
			c0.6,0,1.1,0.1,1.6,0.4c0.4,0.2,0.8,0.6,1,1.1c0.2,0.5,0.4,1.1,0.4,1.8v5.5H273v-5.5c0-0.7-0.2-1.2-0.5-1.6s-0.8-0.6-1.5-0.6
			c-0.4,0-0.8,0.1-1.1,0.3c-0.3,0.2-0.6,0.5-0.8,0.8C268.8,737.4,268.7,737.8,268.7,738.3z"/>
		<path class="st4" d="M282.9,736.8l-1.2,0.3c-0.1-0.2-0.2-0.4-0.3-0.6s-0.3-0.3-0.6-0.5s-0.6-0.2-1-0.2c-0.5,0-1,0.1-1.3,0.4
			c-0.4,0.2-0.5,0.6-0.5,0.9c0,0.3,0.1,0.6,0.4,0.8c0.2,0.2,0.6,0.4,1.1,0.5l1.3,0.3c0.8,0.2,1.4,0.5,1.7,0.9
			c0.4,0.4,0.6,0.9,0.6,1.5c0,0.5-0.1,0.9-0.4,1.3s-0.7,0.7-1.2,0.9c-0.5,0.2-1.1,0.3-1.8,0.3c-0.9,0-1.6-0.2-2.2-0.6
			c-0.6-0.4-1-1-1.1-1.7l1.3-0.3c0.1,0.5,0.4,0.8,0.7,1.1c0.3,0.2,0.8,0.4,1.3,0.4c0.6,0,1.1-0.1,1.5-0.4c0.4-0.3,0.6-0.6,0.6-1
			c0-0.3-0.1-0.6-0.3-0.8c-0.2-0.2-0.5-0.4-1-0.5l-1.5-0.3c-0.8-0.2-1.4-0.5-1.8-0.9s-0.6-0.9-0.6-1.5c0-0.5,0.1-0.9,0.4-1.3
			s0.7-0.7,1.1-0.9c0.5-0.2,1-0.3,1.6-0.3c0.9,0,1.5,0.2,2,0.6C282.4,735.7,282.7,736.2,282.9,736.8z"/>
		<path class="st4" d="M288,738.6c0,1.4-0.2,2.7-0.6,4c-0.4,1.2-0.9,2.3-1.6,3.3h-1.2c0.3-0.4,0.5-0.8,0.8-1.4
			c0.2-0.5,0.4-1.1,0.6-1.8c0.2-0.7,0.3-1.3,0.4-2c0.1-0.7,0.2-1.4,0.2-2.1c0-0.9-0.1-1.8-0.3-2.7c-0.2-0.9-0.4-1.8-0.7-2.6
			c-0.3-0.8-0.6-1.4-1-1.9h1.2c0.7,1,1.2,2.1,1.6,3.3C287.8,735.9,288,737.2,288,738.6z"/>
	</g>
	<g id="Component_35_4" transform="translate(75 679.556)">
		<g>
			<defs>
				<path id="SVGID_1_" d="M55.3,74H18.7C8.4,74,0,65.6,0,55.3V18.7C0,8.4,8.4,0,18.7,0h36.6C65.6,0,74,8.4,74,18.7v36.6
					C74,65.6,65.6,74,55.3,74z"/>
			</defs>
			<clipPath id="SVGID_00000039813275839215954310000007905361933229274559_">
				<use xlink:href="#SVGID_1_"  style="overflow:visible;"/>
			</clipPath>
			<g id="Mask_Group_668" style="clip-path:url(#SVGID_00000039813275839215954310000007905361933229274559_);">
				<g id="Reading-01" transform="translate(-0.588 -0.676)">
					<g id="Path_4209">
						<path class="st6" d="M55.9,74.7H19.3C9,74.6,0.6,66.3,0.6,56V19.4C0.6,9.1,9,0.7,19.3,0.7h36.6c10.3,0,18.7,8.4,18.7,18.7V56
							C74.6,66.3,66.2,74.6,55.9,74.7z"/>
					</g>
					<g id="Group_2994">
						<g id="Path_4210">
							<path class="st7" d="M48.7,32.7H24.8c-2.9,0-5.2-2.3-5.2-5.2v-0.1c0-2.9,2.3-5.2,5.2-5.2h23.9c0.3,0,0.5,0.2,0.5,0.5v9.5
								c0,0.1-0.1,0.2-0.1,0.3C48.9,32.6,48.8,32.7,48.7,32.7z"/>
						</g>
						<g id="Path_4211">
							<path class="st7" d="M49.7,24.2h-3.6c-0.2,0-0.5-0.1-0.7-0.3c-0.2-0.2-0.3-0.4-0.3-0.7l0,0c0-0.2,0.1-0.5,0.3-0.7
								c0.2-0.2,0.4-0.3,0.7-0.3h3.6c0.2,0,0.5,0.1,0.7,0.3c0.2,0.2,0.3,0.4,0.3,0.7l0,0c0,0.2-0.1,0.5-0.3,0.7
								C50.2,24.1,49.9,24.2,49.7,24.2z"/>
						</g>
						<g id="Path_4212">
							<path class="st7" d="M49.7,32.7h-3.6c-0.2,0-0.5-0.1-0.7-0.3c-0.2-0.2-0.3-0.4-0.3-0.7l0,0c0-0.2,0.1-0.5,0.3-0.7
								c0.2-0.2,0.4-0.3,0.7-0.3h3.6c0.2,0,0.5,0.1,0.7,0.3c0.2,0.2,0.3,0.4,0.3,0.7l0,0C50.6,32.3,50.2,32.7,49.7,32.7
								C49.7,32.7,49.7,32.7,49.7,32.7z"/>
						</g>
						<g id="Group_2987">
							<g>
								<defs>
									<path id="SVGID_00000158731136448295750600000003005272266036399531_" d="M24.9,30.8h24.2v-6.6H24.9
										c-1.8,0-3.3,1.5-3.3,3.3l0,0C21.7,29.3,23.1,30.8,24.9,30.8z"/>
								</defs>
								<clipPath id="SVGID_00000044158739193085228280000017988886182168611743_">
									<use xlink:href="#SVGID_00000158731136448295750600000003005272266036399531_"  style="overflow:visible;"/>
								</clipPath>
								<g id="Group_2985" style="clip-path:url(#SVGID_00000044158739193085228280000017988886182168611743_);">
									<g id="Path_4213">
										<path class="st0" d="M24.9,30.8h24.2v-6.6H24.9c-1.8,0-3.3,1.5-3.3,3.3l0,0C21.7,29.3,23.1,30.8,24.9,30.8z"/>
									</g>
								</g>
							</g>
							<g>
								<defs>
									<path id="SVGID_00000034069032499681250510000018117354368400507028_" d="M24.9,30.8h24.2v-6.6H24.9
										c-1.8,0-3.3,1.5-3.3,3.3l0,0C21.7,29.3,23.1,30.8,24.9,30.8z"/>
								</defs>
								<clipPath id="SVGID_00000145034085957484928210000006697492860492620424_">
									<use xlink:href="#SVGID_00000034069032499681250510000018117354368400507028_"  style="overflow:visible;"/>
								</clipPath>
								<g id="Group_2986" style="opacity:0.1;clip-path:url(#SVGID_00000145034085957484928210000006697492860492620424_);">
									<g id="Path_4215">
										<path d="M20.8,26.4h28.4v1.1H20.8V26.4z"/>
									</g>
									<g id="Path_4216">
										<path d="M23,24.2c-0.4,0-0.8,0.1-1.1,0.3c-0.3,0.2-0.6,0.5-0.8,0.8h28.1v-1.1L23,24.2L23,24.2z"/>
									</g>
									<g id="Path_4217">
										<path d="M21.1,29.7h28.1v-1.1H20.8c0,0.2,0,0.4,0.1,0.6C20.9,29.4,21,29.5,21.1,29.7L21.1,29.7z"/>
									</g>
								</g>
							</g>
						</g>
						<g id="Path_4219">
							<path class="st10" d="M48.6,53.5H24.7c-2.9,0-5.2-2.3-5.2-5.2v-0.1c0-2.9,2.3-5.2,5.2-5.2h23.9c0.3,0,0.5,0.2,0.5,0.5V53
								c0,0.1-0.1,0.2-0.1,0.3C48.8,53.4,48.7,53.5,48.6,53.5L48.6,53.5z"/>
						</g>
						<g id="Path_4220">
							<path class="st10" d="M49.5,45H46c-0.2,0-0.5-0.1-0.7-0.3c-0.2-0.2-0.3-0.4-0.3-0.7l0,0c0-0.2,0.1-0.5,0.3-0.7
								c0.2-0.2,0.4-0.3,0.7-0.3h3.6c0.2,0,0.5,0.1,0.7,0.3c0.2,0.2,0.3,0.4,0.3,0.7l0,0C50.5,44.6,50.1,45,49.5,45
								C49.6,45,49.6,45,49.5,45L49.5,45z"/>
						</g>
						<g id="Path_4221">
							<path class="st10" d="M49.5,53.5H46c-0.2,0-0.5-0.1-0.7-0.3C45.1,53,45,52.8,45,52.5l0,0c0-0.2,0.1-0.5,0.3-0.7
								c0.2-0.2,0.4-0.3,0.7-0.3h3.6c0.2,0,0.5,0.1,0.7,0.3c0.2,0.2,0.3,0.4,0.3,0.7l0,0c0,0.2-0.1,0.5-0.3,0.7
								C50,53.4,49.8,53.5,49.5,53.5z"/>
						</g>
						<g id="Group_2990">
							<g>
								<defs>
									<path id="SVGID_00000052795108477825341070000007894447759521434755_" d="M24.8,51.6H49V45H24.8c-1.8,0-3.3,1.5-3.3,3.3
										l0,0C21.5,50.1,23,51.6,24.8,51.6z"/>
								</defs>
								<clipPath id="SVGID_00000074431331096201117060000002479640512460598962_">
									<use xlink:href="#SVGID_00000052795108477825341070000007894447759521434755_"  style="overflow:visible;"/>
								</clipPath>
								<g id="Group_2988" style="clip-path:url(#SVGID_00000074431331096201117060000002479640512460598962_);">
									<g id="Path_4222">
										<path class="st0" d="M24.8,51.6H49V45H24.8c-1.8,0-3.3,1.5-3.3,3.3l0,0C21.5,50.1,23,51.6,24.8,51.6z"/>
									</g>
								</g>
							</g>
							<g>
								<defs>
									<path id="SVGID_00000101790485640864960420000000014721145310471074_" d="M24.8,51.6H49V45H24.8c-1.8,0-3.3,1.5-3.3,3.3
										l0,0C21.5,50.1,23,51.6,24.8,51.6z"/>
								</defs>
								<clipPath id="SVGID_00000119810595607693230180000006502229069148628379_">
									<use xlink:href="#SVGID_00000101790485640864960420000000014721145310471074_"  style="overflow:visible;"/>
								</clipPath>
								<g id="Group_2989" style="opacity:0.1;clip-path:url(#SVGID_00000119810595607693230180000006502229069148628379_);">
									<g id="Path_4224">
										<path d="M20.7,47.2H49v1.1H20.7V47.2z"/>
									</g>
									<g id="Path_4225">
										<path d="M22.9,45c-0.4,0-0.8,0.1-1.1,0.3c-0.3,0.2-0.6,0.5-0.8,0.8h28.1V45H22.9z"/>
									</g>
									<g id="Path_4226">
										<path d="M21,50.5h28.1v-1.1H20.7c0,0.2,0,0.4,0.1,0.6C20.8,50.2,20.9,50.3,21,50.5z"/>
									</g>
								</g>
							</g>
						</g>
						<g id="Path_4228">
							<path class="st3" d="M27,32.7h23.9c2.9,0,5.2,2.3,5.2,5.2V38c0,2.9-2.3,5.2-5.2,5.2H27c-0.3,0-0.5-0.2-0.5-0.5v-9.5
								C26.5,32.9,26.7,32.7,27,32.7z"/>
						</g>
						<g id="Path_4229">
							<path class="st3" d="M26,41.2h3.6c0.2,0,0.5,0.1,0.7,0.3c0.2,0.2,0.3,0.4,0.3,0.7l0,0c0,0.2-0.1,0.5-0.3,0.7
								c-0.2,0.2-0.4,0.3-0.7,0.3H26c-0.2,0-0.5-0.1-0.7-0.3c-0.2-0.2-0.3-0.4-0.3-0.7l0,0C25,41.6,25.4,41.2,26,41.2
								C26,41.2,26,41.2,26,41.2z"/>
						</g>
						<g id="Path_4230">
							<path class="st3" d="M26,32.7h3.6c0.2,0,0.5,0.1,0.7,0.3c0.2,0.2,0.3,0.4,0.3,0.7l0,0c0,0.2-0.1,0.5-0.3,0.7
								c-0.2,0.2-0.4,0.3-0.7,0.3H26c-0.2,0-0.5-0.1-0.7-0.3c-0.2-0.2-0.3-0.4-0.3-0.7l0,0c0-0.2,0.1-0.5,0.3-0.7
								C25.5,32.8,25.8,32.7,26,32.7z"/>
						</g>
						<g id="Group_2993">
							<g>
								<defs>
									<path id="SVGID_00000106864028679472993200000011122880069075095724_" d="M50.8,34.6H26.5v6.6h24.2c1.8,0,3.3-1.5,3.3-3.3
										l0,0C54,36.1,52.6,34.6,50.8,34.6L50.8,34.6z"/>
								</defs>
								<clipPath id="SVGID_00000076574642204793883760000013173435260300425652_">
									<use xlink:href="#SVGID_00000106864028679472993200000011122880069075095724_"  style="overflow:visible;"/>
								</clipPath>
								<g id="Group_2991" style="clip-path:url(#SVGID_00000076574642204793883760000013173435260300425652_);">
									<g id="Path_4231">
										<path class="st0" d="M50.8,34.6H26.5v6.6h24.2c1.8,0,3.3-1.5,3.3-3.3l0,0C54,36.1,52.6,34.6,50.8,34.6L50.8,34.6z"/>
									</g>
								</g>
							</g>
							<g>
								<defs>
									<path id="SVGID_00000028292459703134002530000015669605619072078218_" d="M50.8,34.6H26.5v6.6h24.2c1.8,0,3.3-1.5,3.3-3.3
										l0,0C54,36.1,52.6,34.6,50.8,34.6L50.8,34.6z"/>
								</defs>
								<clipPath id="SVGID_00000152225625987361563750000016575124252082000057_">
									<use xlink:href="#SVGID_00000028292459703134002530000015669605619072078218_"  style="overflow:visible;"/>
								</clipPath>
								<g id="Group_2992" style="opacity:0.1;clip-path:url(#SVGID_00000152225625987361563750000016575124252082000057_);">
									<g id="Path_4233">
										<path d="M54.9,39H26.5v-1.1h28.4V39z"/>
									</g>
									<g id="Path_4234">
										<path d="M52.6,41.2c0.4,0,0.8-0.1,1.1-0.3c0.3-0.2,0.6-0.5,0.8-0.8H26.5v1.1L52.6,41.2L52.6,41.2z"/>
									</g>
									<g id="Path_4235">
										<path d="M54.6,35.7H26.5v1.1h28.4c0-0.2,0-0.4-0.1-0.6C54.8,36,54.7,35.9,54.6,35.7z"/>
									</g>
								</g>
							</g>
						</g>
						<g id="Path_4237">
							<path class="st15" d="M29.3,29.7v6.6l0.8-0.6l0.8-0.6l0.8,0.6l0.9,0.6v-6.6H29.3z"/>
						</g>
						<g id="Path_4238">
							<path class="st16" d="M30.9,35.2l0.3,0.2l0.3,0.2v-5.9h-1.1v5.9l0.3-0.2L30.9,35.2z"/>
						</g>
					</g>
				</g>
			</g>
		</g>
	</g>
	<g id="Group_2984" transform="translate(-3.788 -57.943)">
		<g id="Ellipse_408" transform="translate(678 725)">
			<g>
				<circle class="st17" cx="16.5" cy="16.5" r="16.5"/>
			</g>
			<g>
				<path class="st18" d="M16.5,33C7.4,33,0,25.6,0,16.5S7.4,0,16.5,0S33,7.4,33,16.5S25.6,33,16.5,33z M16.5,3C9.1,3,3,9.1,3,16.5
					S9.1,30,16.5,30S30,23.9,30,16.5S23.9,3,16.5,3z"/>
			</g>
		</g>
	</g>
	<g id="Component_3_28" transform="translate(687.702 679.105)">
		<g id="Path_645">
			<path class="st18" d="M1.8,8.7l5.7-3.3c0.5-0.3,0.7-1,0.4-1.5C7.8,3.7,7.6,3.6,7.4,3.5L1.8,0.2C1.2-0.2,0.5,0,0.2,0.6
				C0.1,0.8,0,1,0,1.2v6.6c0,0.7,0.6,1.2,1.2,1.2C1.4,8.9,1.6,8.8,1.8,8.7z"/>
		</g>
	</g>
</g>
</svg>
