<svg xmlns="http://www.w3.org/2000/svg" xmlns:xlink="http://www.w3.org/1999/xlink" width="1320" height="280" viewBox="0 0 1320 280"><defs><clipPath id="a"><rect width="1320" height="280" rx="40" fill="#f8b905" opacity="0.1"/></clipPath></defs><g opacity="0.3" clip-path="url(#a)"><path d="M183.1,465.609,69.033,298.4a96.456,96.456,0,0,1-14.955-35.121,91.276,91.276,0,0,1-.1-36.188,88.952,88.952,0,0,1,13.844-33A89.925,89.925,0,0,1,94.805,168.4a94.9,94.9,0,0,1,35.635-13.06,100.763,100.763,0,0,1,37.287,1.361,103.5,103.5,0,0,1,34.674,14.79,101.52,101.52,0,0,1,27.617,27.285L344.085,365.977A96.633,96.633,0,0,1,359.04,401.1a91.615,91.615,0,0,1,.1,36.188A89.131,89.131,0,0,1,318.29,496a94.934,94.934,0,0,1-35.613,13.047,100.533,100.533,0,0,1-37.287-1.361,103.142,103.142,0,0,1-34.674-14.789A101.364,101.364,0,0,1,183.1,465.609Z" transform="translate(-77.285 59.208)" fill="#8698F2" opacity="0.6"/><path d="M262.6,125.047c22.383,33.61,12.537,78.518-21.993,100.3s-80.666,12.2-103.048-21.407-12.537-78.518,21.993-100.3c29.717-18.752,68.889-14.548,93.7,10.051a72.815,72.815,0,0,1,9.35,11.356" transform="translate(16.012 -13.244)" fill="#8698F2" opacity="0.3"/><path d="M42.272,129.941,229.308,14.187A94.629,94.629,0,0,1,264.1,1.23a99,99,0,0,1,84.374,26.64,94.06,94.06,0,0,1,11.919,14.242A90.557,90.557,0,0,1,374.544,75.78a87.668,87.668,0,0,1-14.078,66.761A90.018,90.018,0,0,1,333.9,167.558L146.888,283.3A94.5,94.5,0,0,1,112.1,296.253a99.537,99.537,0,0,1-69.767-14.87,94.97,94.97,0,0,1-26.547-26A90.223,90.223,0,0,1,1.627,221.719a87.6,87.6,0,0,1,14.066-66.782,89.977,89.977,0,0,1,26.543-25Z" transform="translate(-143.709 -120.303)" fill="#8698F2" opacity="0.15"/><path d="M272.906,301.125,110.434,376.392A77.381,77.381,0,0,1,81.109,383.5a79.652,79.652,0,0,1-29.049-4.23,78,78,0,0,1-35.981-25.2,74.9,74.9,0,0,1-8.088-12.581A72.56,72.56,0,0,1,.142,313.079a70.75,70.75,0,0,1,3.87-27.95,71.683,71.683,0,0,1,14.441-24.376,74.191,74.191,0,0,1,23.975-17.584L204.882,167.91A77.3,77.3,0,0,1,234.2,160.8a79.623,79.623,0,0,1,29.05,4.228,78.628,78.628,0,0,1,25.473,14.356,75.6,75.6,0,0,1,18.615,23.421,72.287,72.287,0,0,1,7.849,28.408,70.837,70.837,0,0,1-3.859,27.968,71.718,71.718,0,0,1-14.443,24.376,74.176,74.176,0,0,1-23.954,17.575Z" transform="translate(945.291 15.764)" fill="#8698F2" opacity="0.2"/><path d="M276.849,44.422l74.169,145.247a77.234,77.234,0,0,1,8.341,29.652,74.051,74.051,0,0,1-3.71,29.1,73.122,73.122,0,0,1-14.585,25.212,74.14,74.14,0,0,1-24.383,18.088,77.626,77.626,0,0,1-30.011,7.11,81.328,81.328,0,0,1-29.831-4.638,82.585,82.585,0,0,1-26.323-15.184,80.794,80.794,0,0,1-19.341-24.555L137.006,109.208a77.363,77.363,0,0,1-8.341-29.652,74.353,74.353,0,0,1,3.71-29.1,73.246,73.246,0,0,1,14.585-25.214,74.125,74.125,0,0,1,24.4-18.1,77.629,77.629,0,0,1,29.993-7.1,81.143,81.143,0,0,1,29.831,4.636,82.328,82.328,0,0,1,26.323,15.186A80.668,80.668,0,0,1,276.849,44.422Z" transform="translate(1053.256 -105.257)" fill="#8698F2" opacity="0.3"/></g></svg>
