<svg width="398" height="278" viewBox="0 0 398 278" fill="none" xmlns="http://www.w3.org/2000/svg">
<g clip-path="url(#clip0_47_1046)">
<path d="M219.682 361.468C252.959 361.468 279.936 334.471 279.936 301.169C279.936 267.867 252.959 240.87 219.682 240.87C186.404 240.87 159.427 267.867 159.427 301.169C159.427 334.471 186.404 361.468 219.682 361.468Z" fill="#F9F9F9"/>
<path d="M296.695 330.391C321.82 330.391 342.187 310.009 342.187 284.865C342.187 259.722 321.82 239.34 296.695 239.34C271.571 239.34 251.203 259.722 251.203 284.865C251.203 310.009 271.571 330.391 296.695 330.391Z" fill="#F9F9F9"/>
<path d="M157.624 298.197C186.815 298.197 210.479 274.515 210.479 245.302C210.479 216.089 186.815 192.407 157.624 192.407C128.432 192.407 104.768 216.089 104.768 245.302C104.768 274.515 128.432 298.197 157.624 298.197Z" fill="#F9F9F9"/>
<path d="M99.8408 341.71C129.032 341.71 152.697 318.028 152.697 288.815C152.697 259.602 129.032 235.92 99.8408 235.92C70.6493 235.92 46.9849 259.602 46.9849 288.815C46.9849 318.028 70.6493 341.71 99.8408 341.71Z" fill="#F9F9F9"/>
<path d="M349.919 290.676C371.331 290.676 388.689 273.305 388.689 251.877C388.689 230.449 371.331 213.078 349.919 213.078C328.506 213.078 311.148 230.449 311.148 251.877C311.148 273.305 328.506 290.676 349.919 290.676Z" fill="#F9F9F9"/>
<path d="M392.103 294.57C408.269 294.57 421.375 281.455 421.375 265.277C421.375 249.098 408.269 235.983 392.103 235.983C375.937 235.983 362.831 249.098 362.831 265.277C362.831 281.455 375.937 294.57 392.103 294.57Z" fill="#F9F9F9"/>
</g>
<g clip-path="url(#clip1_47_1046)">
<path d="M48.2137 156.233C44.6722 154.728 41.1306 158.707 37.5891 156.543V149.819C41.2521 152.056 44.9135 147.724 48.5766 149.681C48.7227 149.758 48.8163 149.911 48.8163 150.08C48.8163 151.991 48.8163 153.902 48.8163 155.812C48.8163 156.129 48.501 156.354 48.2153 156.233H48.2137Z" fill="#00C8CF"/>
<path d="M37.2996 148.581V184.274" stroke="#8E8E8E" stroke-width="1.56198" stroke-miterlimit="10" stroke-linecap="round"/>
<path d="M76.8046 213.28C78.3693 213.28 81.2048 212.075 81.4872 208.237C81.768 204.399 79.2558 207.137 79.2558 207.137C79.2558 207.137 82.6907 198.217 79.4562 200.131C80.0998 196.498 79.4053 194.047 77.944 196.367C77.3989 193.122 75.913 192.143 74.9443 196.642C73.6538 194.74 72.5274 195.894 73.1497 200.351C69.8348 197.964 72.4569 205.042 72.7557 205.974C68.7265 202.87 70.6409 213.28 75.1643 213.28H76.8029H76.8046Z" fill="#94A724"/>
<path d="M67.3922 216.847H77.2533C77.2533 216.847 79.9805 212.511 78.2795 212.648C76.5785 212.786 76.3223 214.063 76.3223 214.063C76.3223 214.063 77.3814 209.609 75.9693 209.871C74.5573 210.132 73.8842 212.393 73.8842 212.393C73.8842 212.393 74.9235 208.743 73.3834 209.038C71.8433 209.333 72.6002 211.974 72.6002 211.974C72.6002 211.974 70.9945 207.508 69.7844 209.445C68.7057 211.173 70.827 212.683 70.827 212.683C70.827 212.683 68.1228 210.764 67.7649 212.165C67.43 213.483 69.4215 214.39 69.4215 214.39C69.4215 214.39 67.1015 213.57 66.7305 214.849C66.4317 215.876 67.3922 216.847 67.3922 216.847Z" fill="#8F964E"/>
<path d="M9.11404 219.193C10.8659 219.193 14.0381 217.844 14.3533 213.55C14.6669 209.254 11.8576 212.32 11.8576 212.32C11.8576 212.32 15.6996 202.339 12.0826 204.481C12.8034 200.415 12.0251 197.673 10.3898 200.269C9.78065 196.639 8.11579 195.543 7.03379 200.576C5.59058 198.447 4.32798 199.74 5.02578 204.726C1.31513 202.054 4.25082 209.975 4.58412 211.018C0.0755255 207.545 2.21816 219.193 7.28008 219.193H9.11404Z" fill="#A3B159"/>
<path d="M-8.24361 215.006H5.27567C5.27567 215.006 9.0142 209.061 6.68273 209.249C4.35126 209.438 3.99993 211.188 3.99993 211.188C3.99993 211.188 5.45132 205.081 3.51554 205.441C1.57977 205.8 0.657004 208.899 0.657004 208.899C0.657004 208.899 2.08221 203.894 -0.0292501 204.298C-2.14071 204.702 -1.10305 208.326 -1.10305 208.326C-1.10305 208.326 -3.30645 202.203 -4.96475 204.858C-6.44408 207.228 -3.53636 209.298 -3.53636 209.298C-3.53636 209.298 -7.24534 206.666 -7.73462 208.587C-8.19434 210.392 -5.46228 211.637 -5.46228 211.637C-5.46228 211.637 -8.64424 210.513 -9.15322 212.266C-9.56205 213.674 -8.24522 215.005 -8.24522 215.005L-8.24361 215.006Z" fill="#8F964E"/>
<path d="M5.9009 205.153H4.99297C4.64658 205.153 4.36572 205.44 4.36572 205.794V206.311C4.36572 206.665 4.64658 206.952 4.99297 206.952H5.9009C6.24729 206.952 6.52806 206.665 6.52806 206.311V205.794C6.52806 205.44 6.24729 205.153 5.9009 205.153Z" fill="#A6FFFF"/>
<path d="M8.35845 212.194H2.42468C2.27415 212.194 2.1521 212.319 2.1521 212.473V214.851C2.1521 215.005 2.27415 215.129 2.42468 215.129H8.35845C8.50898 215.129 8.63095 215.005 8.63095 214.851V212.473C8.63095 212.319 8.50898 212.194 8.35845 212.194Z" fill="#B3B3B3"/>
<path d="M7.81658 208.896H3.03381C2.54686 208.896 2.1521 209.298 2.1521 209.795C2.1521 210.291 2.54686 210.694 3.03381 210.694H7.81658C8.30352 210.694 8.69829 210.291 8.69829 209.795C8.69829 209.298 8.30352 208.896 7.81658 208.896Z" fill="#FFB522"/>
<path d="M7.35612 207.28H3.51574C3.0288 207.28 2.63403 207.683 2.63403 208.179C2.63403 208.676 3.0288 209.079 3.51574 209.079H7.35612C7.84306 209.079 8.23775 208.676 8.23775 208.179C8.23775 207.683 7.84306 207.28 7.35612 207.28Z" fill="#FFB522"/>
<path d="M7.35612 210.396H3.51574C3.0288 210.396 2.63403 210.798 2.63403 211.295C2.63403 211.791 3.0288 212.194 3.51574 212.194H7.35612C7.84306 212.194 8.23775 211.791 8.23775 211.295C8.23775 210.798 7.84306 210.396 7.35612 210.396Z" fill="#FFB522"/>
<path d="M6.69061 205.681H4.18835C3.70141 205.681 3.30664 206.083 3.30664 206.58C3.30664 207.076 3.70141 207.479 4.18835 207.479H6.69061C7.17755 207.479 7.57232 207.076 7.57232 206.58C7.57232 206.083 7.17755 205.681 6.69061 205.681Z" fill="#FFB522"/>
<path d="M5.43506 211.194C5.86669 211.194 6.21656 210.837 6.21656 210.396C6.21656 209.956 5.86669 209.599 5.43506 209.599C5.00343 209.599 4.65356 209.956 4.65356 210.396C4.65356 210.837 5.00343 211.194 5.43506 211.194Z" fill="#A6FFFF" stroke="#8E8E8E" stroke-width="0.819939" stroke-miterlimit="10"/>
<path d="M9.04721 215.655H21.7882C21.7882 215.655 25.3117 210.052 23.1149 210.23C20.918 210.408 20.5864 212.058 20.5864 212.058C20.5864 212.058 21.954 206.303 20.1299 206.641C18.3058 206.98 17.4356 209.9 17.4356 209.9C17.4356 209.9 18.7786 205.183 16.7886 205.564C14.7987 205.944 15.7773 209.358 15.7773 209.358C15.7773 209.358 13.7019 203.588 12.1389 206.09C10.7433 208.323 13.4852 210.273 13.4852 210.273C13.4852 210.273 9.98967 207.793 9.52831 209.605C9.09485 211.306 11.6693 212.479 11.6693 212.479C11.6693 212.479 8.67122 211.42 8.19179 213.071C7.80595 214.398 9.04721 215.652 9.04721 215.652V215.655Z" fill="#94A724"/>
<path d="M-19.2247 245.165H21.906L21.906 218.018H-19.2247V245.165Z" fill="#B3B3B3"/>
<path d="M-4.4863 244.128H6.80322L6.80322 223.104H-4.4863L-4.4863 244.128Z" fill="#A6FFFF"/>
<path d="M8.43696 244.128H19.7266L19.7266 223.104H8.43696L8.43696 244.128Z" fill="#A6FFFF"/>
<path d="M4.21527 232.009L-2.17651 235.829" stroke="white" stroke-width="0.364873" stroke-linecap="round" stroke-linejoin="round"/>
<path d="M3.6124 233.742L0.51416 235.594" stroke="white" stroke-width="0.364873" stroke-linecap="round" stroke-linejoin="round"/>
<path d="M1.56309 232.053L-1.53516 233.905" stroke="white" stroke-width="0.364873" stroke-linecap="round" stroke-linejoin="round"/>
<path d="M17.1716 232.009L10.7798 235.829" stroke="white" stroke-width="0.364873" stroke-linecap="round" stroke-linejoin="round"/>
<path d="M16.5703 233.742L13.4705 235.594" stroke="white" stroke-width="0.364873" stroke-linecap="round" stroke-linejoin="round"/>
<path d="M14.5194 232.053L11.4211 233.905" stroke="white" stroke-width="0.364873" stroke-linecap="round" stroke-linejoin="round"/>
<path d="M-19.2363 225.61H21.8943V229.648L-19.2363 227.628V225.61Z" fill="black"/>
<path d="M-21.3904 226.097H24.0304C24.9825 226.097 25.7544 225.309 25.7544 224.337V216.496C25.7544 215.524 24.9825 214.736 24.0304 214.736H-21.3904C-22.3426 214.736 -23.1144 215.524 -23.1144 216.496V224.337C-23.1144 225.309 -22.3426 226.097 -21.3904 226.097Z" fill="#CCCCCC"/>
<path d="M134.262 252.664H53.4944V277.999H134.262V252.664Z" fill="#B3B3B3"/>
<path d="M106.118 256.275V277.999" stroke="#CCCCCC" stroke-width="1.56198" stroke-miterlimit="10"/>
<path d="M129.59 247.877V277.999" stroke="#CCCCCC" stroke-width="1.56198" stroke-miterlimit="10"/>
<path d="M122.408 247.878V278" stroke="#CCCCCC" stroke-width="1.56198" stroke-miterlimit="10"/>
<path d="M57.1816 247.877V277.999" stroke="#CCCCCC" stroke-width="1.56198" stroke-miterlimit="10"/>
<path d="M73.5046 247.877V277.999" stroke="#CCCCCC" stroke-width="1.56198" stroke-miterlimit="10"/>
<path d="M89.7917 247.878V278" stroke="#CCCCCC" stroke-width="1.56198" stroke-miterlimit="10"/>
<path d="M65.3364 269.259C67.2896 269.259 68.873 267.642 68.873 265.648C68.873 263.654 67.2896 262.038 65.3364 262.038C63.3832 262.038 61.7998 263.654 61.7998 265.648C61.7998 267.642 63.3832 269.259 65.3364 269.259Z" fill="#A6FFFF" stroke="#CCCCCC" stroke-width="1.18071" stroke-miterlimit="10"/>
<path d="M81.658 269.259C83.6112 269.259 85.1946 267.642 85.1946 265.648C85.1946 263.654 83.6112 262.038 81.658 262.038C79.7047 262.038 78.1213 263.654 78.1213 265.648C78.1213 267.642 79.7047 269.259 81.658 269.259Z" fill="#A6FFFF" stroke="#CCCCCC" stroke-width="1.18071" stroke-miterlimit="10"/>
<path d="M97.9463 269.259C99.8995 269.259 101.483 267.643 101.483 265.649C101.483 263.655 99.8995 262.039 97.9463 262.039C95.9931 262.039 94.4097 263.655 94.4097 265.649C94.4097 267.643 95.9931 269.259 97.9463 269.259Z" fill="#A6FFFF" stroke="#CCCCCC" stroke-width="1.18071" stroke-miterlimit="10"/>
<path d="M114.271 269.259C116.224 269.259 117.808 267.642 117.808 265.648C117.808 263.654 116.224 262.038 114.271 262.038C112.318 262.038 110.734 263.654 110.734 265.648C110.734 267.642 112.318 269.259 114.271 269.259Z" fill="#A6FFFF" stroke="#CCCCCC" stroke-width="1.18071" stroke-miterlimit="10"/>
<path d="M96.408 211.883H77.8005V219.663H96.408V211.883Z" fill="#B3B3B3"/>
<path d="M97.1293 198.413H76.3842C75.7322 198.413 75.2036 198.953 75.2036 199.618V212.618C75.2036 213.283 75.7322 213.823 76.3842 213.823H97.1293C97.7812 213.823 98.3098 213.283 98.3098 212.618V199.618C98.3098 198.953 97.7812 198.413 97.1293 198.413Z" fill="#CCCCCC"/>
<path d="M96.2196 199.552H77.2658C76.6936 199.552 76.2297 200.025 76.2297 200.609V211.624C76.2297 212.208 76.6936 212.682 77.2658 212.682H96.2196C96.7918 212.682 97.2556 212.208 97.2556 211.624V200.609C97.2556 200.025 96.7918 199.552 96.2196 199.552Z" fill="#47B5A0"/>
<path d="M77.2231 201.268H96.4036" stroke="#5ED3BD" stroke-width="0.512462" stroke-linecap="round" stroke-linejoin="round"/>
<path d="M77.2231 203.257H96.4036" stroke="#5ED3BD" stroke-width="0.512462" stroke-linecap="round" stroke-linejoin="round"/>
<path d="M77.2231 205.248H96.4036" stroke="#5ED3BD" stroke-width="0.512462" stroke-linecap="round" stroke-linejoin="round"/>
<path d="M77.2231 207.238H96.4036" stroke="#5ED3BD" stroke-width="0.512462" stroke-linecap="round" stroke-linejoin="round"/>
<path d="M77.2231 209.227H96.4036" stroke="#5ED3BD" stroke-width="0.512462" stroke-linecap="round" stroke-linejoin="round"/>
<path d="M77.2231 211.219H96.4036" stroke="#5ED3BD" stroke-width="0.512462" stroke-linecap="round" stroke-linejoin="round"/>
<path d="M88.1584 200.313V212.032" stroke="#5ED3BD" stroke-width="0.512462" stroke-linecap="round" stroke-linejoin="round"/>
<path d="M86.2029 200.313V212.032" stroke="#5ED3BD" stroke-width="0.512462" stroke-linecap="round" stroke-linejoin="round"/>
<path d="M84.2476 200.315V212.034" stroke="#5ED3BD" stroke-width="0.512462" stroke-linecap="round" stroke-linejoin="round"/>
<path d="M93.9312 200.313V212.032" stroke="#5ED3BD" stroke-width="0.512462" stroke-linecap="round" stroke-linejoin="round"/>
<path d="M95.6284 200.315V212.034" stroke="#5ED3BD" stroke-width="0.512462" stroke-linecap="round" stroke-linejoin="round"/>
<path d="M91.9756 200.313V212.032" stroke="#5ED3BD" stroke-width="0.512462" stroke-linecap="round" stroke-linejoin="round"/>
<path d="M90.0513 200.313V212.032" stroke="#5ED3BD" stroke-width="0.512462" stroke-linecap="round" stroke-linejoin="round"/>
<path d="M82.2903 200.313V212.032" stroke="#5ED3BD" stroke-width="0.512462" stroke-linecap="round" stroke-linejoin="round"/>
<path d="M80.335 200.313V212.032" stroke="#5ED3BD" stroke-width="0.512462" stroke-linecap="round" stroke-linejoin="round"/>
<path d="M78.4106 200.313V212.032" stroke="#5ED3BD" stroke-width="0.512462" stroke-linecap="round" stroke-linejoin="round"/>
<path d="M101.447 203.024C102.035 202.466 102.404 201.669 102.404 200.786C102.404 199.1 101.064 197.732 99.4127 197.732C97.761 197.732 96.4213 199.1 96.4213 200.786C96.4213 201.669 96.789 202.466 97.3784 203.024C95.684 203.813 94.5068 205.556 94.5068 207.581C94.5068 210.346 96.7037 212.589 99.4144 212.589C102.125 212.589 104.322 210.346 104.322 207.581C104.322 205.556 103.145 203.813 101.45 203.024H101.447Z" fill="#94A724"/>
<path d="M100.003 212.556H98.8354V215.256H100.003V212.556Z" fill="#A08664"/>
<path d="M-40.3666 277.924H24.376L24.376 253.182H-40.3666V277.924Z" fill="#B3B3B3"/>
<path d="M15.4934 253.185V277.926" stroke="#CCCCCC" stroke-width="1.56198" stroke-miterlimit="10"/>
<path d="M12.6711 253.185V277.926" stroke="#CCCCCC" stroke-width="1.56198" stroke-miterlimit="10"/>
<path d="M-41.0083 254.258H24.419V258.295L-41.0083 256.277V254.258Z" fill="black"/>
<path d="M37.8339 243.372H-44.6934C-45.1568 243.372 -45.5325 243.756 -45.5325 244.229V253.397C-45.5325 253.87 -45.1568 254.253 -44.6934 254.253H37.8339C38.2973 254.253 38.673 253.87 38.673 253.397V244.229C38.673 243.756 38.2973 243.372 37.8339 243.372Z" fill="#CCCCCC"/>
<path d="M0.526591 248.816C2.39094 248.816 3.9023 247.273 3.9023 245.37C3.9023 243.467 2.39094 241.924 0.526591 241.924C-1.33776 241.924 -2.84912 243.467 -2.84912 245.37C-2.84912 247.273 -1.33776 248.816 0.526591 248.816Z" fill="#94A724"/>
<path d="M-0.501086 245.694C-0.637362 245.518 -0.629211 245.233 -0.519205 245.054C-0.387854 244.839 -0.111961 244.774 0.114618 244.935C0.114618 244.92 0.0948995 244.67 0.262371 244.514C0.272222 244.504 0.43801 244.355 0.63011 244.442C0.777879 244.509 0.87643 244.685 0.874789 244.886C1.08002 244.647 1.47735 244.727 1.60377 245.034C1.7302 245.341 1.5414 245.765 1.25736 245.813C1.37393 245.865 1.46096 246.003 1.46917 246.152C1.4823 246.37 1.32299 246.5 1.29672 246.521C1.1194 246.665 0.905955 246.576 0.845206 246.549C0.702363 246.489 0.613756 246.38 0.572709 246.321C0.457777 246.542 0.257455 246.661 0.0669972 246.624C-0.125103 246.586 -0.233531 246.4 -0.245024 246.381C-0.271294 246.336 -0.317215 246.256 -0.315573 246.14C-0.315573 245.981 -0.223638 245.875 -0.202293 245.85C-0.241698 245.85 -0.391119 245.837 -0.499483 245.698L-0.501086 245.694Z" fill="#FFBBAE"/>
<path d="M0.541588 245.872C0.732013 245.872 0.886398 245.714 0.886398 245.52C0.886398 245.326 0.732013 245.168 0.541588 245.168C0.351163 245.168 0.196777 245.326 0.196777 245.52C0.196777 245.714 0.351163 245.872 0.541588 245.872Z" fill="white"/>
<path d="M24.376 254.98V277.926" stroke="#8E8E8E" stroke-width="1.3898" stroke-miterlimit="10"/>
<path d="M20.8125 254.981V277.927" stroke="#8E8E8E" stroke-width="1.3898" stroke-miterlimit="10"/>
<path d="M124.482 244.576C123.205 244.576 120.89 243.592 120.661 240.459C120.431 237.327 122.482 239.563 122.482 239.563C122.482 239.563 119.679 232.284 122.318 233.846C121.793 230.881 122.361 228.881 123.553 230.773C123.998 228.125 125.211 227.326 126.001 230.998C127.053 229.446 127.974 230.388 127.465 234.025C130.171 232.077 128.03 237.853 127.787 238.614C131.076 236.082 129.513 244.577 125.82 244.577C125.395 244.577 124.817 244.577 124.482 244.577V244.576Z" fill="#8F964E"/>
<path d="M122.43 222.862H53.4944V246.47H122.43V222.862Z" fill="#B3B3B3"/>
<path d="M119.48 227.945H56.4434V246.127H119.48V227.945Z" fill="#A6FFFF"/>
<path d="M9.56346 260.985H-34.0186V269.26H9.56346V260.985Z" fill="#A6FFFF" stroke="#CCCCCC" stroke-width="1.18071" stroke-linejoin="round"/>
<path d="M87.5498 227.661V244.601" stroke="#B3B3B3" stroke-width="2.6648" stroke-miterlimit="10"/>
<path d="M78.2781 231.123L64.9739 239.074" stroke="white" stroke-width="0.40177" stroke-linecap="round" stroke-linejoin="round"/>
<path d="M77.0364 234.73L70.5854 238.585" stroke="white" stroke-width="0.40177" stroke-linecap="round" stroke-linejoin="round"/>
<path d="M72.7717 231.213L66.3208 235.068" stroke="white" stroke-width="0.40177" stroke-linecap="round" stroke-linejoin="round"/>
<path d="M110.275 230.572L97.1069 238.756" stroke="white" stroke-width="0.40177" stroke-linecap="round" stroke-linejoin="round"/>
<path d="M109.073 234.2L102.687 238.169" stroke="white" stroke-width="0.40177" stroke-linecap="round" stroke-linejoin="round"/>
<path d="M104.78 230.76L98.3928 234.727" stroke="white" stroke-width="0.40177" stroke-linecap="round" stroke-linejoin="round"/>
<path d="M109.915 245.539L119.744 244.741C119.744 244.741 122.127 240.197 120.442 240.472C118.758 240.747 118.602 242.041 118.602 242.041C118.602 242.041 119.311 237.516 117.925 237.891C116.538 238.266 116.042 240.573 116.042 240.573C116.042 240.573 116.796 236.85 115.282 237.269C113.77 237.688 114.73 240.261 114.73 240.261C114.73 240.261 112.781 235.938 111.727 237.966C110.785 239.777 113.018 241.109 113.018 241.109C113.018 241.109 110.172 239.415 109.924 240.841C109.691 242.18 111.748 242.924 111.748 242.924C111.748 242.924 109.373 242.294 109.1 243.6C108.882 244.647 109.915 245.537 109.915 245.537V245.539Z" fill="#A3B159"/>
<path d="M77.7271 244.697L87.4125 246.583C87.4125 246.583 90.8868 242.845 89.1907 242.654C87.4946 242.463 87.0086 243.67 87.0086 243.67C87.0086 243.67 88.8656 239.496 87.4306 239.485C85.9956 239.473 84.9201 241.563 84.9201 241.563C84.9201 241.563 86.6113 238.177 85.0433 238.172C83.4753 238.167 83.7363 240.908 83.7363 240.908C83.7363 240.908 82.9778 236.213 81.4344 237.884C80.0569 239.376 81.8646 241.265 81.8646 241.265C81.8646 241.265 79.5594 238.861 78.9519 240.17C78.3805 241.399 80.1718 242.673 80.1718 242.673C80.1718 242.673 78.0423 241.424 77.443 242.609C76.9619 243.561 77.7271 244.697 77.7271 244.697Z" fill="#94A724"/>
<path d="M122.408 216.499V223.552" stroke="#CCCCCC" stroke-width="0.512462" stroke-miterlimit="10"/>
<path d="M53.5421 225.896H122.623V229.852L53.5256 227.817L53.5421 225.896Z" fill="black"/>
<path d="M53.4944 254.253L134.262 254.34V258.297L53.4944 256.314V254.253Z" fill="black"/>
<path d="M123.423 214.736H52.5057C51.7939 214.736 51.2168 215.325 51.2168 216.052V224.64C51.2168 225.367 51.7939 225.956 52.5057 225.956H123.423C124.135 225.956 124.712 225.367 124.712 224.64V216.052C124.712 215.325 124.135 214.736 123.423 214.736Z" fill="#CCCCCC"/>
<path d="M122.43 217.887H53.4944V222.496H122.43V217.887Z" fill="#A6FFFF"/>
<path d="M70.7139 216.666V223.719" stroke="#CCCCCC" stroke-width="1.22991" stroke-miterlimit="10"/>
<path d="M105.187 216.666V223.719" stroke="#CCCCCC" stroke-width="1.22991" stroke-miterlimit="10"/>
<path d="M87.9661 216.666V223.719" stroke="#CCCCCC" stroke-width="1.22991" stroke-miterlimit="10"/>
<path d="M137.097 243.372H52.0689C51.5983 243.372 51.2168 243.762 51.2168 244.242V253.383C51.2168 253.864 51.5983 254.253 52.0689 254.253H137.097C137.568 254.253 137.949 253.864 137.949 253.383V244.242C137.949 243.762 137.568 243.372 137.097 243.372Z" fill="#CCCCCC"/>
<path d="M53.5821 196.119H19.5657V277.993H53.5821V196.119Z" fill="#FFB522"/>
<path d="M46.3083 196.119H28.2559V277.998H46.3083V196.119Z" fill="#A6FFFF"/>
<path d="M53.5821 178.909H19.5657V193.595H53.5821V178.909Z" fill="#FFB522"/>
<path d="M25.8826 178.077V192.191" stroke="#EAA11F" stroke-width="1.63988" stroke-miterlimit="10"/>
<path d="M46.3135 178.077V192.191" stroke="#EAA11F" stroke-width="1.63988" stroke-miterlimit="10"/>
<path d="M37.2996 178.077V192.191" stroke="#EAA11F" stroke-width="1.63988" stroke-miterlimit="10"/>
<path d="M56.661 189.177H16.5024C16.2104 189.177 15.9736 189.418 15.9736 189.716V197.475C15.9736 197.773 16.2104 198.015 16.5024 198.015H56.661C56.953 198.015 57.1898 197.773 57.1898 197.475V189.716C57.1898 189.418 56.953 189.177 56.661 189.177Z" fill="#EAA11F"/>
<path d="M53.6987 181.465V183.793L19.5657 182.811V181.465H53.6987Z" fill="black"/>
<path d="M53.6987 198.059V200.387L19.5657 199.404V198.059H53.6987Z" fill="black"/>
<path d="M56.661 172.63H16.5024C16.2104 172.63 15.9736 172.872 15.9736 173.17V180.928C15.9736 181.226 16.2104 181.468 16.5024 181.468H56.661C56.953 181.468 57.1898 181.226 57.1898 180.928V173.17C57.1898 172.872 56.953 172.63 56.661 172.63Z" fill="#EAA11F"/>
<path d="M48.983 227.942H26.3958" stroke="#FFB522" stroke-width="1.22991" stroke-miterlimit="10"/>
<path d="M42.6619 209.661L32.3936 216.042" stroke="white" stroke-width="0.313627" stroke-linecap="round" stroke-linejoin="round"/>
<path d="M41.7318 212.49L36.7537 215.584" stroke="white" stroke-width="0.313627" stroke-linecap="round" stroke-linejoin="round"/>
<path d="M38.3651 209.808L33.387 212.902" stroke="white" stroke-width="0.313627" stroke-linecap="round" stroke-linejoin="round"/>
<path d="M42.6619 239.693L32.3936 246.074" stroke="white" stroke-width="0.313627" stroke-linecap="round" stroke-linejoin="round"/>
<path d="M41.7318 242.522L36.7537 245.616" stroke="white" stroke-width="0.313627" stroke-linecap="round" stroke-linejoin="round"/>
<path d="M38.3651 239.84L33.387 242.934" stroke="white" stroke-width="0.313627" stroke-linecap="round" stroke-linejoin="round"/>
<path d="M37.5562 259.487V277.999" stroke="#FFB522" stroke-width="1.22991" stroke-miterlimit="10"/>
<path d="M48.983 259.203H26.3958" stroke="#FFB522" stroke-width="1.22991" stroke-miterlimit="10"/>
<path d="M3.22186 263.193L-3.16992 267.013" stroke="white" stroke-width="0.364873" stroke-linecap="round" stroke-linejoin="round"/>
<path d="M2.62353 264.927L-0.476318 266.779" stroke="white" stroke-width="0.364873" stroke-linecap="round" stroke-linejoin="round"/>
<path d="M0.571283 263.237L-2.52856 265.089" stroke="white" stroke-width="0.364873" stroke-linecap="round" stroke-linejoin="round"/>
<path d="M37.2958 149.986C38.0557 149.986 38.6718 149.357 38.6718 148.581C38.6718 147.806 38.0557 147.177 37.2958 147.177C36.5359 147.177 35.9199 147.806 35.9199 148.581C35.9199 149.357 36.5359 149.986 37.2958 149.986Z" fill="#8E8E8E"/>
<path d="M43.8268 152.674C43.6889 152.664 43.5493 152.652 43.4114 152.642C43.1782 152.625 42.9451 152.607 42.712 152.59C42.7087 152.59 42.7037 152.59 42.7004 152.59C42.6939 152.587 42.6874 152.59 42.6808 152.587C42.4624 152.55 42.3048 152.352 42.3015 152.129C42.2999 152.123 42.3031 152.114 42.3015 152.108C42.3015 152.091 42.3031 152.076 42.3048 152.059C42.3081 152.052 42.3048 152.046 42.3081 152.039C42.3179 151.97 42.3425 151.908 42.3803 151.849C42.4033 151.814 42.4312 151.784 42.4624 151.756C42.5002 151.722 42.5429 151.695 42.5888 151.675C42.6364 151.655 42.6873 151.645 42.7399 151.642C42.7448 151.642 42.7497 151.642 42.753 151.642C42.7596 151.642 42.7661 151.642 42.7711 151.642C42.776 151.642 42.7793 151.642 42.7842 151.642C43.1471 151.668 43.5099 151.697 43.8744 151.724C43.8793 151.724 43.8826 151.724 43.8875 151.724C43.9565 151.734 44.0205 151.756 44.0796 151.794C44.1912 151.87 44.2602 151.975 44.2848 152.111C44.2897 152.139 44.2914 152.168 44.2931 152.198C44.2931 152.22 44.2914 152.242 44.2881 152.263C44.2881 152.268 44.2881 152.273 44.2865 152.28C44.2832 152.284 44.2865 152.29 44.2832 152.294C44.2717 152.346 44.2553 152.394 44.2274 152.439C44.1782 152.525 44.1092 152.589 44.0205 152.63C43.9647 152.657 43.9072 152.669 43.8465 152.672C43.8399 152.674 43.8334 152.671 43.8268 152.672V152.674Z" fill="#A6FFFF"/>
<path d="M43.0694 154.309C43.0513 154.408 43.0103 154.495 42.9429 154.571C42.9019 154.616 42.8526 154.651 42.7968 154.678C42.741 154.705 42.6819 154.718 42.6195 154.721C42.6146 154.721 42.608 154.72 42.6031 154.721L42.5472 154.716C42.5472 154.716 42.5358 154.716 42.5309 154.713C42.4734 154.705 42.4209 154.683 42.3732 154.653C42.3421 154.633 42.3125 154.609 42.2862 154.582C42.2353 154.53 42.1992 154.47 42.1746 154.403C42.1615 154.366 42.1516 154.329 42.1483 154.289C42.1467 154.274 42.145 154.257 42.145 154.242C42.1434 154.237 42.1466 154.23 42.145 154.225C42.145 154.215 42.145 154.205 42.1466 154.195C42.1712 153.846 42.1975 153.498 42.2221 153.149C42.2221 153.139 42.2222 153.129 42.2238 153.119C42.2271 153.114 42.2238 153.107 42.2271 153.102C42.237 153.032 42.2649 152.967 42.3026 152.908C42.3305 152.866 42.3633 152.827 42.4028 152.796C42.4734 152.74 42.5506 152.705 42.6409 152.697C42.654 152.697 42.6655 152.695 42.6786 152.693C42.6835 152.693 42.6901 152.695 42.6951 152.693C42.7131 152.693 42.7328 152.697 42.7508 152.697C42.7558 152.7 42.7624 152.697 42.7673 152.7C42.8559 152.717 42.9331 152.757 42.9987 152.819C43.0431 152.861 43.0776 152.91 43.1038 152.965C43.1301 153.022 43.1449 153.082 43.1515 153.144C43.1515 153.154 43.1515 153.163 43.1531 153.173C43.1548 153.179 43.1515 153.186 43.1531 153.193C43.1531 153.203 43.1531 153.215 43.1515 153.225C43.1268 153.57 43.1022 153.914 43.0776 154.259C43.0776 154.271 43.076 154.281 43.0743 154.292C43.0711 154.297 43.0743 154.304 43.071 154.309H43.0694Z" fill="#A6FFFF"/>
<path d="M43.2714 153.166C43.3108 152.956 43.4882 152.795 43.7049 152.785C43.7098 152.785 43.7148 152.785 43.7181 152.785C43.7246 152.785 43.7328 152.785 43.7394 152.785C43.7525 152.785 43.7656 152.785 43.7787 152.789C43.7853 152.789 43.7936 152.789 43.8001 152.79C43.8051 152.794 43.8099 152.79 43.8132 152.794C43.8543 152.804 43.8954 152.817 43.9331 152.835C44.012 152.876 44.0743 152.934 44.1203 153.011C44.1547 153.07 44.1761 153.134 44.1843 153.202C44.186 153.218 44.186 153.234 44.1876 153.249C44.1893 153.258 44.186 153.266 44.1876 153.275C44.1876 153.286 44.186 153.298 44.1843 153.31C44.181 153.316 44.1843 153.325 44.181 153.332C44.1663 153.412 44.1367 153.486 44.0858 153.551C44.0398 153.61 43.984 153.653 43.9183 153.685C43.8592 153.714 43.7968 153.727 43.7328 153.729C43.7262 153.729 43.7197 153.727 43.7131 153.729C43.6983 153.729 43.6835 153.727 43.6687 153.725C43.6622 153.722 43.654 153.725 43.6474 153.722C43.5817 153.712 43.5227 153.687 43.4685 153.65C43.4439 153.633 43.4208 153.613 43.3979 153.591C43.3667 153.561 43.3437 153.528 43.3223 153.491C43.301 153.454 43.2862 153.414 43.2764 153.373C43.2665 153.332 43.2616 153.29 43.2633 153.248C43.2633 153.231 43.2633 153.213 43.2665 153.196C43.2665 153.189 43.2665 153.182 43.2681 153.177C43.2714 153.174 43.2681 153.167 43.2714 153.164V153.166Z" fill="#A6FFFF"/>
<path d="M43.8648 151.726C43.8648 151.726 43.8566 151.726 43.8517 151.726C43.4856 151.699 43.1194 151.671 42.7533 151.644H42.75C42.7549 151.641 42.7599 151.644 42.7648 151.644C43.1277 151.671 43.4905 151.698 43.8534 151.726C43.8583 151.726 43.8632 151.726 43.8681 151.73L43.8648 151.726Z" fill="#FFB522"/>
<path d="M44.2578 152.264C44.2578 152.242 44.2612 152.22 44.2629 152.198C44.2645 152.22 44.2628 152.242 44.2578 152.264Z" fill="#FFB522"/>
<path d="M43.2708 153.197C43.2708 153.214 43.2692 153.232 43.2675 153.249C43.2642 153.232 43.2675 153.214 43.2708 153.197Z" fill="#FFB522"/>
<path d="M43.7881 152.788C43.7747 152.788 43.7614 152.787 43.748 152.785C43.7614 152.783 43.7747 152.785 43.7881 152.788Z" fill="#FFB522"/>
<path d="M44.1953 153.274C44.1953 153.274 44.1953 153.257 44.1953 153.249C44.1987 153.257 44.1953 153.266 44.1953 153.274Z" fill="#FFB522"/>
<path d="M42.3025 152.106C42.3025 152.106 42.3025 152.121 42.3025 152.128C42.2992 152.121 42.3025 152.113 42.3025 152.106Z" fill="#FFB522"/>
<path d="M44.1936 153.332C44.1936 153.332 44.1936 153.317 44.1969 153.311C44.1969 153.317 44.1969 153.325 44.1936 153.332Z" fill="#FFB522"/>
<path d="M43.6479 153.724C43.6479 153.724 43.6629 153.724 43.6696 153.727C43.6629 153.727 43.6546 153.727 43.6479 153.724Z" fill="#FFB522"/>
<path d="M42.3045 152.04C42.3045 152.04 42.3045 152.054 42.301 152.061C42.301 152.054 42.301 152.047 42.3045 152.04Z" fill="#FFB522"/>
<path d="M42.6545 152.586C42.6545 152.586 42.6672 152.586 42.6735 152.589C42.6672 152.589 42.6609 152.589 42.6545 152.586Z" fill="#FFB522"/>
<path d="M43.812 152.675C43.812 152.675 43.8246 152.675 43.831 152.675C43.8246 152.678 43.8184 152.675 43.812 152.675Z" fill="#FFB522"/>
<path d="M43.1348 153.194C43.1348 153.194 43.1348 153.181 43.1348 153.174C43.1382 153.181 43.1348 153.188 43.1348 153.194Z" fill="#FFB522"/>
<path d="M43.7119 153.73C43.7119 153.73 43.7245 153.73 43.7309 153.73C43.7245 153.734 43.7183 153.73 43.7119 153.73Z" fill="#FFB522"/>
<path d="M42.702 152.693C42.702 152.693 42.6907 152.693 42.6858 152.693C42.6907 152.69 42.6972 152.693 42.702 152.693Z" fill="#FFB522"/>
<path d="M42.7631 152.7C42.7631 152.7 42.7517 152.7 42.7468 152.696C42.7517 152.696 42.7582 152.696 42.7631 152.7Z" fill="#FFB522"/>
<path d="M42.2402 153.103C42.2402 153.103 42.2402 153.114 42.2368 153.12C42.2368 153.114 42.2368 153.108 42.2402 153.103Z" fill="#FFB522"/>
<path d="M43.0674 154.309C43.0674 154.309 43.0674 154.297 43.0708 154.292C43.0708 154.297 43.0708 154.304 43.0674 154.309Z" fill="#FFB522"/>
<path d="M42.1429 154.225C42.1429 154.225 42.1429 154.237 42.1429 154.242C42.1395 154.237 42.1429 154.23 42.1429 154.225Z" fill="#FFB522"/>
<path d="M42.5261 154.715C42.5261 154.715 42.5374 154.715 42.5423 154.718C42.5374 154.718 42.531 154.718 42.5261 154.715Z" fill="#FFB522"/>
<path d="M42.5903 154.721C42.5903 154.721 42.6017 154.721 42.6066 154.721C42.6017 154.724 42.5952 154.721 42.5903 154.721Z" fill="#FFB522"/>
<path d="M42.7312 151.642C42.7312 151.642 42.7232 151.642 42.7185 151.642C42.7232 151.639 42.728 151.642 42.7312 151.642Z" fill="#FFB522"/>
<path d="M44.2578 152.294C44.2578 152.294 44.2578 152.284 44.261 152.281C44.261 152.286 44.261 152.291 44.2578 152.294Z" fill="#FFB522"/>
<path d="M43.7231 152.784C43.7231 152.784 43.7136 152.784 43.7104 152.784C43.7152 152.78 43.7199 152.784 43.7231 152.784Z" fill="#FFB522"/>
<path d="M43.82 152.793C43.82 152.793 43.8105 152.793 43.8074 152.79C43.8121 152.79 43.8169 152.79 43.82 152.793Z" fill="#FFB522"/>
<path d="M43.2661 153.166C43.2661 153.166 43.2661 153.176 43.2629 153.179C43.2629 153.174 43.2629 153.169 43.2661 153.166Z" fill="#FFB522"/>
<path d="M315.816 277.847H326.992C326.992 277.847 330.083 272.932 328.156 273.088C326.229 273.244 325.938 274.692 325.938 274.692C325.938 274.692 327.138 269.643 325.538 269.94C323.938 270.237 323.174 272.798 323.174 272.798C323.174 272.798 324.352 268.661 322.607 268.994C320.861 269.328 321.719 272.323 321.719 272.323C321.719 272.323 319.899 267.261 318.528 269.456C317.303 271.415 319.709 273.126 319.709 273.126C319.709 273.126 316.642 270.95 316.238 272.539C315.857 274.032 318.116 275.061 318.116 275.061C318.116 275.061 315.486 274.132 315.065 275.58C314.727 276.744 315.816 277.844 315.816 277.844V277.847Z" fill="#94A724"/>
<path d="M387.12 253.443H323.263V277.847H387.12V253.443Z" fill="#B3B3B3"/>
<path d="M323.089 191.997C323.089 191.997 322.87 207.719 329.936 206.481" stroke="#CCCCCC" stroke-width="0.359637" stroke-miterlimit="10"/>
<path d="M376.147 236.608H383.876C384.272 236.608 384.593 236.936 384.593 237.341V243.583H375.431V237.341C375.431 236.936 375.752 236.608 376.148 236.608H376.147Z" fill="#FFB522"/>
<path d="M359.674 211.321C361.211 211.321 363.993 210.138 364.27 206.371C364.545 202.602 362.08 205.292 362.08 205.292C362.08 205.292 365.451 196.536 362.278 198.415C362.91 194.848 362.227 192.443 360.793 194.72C360.258 191.536 358.798 190.574 357.849 194.989C356.583 193.122 355.475 194.256 356.087 198.63C352.832 196.286 355.408 203.235 355.7 204.149C351.745 201.103 353.624 211.321 358.065 211.321H359.674Z" fill="#94A724"/>
<path d="M351.395 211.052H363.254C363.254 211.052 366.534 205.837 364.488 206.002C362.443 206.168 362.135 207.703 362.135 207.703C362.135 207.703 363.408 202.345 361.71 202.662C360.012 202.976 359.202 205.695 359.202 205.695C359.202 205.695 360.453 201.305 358.6 201.659C356.748 202.013 357.658 205.192 357.658 205.192C357.658 205.192 355.726 199.821 354.271 202.15C352.973 204.229 355.524 206.045 355.524 206.045C355.524 206.045 352.27 203.736 351.841 205.421C351.438 207.005 353.834 208.097 353.834 208.097C353.834 208.097 351.043 207.111 350.597 208.649C350.238 209.884 351.393 211.051 351.393 211.051L351.395 211.052Z" fill="#8F964E"/>
<path d="M363.806 202.408H363.009C362.706 202.408 362.459 202.66 362.459 202.97V203.424C362.459 203.734 362.706 203.986 363.009 203.986H363.806C364.11 203.986 364.356 203.734 364.356 203.424V202.97C364.356 202.66 364.11 202.408 363.806 202.408Z" fill="#A6FFFF"/>
<path d="M367.069 244.768C365.948 244.768 363.917 243.905 363.717 241.157C363.516 238.409 365.314 240.371 365.314 240.371C365.314 240.371 362.856 233.985 365.17 235.356C364.71 232.755 365.208 231.001 366.254 232.661C366.644 230.338 367.708 229.636 368.401 232.858C369.324 231.496 370.132 232.323 369.686 235.513C372.059 233.805 370.181 238.871 369.968 239.539C372.853 237.317 371.482 244.77 368.243 244.77C367.87 244.77 367.363 244.77 367.069 244.77V244.768Z" fill="#8F964E"/>
<path d="M366.281 217.602H325.713V244.377H366.281V217.602Z" fill="#8E8E8E"/>
<path d="M325.481 193.563L357.845 183.904V210.825H325.481V193.563Z" fill="#8E8E8E"/>
<path d="M365.981 208.585H360.776C360.644 208.585 360.537 208.694 360.537 208.829V210.915C360.537 211.05 360.644 211.159 360.776 211.159H365.981C366.113 211.159 366.22 211.05 366.22 210.915V208.829C366.22 208.694 366.113 208.585 365.981 208.585Z" fill="#CCCCCC"/>
<path d="M333.608 261.759H338.331C339.325 261.759 340.131 262.582 340.131 263.597V277.61H331.809V263.597C331.809 262.582 332.616 261.759 333.61 261.759H333.608Z" fill="#8F964E"/>
<path d="M335.971 270.1C337.616 270.1 338.949 268.738 338.949 267.059C338.949 265.38 337.616 264.019 335.971 264.019C334.326 264.019 332.992 265.38 332.992 267.059C332.992 268.738 334.326 270.1 335.971 270.1Z" fill="#A6FFFF" stroke="#8E8E8E" stroke-width="0.719274" stroke-miterlimit="10"/>
<path d="M364.483 222.619H353.346V243.356H364.483V222.619Z" fill="#A6FFFF"/>
<path d="M351.733 222.619H340.597V243.356H351.733V222.619Z" fill="#A6FFFF"/>
<path d="M338.98 222.619H327.844V243.356H338.98V222.619Z" fill="#A6FFFF"/>
<path d="M323.263 255.216V277.846" stroke="#CCCCCC" stroke-width="0.798394" stroke-miterlimit="10"/>
<path d="M326.763 255.216V277.846" stroke="#CCCCCC" stroke-width="0.798394" stroke-miterlimit="10"/>
<path d="M343.755 255.216V277.846" stroke="#CCCCCC" stroke-width="0.798394" stroke-miterlimit="10"/>
<path d="M346.521 255.216V277.846" stroke="#CCCCCC" stroke-width="0.798394" stroke-miterlimit="10"/>
<path d="M358.891 255.216V277.846" stroke="#CCCCCC" stroke-width="0.798394" stroke-miterlimit="10"/>
<path d="M328.49 190.446V213.078" stroke="#CCCCCC" stroke-width="0.798394" stroke-miterlimit="10"/>
<path d="M331.809 190.446V213.078" stroke="#CCCCCC" stroke-width="0.798394" stroke-miterlimit="10"/>
<path d="M355.832 183.904V210.519" stroke="#CCCCCC" stroke-width="0.798394" stroke-miterlimit="10"/>
<path d="M353.346 183.904V210.519" stroke="#CCCCCC" stroke-width="0.798394" stroke-miterlimit="10"/>
<path d="M387.12 255.216V277.846" stroke="#CCCCCC" stroke-width="0.798394" stroke-miterlimit="10"/>
<path d="M384.425 255.216V277.846" stroke="#CCCCCC" stroke-width="0.798394" stroke-miterlimit="10"/>
<path d="M372.229 255.216V277.846" stroke="#CCCCCC" stroke-width="0.798394" stroke-miterlimit="10"/>
<path d="M349.126 231.037L342.821 234.804" stroke="white" stroke-width="0.359637" stroke-linecap="round" stroke-linejoin="round"/>
<path d="M348.532 232.745L345.476 234.573" stroke="white" stroke-width="0.359637" stroke-linecap="round" stroke-linejoin="round"/>
<path d="M346.521 231.08L343.464 232.906" stroke="white" stroke-width="0.359637" stroke-linecap="round" stroke-linejoin="round"/>
<path d="M361.495 231.037L355.193 234.804" stroke="white" stroke-width="0.359637" stroke-linecap="round" stroke-linejoin="round"/>
<path d="M360.902 232.745L357.846 234.573" stroke="white" stroke-width="0.359637" stroke-linecap="round" stroke-linejoin="round"/>
<path d="M358.89 231.08L355.833 232.906" stroke="white" stroke-width="0.359637" stroke-linecap="round" stroke-linejoin="round"/>
<path d="M336.565 231.037L330.26 234.804" stroke="white" stroke-width="0.359637" stroke-linecap="round" stroke-linejoin="round"/>
<path d="M335.97 232.745L332.914 234.573" stroke="white" stroke-width="0.359637" stroke-linecap="round" stroke-linejoin="round"/>
<path d="M333.958 231.08L330.9 232.906" stroke="white" stroke-width="0.359637" stroke-linecap="round" stroke-linejoin="round"/>
<path d="M325.713 220.125H366.281V224.107L325.713 222.116V220.125Z" fill="black"/>
<path d="M325.378 193.033L357.846 185.552V189.452L325.482 195.169L325.378 193.033Z" fill="black"/>
<path d="M378.534 265.707C380.247 265.707 381.636 264.289 381.636 262.54C381.636 260.791 380.247 259.373 378.534 259.373C376.82 259.373 375.431 260.791 375.431 262.54C375.431 264.289 376.82 265.707 378.534 265.707Z" fill="#A6FFFF" stroke="#8E8E8E" stroke-width="1.03575" stroke-miterlimit="10"/>
<path d="M378.534 274.462C380.247 274.462 381.636 273.044 381.636 271.295C381.636 269.546 380.247 268.128 378.534 268.128C376.82 268.128 375.431 269.546 375.431 271.295C375.431 273.044 376.82 274.462 378.534 274.462Z" fill="#A6FFFF" stroke="#8E8E8E" stroke-width="1.03575" stroke-miterlimit="10"/>
<path d="M322.917 255.454H387.45V259.437L322.917 257.446V255.454Z" fill="black"/>
<path d="M387.557 242.683H320.546C319.489 242.683 318.632 243.557 318.632 244.637V253.726C318.632 254.805 319.489 255.68 320.546 255.68H387.557C388.614 255.68 389.471 254.805 389.471 253.726V244.637C389.471 243.557 388.614 242.683 387.557 242.683Z" fill="#CCCCCC"/>
<path d="M365.506 205.691H361.31C360.883 205.691 360.537 206.045 360.537 206.48C360.537 206.916 360.883 207.269 361.31 207.269H365.506C365.933 207.269 366.279 206.916 366.279 206.48C366.279 206.045 365.933 205.691 365.506 205.691Z" fill="#FFB522"/>
<path d="M365.092 204.274H361.723C361.296 204.274 360.949 204.628 360.949 205.063C360.949 205.499 361.296 205.852 361.723 205.852H365.092C365.519 205.852 365.865 205.499 365.865 205.063C365.865 204.628 365.519 204.274 365.092 204.274Z" fill="#FFB522"/>
<path d="M365.092 207.007H361.723C361.296 207.007 360.949 207.36 360.949 207.796C360.949 208.231 361.296 208.584 361.723 208.584H365.092C365.519 208.584 365.865 208.231 365.865 207.796C365.865 207.36 365.519 207.007 365.092 207.007Z" fill="#FFB522"/>
<path d="M364.505 202.871H362.31C361.883 202.871 361.536 203.224 361.536 203.66C361.536 204.096 361.883 204.449 362.31 204.449H364.505C364.932 204.449 365.278 204.096 365.278 203.66C365.278 203.224 364.932 202.871 364.505 202.871Z" fill="#FFB522"/>
<path d="M363.408 207.707C363.786 207.707 364.093 207.394 364.093 207.007C364.093 206.621 363.786 206.308 363.408 206.308C363.029 206.308 362.722 206.621 362.722 207.007C362.722 207.394 363.029 207.707 363.408 207.707Z" fill="#A6FFFF" stroke="#8E8E8E" stroke-width="0.719274" stroke-miterlimit="10"/>
<path d="M382.844 239.114C383.222 239.114 383.529 238.8 383.529 238.414C383.529 238.027 383.222 237.714 382.844 237.714C382.465 237.714 382.158 238.027 382.158 238.414C382.158 238.8 382.465 239.114 382.844 239.114Z" fill="#A6FFFF"/>
<path d="M382.844 241.277C383.222 241.277 383.529 240.963 383.529 240.577C383.529 240.19 383.222 239.877 382.844 239.877C382.465 239.877 382.158 240.19 382.158 240.577C382.158 240.963 382.465 241.277 382.844 241.277Z" fill="#A6FFFF"/>
<path d="M321.682 250.749C324.879 250.749 327.47 248.367 327.47 245.428C327.47 242.49 324.879 240.107 321.682 240.107C318.485 240.107 315.893 242.49 315.893 245.428C315.893 248.367 318.485 250.749 321.682 250.749Z" fill="#94A724"/>
<path d="M350.004 245.389C350.5 243.089 348.874 240.77 346.372 240.208C343.871 239.646 341.441 241.055 340.945 243.354C340.449 245.654 342.075 247.974 344.577 248.536C347.078 249.098 349.508 247.689 350.004 245.389Z" fill="#94A724"/>
<path d="M341.369 250.682C343.005 250.682 344.33 249.328 344.33 247.659C344.33 245.989 343.005 244.636 341.369 244.636C339.734 244.636 338.408 245.989 338.408 247.659C338.408 249.328 339.734 250.682 341.369 250.682Z" fill="#94A724"/>
<path d="M351.729 247.659C353.364 247.659 354.69 246.306 354.69 244.636C354.69 242.967 353.364 241.613 351.729 241.613C350.093 241.613 348.768 242.967 348.768 244.636C348.768 246.306 350.093 247.659 351.729 247.659Z" fill="#94A724"/>
<path d="M336.562 250.45C339.759 250.45 342.351 248.068 342.351 245.13C342.351 242.191 339.759 239.809 336.562 239.809C333.365 239.809 330.774 242.191 330.774 245.13C330.774 248.068 333.365 250.45 336.562 250.45Z" fill="#94A724"/>
<path d="M335.01 252.028C337.635 252.028 339.763 250.072 339.763 247.659C339.763 245.245 337.635 243.289 335.01 243.289C332.385 243.289 330.257 245.245 330.257 247.659C330.257 250.072 332.385 252.028 335.01 252.028Z" fill="#94A724"/>
<path d="M328.489 247.916C330.931 247.916 332.912 246.095 332.912 243.849C332.912 241.603 330.931 239.782 328.489 239.782C326.046 239.782 324.065 241.603 324.065 243.849C324.065 246.095 326.046 247.916 328.489 247.916Z" fill="#94A724"/>
<path d="M350.834 244.921C350.714 244.767 350.722 244.517 350.818 244.359C350.933 244.171 351.175 244.114 351.374 244.255C351.374 244.242 351.357 244.023 351.504 243.886C351.512 243.877 351.658 243.746 351.826 243.823C351.956 243.882 352.042 244.036 352.041 244.212C352.221 244.002 352.569 244.073 352.68 244.342C352.791 244.611 352.626 244.983 352.376 245.025C352.479 245.071 352.555 245.192 352.562 245.322C352.574 245.514 352.434 245.628 352.411 245.646C352.255 245.772 352.068 245.694 352.015 245.671C351.89 245.618 351.812 245.522 351.776 245.471C351.675 245.665 351.499 245.769 351.332 245.737C351.164 245.703 351.069 245.54 351.059 245.524C351.035 245.484 350.995 245.414 350.997 245.312C350.997 245.172 351.077 245.08 351.096 245.058C351.061 245.058 350.93 245.046 350.835 244.924L350.834 244.921Z" fill="#FFBBAE"/>
<path d="M351.75 245.077C351.917 245.077 352.052 244.938 352.052 244.768C352.052 244.597 351.917 244.459 351.75 244.459C351.583 244.459 351.447 244.597 351.447 244.768C351.447 244.938 351.583 245.077 351.75 245.077Z" fill="white"/>
<path d="M344.094 242.835C343.975 242.681 343.982 242.431 344.078 242.273C344.194 242.085 344.436 242.028 344.634 242.169C344.634 242.156 344.617 241.937 344.764 241.8C344.773 241.791 344.918 241.66 345.087 241.737C345.216 241.796 345.303 241.95 345.301 242.126C345.481 241.916 345.83 241.987 345.941 242.256C346.052 242.525 345.886 242.897 345.637 242.939C345.739 242.985 345.816 243.106 345.823 243.236C345.834 243.428 345.695 243.542 345.671 243.56C345.516 243.686 345.329 243.608 345.275 243.585C345.15 243.532 345.072 243.436 345.036 243.385C344.935 243.579 344.76 243.683 344.593 243.651C344.424 243.617 344.329 243.454 344.319 243.438C344.296 243.398 344.256 243.328 344.257 243.226C344.257 243.086 344.338 242.994 344.356 242.972C344.322 242.972 344.191 242.96 344.096 242.838L344.094 242.835Z" fill="#FFBBAE"/>
<path d="M345.01 242.991C345.177 242.991 345.313 242.852 345.313 242.682C345.313 242.511 345.177 242.373 345.01 242.373C344.843 242.373 344.708 242.511 344.708 242.682C344.708 242.852 344.843 242.991 345.01 242.991Z" fill="white"/>
<path d="M340.686 247.099C340.566 246.944 340.573 246.694 340.67 246.537C340.785 246.349 341.027 246.292 341.226 246.433C341.226 246.419 341.208 246.2 341.355 246.064C341.364 246.055 341.51 245.924 341.678 246C341.808 246.059 341.894 246.214 341.893 246.39C342.073 246.18 342.421 246.25 342.532 246.519C342.643 246.789 342.477 247.16 342.228 247.203C342.33 247.249 342.407 247.369 342.414 247.5C342.426 247.691 342.286 247.806 342.263 247.824C342.107 247.95 341.92 247.872 341.867 247.849C341.741 247.796 341.664 247.7 341.628 247.649C341.527 247.843 341.351 247.947 341.184 247.915C341.015 247.881 340.92 247.718 340.91 247.702C340.887 247.662 340.847 247.591 340.848 247.49C340.848 247.35 340.929 247.258 340.948 247.235C340.913 247.235 340.782 247.224 340.687 247.102L340.686 247.099Z" fill="#FFBBAE"/>
<path d="M341.602 247.254C341.769 247.254 341.904 247.116 341.904 246.945C341.904 246.775 341.769 246.637 341.602 246.637C341.434 246.637 341.299 246.775 341.299 246.945C341.299 247.116 341.434 247.254 341.602 247.254Z" fill="white"/>
<path d="M335.669 242.173C335.549 242.019 335.556 241.769 335.653 241.611C335.768 241.423 336.01 241.366 336.209 241.507C336.209 241.494 336.191 241.275 336.338 241.138C336.347 241.129 336.492 240.998 336.661 241.075C336.791 241.133 336.877 241.288 336.876 241.464C337.056 241.254 337.404 241.325 337.515 241.594C337.626 241.863 337.46 242.235 337.211 242.277C337.313 242.323 337.39 242.443 337.397 242.574C337.408 242.765 337.269 242.88 337.246 242.898C337.09 243.024 336.903 242.946 336.85 242.923C336.724 242.87 336.647 242.774 336.611 242.723C336.51 242.917 336.334 243.021 336.167 242.989C335.998 242.955 335.903 242.792 335.893 242.776C335.87 242.736 335.83 242.665 335.831 242.564C335.831 242.424 335.912 242.332 335.931 242.31C335.896 242.31 335.765 242.298 335.67 242.176L335.669 242.173Z" fill="#FFBBAE"/>
<path d="M336.583 242.328C336.75 242.328 336.885 242.19 336.885 242.02C336.885 241.849 336.75 241.711 336.583 241.711C336.416 241.711 336.281 241.849 336.281 242.02C336.281 242.19 336.416 242.328 336.583 242.328Z" fill="white"/>
<path d="M334.115 248.783C333.996 248.629 334.003 248.379 334.099 248.222C334.214 248.033 334.456 247.976 334.655 248.117C334.655 248.104 334.638 247.885 334.785 247.748C334.793 247.739 334.939 247.609 335.107 247.685C335.237 247.744 335.324 247.898 335.322 248.075C335.502 247.864 335.851 247.935 335.962 248.204C336.072 248.473 335.907 248.845 335.658 248.888C335.76 248.933 335.836 249.054 335.843 249.185C335.855 249.376 335.715 249.491 335.692 249.508C335.537 249.635 335.349 249.557 335.296 249.533C335.171 249.48 335.093 249.385 335.057 249.333C334.956 249.527 334.781 249.632 334.613 249.599C334.445 249.565 334.35 249.402 334.34 249.386C334.317 249.346 334.276 249.276 334.278 249.174C334.278 249.035 334.359 248.942 334.377 248.92C334.343 248.92 334.212 248.908 334.117 248.786L334.115 248.783Z" fill="#FFBBAE"/>
<path d="M335.031 248.939C335.198 248.939 335.333 248.801 335.333 248.63C335.333 248.46 335.198 248.321 335.031 248.321C334.864 248.321 334.729 248.46 334.729 248.63C334.729 248.801 334.864 248.939 335.031 248.939Z" fill="white"/>
<path d="M330.025 245.583C329.906 245.429 329.913 245.179 330.01 245.021C330.125 244.833 330.367 244.776 330.566 244.917C330.566 244.904 330.548 244.685 330.695 244.548C330.704 244.539 330.849 244.408 331.018 244.485C331.147 244.544 331.234 244.698 331.232 244.874C331.413 244.664 331.761 244.735 331.872 245.004C331.983 245.273 331.817 245.645 331.568 245.688C331.67 245.733 331.747 245.854 331.754 245.984C331.765 246.176 331.626 246.29 331.603 246.308C331.447 246.434 331.26 246.356 331.207 246.333C331.081 246.28 331.003 246.184 330.967 246.133C330.867 246.327 330.691 246.431 330.524 246.399C330.355 246.365 330.26 246.202 330.25 246.186C330.227 246.146 330.187 246.076 330.188 245.974C330.188 245.835 330.269 245.742 330.288 245.72C330.253 245.72 330.122 245.708 330.027 245.586L330.025 245.583Z" fill="#FFBBAE"/>
<path d="M330.941 245.741C331.108 245.741 331.244 245.602 331.244 245.432C331.244 245.261 331.108 245.123 330.941 245.123C330.774 245.123 330.639 245.261 330.639 245.432C330.639 245.602 330.774 245.741 330.941 245.741Z" fill="white"/>
<path d="M325.14 243.332C325.021 243.178 325.028 242.928 325.124 242.77C325.24 242.582 325.482 242.525 325.68 242.666C325.68 242.653 325.663 242.434 325.81 242.297C325.819 242.288 325.964 242.157 326.133 242.234C326.262 242.293 326.349 242.447 326.347 242.623C326.527 242.413 326.876 242.484 326.987 242.753C327.098 243.022 326.932 243.394 326.683 243.437C326.785 243.482 326.861 243.603 326.869 243.734C326.88 243.925 326.74 244.039 326.717 244.057C326.562 244.183 326.375 244.106 326.321 244.082C326.196 244.029 326.118 243.933 326.082 243.882C325.981 244.076 325.806 244.18 325.639 244.148C325.47 244.114 325.375 243.951 325.365 243.935C325.342 243.895 325.302 243.825 325.303 243.723C325.303 243.584 325.384 243.491 325.402 243.469C325.368 243.469 325.237 243.457 325.142 243.335L325.14 243.332Z" fill="#FFBBAE"/>
<path d="M326.056 243.488C326.223 243.488 326.359 243.349 326.359 243.179C326.359 243.008 326.223 242.87 326.056 242.87C325.889 242.87 325.754 243.008 325.754 243.179C325.754 243.349 325.889 243.488 326.056 243.488Z" fill="white"/>
<path d="M321.207 247.812C321.088 247.657 321.095 247.407 321.192 247.25C321.307 247.062 321.549 247.004 321.747 247.146C321.747 247.132 321.73 246.913 321.877 246.777C321.886 246.768 322.031 246.637 322.2 246.713C322.329 246.772 322.416 246.927 322.414 247.103C322.594 246.893 322.943 246.963 323.054 247.232C323.165 247.501 322.999 247.873 322.75 247.916C322.852 247.962 322.929 248.082 322.936 248.213C322.947 248.404 322.808 248.519 322.785 248.536C322.629 248.663 322.442 248.585 322.388 248.561C322.263 248.509 322.185 248.413 322.149 248.362C322.049 248.556 321.873 248.66 321.706 248.628C321.537 248.594 321.442 248.431 321.432 248.414C321.409 248.375 321.369 248.304 321.37 248.203C321.37 248.063 321.451 247.97 321.47 247.948C321.435 247.948 321.304 247.937 321.209 247.815L321.207 247.812Z" fill="#FFBBAE"/>
<path d="M322.123 247.967C322.29 247.967 322.426 247.829 322.426 247.658C322.426 247.488 322.29 247.35 322.123 247.35C321.956 247.35 321.821 247.488 321.821 247.658C321.821 247.829 321.956 247.967 322.123 247.967Z" fill="white"/>
<path d="M317.529 243.641C317.41 243.486 317.417 243.236 317.514 243.079C317.629 242.891 317.871 242.834 318.07 242.975C318.07 242.961 318.052 242.742 318.199 242.606C318.208 242.597 318.353 242.466 318.522 242.542C318.651 242.601 318.738 242.756 318.736 242.932C318.916 242.722 319.265 242.792 319.376 243.061C319.487 243.33 319.321 243.702 319.072 243.745C319.174 243.791 319.251 243.911 319.258 244.042C319.269 244.233 319.13 244.348 319.107 244.366C318.951 244.492 318.764 244.414 318.71 244.391C318.585 244.338 318.507 244.242 318.471 244.191C318.371 244.385 318.195 244.489 318.028 244.457C317.859 244.423 317.764 244.26 317.754 244.244C317.731 244.204 317.691 244.133 317.692 244.032C317.692 243.892 317.773 243.8 317.792 243.777C317.757 243.777 317.626 243.766 317.531 243.644L317.529 243.641Z" fill="#FFBBAE"/>
<path d="M318.445 243.796C318.612 243.796 318.748 243.658 318.748 243.487C318.748 243.317 318.612 243.179 318.445 243.179C318.278 243.179 318.143 243.317 318.143 243.487C318.143 243.658 318.278 243.796 318.445 243.796Z" fill="white"/>
<path d="M378.637 242.138C379.949 242.138 381.012 241.053 381.012 239.714C381.012 238.375 379.949 237.289 378.637 237.289C377.325 237.289 376.262 238.375 376.262 239.714C376.262 241.053 377.325 242.138 378.637 242.138Z" fill="#B3B3B3"/>
<path d="M327.844 191.997C327.844 191.997 338.62 196.492 340.595 189.052C342.569 181.613 346.895 194.676 350.529 191.997C354.162 189.318 354.692 184.844 354.692 184.844L356.454 184.365C356.454 184.365 362.005 193.859 365.161 182.164" stroke="#CCCCCC" stroke-width="0.359637" stroke-miterlimit="10"/>
<path d="M366.978 179.729L319.104 191.381L319.963 195.061L367.838 183.409L366.978 179.729Z" fill="#CCCCCC"/>
<path d="M368.48 209.974H323.513C322.62 209.974 321.896 210.713 321.896 211.625V218.473C321.896 219.385 322.62 220.124 323.513 220.124H368.48C369.373 220.124 370.097 219.385 370.097 218.473V211.625C370.097 210.713 369.373 209.974 368.48 209.974Z" fill="#CCCCCC"/>
<path d="M347.26 193.562H343.365L341.418 197.006L343.365 200.449H347.26L349.207 197.006L347.26 193.562Z" fill="#A6FFFF" stroke="#8E8E8E" stroke-width="1.03575" stroke-miterlimit="10"/>
<path d="M347.268 200.594H343.372L341.424 204.037L343.372 207.481H347.268L349.215 204.037L347.268 200.594Z" fill="#A6FFFF" stroke="#8E8E8E" stroke-width="1.03575" stroke-miterlimit="10"/>
<path d="M341.332 196.799H337.438L335.489 200.242L337.438 203.686H341.332L343.279 200.242L341.332 196.799Z" fill="#A6FFFF" stroke="#8E8E8E" stroke-width="1.03575" stroke-miterlimit="10"/>
<path d="M346.846 203.001L343.791 204.826" stroke="white" stroke-width="0.359637" stroke-linecap="round" stroke-linejoin="round"/>
<path d="M346.558 203.827L345.077 204.712" stroke="white" stroke-width="0.359637" stroke-linecap="round" stroke-linejoin="round"/>
<path d="M345.583 203.021L344.103 203.905" stroke="white" stroke-width="0.359637" stroke-linecap="round" stroke-linejoin="round"/>
<path d="M340.911 199.329L337.857 201.154" stroke="white" stroke-width="0.359637" stroke-linecap="round" stroke-linejoin="round"/>
<path d="M340.622 200.157L339.142 201.042" stroke="white" stroke-width="0.359637" stroke-linecap="round" stroke-linejoin="round"/>
<path d="M339.649 199.35L338.167 200.235" stroke="white" stroke-width="0.359637" stroke-linecap="round" stroke-linejoin="round"/>
<path d="M346.846 196.094L343.791 197.918" stroke="white" stroke-width="0.359637" stroke-linecap="round" stroke-linejoin="round"/>
<path d="M346.558 196.922L345.077 197.807" stroke="white" stroke-width="0.359637" stroke-linecap="round" stroke-linejoin="round"/>
<path d="M345.583 196.114L344.103 196.999" stroke="white" stroke-width="0.359637" stroke-linecap="round" stroke-linejoin="round"/>
</g>
<defs>
<clipPath id="clip0_47_1046">
<path d="M0 4L396 4V258C396 269.046 387.046 278 376 278L20 278C8.9543 278 0 269.046 0 258L0 4Z" fill="white"/>
</clipPath>
<clipPath id="clip1_47_1046">
<rect width="398" height="278" rx="20" fill="white"/>
</clipPath>
</defs>
</svg>
