<svg width="32" height="34" viewBox="0 0 32 34" fill="none" xmlns="http://www.w3.org/2000/svg">
<path d="M0.413457 19.3283C0.707318 20.0736 1.1505 20.7497 1.71589 21.3154L11.7266 31.3544V31.3566C12.2907 31.923 12.9646 32.3671 13.7068 32.6618C14.4282 32.9463 15.1981 33.0867 15.9734 33.0762C16.7548 33.0672 17.5273 32.9079 18.2493 32.6068C18.3466 32.5661 18.4395 32.5165 18.5346 32.4711C18.5441 32.4673 18.554 32.4644 18.5636 32.4602C19.3466 32.1259 20.0578 31.6433 20.6589 31.0386L30.0708 21.6001C30.6735 20.9976 31.155 20.2841 31.4884 19.4989C31.8065 18.7492 31.9794 17.9461 31.9979 17.1321C32.0187 16.3321 31.8824 15.5364 31.5969 14.7899C31.3036 14.0258 30.8544 13.3318 30.2778 12.753C29.7003 12.1738 29.008 11.7227 28.2454 11.4289C27.501 11.1432 26.7075 11.0066 25.9098 11.0267C25.0981 11.0456 24.2972 11.219 23.5497 11.5377C22.767 11.8724 22.0555 12.3549 21.4544 12.9593L16.0513 18.3777L10.3495 12.6595C9.78542 12.0926 9.11092 11.6481 8.36813 11.3534C7.64672 11.069 6.87681 10.9282 6.10147 10.9391C5.32071 10.9474 4.54857 11.1064 3.82684 11.4072C3.0748 11.7211 2.39168 12.1802 1.81576 12.7584C1.52828 13.0461 1.2692 13.3612 1.04298 13.6998C0.377722 14.6933 0.0152611 15.8592 0.000583979 17.055C-0.0102643 17.8325 0.130125 18.6046 0.413776 19.328L0.413457 19.3283Z" fill="#8576BB"/>
<path d="M10.1426 6.80709C10.149 3.55652 12.7816 0.922212 16.0227 0.922852C19.2641 0.923492 21.8865 3.55908 21.8801 6.80965C21.8741 10.0599 19.2414 12.6945 16 12.6939C13.2104 12.6933 10.8101 10.7235 10.2584 7.98202C10.1806 7.59518 10.1416 7.20161 10.1426 6.80709Z" fill="#F5615A"/>
</svg>
