<svg width="193" height="146" viewBox="0 0 193 146" fill="none" xmlns="http://www.w3.org/2000/svg">
<path d="M72.0337 16.4734C73.5736 20.8126 75.1135 25.1461 76.659 29.4853" stroke="#78A047" stroke-width="4.68" stroke-miterlimit="10"/>
<path d="M73.5794 25.3397L70.0735 27.1505C64.2322 30.1743 57.0555 27.8737 54.0382 22.0198L53.6632 21.2966C53.4473 20.8809 53.612 20.3627 54.0268 20.1463C54.3223 19.89 60.2034 14.9814 67.0562 17.3389C71.3122 18.8024 73.426 22.202 74.0113 23.2327L74.1533 23.5061C74.4943 24.1723 74.2386 24.9923 73.5681 25.334L73.5794 25.3397Z" fill="#78A047"/>
<path d="M70.8518 17.1853L76.0056 15.9553C82.3981 14.4291 86.353 8.00003 84.8301 1.58802L84.6426 0.790793C84.5347 0.335233 84.0744 0.0505077 83.6198 0.158703C83.2278 0.158703 75.5738 0.278288 71.9087 6.54224C69.6302 10.4316 70.2438 14.3893 70.4654 15.5566L70.8518 17.1796V17.1853Z" fill="#78A047"/>
<path d="M56.2598 20.972C58.4133 20.7955 61.084 20.7499 64.1126 21.1087C67.3742 21.4959 70.1301 22.2362 72.2837 22.9708" stroke="black" stroke-width="1.47" stroke-miterlimit="10" stroke-linecap="round"/>
<path d="M82.3358 1.92969C80.5856 3.20526 78.5344 4.91361 76.4717 7.16863C74.25 9.58879 72.9487 11.616 71.9146 14.6455" stroke="black" stroke-width="1.47" stroke-miterlimit="10" stroke-linecap="round"/>
<path d="M150.045 87.4267C159.347 86.2423 172.717 82.222 176.172 63.8914" stroke="#A8A7A7" stroke-width="17.39" stroke-linejoin="round"/>
<path d="M181.843 40.1684L181.69 47.1897C181.667 48.1236 180.843 48.8582 179.849 48.824C178.854 48.7899 178.059 48.004 178.082 47.0701L178.235 40.0488C178.258 39.1149 179.082 38.3803 180.076 38.4145C181.07 38.4486 181.866 39.2345 181.843 40.1684Z" fill="#A8A7A7"/>
<path d="M187.696 39.8836L185.491 47.4459C185.23 48.3456 184.235 48.8638 183.275 48.6075C182.315 48.3456 181.747 47.406 182.008 46.5063L184.213 38.944C184.474 38.0442 185.468 37.526 186.429 37.7823C187.389 38.0442 187.957 38.9838 187.696 39.8836Z" fill="#A8A7A7"/>
<path d="M192.492 44.5816L187.02 51.1588C186.412 51.8934 185.275 52.013 184.486 51.4321C183.696 50.8513 183.548 49.7807 184.162 49.0518L189.634 42.4747C190.242 41.7401 191.378 41.6205 192.168 42.2013C192.958 42.7822 193.105 43.8527 192.492 44.5816Z" fill="#A8A7A7"/>
<path d="M177.894 45.4073C179.388 43.2605 182.985 43.0099 185.934 44.8436C188.883 46.6772 190.06 49.9003 188.565 52.0471C187.071 54.1939 182.73 56.9843 179.781 55.1506C176.831 53.317 176.394 47.5542 177.888 45.4073H177.894Z" fill="#A8A7A7"/>
<path d="M177.155 47.5369L189.281 51.5515C188.383 56.7392 187.315 62.1205 186.048 67.684C184.758 73.3159 183.36 78.7086 181.888 83.8507C181.366 85.6843 179.474 85.8324 178.337 84.3917C176.291 81.795 174.127 78.2644 170.785 75.2577C168.819 73.4867 165.575 71.1349 163.751 69.9675C162.234 68.9994 162.506 68.1567 163.461 66.716C167.819 60.1331 172.803 54.1254 177.161 47.5369H177.155Z" fill="#A8A7A7"/>
<path d="M177.632 84.3233C178.74 86.0943 181.513 85.8551 182.207 83.9304C183.786 79.5114 185.275 74.58 186.497 69.1702C187.991 62.5475 188.809 56.443 189.224 51.056C185.354 50.2075 186.491 50.4581 182.621 49.6096L171.797 76.9888C174.291 79.4944 176.195 82.0284 177.632 84.3233Z" fill="#FBB323"/>
<path d="M182.979 81.6811C182.11 84.534 181.11 85.2345 180.348 85.3426C177.956 85.6843 176.138 80.4397 170.495 75.0641C167.779 72.4731 165.114 70.7476 163.239 69.6714" stroke="black" stroke-width="1.74" stroke-miterlimit="10" stroke-linecap="round"/>
<path d="M176.865 47.3318C181.002 48.7383 185.139 50.1449 189.281 51.5514" stroke="black" stroke-width="1.74" stroke-miterlimit="10" stroke-linecap="round"/>
<path d="M149.176 96.0995L147.465 96.0482C146.812 96.0255 146.301 95.4788 146.329 94.8239L146.863 82.4156C146.892 81.7607 147.443 81.2482 148.102 81.2653L149.812 81.3166C151.363 81.3621 152.568 82.6605 152.506 84.2151L152.114 93.3718C152.045 94.9264 150.733 96.145 149.182 96.0938L149.176 96.0995Z" fill="#8D8D8D"/>
<path d="M94.5071 137.482C92.8592 132.692 99.4393 126.229 108.9 122.881C118.361 119.532 127.652 119.663 129.299 124.458C130.947 129.247 123.56 136.405 115.156 141.063C105.559 142.76 96.1549 142.276 94.5071 137.487V137.482Z" fill="#B4E1EB"/>
<path d="M114.398 138.53C124.645 134.873 131.461 127.715 129.623 122.543C127.785 117.37 117.989 116.14 107.742 119.797C97.4949 123.453 90.6783 130.611 92.5163 135.784C94.3544 140.957 104.151 142.186 114.398 138.53Z" fill="#8D8D8D"/>
<path d="M49.9469 104.533C58.9987 130.83 87.7736 144.566 114.213 135.204C140.658 125.842 154.756 96.9367 145.704 70.6395C136.652 44.3423 107.877 30.6071 81.4379 39.9689C54.9928 49.3306 40.8951 78.2359 49.9469 104.533Z" fill="#A8A7A7"/>
<path d="M141.664 35.4817C144.016 44.2626 139.169 53.5674 130.402 56.6709L124.725 40.1796L140.169 34.7129C140.8 34.4908 141.488 34.8382 141.658 35.4817H141.664Z" fill="#FBB323"/>
<path d="M30.9625 77.1824C34.7639 85.0009 43.935 88.8504 52.4129 85.8494L46.7364 69.3582L32.0876 74.5401C31.0079 74.9217 30.4681 76.1574 30.9625 77.1767V77.1824Z" fill="#FBB323"/>
<path d="M140.221 77.5468C137.38 78.549 135.851 81.6867 136.823 84.5055L138.175 88.429C139.732 92.9504 137.306 97.9274 132.76 99.5333L77.807 118.986C73.2612 120.597 68.3063 118.234 66.7551 113.713L65.4027 109.789C64.431 106.965 61.3115 105.478 58.476 106.481L51.521 108.941C49.0776 109.806 46.3956 108.565 45.5546 106.133C45.5546 106.116 45.5433 106.105 45.5376 106.088C35.6562 77.3703 51.0493 45.8 79.9265 35.5783C108.804 25.3567 140.226 40.3503 150.108 69.0734C150.108 69.0905 150.119 69.1019 150.125 69.1189C150.96 71.5505 149.619 74.2155 147.176 75.0811L140.221 77.5411V77.5468Z" fill="#FBB323"/>
<path d="M65.7435 53.5731L102.258 40.6522L97.2573 26.1199L60.7432 39.0407L65.7435 53.5731Z" fill="#FBB323"/>
<path d="M60.8398 39.3083L97.3255 26.3932L97.1437 25.8693C96.7403 24.7076 95.4674 24.0983 94.2969 24.514L62.0502 35.9258C60.8796 36.3415 60.2546 37.6227 60.658 38.7844L60.8398 39.3083Z" fill="#9A7D52"/>
<path d="M70.261 92.8365C67.4426 93.8331 64.3514 92.3013 63.5616 89.4426C58.6749 71.7669 72.2497 51.3293 88.9953 45.1394C106.065 38.8299 129.839 46.1929 137.016 63.4244C138.158 66.1635 136.681 69.3239 133.862 70.3205L70.261 92.8308V92.8365Z" fill="#A6FFFF"/>
<path d="M101.382 100.45L128.89 90.7126C129.708 90.4222 130.146 89.5282 129.868 88.7138L129.078 86.4247C128.799 85.6103 127.907 85.1833 127.089 85.4737L99.5812 95.2113C98.763 95.5017 98.3254 96.3957 98.6039 97.2101L99.3937 99.4992C99.6721 100.314 100.564 100.741 101.382 100.45Z" fill="#8D8D8D" stroke="#B4E1EB" stroke-width="1.69" stroke-miterlimit="10"/>
<path d="M93.9841 102.907C95.2106 101.973 95.4581 100.231 94.5368 99.0165C93.6155 97.8023 91.8744 97.5758 90.6478 98.5105C89.4213 99.4452 89.1738 101.187 90.0951 102.401C91.0164 103.615 92.7575 103.842 93.9841 102.907Z" fill="#8D8D8D" stroke="#B4E1EB" stroke-width="1.69" stroke-miterlimit="10"/>
<path d="M85.977 105.745C87.2035 104.81 87.451 103.068 86.5297 101.854C85.6084 100.64 83.8673 100.413 82.6407 101.348C81.4142 102.283 81.1668 104.025 82.088 105.239C83.0093 106.453 84.7505 106.679 85.977 105.745Z" fill="#8D8D8D" stroke="#B4E1EB" stroke-width="1.69" stroke-miterlimit="10"/>
<mask id="mask0_217_739" style="mask-type:luminance" maskUnits="userSpaceOnUse" x="47" y="37" width="102" height="102">
<path d="M49.9469 104.533C58.9987 130.83 87.7736 144.566 114.213 135.204C140.658 125.842 154.756 96.9367 145.704 70.6395C136.652 44.3423 107.877 30.6071 81.4379 39.9689C54.9928 49.3306 40.8951 78.2359 49.9469 104.533Z" fill="white"/>
</mask>
<g mask="url(#mask0_217_739)">
<path d="M106.445 119.276L129.538 111.105C131.26 110.495 133.26 111.071 134.868 112.637L153.119 130.386L99.8142 149.252L103.212 123.843C103.513 121.6 104.724 119.891 106.445 119.282V119.276Z" fill="#C0C0C0" stroke="#A6FFFF" stroke-width="1.71" stroke-linecap="round" stroke-linejoin="round"/>
</g>
<path d="M60.8227 117.169C53.1006 121.582 44.1681 129.264 30.4739 116.679" stroke="#A8A7A7" stroke-width="16.93" stroke-linejoin="round"/>
<path d="M7.5005 93.429L11.2565 99.357C11.7565 100.148 12.8077 100.376 13.6089 99.8638C14.4044 99.357 14.6488 98.3035 14.1487 97.5119L10.3928 91.584C9.89272 90.7924 8.8415 90.5646 8.04031 91.0771C7.24479 91.584 7.00046 92.6374 7.5005 93.429Z" fill="#A8A7A7"/>
<path d="M2.56845 96.0142L8.2791 101.413C8.96097 102.056 10.0349 102.022 10.6884 101.333C11.3418 100.644 11.3191 99.5675 10.6372 98.9241L4.92658 93.5257C4.24471 92.8822 3.17077 92.9164 2.51731 93.6054C1.86385 94.2944 1.88658 95.3707 2.56845 96.0142Z" fill="#A8A7A7"/>
<path d="M1.08529 102.347L8.94951 105.325C9.82458 105.655 10.8133 105.211 11.1599 104.334C11.5008 103.457 11.069 102.472 10.1939 102.142L2.3297 99.1634C1.45464 98.8331 0.465925 99.2773 0.119308 100.154C-0.221626 101.031 0.210224 102.016 1.08529 102.347Z" fill="#A8A7A7"/>
<path d="M13.427 96.0029C11.0973 94.8925 8.02888 96.4129 6.56855 99.4025C5.10821 102.392 5.81281 105.718 8.14253 106.828C10.4722 107.939 15.4613 108.229 16.9159 105.239C18.3706 102.25 15.751 97.1134 13.4213 95.9972L13.427 96.0029Z" fill="#A8A7A7"/>
<path d="M52.6345 113.485L54.0551 112.511C54.6006 112.135 55.3393 112.272 55.7029 112.807L62.6637 123.012C63.033 123.553 62.8853 124.287 62.3455 124.663L60.9249 125.637C59.635 126.52 57.8849 126.206 57.0155 124.931L51.8788 117.403C51.0094 116.127 51.3447 114.373 52.6345 113.49V113.485Z" fill="#8D8D8D"/>
<path d="M15.1374 97.4663L7.31299 106.754C10.728 110.752 14.3817 114.84 18.2911 118.98C22.2516 123.171 26.1837 127.106 30.042 130.785C31.4171 132.1 33.0365 131.314 33.2183 129.532C33.5479 126.326 33.4911 122.26 34.6616 118.08C35.3549 115.62 36.7811 112.039 37.6732 110.165C38.4119 108.61 37.7528 108.013 36.2299 107.244C29.2692 103.719 22.0925 100.991 15.1261 97.472L15.1374 97.4663Z" fill="#A8A7A7"/>
<path d="M33.7639 129.133C33.7695 131.183 31.383 132.317 29.8261 131.007C26.2519 127.994 22.4903 124.498 18.6946 120.461C14.0522 115.524 10.228 110.7 7.10278 106.298C9.82458 103.707 9.02906 104.465 11.7452 101.874L34.7355 120.045C33.9912 123.393 33.7525 126.474 33.7639 129.133Z" fill="#FBB323"/>
<path d="M28.0305 129.464C30.2125 131.485 31.3944 131.599 32.0763 131.32C34.2071 130.454 32.9797 125.096 34.8094 117.773C35.6902 114.248 36.9744 111.486 37.9517 109.664" stroke="black" stroke-width="1.69" stroke-miterlimit="10" stroke-linecap="round"/>
<path d="M15.2681 97.1531C12.6145 100.353 9.9666 103.554 7.31299 106.754" stroke="black" stroke-width="1.69" stroke-miterlimit="10" stroke-linecap="round"/>
<path d="M79.1081 30.5331C78.5001 28.8134 76.1022 28.1073 73.7554 28.9614C71.4086 29.8156 69.9994 31.8998 70.6074 33.6196L79.1081 30.5331Z" fill="#997D52"/>
<path d="M86.1655 27.4694C85.3416 25.1347 82.7675 23.9331 80.4207 24.7873C78.074 25.6415 76.8409 28.2211 77.6649 30.5558L86.1655 27.4694Z" fill="#997D52"/>
<path d="M77.3808 30.4932C77.3012 30.2028 76.9091 28.671 77.8013 27.0822C78.7104 25.4593 80.2787 24.9923 80.5628 24.9126" stroke="black" stroke-width="1.67" stroke-miterlimit="10" stroke-linecap="round"/>
<path d="M109.605 63.8916C110.145 63.6752 110.764 63.9884 110.889 64.5579C111.571 67.6955 109.912 70.9585 106.832 72.1885C103.752 73.4128 100.309 72.1885 98.6552 69.4324C98.354 68.9312 98.5927 68.2764 99.1325 68.06L109.599 63.8916H109.605Z" fill="#30BEC8"/>
<path d="M85.0972 68.7717C84.3357 62.6899 91.1544 59.8883 94.5638 64.8482" stroke="#30BEC8" stroke-width="4.53" stroke-miterlimit="10"/>
<path d="M110.344 58.7209C109.582 52.6392 116.401 49.8375 119.81 54.7974" stroke="#30BEC8" stroke-width="4.53" stroke-miterlimit="10"/>
<path d="M175.458 20.3561L174.564 20.9824C174.116 21.2959 174.007 21.9137 174.32 22.3622L177.796 27.3471C178.109 27.7956 178.726 27.9051 179.173 27.5916L180.067 26.9653C180.515 26.6518 180.624 26.0341 180.311 25.5855L176.835 20.6006C176.522 20.1521 175.906 20.0426 175.458 20.3561Z" fill="#FBB323"/>
<path d="M192.219 18.8612L191.183 18.5201C190.664 18.3493 190.105 18.6324 189.935 19.1523L187.963 25.1685C187.793 25.6884 188.075 26.2483 188.594 26.419L189.631 26.7602C190.149 26.9309 190.708 26.6478 190.878 26.1279L192.85 20.1117C193.02 19.5918 192.738 19.0319 192.219 18.8612Z" fill="#FBB323"/>
<path d="M183.905 16.3456L182.819 16.4489C182.275 16.5006 181.877 16.9841 181.928 17.5289L182.611 24.7456C182.663 25.2904 183.145 25.6901 183.689 25.6384L184.775 25.5351C185.319 25.4834 185.718 24.9999 185.666 24.4551L184.983 17.2384C184.931 16.6937 184.449 16.2939 183.905 16.3456Z" fill="#FBB323"/>
</svg>
