<?xml version="1.0" encoding="utf-8"?>
<!-- Generator: Adobe Illustrator 27.7.0, SVG Export Plug-In . SVG Version: 6.00 Build 0)  -->
<svg version="1.1" id="text_background" xmlns="http://www.w3.org/2000/svg" xmlns:xlink="http://www.w3.org/1999/xlink" x="0px"
	 y="0px" viewBox="0 0 1920 330.2" style="enable-background:new 0 0 1920 330.2;" xml:space="preserve">
<style type="text/css">
	.step0{fill:none;}
	.step1{opacity:0.36;fill:none;}
	.step2{opacity:0.44;fill:none;}
	.step3{opacity:0.2;fill:none;}
	.step4{opacity:0.3;fill:#DEDEDE;enable-background:new    ;}
	.step5{fill:#DEDEDE;}
	.step6{opacity:0.44;fill:#DEDEDE;enable-background:new    ;}
	.step7{opacity:0.2;fill:#DEDEDE;enable-background:new    ;}
	.step8{opacity:0.4;fill:#DEDEDE;enable-background:new    ;}
	.step9{opacity:0.36;fill:#DEDEDE;enable-background:new    ;}
</style>
<rect class="step0" width="1920" height="330.2"/>
<g>
	<path class="step0" d="M316.1,270.1c-0.7,1-0.9,2.3-0.6,3.5c0.2,1.2,0.9,2.3,2,2.9c1.2,0.7,2.6,0.8,3.9,0.4c0.9-0.2,1.8-0.6,2.6-1.1
		c0.8-0.6,1.4-1.4,1.7-2.4c0.4-1.3,0.4-2.6,0.1-3.9l-0.6-2.7l-5.7,1.2C318.1,268.3,316.9,269,316.1,270.1z"/>
	<path class="step0" d="M510.8,215.3h-0.1c-1.1,0.1-2.1,0.4-3,1.1c-0.3,0.3-0.6,0.7-0.7,1.1h9C514.9,215.9,512.9,215,510.8,215.3z"/>
	<path class="step0" d="M438,243.3c0.1,0.6,0.1,1.2,0.2,1.8c0.1,1.2,0.5,2.3,1.1,3.3c0.6,0.8,1.4,1.5,2.3,1.9s1.8,0.6,2.8,0.5
		s1.9-0.5,2.6-1.1c0.8-0.7,1.4-1.7,1.7-2.7c0.4-1.3,0.5-2.6,0.4-3.9c-0.1-1.3-0.4-2.6-1-3.7c-0.5-0.9-1.2-1.7-2.1-2.3
		c-0.8-0.5-1.8-0.7-2.8-0.6c-1,0.1-1.9,0.4-2.7,1c-0.8,0.6-1.4,1.4-1.8,2.4C438.1,240.9,437.9,242.1,438,243.3L438,243.3z"/>
	<path class="step0" d="M412.7,252.8c0.6,0,1.3-0.2,1.8-0.6c1.1-0.7,1.6-2.2,1.5-4.5l0,0l-0.1-1.6l-3.7,0.3c-0.9,0-1.7,0.4-2.3,1.1
		c-1,1.4-0.8,3.3,0.4,4.6C410.9,252.7,411.8,252.9,412.7,252.8z"/>
	<path class="step0" d="M349.5,268.9c1.5,0.6,3.1,0.7,4.6,0.3l0,0c3.1-0.5,5.5-2.9,6-5.9c0.3-1.6,0.3-3.3-0.1-4.8
		c-0.3-1.6-1-3.2-1.9-4.5c-0.9-1.2-2-2.1-3.4-2.7c-2.9-1-6.2-0.3-8.5,1.8c-1,1.1-1.7,2.4-2,3.8c-0.6,3.3,0.1,6.6,2,9.4
		C347,267.4,348.2,268.4,349.5,268.9z"/>
	<path class="step0" d="M473.6,239.3c-1.1,1.9-0.9,4.4,0.5,6.1c0.8,0.7,1.9,1.1,3,0.9c0.8,0,1.5-0.3,2.1-0.8c1.3-0.9,1.9-2.9,1.7-6
		l0,0l-0.2-2.1l-4.4,0.4C475.3,237.9,474.2,238.5,473.6,239.3z"/>
	<path class="step0" d="M1295.1,62.3c1.3,1,2.9,1.6,4.5,1.6l0,0c1.5,0,3-0.5,4.3-1.4c1.4-1,2.5-2.4,3.1-4c0.8-2,1.2-4.1,1.2-6.2v-3
		c0.1-2-0.3-4.1-1.2-5.9c-0.7-1.5-1.8-2.8-3.2-3.7c-1.3-0.8-2.7-1.3-4.2-1.3c-1.7,0-3.3,0.5-4.6,1.6c-1.4,1.2-2.5,2.7-3.1,4.5
		c-0.8,2.2-1.2,4.4-1.1,6.7c-0.1,2.3,0.3,4.6,1.1,6.7C1292.7,59.6,1293.7,61.1,1295.1,62.3z"/>
	<path class="step0" d="M1438.7,31.1c-0.6-2.5-1.9-4.8-3.7-6.7c-1.7-1.6-3.9-2.4-6.2-2.3c-2.4-0.1-4.7,0.8-6.4,2.5
		c-1.9,2-3.3,4.4-4,7.1c-0.4,1.6-0.8,3.3-1,5h22.3C1439.5,34.8,1439.2,32.9,1438.7,31.1z"/>
	<path class="step0" d="M1076.8,71.6c1.3,1,2.9,1.6,4.6,1.6c1.8,0,3.6-0.7,4.9-2c1.5-1.6,2.6-3.5,3.2-5.6c0.8-2.6,1.2-5.4,1.2-8.2
		c0.1-2.8-0.3-5.6-1.2-8.2c-0.6-2-1.7-3.9-3.2-5.4c-1.3-1.3-3-2-4.9-2c-1.7,0-3.3,0.6-4.7,1.6c-1.6,1.3-2.7,3-3.5,4.8
		c-0.9,2.4-1.4,5.1-1.3,7.7v3.7c-0.1,2.5,0.4,5,1.4,7.3C1074.1,68.8,1075.3,70.4,1076.8,71.6z"/>
	<path class="step0" d="M1556.7,134.4c-1.2,0.2-2.2,0.9-2.8,1.9c-0.8,1.8-1.4,3.6-1.9,5.5l0,0c-0.1,1.6-0.2,3.1-0.1,4.7
		c0.1,1.1,0.5,2.3,1.1,3.2c1.1,1.7,2.4,1.8,4,0.4c2.8-2.6,4.4-10.1,2.5-13.5C1558.8,135.7,1557.6,134.5,1556.7,134.4z"/>
	<path class="step0" d="M1342.8,40.8c-0.4-1.7-1.3-3.3-2.5-4.6c-1.2-1.1-2.7-1.7-4.3-1.6c-1.6,0-3.2,0.6-4.3,1.7
		c-1.3,1.4-2.3,3-2.7,4.9c-0.3,1.1-0.5,2.3-0.7,3.4h15.2C1343.4,43.3,1343.1,42,1342.8,40.8z"/>
	<path class="step0" d="M1123.9,56.1c-0.4-1.3-1.2-2.5-2.3-3.4c-1.1-0.8-2.5-1.3-3.9-1.2c-1.4,0-2.8,0.4-4,1.3c-1.2,0.9-2,2.2-2.5,3.6
		c-0.3,0.8-0.5,1.7-0.6,2.6h14C1124.4,58,1124.2,57,1123.9,56.1z"/>
	<path class="step0" d="M1238.2,54.2c-0.9-2.7-3.4-4.4-6.2-4.3c-1.4,0-2.8,0.4-4,1.2c-1.1,0.8-2,2-2.5,3.4c-0.3,0.8-0.5,1.6-0.6,2.4
		h14C1238.7,55.9,1238.5,55,1238.2,54.2z"/>
	<path class="step1" d="M826.7,144.5c-0.6-2-1.8-3.8-3.4-5.1c-1.7-1.2-3.7-1.9-5.8-1.8c-2.1-0.1-4.2,0.6-5.9,1.9
		c-1.7,1.4-3,3.3-3.7,5.4c-0.4,1.2-0.7,2.5-0.9,3.8h20.7C827.4,147.3,827.1,145.9,826.7,144.5z"/>
	<path class="step1" d="M892.4,158.7c0-2.2-0.4-4.3-1.2-6.3c-0.7-1.7-1.9-3.3-3.4-4.4c-3.2-2.1-7.4-2.1-10.7,0
		c-1.5,1.1-2.7,2.6-3.4,4.4c-1.6,4-1.6,8.5,0,12.6c0.7,1.7,1.9,3.2,3.4,4.4c1.6,1.1,3.5,1.7,5.4,1.6l0,0c1.9,0.1,3.8-0.5,5.4-1.6
		c1.5-1.1,2.7-2.6,3.3-4.4C892,163,892.4,160.9,892.4,158.7z"/>
	<path class="step0" d="M968.1,63.8c12.6-0.1,21.2-6.2,21.3-14.5c0.1-8.1-8.1-14-20.9-13.8c-12.9,0.1-21.2,6.2-21.3,14.3
		C947.1,58,955.3,63.9,968.1,63.8z"/>
	<polygon class="step0" points="901.2,105 908.6,105 901.2,104.6 	"/>
	<path class="step0" d="M654,50.4c-0.1-3.7-3.1-5.8-7-5.7c-3.8,0.1-6.8,2.4-6.7,6s3.1,5.7,6.9,5.6l0,0C651.1,56.2,654,54,654,50.4z"/>
	<path class="step2" d="M498.8,50.5c-5.4,0-9.1,2.1-11.1,6.2c-0.3,0.7-0.6,1.5-0.8,2.2h23.2C508.6,53.4,504.8,50.5,498.8,50.5z"/>
	<path class="step1" d="M535.2,159.8c-1.1-0.1-2.1,0.3-3,0.9c-0.7,0.5-1,1.2-1,2c0,0.9,0.6,1.8,1.5,2c0.9,0.3,1.8,0.4,2.7,0.3
		c1.4,0,2.8-0.6,3.6-1.8c0.5-0.9,0.8-1.8,0.8-2.8C538.4,160,536.8,159.7,535.2,159.8L535.2,159.8z"/>
	<path class="step3" d="M758.7,237.4L758.7,237.4c0.5,0.8,1.1,1.6,1.9,2.2c0.6,0.5,1.4,0.8,2.2,0.8s1.7-0.2,2.3-0.7
		c0.7-0.4,1.3-1.1,1.7-1.8c0.3-0.7,0.4-1.6,0.2-2.4c-0.2-1-0.5-1.9-1-2.7s-1.1-1.6-1.9-2.2c-0.6-0.5-1.4-0.8-2.2-0.9
		c-0.8,0-1.6,0.2-2.3,0.6c-0.7,0.4-1.3,1.1-1.6,1.8c-0.3,0.8-0.4,1.6-0.2,2.4C757.8,235.6,758.2,236.5,758.7,237.4z"/>
	<path class="step3" d="M736.3,253.1l0.6,1c0.4,0.7,1,1.2,1.7,1.5s1.4,0.4,2.2,0.3c0.8-0.1,1.5-0.3,2.1-0.7s1.2-1,1.5-1.6
		c0.3-0.7,0.5-1.5,0.4-2.3c-0.1-0.9-0.4-1.7-0.9-2.5c-0.4-0.7-1-1.4-1.8-1.8c-0.6-0.4-1.4-0.6-2.1-0.6c-0.8,0-1.5,0.3-2.2,0.7
		s-1.2,1-1.7,1.6c-0.4,0.6-0.6,1.4-0.6,2.1C735.6,251.6,735.8,252.4,736.3,253.1L736.3,253.1z"/>
	<path class="step3" d="M828.8,215c0.2,1.2,0.7,2.4,1.3,3.4c0.5,0.9,1.3,1.6,2.3,2s2.1,0.5,3.2,0.2c1.1-0.2,2-0.6,2.8-1.4
		c0.7-0.7,1.2-1.7,1.3-2.7c0.2-1.2,0.2-2.4-0.1-3.6c-0.2-1.2-0.7-2.4-1.3-3.4c-0.6-0.9-1.4-1.6-2.3-2c-2-0.8-4.3-0.4-5.9,1.1
		c-0.7,0.8-1.2,1.7-1.4,2.7C828.5,212.5,828.5,213.8,828.8,215L828.8,215z"/>
	<path class="step2" d="M198.4,287.1c-1.5,1.7-1.5,4.2,0,5.9c0.9,0.8,2.1,1.2,3.2,1.1c0.9,0,1.7-0.2,2.5-0.5c1.6-0.8,2.4-2.7,2.5-5.6
		l0,0v-2h-5C200.4,285.9,199.3,286.3,198.4,287.1z"/>
	<path class="step1" d="M1721.9,50c2,1.6,5,1.5,6.8-0.4c1-1.1,1.6-2.4,1.9-3.8c0.4-1.9,0.6-3.8,0.4-5.8c-0.1-1.9-0.4-3.9-1.1-5.7
		c-0.5-1.4-1.3-2.6-2.4-3.5c-1-0.8-2.2-1.2-3.5-1.1c-1.3,0-2.5,0.6-3.3,1.5c-1,1.1-1.7,2.4-2,3.8c-0.4,1.9-0.6,3.8-0.4,5.8l0,0
		c0.1,1.9,0.4,3.8,1.1,5.6C1720,47.8,1720.8,49,1721.9,50z"/>
	<path class="step1" d="M1814.3,30.3c0.7,0,1.3-0.2,1.9-0.6c0.5-0.4,0.9-1,1.1-1.6c0.3-0.8,0.4-1.6,0.3-2.4c0-1.2-0.4-2.4-1.2-3.3
		c-0.8-0.8-1.9-1.2-3-1.1l-4.2,0.2l0.4,9L1814.3,30.3z"/>
	<path class="step1" d="M1810.2,41.7l0.4,9.8l6.9-0.3c1.1,0,2.1-0.5,2.7-1.4c0.7-1.1,1-2.3,0.9-3.6c0-1.3-0.4-2.6-1.2-3.6
		c-0.7-0.8-1.7-1.3-2.8-1.2L1810.2,41.7z"/>
	<path class="step2" d="M42.7,218.6H17.8v111.6c0-26,1-85.6,1-111.6H42.7z"/>
	<path class="step0" d="M225.2,64.7c0.9,0,1.7-0.2,2.5-0.6c0.7-0.4,1.2-0.9,1.6-1.6c0.4-0.8,0.6-1.7,0.6-2.6c0.1-1.3-0.4-2.6-1.4-3.5
		c-1.1-0.9-2.4-1.3-3.8-1.3h-5.5v9.5L225.2,64.7L225.2,64.7z"/>
	<path class="step0" d="M231.8,85.6c0.9-1,1.4-2.4,1.3-3.7c0.1-1.4-0.4-2.8-1.3-3.9c-0.9-1-2.2-1.5-3.6-1.4h-9V87h9
		C229.5,87.1,230.8,86.6,231.8,85.6z"/>
	<path class="step0" d="M293.1,57c-0.7-1.2-1.8-2.3-3-3c-1.3-0.7-2.8-1.1-4.3-1.1s-3,0.4-4.3,1.1c-1.3,0.7-2.4,1.7-3.1,3
		c-0.8,1.3-1.2,2.9-1.2,4.4h17.1C294.3,59.8,293.9,58.3,293.1,57z"/>
	<path class="step0" d="M1530.7,133.1c-1.9-0.6-2.9,0.8-3.8,1.9c-2.6,3.3-4.1,7.3-4.2,11.5c-0.1,1.7,0.6,3.4,1.8,4.6
		c1.1,1.2,2.5,0.9,3.8,0.5c0.6-0.2,1.1-1.2,1.3-1.9c0.9-4,1.6-8.1,2.4-12.2l0,0l0,0c0-0.2,0.1-0.3,0.1-0.5
		C1532.4,134.8,1532,133.5,1530.7,133.1z"/>
	<path class="step0" d="M91.2,68.2c3,2.2,7,2.2,10,0c1.5-1.2,2.6-2.8,3.2-4.6c1.5-4.7,1.5-9.8,0-14.5c-0.6-1.8-1.7-3.4-3.2-4.6
		c-1.4-1.1-3.2-1.7-5-1.6c-1.8,0-3.6,0.5-5,1.6c-1.5,1.2-2.6,2.8-3.2,4.6c-0.8,2.3-1.2,4.8-1.1,7.2l0,0c-0.1,2.4,0.3,4.9,1.1,7.2
		C88.6,65.4,89.7,67,91.2,68.2z"/>
	<path class="step2" d="M118.2,283.4c-2.4,1.1-4.4,3-5.5,5.5c-0.9,2.1-1.3,4.4-1.3,6.7l0,0c0,2.3,0.4,4.6,1.2,6.7
		c0.7,1.8,2,3.4,3.7,4.4c1.9,1.1,4,1.6,6.1,1.5c2.1,0.1,4.3-0.4,6.1-1.5c1.6-1.1,2.9-2.6,3.7-4.4c0.9-2.1,1.3-4.4,1.2-6.7
		c0-2.3-0.4-4.6-1.3-6.7C129.9,283.5,123.6,281.1,118.2,283.4z"/>
	<path class="step1" d="M77.3,153.8c-1.3-0.8-2.7-1.1-4.2-1.1s-3,0.3-4.3,1s-2.4,1.6-3.1,2.9c-0.8,1.4-1.3,2.9-1.2,4.5l0,0v2.4
		c-0.1,1.5,0.4,3.1,1.3,4.3c0.8,1.2,2,2.1,3.3,2.7c1.3,0.6,2.8,1,4.2,1c1.5,0,2.9-0.4,4.1-1.2c1.3-0.8,2.3-2,2.9-3.4
		c0.7-1.6,1.1-3.3,1.1-5s-0.3-3.4-1.1-4.9C79.5,155.7,78.5,154.5,77.3,153.8z"/>
	<path class="step2" d="M1669.9,153.5c2.1-3.9,3.7-9.4,4.9-16.4l-5.3-0.5c-1.3,4.5-2.6,8.7-4.1,12.7
		C1667,150.5,1668.5,151.9,1669.9,153.5z"/>
	<rect x="1484.8" y="14.5" class="step0" width="0" height="78.8"/>
	<path class="step0" d="M1588.2,50.1c-0.8-2.2-2.3-4.2-4.2-5.5c-2.1-1.4-4.6-2-7-1.9c-2.5-0.1-5.1,0.6-7.2,2c-2,1.5-3.6,3.5-4.5,5.9
		c-0.5,1.3-0.9,2.7-1.1,4.1h25.1C1589.1,53.2,1588.7,51.6,1588.2,50.1z"/>
	<path class="step0" d="M1888.5,124.4c0,11.8-8.7,19.2-26.3,23.3c0.4,4.1,4.5,11.4,17.4,11.4c10.6,0,18.2-5.7,20.5-12.5v-41.9h-38.5
		C1879.2,104.8,1888.5,113.7,1888.5,124.4z"/>
	<path class="step1" d="M61.8,176.2v6.8H49.7v1.4h27.1c-3.2,0.1-6.3-0.7-9-2.2C65.2,180.8,63.2,178.7,61.8,176.2z"/>
	<path class="step1" d="M214.1,124.6c0.7,0.7,1.6,1,2.6,0.9c1,0.1,1.9-0.3,2.7-0.9c0.6-0.6,1-1.8,1-3.7v-0.8h-7.3v0.8
		C213.2,122.8,213.5,124,214.1,124.6z"/>
	<rect x="1920" y="104.7" class="step0" width="0" height="75.3"/>
	<path class="step1" d="M212,166.3c-1.6,1.5-1.7,4-0.2,5.6c0.1,0.1,0.1,0.1,0.2,0.2c1.1,0.8,2.4,1.2,3.7,1.1c1,0,1.9-0.2,2.8-0.5
		c1.8-0.8,2.7-2.6,2.9-5.5l0,0v-2h-5.7C214.4,165.1,213.1,165.5,212,166.3z"/>
	<path class="step0" d="M1506.3,211.5c-0.6-2.1-1.8-4.1-3.4-5.5c-1.7-1.4-3.8-2.1-6-2.1c-2.2-0.2-4.5,0.4-6.4,1.6
		c-1.9,1.3-3.3,3.2-4.2,5.3c-0.5,1.3-0.9,2.6-1.2,3.9l21.9,1C1507,214.3,1506.7,212.9,1506.3,211.5z"/>
	<path class="step0" d="M1052.4,145.3c-0.9-1.8-2.3-3.3-4-4.3c-1.9-1-4.1-1.4-6.2-1.1c-2.2,0.1-4.4,0.8-6.2,2.1
		c-1.7,1.3-2.9,3-3.6,5.1c-0.3,1.1-0.5,2.3-0.7,3.5l21.9-1.7C1053.4,147.6,1053,146.4,1052.4,145.3z"/>
	<path class="step0" d="M718,66.3L718,66.3c-6.1,0.1-9.8,1.9-9.7,4.9c0.1,2.8,3.8,4.3,9.9,4.2c6.3-0.1,9.9-1.8,9.8-4.6
		C728,67.8,724.4,66.2,718,66.3z"/>
	<path class="step0" d="M1273.6,222.8L1273.6,222.8c0.1,0.3,0.2,0.7,0.3,1c6.4,1.9,11.7,5.6,16.6,10.9v-32.6h-12.6l9.3,11.6
		L1273.6,222.8z"/>
	<path class="step2" d="M1285.9,148.8c1,0,1.9-0.2,2.8-0.6c1.8-0.9,2.7-2.9,2.8-6.1l0,0v-2.2h-5.6c-1.3-0.1-2.6,0.4-3.6,1.2
		c-1.7,1.8-1.7,4.6,0,6.5C1283.2,148.4,1284.6,148.9,1285.9,148.8z"/>
	<path class="step2" d="M1378.7,128.8c-2.5-1.5-5.7-1.5-8.2,0c-1.1,0.8-2,1.9-2.6,3.2c-0.6,1.5-0.9,3.1-0.9,4.7l0,0
		c0,1.6,0.3,3.2,0.9,4.7c0.5,1.3,1.4,2.3,2.5,3.1c1.3,0.8,2.7,1.1,4.2,1.1c1.5,0.1,2.9-0.3,4.2-1.1c1.1-0.8,2-1.8,2.5-3.1
		c0.6-1.5,0.9-3.1,0.9-4.7c0-1.6-0.3-3.2-0.9-4.7C1380.7,130.6,1379.8,129.5,1378.7,128.8z"/>
	<path class="step0" d="M1585.1,244.8c1.5,1.1,3.3,1.7,5.1,1.7l0,0c1.9,0.2,3.7-0.3,5.3-1.2c1.5-1,2.7-2.3,3.4-3.9
		c1.7-3.7,1.9-8,0.5-11.9c-0.6-1.7-1.7-3.2-3.1-4.3c-3-2.2-7.1-2.4-10.3-0.5c-1.5,1-2.7,2.3-3.5,4c-1.7,3.7-1.9,8-0.6,11.9
		C1582.6,242.2,1583.7,243.7,1585.1,244.8z"/>
	<path class="step0" d="M776.8,54.5c-4.9-0.4-9.1,2.6-9.5,7.3c-0.5,4.8,3.1,8.2,8,8.6l0,0c4.7,0.3,9.1-2.5,9.6-7.3
		C785.3,58.3,781.7,54.8,776.8,54.5z"/>
	<path class="step0" d="M1796.6,278.4c11.2,1,28.9-65.4,9.9-67l0,0c-5.7-0.5-5,16.5-11.8,21.1C1793,251.8,1785.6,277.5,1796.6,278.4z"
		/>
	<path class="step4" d="M662,50.2c-0.1-6.9-6.8-11.4-15.1-11.2c-8.2,0.2-14.7,4.9-14.6,11.8c0.1,6.8,6.8,11.3,15,11.1
		C655.6,61.8,662.1,57.1,662,50.2z M640.3,50.7c-0.1-3.7,2.8-5.9,6.7-6s6.9,2.1,7,5.7c0.1,3.6-2.8,5.8-6.8,5.9l0,0
		C643.4,56.4,640.4,54.3,640.3,50.7z"/>
	<polygon class="step4" points="675.5,47.4 675.2,34.8 667,35 667.6,68.3 675.9,68.1 675.6,53 683.5,52.9 683.4,47.3 	"/>
	<polygon class="step4" points="647.7,74.7 647.5,65.6 639,65.7 639.3,80.2 677.3,79.5 677.1,74.1 	"/>
	<path class="step4" d="M717.9,59.1c-11.1,0.2-17.6,4.8-17.5,12.2c0.1,7.1,6.8,11.5,18,11.3c11.3-0.2,17.8-4.9,17.7-12
		C735.9,63.2,729.2,58.9,717.9,59.1z M718.2,75.4c-6.1,0.1-9.8-1.4-9.9-4.2c-0.1-3,3.6-4.8,9.7-4.9l0,0c6.3-0.1,10,1.5,10,4.5
		C728.1,73.6,724.6,75.2,718.2,75.4z"/>
	<path class="step4" d="M720.1,47.7c-5,1.3-10,2-15.2,2c-0.9,0-1.8,0-2.6,0L701.8,25l-7.7,0.2l0.7,32.3l4.3-0.1l0,0
		c7.4-0.2,14.8-0.9,22-2.3C720.8,52.6,720.4,50.2,720.1,47.7z"/>
	<polygon class="step4" points="714.3,34.6 727.6,34.3 727.6,38.2 714.4,38.5 714.5,45.2 727.8,44.9 728,58.3 735.7,58.1 735,21.1 
		727.3,21.2 727.4,27.7 714.2,27.9 	"/>
	<polygon class="step4" points="819.1,21.2 807.6,20.4 800.4,93.5 811.9,94.3 815.3,59.8 825.9,60.5 826.8,51.7 816.2,50.9 	"/>
	<path class="step4" d="M777.6,46.8L777.6,46.8c-10.8-0.8-19.6,4.8-20.5,14.3c-0.9,9.4,6.7,16.4,17.4,17.1
		c10.7,0.8,19.8-4.9,20.7-14.4C796.1,54.4,788.3,47.6,777.6,46.8z M784.9,63.1c-0.5,4.8-4.9,7.7-9.6,7.3l0,0c-4.9-0.4-8.4-3.8-8-8.6
		c0.5-4.8,4.6-7.7,9.5-7.3S785.3,58.3,784.9,63.1z"/>
	<polygon class="step4" points="792.1,23.7 768,22 767.2,30.7 791.2,32.4 	"/>
	<polygon class="step4" points="755.6,34.1 754.8,42.6 800,45.9 800.9,37.4 	"/>
	<path class="step4" d="M866.2,40.5l0.9-10.7L853.8,29l-0.9,10.9c-1.5,18.2-8.7,28.7-21.2,34.5l6.8,9.3c8.2-3.6,16.2-12,19-19.3
		c1.5,7.3,8.9,15.8,14,19.2l8.7-8.8C870.4,68.3,864.7,59.1,866.2,40.5z"/>
	<polygon class="step4" points="882.9,50.1 872.2,49.5 871.4,59.5 882.1,60.1 878.8,99.7 890.9,100.4 897,25.1 885,24.4 	"/>
	<polygon class="step4" points="902.8,24 896.3,102.8 901.2,102.8 901.2,104.6 908.6,105 908.7,105 915.2,24.7 	"/>
	<polygon class="step5" points="901.2,104.6 901.2,102.8 896.3,102.8 896.2,104.3 	"/>
	<path class="step4" d="M968,74.7L968,74.7c21.5-0.2,35.7-10.7,35.9-25.7c0.2-14.8-13.7-24.9-35.3-24.7C947.2,24.6,933,35,932.8,49.8
		C932.7,64.7,946.6,74.9,968,74.7z M968.5,35.5c12.9-0.1,21,5.8,20.9,13.8c-0.1,8.3-8.6,14.4-21.3,14.5c-12.9,0.1-21-5.8-20.9-14
		C947.3,41.7,955.6,35.6,968.5,35.5z"/>
	<polygon class="step4" points="992.4,92.4 992.6,77.2 978.1,78 977.9,92.6 957.5,92.8 957.7,78.2 943.2,77.7 943,93 924.7,93.2 
		924.6,104.6 931.9,104.5 931.9,105 1010.9,105 1010.9,103.7 1010.9,92.3 1010.9,92.2 	"/>
	<path class="step6" d="M1599.5,146.5c0.3-0.4,0.5-0.7,0.8-1.1l-2.3,23.8l8.5,0.8l3.9-40.1c2.2-4.2,4.2-8.4,6-12.8l-8.5-3.2l0,0
		c-3,8.6-7.2,16.8-12.5,24.2c0.2,3.8,0.5,7.9,1,12.3C1597.6,148.6,1598.7,147.3,1599.5,146.5z"/>
	<path class="step6" d="M1641.7,142.3l-8.1,1.6c0.5,2.6,1.1,6.6,2,12.2c0.7,4.1,1.3,7.2,1.7,9.1l8.6-2c-0.3-1.4-0.8-4.1-1.6-7.9
		C1643.1,149.5,1642.2,145.2,1641.7,142.3z"/>
	<path class="step6" d="M1612.8,137.9c1.3,1.5,2.3,2.7,3.1,3.6c-2.4,5.6-5,11.3-7.9,17.1l7.4,4c0.1,0.8,0.2,2,0.3,3.6
		c0.1,2,0.2,3.5,0.2,4.3c1.1,0.1,2.8,0.2,4.9,0.2l2.8,0.3c4.9,0.2,7.5-2.5,7.9-7.9l2.7-28l-8.5-0.8l-2.5,25.6c-0.1,2-1,2.9-2.8,2.5
		l-4.5-0.4c1.5-3.2,3.8-8.3,6.9-15.6c0.7-1.6,1.3-2.8,1.6-3.6l-6.8-3c2.1-2.7,4-5.6,5.6-8.6l15.8,1.5l-3,6.8l7.9,2.7l3.9-9.3
		l0.8-7.9l-21.1-2.1c0.9-1.7,1.6-3.4,2.2-5.2l-8.6-2.2c-2.4,7.1-6.1,13.7-10.9,19.4C1610.8,135.5,1611.7,136.5,1612.8,137.9z"/>
	<path class="step6" d="M1658.5,175.9c4.2-2.7,8.1-5.4,11.8-8.3l4.4,5l6.9-7.3l-5.1-5.1c3.6-5.6,6.3-13.4,7.9-23.3l0.8-8.4l-12.7-1.2
		c0.3-1.5,0.9-3.8,1.7-6.8c0.5-1.8,0.9-3.2,1.2-4l-9.6-1.7c-0.9,4-1.8,7.9-2.7,11.5l-5.8-0.6l-0.9,9.4l4.1,0.4
		c-1.8,6.1-3.9,12.4-6.4,18.8l7.5,4.6c0.1-0.5,0.3-0.9,0.6-1.2c0.8,0.8,1.5,1.6,2.1,2.5c-3.5,3.1-7.3,5.6-11.5,7.6
		C1654.9,170.9,1656.8,173.5,1658.5,175.9z M1669.5,136.5l5.3,0.5c-1.2,7.1-2.8,12.5-4.9,16.4c-1.4-1.5-2.9-2.9-4.5-4.3
		C1666.8,145.2,1668.2,141,1669.5,136.5z"/>
	<path class="step6" d="M1696.9,139.4l-0.5,4.8l-11.9-1.2l-1,9.9l11.9,1.2l-1.1,10.9c-0.1,2.7-1.6,3.9-4.4,3.4
		c-2.2-0.2-4.4-0.5-6.6-0.9c0.6,3.3,0.9,6.5,1.1,9.8l4.3,0.4c2.2,0,3.9,0.1,5.1,0.2c6.6,0.5,10.1-2.3,10.6-8.5l1.4-14.5l10.7,1
		l1-9.9l-10.7-1l0.2-2.3l10.8-11l0.9-9.6l-29.7-2.9l-0.9,9.6l17.3,1.7L1696.9,139.4z"/>
	<path class="step7" d="M1440.4,220.8c-1.3,3.9-2,7.9-2.1,12l1.7,0.1l0.1-1.1v-0.4l0.5-11.2C1440.6,220.3,1440.5,220.6,1440.4,220.8z"
		/>
	<path class="step7" d="M1453.4,211.4h-0.5c-2.7-0.2-5.4,0.6-7.6,2.2c-2.1,1.7-3.7,4-4.6,6.5l-0.5,11.2c0.2-2,1-4,2.3-5.6
		s3.3-2.4,5.4-2.2c2,0,3.8,1,4.9,2.6c1.3,1.9,1.8,4.1,1.6,6.3l-1.3,27.7l11.6,0.6l1.3-26.9c0.3-7.1-0.6-12.6-2.7-16.4
		C1461.3,213.8,1457.5,211.5,1453.4,211.4z"/>
	<path class="step7" d="M1438.3,232.8c0.1-4.1,0.8-8.1,2.1-12c0.1-0.2,0.2-0.5,0.3-0.7l1.1-23.5l-11.6-0.6l-3,62.9l11.6,0.6l1.3-27.2
		c0-0.2,0-0.3,0-0.5l-0.1,1.1L1438.3,232.8z"/>
	<path class="step7" d="M1507.2,219.9l4.8-4l-4.9-0.2C1507.2,217.1,1507.3,218.5,1507.2,219.9z"/>
	<path class="step7" d="M1484.6,219.7c0-1.7,0.3-3.3,0.6-5l-7.6-0.4l-0.4,9.1l7.5,0.4C1484.6,222.4,1484.5,221,1484.6,219.7z"/>
	<path class="step7" d="M1510.5,195.5c-3.7-2.9-8.3-4.5-13-4.6c-3.7-0.2-7.3,0.4-10.7,1.8c-3.1,1.4-5.9,3.4-8.1,6s-4,5.6-5.2,8.8
		c-1.3,3.3-2,6.9-2.1,10.4l-0.1,2c-0.2,3.5,0.2,7,1.1,10.4c0.9,3.3,2.4,6.5,4.3,9.3c2,2.8,4.6,5.1,7.6,6.8c3.3,1.8,7,2.8,10.8,2.9
		l0,0c3.7,0.3,7.5-0.4,10.9-1.9c3.2-1.4,6-3.6,8.1-6.3c2.2-2.8,3.8-6.1,4.6-9.6l-13-0.6c-0.7,1.7-2,3.1-3.6,4
		c-2,1.1-4.2,1.6-6.5,1.4c-2.5,0-4.9-0.8-6.8-2.3c-1.8-1.5-3-3.6-3.6-5.8c-0.4-1.5-0.6-3-0.8-4.5l-7.5-0.4l0.4-9.1l7.6,0.4
		c0.3-1.3,0.7-2.6,1.2-3.9c0.8-2.2,2.3-4,4.2-5.3c1.9-1.2,4.1-1.8,6.4-1.6c2.2,0,4.3,0.8,6,2.1c1.7,1.5,2.9,3.4,3.4,5.5
		c0.4,1.4,0.6,2.8,0.8,4.2l4.9,0.2l-4.8,4c0.1-1.4,0.1-2.8-0.1-4.2l-21.9-1c-0.4,1.6-0.6,3.3-0.6,5c-0.1,1.4-0.1,2.7,0.1,4.1
		l35.5,1.7l0.3-5.4c0.3-4.7-0.5-9.5-2.2-13.9C1516.6,202,1514,198.3,1510.5,195.5z"/>
	
		<rect x="1520.9" y="186.8" transform="matrix(4.806063e-02 -0.9988 0.9988 4.806063e-02 1263.3926 1704.7229)" class="step7" width="10.4" height="5.5"/>
	<rect x="1535.9" y="177.9" class="step5" width="0" height="13.6"/>
	<polygon class="step7" points="1528.6,194.8 1526,248.7 1539.6,249.4 1542.3,193.9 1542.2,195.5 	"/>
	<polygon class="step7" points="1529.1,184.4 1528.6,194.8 1542.2,195.5 1542.3,193.9 1542.7,185.1 	"/>
	<polygon class="step7" points="1542.3,193.9 1542.7,185.1 1542.7,185.1 	"/>
	<polygon class="step7" points="1568.2,183.1 1549.1,182.2 1549,182.2 1548.6,191.8 1554.1,192 1551.7,241.8 1565.3,242.5 
		1568.2,183.1 	"/>
	<path class="step7" d="M1575.1,249.5c1.7,2,3.8,3.7,6.2,4.8c2.7,1.3,5.6,2,8.6,2.1l0,0c3,0.2,6-0.2,8.8-1.2c2.5-0.9,4.7-2.3,6.6-4.2
		c1.8-1.8,3.3-4,4.3-6.3c1-2.4,1.6-5.1,1.7-7.7l0.1-1.7c0.1-2.7-0.2-5.4-1-8c-0.8-2.5-2.1-4.8-3.7-6.8c-1.7-2-3.8-3.6-6.2-4.8
		c-5.3-2.4-11.4-2.7-17-0.8c-5,1.8-9,5.7-11,10.6c-1,2.5-1.6,5.2-1.8,7.9l-0.1,1.7c-0.1,2.7,0.2,5.3,1,7.8
		C1572.2,245.2,1573.4,247.5,1575.1,249.5z M1582.7,228.7c0.8-1.6,2-3,3.5-4c3.2-1.9,7.3-1.7,10.3,0.5c1.4,1.1,2.5,2.6,3.1,4.3
		c1.3,3.9,1.1,8.1-0.5,11.9c-0.7,1.6-1.9,3-3.4,3.9c-1.6,0.9-3.5,1.4-5.3,1.2l0,0c-1.8,0-3.6-0.6-5.1-1.7c-1.4-1.1-2.5-2.6-3-4.2
		C1580.8,236.7,1581,232.4,1582.7,228.7z"/>
	<polygon class="step7" points="1604.5,195.6 1593.4,195.1 1586.6,210 1596.1,210.5 	"/>
	<path class="step7" d="M741,263.3l-1.8-2.9c1.3,0.7,2.7,1,4.2,1c1.6-0.1,3.2-0.6,4.6-1.5c1.3-0.7,2.3-1.8,3.2-3l0,0
		c0.8-1.1,1.3-2.3,1.5-3.6s0.2-2.7-0.1-4c-0.3-1.4-0.9-2.8-1.7-4c-0.2-0.3-0.3-0.5-0.5-0.8c-0.8-1.3-1.7-2.4-2.8-3.3
		c-1-0.9-2.2-1.5-3.5-1.9c-1.2-0.4-2.5-0.5-3.8-0.3c-1.4,0.2-2.7,0.7-3.9,1.4c-1.4,0.8-2.5,2-3.3,3.5c-0.4,0.8-0.7,1.7-0.8,2.6
		l-4.9-7.9l-6.6,4.1c4.9,8,9.9,16.1,14.8,24.1L741,263.3z M736.2,248.7c0.4-0.7,1-1.2,1.7-1.6c0.6-0.4,1.4-0.7,2.2-0.7
		s1.5,0.2,2.1,0.6c0.7,0.5,1.3,1.1,1.8,1.8s0.8,1.6,0.9,2.5c0.1,0.8-0.1,1.6-0.4,2.3c-0.3,0.7-0.9,1.2-1.5,1.6
		c-0.6,0.4-1.4,0.7-2.1,0.7c-0.7,0.1-1.5,0-2.2-0.3s-1.3-0.8-1.7-1.5l-0.6-1l0,0c-0.4-0.7-0.7-1.5-0.7-2.3
		C735.6,250,735.9,249.3,736.2,248.7z"/>
	<path class="step7" d="M752.1,240.9c0.2,0.3,0.4,0.6,0.5,0.9c0.8,1.4,1.8,2.6,3.1,3.6c1.2,1,2.5,1.7,3.9,2.1c1.5,0.4,3,0.5,4.5,0.3
		c1.7-0.2,3.3-0.9,4.7-1.8c1.5-0.9,2.7-2.1,3.7-3.5l0,0c0.9-1.3,1.5-2.7,1.8-4.3c0.3-1.5,0.3-3.1-0.1-4.6c-0.3-1.6-0.9-3.1-1.7-4.5
		c-0.2-0.3-0.4-0.6-0.5-0.9c-0.8-1.4-1.9-2.7-3.2-3.7c-1.2-1-2.6-1.7-4-2.1c-1.5-0.4-3-0.5-4.5-0.3c-1.6,0.2-3.2,0.8-4.6,1.7
		c-1.4,0.9-2.7,2.1-3.6,3.5c-0.9,1.3-1.5,2.7-1.8,4.3c-0.3,1.5-0.3,3.1,0,4.7C750.6,238,751.2,239.5,752.1,240.9z M757.9,232.2
		c0.3-0.8,0.9-1.4,1.6-1.8c0.7-0.5,1.5-0.7,2.3-0.6c0.8,0.1,1.6,0.4,2.2,0.9c0.8,0.6,1.4,1.3,1.9,2.2c0.5,0.8,0.9,1.7,1,2.7
		c0.2,0.8,0.1,1.6-0.2,2.4c-0.4,0.8-0.9,1.4-1.7,1.8c-0.7,0.5-1.5,0.7-2.3,0.7c-0.8-0.1-1.5-0.3-2.2-0.8c-0.8-0.6-1.4-1.3-1.9-2.2
		l0,0c-0.5-0.8-0.9-1.7-1-2.7C757.5,233.8,757.6,233,757.9,232.2z"/>
	<path class="step7" d="M790.6,237.7c-2.3-4.7-4.6-9.3-6.9-13.9c-0.5-0.9-0.6-1.9-0.4-2.8c0.2-0.9,0.8-1.6,1.6-2s1.7-0.5,2.5-0.1
		s1.5,1.1,1.9,2c2.3,4.6,4.6,9.3,7,14l7.5-3.9c-2.4-4.8-4.7-9.5-7-14c-1.9-3.8-4-6.3-6.3-7.5c-2.2-1.2-4.9-1.1-7.1,0.1l-0.3,0.2
		c-1.5,0.7-2.7,2-3.5,3.5c-0.7,1.4-0.9,3-0.7,4.6c-0.5-1-1.2-2.3-2-3.9l-6.1,3.2c4.1,8.2,8.2,16.4,12.2,24.5L790.6,237.7z"/>
	<path class="step7" d="M790.6,237.7L790.6,237.7L790.6,237.7z"/>
	<path class="step7" d="M800.5,201.4c1.3,0.6,2.8,0.6,4.1-0.1c1.4-0.4,2.5-1.4,3.1-2.7c0.8-2.5-0.2-5.3-2.5-6.7
		c-1.3-0.6-2.8-0.6-4.1,0l0,0c-1.4,0.4-2.5,1.4-3.1,2.7C797.1,197.3,798.2,200.1,800.5,201.4z"/>
	<path class="step7" d="M798.1,205.1c1,2.6,1.9,5,2.7,7l3.4-1.3l0,0c2.2,5.8,4.4,11.5,6.5,17.2c0.7,1.9,0.1,3.2-1.8,3.9l-1.3,0.5
		l-0.5,0.2c0.9,2.3,1.9,5,3,7.9l0.5-0.2l1.1-0.4c2.3-0.8,4.5-2,6.3-3.6c1.5-1.3,2.4-3.1,2.6-5c0.2-2.3-0.2-4.6-1.1-6.7l-6.6-17.3
		c-0.8-2.1-1.7-4.3-2.6-6.8l-8.9,3.4L798.1,205.1z"/>
	<path class="step7" d="M819.4,217.4c0.4,2,1.1,3.9,2.1,5.7c1,1.7,2.3,3.2,3.9,4.3c1.6,1.2,3.4,2,5.3,2.4c4.3,0.9,8.9,0.1,12.6-2.4
		l0,0c1.6-1.1,3-2.5,4.1-4.2c1-1.7,1.7-3.5,2-5.4c0.3-2,0.2-4-0.2-6c-0.1-0.4-0.2-0.9-0.3-1.3c-0.4-2.1-1.1-4-2.2-5.8
		c-1-1.7-2.4-3.2-3.9-4.4c-1.6-1.2-3.4-2-5.3-2.4c-2.1-0.5-4.3-0.5-6.4-0.1c-2.1,0.4-4.1,1.2-5.9,2.4c-1.6,1.1-3,2.5-4.1,4.2
		c-1,1.7-1.7,3.5-2,5.5c-0.3,2.1-0.3,4.2,0.1,6.2C819.2,216.6,819.3,217,819.4,217.4z M828.7,211.3c0.2-1,0.7-2,1.4-2.7
		c1.6-1.5,3.9-1.9,5.9-1.1c0.9,0.5,1.7,1.2,2.3,2c0.7,1,1.1,2.2,1.3,3.4c0.3,1.2,0.3,2.4,0.1,3.6c-0.2,1-0.6,1.9-1.3,2.7
		c-0.8,0.7-1.8,1.2-2.8,1.4c-1.1,0.2-2.2,0.2-3.2-0.2c-0.9-0.4-1.7-1.1-2.3-2c-0.6-1-1.1-2.2-1.3-3.4l0,0
		C828.5,213.8,828.5,212.5,828.7,211.3z"/>
	<path class="step7" d="M858.9,234.6l0.5,0.1c4.6,1.4,8.3,0.6,11.2-2.4c-0.3,1.1-0.8,2.5-1.3,4.3l9.3,2.8c3-9.9,6-19.9,9.1-29.8
		l-11.5-3.5c-1.8,5.8-3.5,11.5-5.2,17.1c-0.3,1.1-1,2-2,2.5c-1.1,0.5-2.2,0.5-3.3,0.1c-1.1-0.3-2.1-1-2.6-1.9s-0.6-2-0.3-3
		c1.7-5.7,3.5-11.4,5.2-17.2l-11.5-3.5c-1.8,5.9-3.5,11.7-5.2,17.2c-1.4,4.5-1.4,8.2,0,11.1S855.1,233.5,858.9,234.6z"/>
	<path class="step7" d="M918.3,226.6c-2.9-2.1-6.8-2.4-10-0.8c-1.2,0.6-2.3,1.3-3.3,2.2c1.1-1.9,2.5-4.2,4.1-6.8l-8.3-5.5
		c-6.6,10.9-13.2,21.8-19.7,32.6l10.3,6.7c3.3-5.5,6.6-10.8,9.7-16.1c1.3-2.2,2.8-3.5,4.5-3.9c1.9-0.4,3.9,0,5.5,1.2l2.1,1.4
		l0.5,0.3c1.9-3.1,4-6.5,6.3-10.4l0,0l-0.5-0.3L918.3,226.6z"/>
	<path class="step7" d="M891.3,255L891.3,255L891.3,255z"/>
	<path class="step8" d="M1563,134.1c-2.5-0.4-5-0.4-7.6-0.7c-8.8-0.9-17.6-1.8-26.5-1.5c-6.5,0.2-11.6,3.2-13.3,8.3
		c-0.7,2.2-1.1,4.6-1.2,6.9c-0.2,4,3,6.5,7.2,6.1c2.2-0.2,4.5-0.4,6.7-0.5c0.1,0.1,0.2,0.3,0.3,0.4c-1.6,1.1-3.2,2.2-4.7,3.4
		c-2.5,2-5.1,3.9-7.4,6.1c-1.6,1.5-2.4,3.8-1.9,5.9c0.3,1.5,1.5,2.6,2.7,2.4c2.5-0.4,4.9-1,7.5-1.5l0,0c-0.1-0.1-0.2-0.2-0.2-0.3
		c-1.6-1.8-1.5-4.5,0.3-6.2c0.9-0.9,2-1.7,3-2.5c2.2-1.6,4.5-3.1,6.6-4.8c1.7-1.2,2.8-3,3-5c0.6-4.5,1.4-8.9,2.3-13.3
		c0.2-1.1,0.6-2.1,1.3-3c0.6-0.6,1.4-0.9,2.3-0.8c0.8,0.3,1.4,0.9,1.7,1.7c0.2,0.8,0.3,1.5,0.1,2.3c-0.5,3.2-1.1,6.4-1.6,9.6
		c-0.1,0.4-0.1,0.7-0.1,1.1c0.1,2.3,2.1,4.1,4.4,3.9c3.7,0,7.4,0.1,11.1,0.2c3.9,0.2,6.2-1,7.6-4.4c0.8-2,1.3-4.2,1.3-6.4V141
		c0-0.7-0.1-1.4-0.2-2.2C1567.3,136.1,1566,134.6,1563,134.1z M1532,137.1c0,0.2-0.1,0.3-0.1,0.5l0,0l0,0c-0.8,4.1-1.5,8.1-2.4,12.2
		c-0.1,0.7-0.7,1.7-1.3,1.9c-1.2,0.4-2.6,0.6-3.8-0.5c-1.2-1.2-1.9-2.9-1.8-4.6c0-4.2,1.5-8.2,4.2-11.5c0.9-1.1,1.9-2.5,3.8-1.9
		C1532,133.5,1532.4,134.8,1532,137.1z M1556.8,150.1c-1.5,1.4-2.9,1.4-4-0.4c-0.6-1-1-2.1-1.1-3.2c-0.1-1.6,0-3.1,0.1-4.7l0,0
		c0.5-1.9,1.1-3.7,1.9-5.5c0.6-1,1.6-1.8,2.8-1.9c1,0.1,2.2,1.3,2.7,2.2C1561.2,140,1559.7,147.5,1556.8,150.1z"/>
	<path class="step8" d="M1438.8,162.6c2.2-0.2,4.3-0.3,7-0.5l0,0c-2-1.5-3.1-4-2.8-6.5c0.6-7.5,1.2-15,2.1-22.5c0.4-3.6,2.2-6.8,5-9
		c2.6-2,5.5-2.1,8.5-0.8c2.8,1.2,3.8,3.4,4,6c0,0.9,0,1.8-0.1,2.7c-0.8,7.7-1.6,15.4-2.4,23c-0.2,2-0.3,4-0.2,6.1c0,2.2,1.8,4,4,4.1
		c2.8-0.1,5.7-0.3,8-0.5c-0.7-1.9-1.4-3.8-1.8-5.7c-0.2-1.6-0.2-3.3,0.1-4.9c0.6-6.6,1.4-13.1,2-19.7c0.6-6.6-2.4-10.5-9.2-12.5
		c-0.8-0.3-1.5-0.9-1.9-1.7c-1-2.2-1.7-4.5-2.6-6.7c-0.6-1.4-1.5-2.9-3.5-2.6c-3.2,0.4-6.3,0.9-9.7,1.4c3.8,2.3,3.9,5.9,5.3,9.1
		c-8.9,1.8-14.4,7.3-15.6,15.4c-0.7,5-1.1,10-1.6,15c-0.2,2-0.3,3.9-0.2,5.9C1433.2,161.3,1435.3,162.9,1438.8,162.6z"/>
	<path class="step8" d="M1480,154.6c2.6,0,5.3-0.1,7.5-0.2c-0.7-2-1.9-3.9-2-5.7c-0.2-5.1,1.5-10,4.8-13.9c0.4-0.5,0.9-0.9,1.4-1.2
		c1.2-0.8,2.2-0.8,2.8,0.7c0.8,1.5,1.4,3.2,1.7,4.9c0.6,5.4,0.7,10.8,1.3,16.3c0.3,2.9,0.9,5.7,1.7,8.4c0.4,0.9,1.2,1.6,2.2,1.8
		c2.5,0,5.1-0.3,7.8-0.6l0,0c-2.4-2.7-2.9-5.7-3.2-8.8c-0.4-4.5-0.6-9.1-1.1-13.6c-0.6-5.6-2.1-10.8-6.4-15.1c-0.9-1-1.7-2-2.3-3.2
		c-0.8-1.5-1.1-3.8-2.3-4.3c-1.5-0.6-3.7,0.4-5.6,0.5c-1,0.1-1.4,0.6-1.2,1.4c0.4,1.4,0.9,2.9,1.5,4.3c0.4,0.8,0.3,1.3-0.6,1.9
		c-7.8,4.8-10.9,11.9-10.7,20.5c0.2,1.8,0.6,3.5,1.2,5.1C1479,154.2,1479.4,154.5,1480,154.6z"/>
	<path class="step4" d="M1501.6,93.4V59.5c-0.1-3.6,1.3-7,3.8-9.5c2.7-2.5,6.3-3.8,10-3.6c3.4-0.2,6.8,1,9.4,3.2
		c2.4,2.3,3.8,5.5,3.6,8.9v34.9h16.9V59.9c0-8.8-1.9-15.5-5.8-20.1s-9.6-6.9-17.1-6.9h-0.7c-5.2,0-9.5,1.1-12.8,3.2
		c-3.2,2.1-5.7,5.1-7.2,8.6v15.9h-2.9c-0.1-5.1,0.7-10.2,2.5-15c0.1-0.3,0.2-0.6,0.4-0.8V14.5h-16.9v78.8L1501.6,93.4L1501.6,93.4z"
		/>
	<path class="step4" d="M1498.7,60.6h2.9V44.7c-0.1,0.3-0.3,0.6-0.4,0.8C1499.4,50.3,1498.6,55.4,1498.7,60.6z"/>
	<path class="step4" d="M1593.5,54.7h-4.2c0.2,1.3,0.3,2.7,0.3,4.1L1593.5,54.7z"/>
	<path class="step4" d="M1558.2,79.3c2.2,2.7,4.9,4.8,8,6.3c3.5,1.6,7.4,2.4,11.3,2.3l0,0c3.8,0.1,7.5-0.7,11-2.2
		c3.1-1.4,5.9-3.6,8-6.3c2.1-2.8,3.6-6.1,4.2-9.5h-11.8c-0.6,2-2,3.8-3.8,4.9c-2.3,1.4-5,2.1-7.6,2c-5.5,0.3-10.5-3-12.3-8.2
		c-0.7-1.8-1.1-3.7-1.3-5.6h-6.7v-8.3h7c0.3-1.4,0.6-2.8,1.1-4.1c0.9-2.4,2.4-4.4,4.5-5.9c2.1-1.4,4.6-2.1,7.2-2
		c2.5-0.1,5,0.6,7,1.9c1.9,1.4,3.4,3.3,4.2,5.5c0.5,1.5,0.9,3,1.1,4.6h4.2l-4,4.1c0-1.4-0.1-2.7-0.3-4.1h-25.1
		c-0.3,1.7-0.5,3.4-0.4,5.1c0,1.1,0.1,2.1,0.2,3.2h37.6v-4.9c0-4.5-0.9-9-2.8-13.1c-1.8-4-4.6-7.4-8.2-9.8
		c-3.7-2.5-8.2-3.7-13.6-3.7c-3.8-0.1-7.5,0.7-10.9,2.3c-3,1.4-5.7,3.5-7.9,6.1c-2.1,2.6-3.8,5.6-4.8,8.7c-1.1,3.3-1.6,6.7-1.6,10.2
		v1.8c0,3.4,0.5,6.7,1.6,9.9C1554.4,73.8,1556.1,76.7,1558.2,79.3z"/>
	<path class="step4" d="M1564.2,54.7h-7V63h6.7c-0.1-1.1-0.2-2.1-0.2-3.2C1563.7,58.1,1563.9,56.4,1564.2,54.7z"/>
	<rect x="1606.6" y="43.5" class="step4" width="5.7" height="7"/>
	<rect x="1612.3" y="43.5" class="step4" width="10.4" height="7"/>
	<rect x="1612.3" y="50.5" class="step4" width="10.4" height="29.6"/>
	<path class="step4" d="M1616.1,39.1c1.6,0.1,3.3-0.4,4.5-1.4c1-1,1.5-2.3,1.4-3.7c0-1.4-0.5-2.7-1.4-3.6c-1.3-1-2.9-1.6-4.5-1.4
		c-1.6-0.1-3.3,0.4-4.5,1.4c-1,1-1.5,2.3-1.5,3.6c0,1.4,0.5,2.7,1.5,3.7C1612.9,38.8,1614.5,39.3,1616.1,39.1z"/>
	<rect x="1622.7" y="43.5" class="step4" width="0" height="7"/>
	<path class="step8" d="M1783.5,125.3l-1.5-0.4v-0.4c4.2-2.6,7.7-6.1,10.5-10.1h-17.9c0,0-1,3.7-6.7,8.3l-2.5,2v5.5l8.2,1.7
		c5.5,1.2,7.3,2.9,7.3,5c0,2-1.8,3.7-5.1,3.7c-3.2,0.1-6.3-0.7-9.1-2.3l-4.8,9.8c4.4,2.2,9.3,3.3,14.2,3.2c11,0,18.1-6.1,18.1-14.1
		C1794.3,129.9,1788.4,126.5,1783.5,125.3z"/>
	<path class="step8" d="M1776.4,171.4c12.9,0,20.8-4.1,24.1-7L1793,154c-4.2,3.3-9.8,5.3-17,5.3c-12.1,0-21.5-7.2-21.5-17.6
		c-0.1-3.2,0.8-6.4,2.4-9.2l-13.9-3.8c-2,4-3,8.4-3,12.9v0.2C1740.1,159.7,1755.6,171.4,1776.4,171.4z"/>
	<rect x="1813.5" y="110.4" class="step8" width="17.3" height="64.1"/>
	<path class="step8" d="M1900,104.7v41.9c-2.2,6.8-9.8,12.5-20.5,12.5c-12.9,0-17-7.3-17.4-11.4c17.7-4.1,26.3-11.5,26.3-23.3
		c0-10.7-9.3-19.6-27-19.7h-0.7c-6.7,0.1-13.8,1.4-18,3.1l5.5,14.5c3.7-1.6,7.7-2.4,11.8-2.5c6.3,0,8.7,2.4,8.7,5.3
		c0,2.6-0.3,8.1-29,13.6c0,21.4,15.8,35.3,37.3,35.3c13.4,0,20.3-5.1,22.8-7.3h0.6V180h19.6v-75.3L1900,104.7L1900,104.7z"/>
	<path class="step7" d="M385.1,239.2c0.7,7.3,1.3,14.6,2,21.8l10.8-1c-0.7-7.3-1.3-14.6-2-21.8c-0.1-1.7-0.3-3.6-0.5-5.7l-10.8,1
		l-3.3,0.3c0.2,2.2,0.4,4.1,0.5,5.7L385.1,239.2z"/>
	<path class="step7" d="M415.5,259.8c1.2-1,2.2-2.3,2.7-3.8c0.1,0.9,0.2,2.3,0.4,4l7.9-0.7c-0.6-6.9-1.2-13.6-1.8-20.1
		c-0.1-2.7-0.9-5.3-2.3-7.6c-2.5-3.9-6.6-5.5-12.5-5c-3.2,0.3-6.3,0.8-9.4,1.4c0.3,3.9,0.7,7.3,0.9,10.4c4.7-0.8,8.1-1.3,10.5-1.5
		c0.9-0.2,1.8,0,2.5,0.6c0.5,0.5,0.8,1.1,0.8,1.7l-3.7,0.3c-2.2,0.2-4.4,0.7-6.5,1.7c-1.8,0.8-3.3,2.2-4.3,3.9c-1,2-1.4,4.2-1.1,6.4
		c0.1,2,0.8,4,1.8,5.7c0.9,1.5,2.3,2.7,3.9,3.4c1.2,0.6,2.6,0.9,3.9,0.9h0.2c0.4,0,0.8,0,1.3,0C412.4,261.5,414.1,260.9,415.5,259.8
		z M409.8,247.5c0.6-0.7,1.4-1.1,2.3-1.1l3.7-0.3l0.1,1.6l0,0c0.1,2.3-0.4,3.8-1.5,4.5c-0.5,0.3-1.2,0.5-1.8,0.6
		c-0.9,0.1-1.8-0.1-2.5-0.7C409,250.9,408.9,249,409.8,247.5z"/>
	<path class="step7" d="M435.9,217.5l-1,0.1L435.9,217.5L435.9,217.5z"/>
	<path class="step7" d="M430.1,261l7.9-0.7c-0.2-2.1-0.3-3.9-0.5-5.2c1,1.8,2.5,3.2,4.2,4.2c1.8,1,3.9,1.4,6,1.1
		c1.8-0.1,3.6-0.7,5.2-1.8l0,0c1.5-1,2.7-2.3,3.6-3.8c1-1.7,1.7-3.5,2-5.5c0.4-2.2,0.5-4.4,0.3-6.6c0-0.5-0.1-0.9-0.1-1.4
		c-0.2-2.2-0.7-4.4-1.4-6.4c-0.7-1.8-1.6-3.5-2.9-5c-1.1-1.3-2.5-2.4-4.1-3.1c-1.6-0.7-3.4-1-5.1-0.8c-2.1,0.1-4,1-5.6,2.3
		c-0.9,0.8-1.7,1.8-2.3,2.9c-0.4-4.2-0.8-8.9-1.2-13.9h-1l-8.6,0.8C427.5,232.6,428.8,246.8,430.1,261z M438.5,239.8
		c0.4-0.9,1-1.8,1.8-2.4c0.8-0.6,1.7-0.9,2.7-1s2,0.1,2.8,0.6c0.9,0.6,1.6,1.3,2.1,2.3c0.6,1.2,0.9,2.4,1,3.7s0,2.6-0.4,3.9
		c-0.3,1-0.9,2-1.7,2.7c-0.7,0.7-1.6,1.1-2.6,1.1c-1,0.1-1.9-0.1-2.8-0.5s-1.7-1.1-2.3-1.9c-0.7-1-1.1-2.1-1.1-3.3
		c-0.1-0.6-0.1-1.2-0.2-1.8l0,0C437.9,242.1,438.1,240.9,438.5,239.8z"/>
	<path class="step7" d="M473.4,211.5c-3.8,0.4-7.6,0.9-11.3,1.7c0.1,1.5,0.3,2.9,0.4,4.3H488C484.9,212.9,480.1,210.9,473.4,211.5z"/>
	<path class="step7" d="M491.3,228.5c-0.2-3.5-1.2-7-2.8-10.1c-0.2-0.3-0.3-0.5-0.5-0.8h-25.5c0.3,3.4,0.6,6.6,0.9,9.5
		c5.6-1,9.8-1.6,12.6-1.9c1.1-0.2,2.2,0.1,3,0.8c0.6,0.7,0.9,1.5,1,2.3l-4.4,0.4c-2.7,0.2-5.4,0.9-7.8,2.2c-2.2,1.1-4,2.9-5.1,5.2
		c-1.2,2.7-1.7,5.6-1.3,8.5c0.2,2.7,0.9,5.3,2.3,7.6c1.1,2,2.7,3.6,4.7,4.6c2,1,4.2,1.4,6.4,1.2c2.1-0.1,4.1-0.9,5.7-2.3
		c1.5-1.4,2.6-3.1,3.2-5.1c0.1,1.2,0.3,3,0.5,5.4l9.5-0.8C492.9,246.1,492.1,237.2,491.3,228.5z M479.3,245.6
		c-0.6,0.4-1.4,0.7-2.1,0.8c-1.1,0.2-2.2-0.2-3-0.9c-1.5-1.7-1.7-4.2-0.5-6.1c0.7-0.9,1.7-1.4,2.8-1.4l4.4-0.4l0.2,2.1l0,0
		C481.2,242.7,480.6,244.7,479.3,245.6z"/>
	<path class="step7" d="M495.1,237.4L495.1,237.4C495.1,237.3,495.1,237.3,495.1,237.4z"/>
	<path class="step7" d="M516.7,219.5c0.1,0.8,0.2,1.1,0.1,0.7l12.1-1.1c0,0.3,0,0-0.1-0.9c0-0.2-0.1-0.4-0.1-0.7H516
		C516.3,218.1,516.6,218.8,516.7,219.5z"/>
	<path class="step7" d="M531.4,236.3c-0.4-4.7-2.1-8.3-5.1-10.9s-6.9-4-11.9-4.2l-2.6-0.1c-1.3,0-2.6-0.3-3.9-0.8
		c-0.6-0.4-1-1.1-1-1.8c0-0.3,0-0.6,0.1-0.9c0.1-0.4,0.3-0.8,0.7-1.1c0.9-0.7,1.9-1,3-1.1h0.1c2.1-0.4,4.1,0.6,5.1,2.2h12.8
		c-0.8-5.4-2.8-9.4-6.2-12c-3.5-2.8-7.8-3.9-12.9-3.4c-2.9,0.2-5.8,1.1-8.3,2.6c-2.3,1.4-4.2,3.4-5.4,5.9c-1,2.2-1.5,4.6-1.5,7
		c0,0.8,0,1.5,0.1,2.3c0.2,3.9,1.8,7.6,4.5,10.4c2.6,2.6,6.4,4,11.4,4.3l2.6,0.1c2.3,0,3.9,0.3,4.7,0.9c0.8,0.5,1.2,1.4,1.3,2.3
		c0.1,0.9-0.3,1.8-1.1,2.2c-1.1,0.7-2.4,1.1-3.8,1.2c-1.7,0.3-3.4-0.1-4.8-1c-1.1-0.7-1.8-1.9-2.1-3.1c-0.1-0.8-0.2-1.1-0.1-0.7
		l-12.1,1.1c0,0.2,0.1,0.5,0.1,1c0.7,5.6,2.9,9.8,6.4,12.6s8.1,4,13.6,3.5c3.2-0.2,6.4-1.2,9.2-2.9l0,0c2.4-1.5,4.4-3.7,5.6-6.2
		c0.9-2,1.4-4.2,1.5-6.4v-1.5C531.5,237.1,531.5,236.7,531.4,236.3z"/>
	<path class="step6" d="M45.3,291c1.9-1.5,4.3-2.3,6.8-2.2c2.4-0.1,4.8,0.7,6.7,2.2c1.6,1.4,2.5,3.5,2.5,5.6v33.6h24.9v-33.4
		c0-8.9-2.1-15.7-6.2-20.4c-4.1-4.7-10.1-7-17.9-7h-1c-8.2,0-14.4,2.7-18.4,8.1v-58.9H18.8c0,26-1,85.6-1,111.6h24.9v-33.4
		C42.7,294.6,43.6,292.4,45.3,291z"/>
	<path class="step6" d="M144.7,273.7c-2.7-2.7-6-4.9-9.6-6.3c-4-1.6-8.2-2.4-12.5-2.4c-4.3-0.1-8.6,0.7-12.6,2.4
		c-3.6,1.4-6.9,3.5-9.6,6.3c-2.6,2.7-4.7,5.9-6.1,9.3c-1.5,3.6-2.2,7.5-2.2,11.4v2.5c0,3.8,0.7,7.6,2,11.1s3.4,6.6,6,9.2
		c2.7,2.7,6,4.9,9.6,6.3c8.3,3.1,17.5,3.1,25.8,0l0,0c3.6-1.4,6.9-3.5,9.6-6.3c2.6-2.6,4.6-5.8,6-9.2c1.4-3.5,2-7.3,2-11.1v-2.5
		c0-3.9-0.7-7.8-2.2-11.4C149.4,279.6,147.4,276.4,144.7,273.7z M132.3,302.3c-0.7,1.8-2,3.3-3.7,4.4c-1.8,1.1-4,1.6-6.1,1.5
		c-2.2,0.1-4.3-0.5-6.1-1.5c-1.7-1.1-3-2.6-3.7-4.4c-0.9-2.1-1.3-4.4-1.2-6.7l0,0c0-2.3,0.4-4.6,1.3-6.7c1.1-2.4,3-4.4,5.5-5.5
		c5.4-2.4,11.7,0.1,14,5.5c0.9,2.1,1.3,4.4,1.3,6.7C133.6,297.9,133.2,300.2,132.3,302.3z"/>
	<polygon class="step6" points="156.7,260.8 156.7,261.5 156.7,273 161.2,273 161.2,319.3 176,319.3 176,261.5 176,260.8 	"/>
	<path class="step6" d="M217.1,268.2c-1.7-3.2-4.3-5.4-7.9-6.6c-2.3-0.8-5.1-1.3-8.2-1.3c-4.3,0-8.5,0.3-12.8,0.7v0.6v12.9
		c6.3-0.5,11.1-0.7,14.2-0.7c1.2-0.1,2.4,0.2,3.2,1c0.6,0.6,0.9,1.5,0.9,2.3h-4.9c-3-0.1-6,0.4-8.9,1.4c-2.5,0.8-4.6,2.4-6.2,4.5
		c-1.6,2.4-2.4,5.2-2.3,8.1c-0.1,2.6,0.5,5.2,1.8,7.5c1.1,2,2.8,3.7,4.8,4.9c2.2,1.2,4.6,1.8,7,1.7c2.3,0.1,4.6-0.5,6.6-1.7
		c1.8-1.1,3.2-2.7,4.1-4.6v5.2h10.6v-26c0-0.1,0-0.3,0-0.4v-0.9C219.1,273.8,218.4,270.9,217.1,268.2z M206.6,288L206.6,288
		c-0.1,3-1,4.8-2.5,5.6c-0.8,0.4-1.6,0.6-2.5,0.5c-1.2,0.1-2.4-0.3-3.2-1.1c-1.5-1.7-1.5-4.2,0-5.9c0.9-0.8,2.1-1.2,3.2-1.1h5V288z"
		/>
	<polygon class="step9" points="1667.5,74.3 1665.9,38.4 1682.1,37.7 1683.7,73.6 1696.5,73 1694.4,27.3 1652.7,29.2 1652.7,29.2 
		1654.7,74.8 	"/>
	<path class="step9" d="M1719.6,55.9h0.2c0.6,1.5,1.5,2.8,2.6,4c1.1,1.1,2.5,2,3.9,2.6c1.6,0.6,3.4,0.9,5.1,0.8c2.8-0.2,5.5-1.2,7.8-3
		c2.5-2.1,4.3-4.9,5.3-8c1.3-4.2,1.8-8.7,1.4-13.1c-0.3-5.4-1.3-9.8-3-13.1c-1.4-2.9-3.6-5.4-6.3-7.1c-2.3-1.4-5-2.1-7.7-1.9
		c-3.5,0.1-6.8,1.9-8.8,4.8c-0.9,1.3-1.6,2.8-2.1,4.3h-0.3l-0.5-7.9L1703,19l3.6,62l14.5-0.8L1719.6,55.9z M1718.4,40.8L1718.4,40.8
		c-0.2-1.9,0-3.9,0.4-5.8c0.3-1.4,1-2.7,2-3.8c0.9-0.9,2.1-1.4,3.3-1.5c1.3-0.1,2.5,0.3,3.5,1.1c1.1,1,1.9,2.2,2.4,3.5
		c0.6,1.8,1,3.8,1.1,5.7c0.2,1.9,0,3.9-0.4,5.8c-0.3,1.4-1,2.7-1.9,3.8c-1.9,1.8-4.8,2-6.8,0.4c-1.1-1-1.9-2.2-2.4-3.6
		C1718.9,44.6,1718.5,42.7,1718.4,40.8z"/>
	<polygon class="step9" points="1767.8,70.1 1776.7,36.5 1778.6,69.4 1791.8,68.7 1788.1,8.2 1775,9 1766.2,42.4 1764.2,9.6 
		1751.1,10.4 1754.7,70.9 	"/>
	<path class="step9" d="M1818.3,66.7c3.3,0,6.5-0.8,9.5-2.3c2.5-1.3,4.4-3.4,5.6-6c1.3-3,1.8-6.2,1.6-9.5c-0.1-2.3-0.7-4.6-1.6-6.8
		c-1-2.1-2.5-4-4.4-5.3c-2.2-1.5-4.8-2.3-7.5-2.2c3-0.7,5.6-2.5,7.4-5.1c1.6-2.4,2.4-5.3,2.2-8.2c-0.3-5.6-2-9.8-5.2-12.4
		c-3.2-2.7-7.5-3.9-12.9-3.6L1795.2,6l2.7,61.6L1818.3,66.7z M1821.1,46.2c0.1,1.3-0.2,2.5-0.9,3.6c-0.6,0.9-1.6,1.4-2.7,1.4
		l-6.9,0.3l-0.4-9.8l6.9-0.3c1.1-0.1,2.1,0.4,2.8,1.2C1820.7,43.6,1821.2,44.9,1821.1,46.2z M1813.5,21.3c1.1-0.1,2.2,0.3,3,1.1
		c0.8,0.9,1.2,2.1,1.2,3.3c0.1,0.8-0.1,1.6-0.3,2.4c-0.2,0.6-0.6,1.2-1.1,1.6c-0.6,0.4-1.2,0.6-1.9,0.6l-4.6,0.2l-0.4-9L1813.5,21.3
		z"/>
	<rect x="1840.6" y="19.6" class="step9" width="17.3" height="45.3"/>
	<path class="step9" d="M1843.3,12.7c1.7,1.5,3.8,2.2,6.1,2.2c2.2,0.1,4.4-0.7,6-2.2c0.4-0.3,0.7-0.6,1-1c2.4-2.9,1.9-7.2-1-9.5
		c-3.5-2.9-8.6-2.9-12.1,0c-0.4,0.3-0.7,0.6-1,1C1839.9,6.1,1840.4,10.3,1843.3,12.7z"/>
	<polygon class="step9" points="1863.1,21.3 1880.9,22.4 1877.7,69.2 1897,70.5 1900.1,23.7 1918.1,24.9 1919.3,7.8 1919.3,7.8 
		1864.2,4.1 	"/>
	<path class="step7" d="M236.6,230.9c-0.3-2-1.8-3.9-2.9-6.1c-3.3,2.2-4.2,3.7-1.5,5.8c1.2,0.9,2,2.1,2.4,3.5c0.3,1.2-0.2,2.4-1.2,3
		c-1.2,0.6-4,0.8-5.1,0.3c-2.1-1-4-2.5-5.6-4.3c-1.3-1.5-1.7-3.3-2.4-5l-1,0.1c0,1.4-0.1,2.7,0,4.1c0.1,0.9,0,1.6-0.2,2.2
		c-0.5,1.6-1.7,2.5-4.2,3.1c-8.7,2-15.7,0.1-19.5-5.4c-0.9-1.4-1.7-2.8-2.6-4.2l-1.1,0.1c-0.1,1.3-0.1,2.7,0,4
		c0.4,3.6-1.6,5.4-7.2,5.7c-3.5,0.2-7,0.1-10.5,0.1c-6.3,0-7.7-0.7-9.4-4.7c-0.3-0.8-0.6-1.6-0.8-2.4c-0.9-4.1-1.7-8.2-2.5-12.3
		h-4.9c-0.6,8.9-7.4,15-21.7,19.7c-7.8,2.5-16.2,4.2-24.3,6.2c-0.9,0.2-1.9,0.5-2.8,0.7l0.3,0.9c9-0.6,18.1-1,27-2
		c6.7-0.8,11.7-3.6,14.9-7.5c2-2.4,3.6-5,5.4-7.5c0.8-1.1,1.4-2.2,2.1-3.3l1.3,0.1c0.2,1.1,0.2,2.2,0.5,3.2c0.8,3.3,1.2,6.8,2.6,10
		c1.6,3.5,4.6,4.5,10.1,4.5c3.9,0,7.7,0.1,11.6-0.1c2.4,0,4.9-0.4,7.2-1c2.2-0.8,4.7-0.8,6.9-0.1c7.1,1.9,14.6,1.8,21.6-0.2
		c0.2,0,0.3-0.1,0.5-0.1c1.5-0.2,2.9-0.2,4.4,0.1c3.3,0.4,6.5,1,9.7,1.4c2.1,0.2,3.3-0.5,3.2-2C236.9,238.2,237.2,234.5,236.6,230.9
		z"/>
	<path class="step7" d="M154.9,207.8c0.5,1.2,0.9,2.5,1.1,3.8c0.5,2.5,0.7,4.8,0.6,7h4.9c-1.1-5.5-2.3-10.9-3.4-16.4
		c-0.2-0.8-0.5-1.7-0.9-2.5l0,0C154.5,202.6,153.4,205,154.9,207.8z"/>
	<path class="step7" d="M79.9,251.7c-1.2-3.4-2.3-6.8-3.2-10.2c-0.6-2.2,0.8-3.8,3.4-4.7c1.6-0.6,3.3-1.1,4.9-1.3
		c5.7-0.6,11.5-1,17.3-1.3c2.3-0.1,3.1-0.6,3.3-2.5c0.6-5.2-3.6-8.3-7.6-11.4c-0.8-0.6-1.6-1.1-2.4-1.5h-11c-1.6,1-3,2.4-4.1,4.2
		c-0.3,0.6-0.1,1.4-0.1,2.1c0.8-0.1,1.5-0.4,2.2-0.7c5-2.9,11.4-1.4,13.7,3.4c-4.3,0.6-8.6,1.1-12.8,1.9
		c-8.4,1.7-12.5,6.5-10.6,13.2c1.8,6.3,4.4,12.5,6.6,18.8l0,0C82,258.1,81,254.9,79.9,251.7z"/>
	<path class="step7" d="M84.8,218.6h11C92,216.6,88,216.7,84.8,218.6z"/>
	<path class="step7" d="M148.4,225.1l1.1-0.2c-0.8-2.1-1.2-4.4-2.5-6.3h-5.7C143.7,220.7,146,223,148.4,225.1L148.4,225.1z"/>
	<path class="step7" d="M146.8,218.3c-6.9-8.9-18.5-14.5-32.5-18c-3.9-1-5.7,0.2-5,2.9c1.3,4.8,6.2,7.6,12.6,9.5
		c1.1,0.3,2.3,0.2,3.3-0.3c2.4-1.8,4.8-1.2,6.9-0.1c2.5,1.3,4.9,2.8,7.2,4.6c0.7,0.6,1.4,1.1,2,1.7h5.7
		C146.9,218.5,146.8,218.4,146.8,218.3z"/>
	<path class="step6" d="M1235.8,140.2c0-0.2,0-0.4,0-0.6c0.2-2.9,2.7-5.1,5.6-4.9c1.5-0.1,2.9,0.5,4,1.5c1,1.1,1.5,2.5,1.5,3.9v23.4
		h14.8v-23.3c0-6.2-1.2-10.9-3.7-14.2c-2.4-3.3-6-4.9-10.6-4.9h-0.6c-4.9,0-8.5,1.9-10.9,5.6v-17.5H1221v54.2h14.8V140.2z"/>
	<path class="step6" d="M1268.4,153.7c1.3,2.3,3.1,4.1,5.4,5.3c2.4,1.3,5.1,1.9,7.9,1.9c2.6,0.1,5.2-0.6,7.4-1.9c2-1.2,3.6-3,4.6-5
		v5.7h12v-28.4c0.1-3.8-0.7-7.5-2.4-10.9c-3.2-5.7-9.2-8.6-18.1-8.6c-4.4,0-9.2,0.3-14.4,0.8v14.7c7.1-0.5,12.4-0.8,16-0.8
		c1.8,0,3,0.4,3.6,1.1c0.6,0.7,1,1.6,1,2.6h-5.5c-3.4-0.1-6.8,0.5-10,1.5c-6,1.8-9.9,7.6-9.5,13.8
		C1266.3,148.3,1267,151.1,1268.4,153.7z M1282.2,141c1-0.9,2.3-1.3,3.6-1.2h5.6v2.2l0,0c-0.1,3.2-1.1,5.3-2.8,6.1
		c-0.9,0.4-1.8,0.6-2.8,0.6c-1.3,0.1-2.6-0.4-3.6-1.2C1280.6,145.7,1280.6,142.9,1282.2,141z"/>
	<polygon class="step6" points="1314.2,166.8 1328,166.8 1328,112.8 1310,112.8 1310,124 1314.2,124 	"/>
	<polygon class="step6" points="1332.1,112.8 1332.1,124.6 1336.4,124.6 1336.4,169.4 1350.2,169.4 1350.2,112.8 	"/>
	<path class="step6" d="M1389.7,121.3c-1.8-1.9-4.1-3.4-6.5-4.4c-2.7-1.1-5.6-1.7-8.5-1.6c-3,0-5.9,0.5-8.6,1.6
		c-2.5,1-4.7,2.5-6.5,4.4s-3.2,4.1-4.2,6.5c-1,2.5-1.5,5.2-1.5,8v1.7c0,2.6,0.5,5.3,1.4,7.7c1.8,5,5.7,8.9,10.6,10.8
		c5.6,2.2,11.9,2.2,17.5,0l0,0c4.9-1.9,8.8-5.9,10.6-10.8c0.9-2.5,1.4-5.1,1.4-7.7v-1.8c0-2.7-0.5-5.4-1.5-7.9
		C1392.9,125.4,1391.5,123.2,1389.7,121.3z M1381.2,141.2c-0.5,1.3-1.4,2.3-2.5,3.1c-1.2,0.8-2.7,1.1-4.2,1.1
		c-1.5,0.1-2.9-0.3-4.2-1.1c-1.1-0.7-2-1.8-2.5-3.1c-0.6-1.5-0.9-3.1-0.9-4.7l0,0c0-1.6,0.3-3.2,0.9-4.7c0.5-1.3,1.4-2.4,2.6-3.2
		c2.5-1.5,5.7-1.5,8.2,0c1.1,0.8,2,1.9,2.6,3.2c0.6,1.5,0.9,3.1,0.9,4.7C1382.1,138.2,1381.8,139.8,1381.2,141.2z"/>
	<path class="step7" d="M1236.6,204.2c-5.4,3.1-6.8,5.6-5.4,9.1c1.2,2.9,4.4,4.4,7.4,3.5c1.3-0.4,2.9-1.2,3.3-2.3c0.9-2,1-4.3,1.5-6.5
		c2.7,0.1,5,1.9,5.8,4.5c1,2.7,0,5.8-2.4,7.4c-3.8,3.1-8.9,3.9-13.5,2.2c-1.5-0.5-3.1-0.9-5.1-1.5c1,2.8,1.9,5,2.6,7.2
		c0.3,1.4,1.5,2.4,2.9,2.4c8.6,1.3,16.7,5.1,23.2,10.9c1.2,1,2.3,2.1,3.4,3.2c-2.5-8.6-9.6-12.2-16.9-16.1c1.8-0.6,3.6-1.3,5.4-2
		c3.8-2,6.4-4.8,6.6-9.3c0.3-4.3-2-8.4-5.9-10.4c-2.2-1.2-4.9-1.6-7.3-2.5c-1-0.4-2-0.9-2.9-1.5c0.1-0.3,0.2-0.5,0.4-0.8
		c7.9,0,15.9-0.5,23.7,0.2c6.6,0.5,12.8,3.4,17.4,8.1c-5.8,2.8-10.9,6.8-14.9,11.8c2.8,3.2,4.8,6.8,9.5,7.9c7.4,1.6,13,6.3,17,12.7
		c0.7,0.9,1.5,1.8,2.4,2.6l0.7-0.4v-42.7h8.6v3.2c0,11.3,0,22.6,0,33.8c0,3.7,0.9,4.7,5,5.8v-42.8h16.9c-2.2,4.7-5,9.3-6.4,14.3
		c-2.4,8.2-1.9,16.3,3.2,23.5c3.3,4.8,9.4,6.8,14.9,4.8c3.2-1.2,5.2-4,4.9-7.1c-0.2-2.2-1.4-4.1-3.6-4.5c-1.6-0.3-3.9-0.1-4.8,0.9
		c-1.1,1.2-1.5,3.4-1.5,5.2c0,1.1,1.4,2.1,2.2,3.2c-3.7,0.2-6.2-1.7-8.3-6.2c-5-11.1-1.3-25.6,8.6-33c1.3-1,2.9-1.5,4.5-1.6
		c9.5-0.1,19-0.1,28.5-0.1c0.9,0,1.8,0.1,2.7,0.2v9.7c-1.8-2.5-3.1-5.9-6.2-4.7c-2.3,0.9-3.9,3.5-5.4,4.9c-2.2-1.5-4.5-3.9-7.3-4.8
		c-5.2-1.7-10.5,1.5-12.1,6.8c-1.8,5.9,0.7,12.4,5.7,14.1c1.9,0.5,4,0.6,5.9,0c2.2-0.6,3.6-2.7,3.2-5c0-2.4-1.9-4.3-4.2-4.5
		c-1.3-0.2-3.1,0-3.9,0.8c-1.3,1.3-1.8,3.3-2.7,4.9c-2.4-2.4-2.4-6.4-0.1-8.9c3.5-4.1,9.5-3.6,13.3,1.1c2.2,2.8,2.6,2.7,4.1-0.5
		c2-4.1,5.1-4.6,7.6-0.8c1.2,1.8,1.9,4,2,6.1c0.3,5.8,0.1,11.6,0.1,17.3c0,4.3,0.3,4.6,5,6.4v-43h8.5v3.3c0,11.3,0,22.6,0,33.9
		c0,3.6,1.1,4.9,5.1,5.6v-43h5v-4.5l-4.9-0.3c-0.5-4.6-1.6-6.2-5.3-7.6v7.5H1309c1.3-4.4-1.8-5.8-4.9-8.1v8.4h-76.9v4.2
		C1230.4,202.8,1234.5,200,1236.6,204.2z M1290.5,202.1v32.6c-4.9-5.3-10.1-9-16.6-10.9c-0.1-0.3-0.2-0.7-0.4-1l0,0l13.6-9.2
		l-9.3-11.6L1290.5,202.1L1290.5,202.1z"/>
	<polygon class="step7" points="1290,251.2 1302,261.2 1305.9,261.2 1293,247.5 	"/>
	<path class="step4" d="M244.8,283.4c0.4,1.8,1.1,3.6,2,5.2s2.1,3.1,3.6,4.2c1.5,1.2,3.2,2,5,2.5c2.1,0.5,4.3,0.5,6.4,0l0,0
		c2.2-0.4,4.4-1.4,6.1-2.9c1.6-1.4,2.9-3.1,3.7-5.1c0.8-2.1,1-4.4,0.6-6.6l-6.8,1.4c0.1,1,0,2-0.4,3c-0.3,0.9-0.9,1.7-1.7,2.4
		c-0.9,0.7-1.9,1.2-3,1.4c-1.4,0.4-2.9,0.2-4.2-0.3c-1.2-0.6-2.3-1.6-2.9-2.8c-0.8-1.4-1.4-2.9-1.7-4.5c-0.4-1.6-0.5-3.2-0.2-4.9
		c0.2-1.4,0.7-2.6,1.6-3.7c0.9-1,2.2-1.7,3.6-2c1.5-0.4,3.1-0.2,4.5,0.6c1.2,0.8,2.1,2,2.6,3.3l6.8-1.4c-0.5-2.1-1.6-4.1-3.2-5.7
		c-1.5-1.5-3.3-2.6-5.4-3.1c-4.3-1-8.8-0.2-12.4,2.4c-1.5,1.1-2.7,2.6-3.6,4.3c-0.9,1.7-1.4,3.5-1.6,5.3c-0.2,1.9-0.1,3.9,0.3,5.8
		L244.8,283.4z"/>
	<path class="step4" d="M282.5,273.1l1.2-0.3L282,265c0,0.1-0.1,0.3-0.1,0.4C281.7,268,281.9,270.6,282.5,273.1z"/>
	<path class="step4" d="M287.1,289l-3.5-16.7c-0.4-1.7-0.2-3.5,0.6-5c0.8-1.4,2.2-2.4,3.8-2.7c1.5-0.4,3-0.1,4.2,0.8
		c1.3,1,2.2,2.4,2.4,4l3.6,17.2l7-1.5l-3.5-16.5c-0.9-4.3-2.4-7.5-4.5-9.4s-5-2.7-7.8-1.9l-0.3,0.1c-1.9,0.3-3.7,1.3-5,2.7
		c-1.1,1.4-1.8,3.1-2.1,4.9l1.6,7.8l-1.2,0.3c-0.6-2.5-0.8-5.1-0.5-7.6c0-0.1,0-0.3,0.1-0.4l-3.2-14.9l-7,1.5l8.2,38.9L287.1,289z"
		/>
	
		<rect x="324.7" y="262.3" transform="matrix(0.9782 -0.2077 0.2077 0.9782 -47.8547 73.2907)" class="step4" width="0.8" height="4.5"/>
	<path class="step4" d="M327.9,271.3l-2.1-1.7l0,0l0.4,2.1l1.2-0.2l0.6,3C328.1,273.4,328,272.4,327.9,271.3z"/>
	<path class="step4" d="M326.2,271.7l-0.4-2.1c0.3,1.3,0.2,2.6-0.1,3.9c-0.3,0.9-0.9,1.8-1.7,2.4c-0.8,0.6-1.6,0.9-2.6,1.1
		c-1.3,0.4-2.7,0.2-3.9-0.4c-1-0.7-1.7-1.7-2-2.9c-0.3-1.2-0.1-2.5,0.6-3.5c0.8-1.1,2.1-1.8,3.4-2l5.7-1.2l-0.9-4.4l-5.6,1.2
		c-2.2,0.4-4.2,1.2-6.1,2.3c-1.5,0.9-2.8,2.3-3.5,3.9c-0.7,1.8-0.8,3.7-0.4,5.5c0.3,1.8,1.1,3.4,2.3,4.7c1.1,1.2,2.5,2.1,4.1,2.5
		c1.8,0.4,3.6,0.4,5.4,0l0,0c1.7-0.3,3.3-1,4.6-2.1c1.2-1,2-2.3,2.4-3.8c0.2-0.7,0.3-1.5,0.4-2.3l-0.6-3L326.2,271.7z"/>
	<path class="step4" d="M315.8,252.2c-0.9,0.2-1.9,0.4-2.9,0.6c-1,0.2-2,0.5-3,0.8s-1.8,0.5-2.6,0.8l1.3,6.3c0.9-0.3,2-0.6,3.1-0.9
		c1.2-0.3,2.3-0.6,3.5-0.9s2.2-0.5,3-0.7c1.3-0.4,2.7-0.2,3.8,0.5c1.1,0.9,1.8,2.1,1.9,3.5l0.1,0.3l0.8-0.2l0.9,4.4l-0.8,0.2
		l0.6,2.7l0,0l2.1,1.7c0.2,1,0.2,2.1,0.1,3.1l1.2,5.6l5.5-1.2l-3.8-17.9c-0.4-2.3-1.4-4.4-2.8-6.2c-1.3-1.5-3.1-2.4-5-2.8
		C320.6,251.6,318.2,251.7,315.8,252.2z"/>
	<polygon class="step4" points="319.5,248.1 312.9,238.1 305.4,239.7 313.4,249.4 	"/>
	<path class="step4" d="M337.4,263.8c0.4,1.9,1.1,3.7,2.2,5.3c1,1.6,2.3,3,3.9,4.2c1.6,1.1,3.4,1.9,5.4,2.3c2.2,0.4,4.5,0.4,6.6-0.1
		l0,0c2.2-0.4,4.2-1.3,6.1-2.6c1.6-1.1,3-2.6,4-4.3c1-1.7,1.6-3.5,1.9-5.4s0.2-3.9-0.2-5.7l-0.2-1.1c-0.4-1.9-1.1-3.8-2.2-5.5
		c-1-1.6-2.4-3-4-4.2c-1.6-1.1-3.5-1.9-5.4-2.3c-4.3-0.7-8.8,0.2-12.4,2.6c-1.6,1.1-3,2.6-4,4.3s-1.6,3.5-1.9,5.4
		c-0.3,2-0.2,4,0.2,5.9V263.8z M344.2,256.9c0.3-1.4,1-2.8,2-3.8c2.3-2.1,5.5-2.8,8.5-1.8c1.4,0.6,2.5,1.5,3.4,2.7
		c1,1.3,1.6,2.9,1.9,4.5c0.4,1.6,0.4,3.2,0.1,4.8c-0.6,3-3,5.4-6,5.9l0,0c-1.5,0.4-3.1,0.3-4.6-0.3c-1.4-0.6-2.5-1.5-3.4-2.7
		C344.3,263.5,343.6,260.1,344.2,256.9z"/>
	<path class="step9" d="M787.5,126.8c-3-4.4-7.3-6.6-13.1-6.6h-0.6c-3.5-0.1-7,0.9-9.8,3.1c-2.5,2.2-4.5,5-5.5,8.1V105v-2.2h-12.9v2.2
		v72.8h12.9v-32.3c-0.1-3.3,0.9-6.4,2.9-9c1.9-2.3,4.7-3.5,7.7-3.4c2.7-0.1,5.4,1,7.2,3.1s2.7,4.9,2.7,8.4v33.2h12.9V146
		C791.9,137.5,790.4,131.2,787.5,126.8z"/>
	<path class="step9" d="M833.5,171.5c1.8-2.7,3-5.7,3.5-8.8h-9.7c-0.5,1.8-1.6,3.4-3.1,4.5c-1.8,1.3-4,1.9-6.3,1.8
		c-2.3,0.1-4.5-0.6-6.4-2c-1.7-1.5-3-3.4-3.7-5.6c-0.5-1.7-0.9-3.4-1.1-5.2h-5.5v-7.6h5.7c0.2-1.3,0.5-2.6,0.9-3.8
		c0.7-2.1,1.9-4,3.7-5.4c1.7-1.3,3.8-2,5.9-1.9c2.1-0.1,4.1,0.6,5.8,1.8c1.6,1.3,2.8,3.1,3.4,5.1c0.4,1.4,0.7,2.8,0.9,4.2h3.5
		l-3.3,3.8c0-1.3-0.1-2.5-0.2-3.8h-20.7c-0.3,1.5-0.4,3.1-0.3,4.7c0,1,0,2,0.1,3h30.9v-4.5c0-4.1-0.7-8.2-2.3-12.1
		c-1.4-3.6-3.7-6.7-6.8-9.1c-3.2-2.4-7.2-3.6-11.2-3.5c-3.1-0.1-6.2,0.7-8.9,2.1c-2.5,1.4-4.8,3.3-6.5,5.7c-1.8,2.4-3.1,5.2-3.9,8.1
		c-0.9,3.1-1.3,6.2-1.3,9.4v1.7c0,3.1,0.4,6.2,1.3,9.2c0.8,2.9,2.2,5.7,3.9,8.1c1.7,2.4,4,4.4,6.6,5.8c2.9,1.5,6.1,2.2,9.3,2.2l0,0
		h0.2c3.1,0,6.1-0.7,8.9-2.1C829.6,176,831.8,174,833.5,171.5z"/>
	<path class="step9" d="M806.9,148.7h-5.7v7.6h5.5c-0.1-1-0.2-2-0.1-3C806.6,151.8,806.7,150.2,806.9,148.7z"/>
	<path class="step9" d="M831.1,148.7h-3.5c0.2,1.2,0.2,2.5,0.2,3.8L831.1,148.7z"/>
	<polygon class="step9" points="845.6,118.8 839.1,118.8 839.1,127.2 845.6,127.2 845.6,177.7 858.8,177.7 858.8,127.2 858.8,118.8 	
		"/>
	<path class="step9" d="M896.3,173.3c1.6-1.9,2.8-4.1,3.6-6.4c0.8-2.4,1.2-4.9,1.2-7.4V158c0-2.6-0.4-5.2-1.3-7.6
		c-0.8-2.4-2.1-4.5-3.7-6.4c-1.6-1.9-3.6-3.4-5.9-4.4c-5-2.1-10.7-2.1-15.7,0c-2.3,1-4.3,2.5-5.9,4.4c-1.6,1.9-2.9,4.1-3.7,6.4
		c-0.9,2.4-1.3,5-1.3,7.6v1.5c0,2.5,0.4,5,1.2,7.4c0.8,2.3,2,4.5,3.6,6.4s3.6,3.4,5.9,4.5c2.5,1.1,5.3,1.7,8,1.6
		c2.7,0.1,5.5-0.5,8-1.6C892.7,176.8,894.7,175.2,896.3,173.3z M887.9,169.3c-1.6,1.1-3.5,1.7-5.4,1.6l0,0c-1.9,0.1-3.8-0.5-5.4-1.6
		c-1.5-1.1-2.7-2.6-3.4-4.4c-1.6-4-1.6-8.5,0-12.6c0.7-1.7,1.9-3.2,3.4-4.4c3.2-2.1,7.4-2.1,10.7,0c1.5,1.1,2.7,2.6,3.4,4.4
		c0.8,2,1.2,4.2,1.2,6.3s-0.3,4.3-1.1,6.3C890.6,166.7,889.4,168.2,887.9,169.3z"/>
	<path class="step9" d="M307,205.7c-16.7,3.1-25.5,1.5-26.4-4.7c-0.4-2.8,1.8-8,6.7-15.8l-8.6-5.2c-6.2,9.8-8.9,17.5-8.1,23.4
		c1.8,12.6,14.4,16.8,37.8,12.5c10.8-1.9,21.3-4.9,31.5-8.8l-3-9.8C327.3,201,317.3,203.8,307,205.7z"/>
	<path class="step9" d="M298.6,155c3.9-0.7,7.7-1.7,11.5-3c-3.8,2.9-7.5,6-11,9.3l6.8,7.1c7.1-7.7,14.7-14.9,22.9-21.5l-4.8-7.8
		c-8.9,2.5-17.8,4.6-26.9,6.2l0,0c-9.4,1.8-19,2.7-28.6,2.7l0,0l0.2,10.2C277.1,158.2,287,157.2,298.6,155z"/>
	<path class="step9" d="M393.7,160c1.2,10.7,1.2,18.6,0.1,23.4c-0.9,3.8-2.7,6.2-5.4,7c-1.5,0.5-3.1,0.4-4.5-0.3
		c-1.3-0.8-2.2-2.1-2.6-3.5c-0.2-0.7-0.7-3-1.6-7s-1.5-6.4-1.7-7.3c-0.7-3.3-2.4-6.3-4.8-8.8c-2.3-2.3-5.7-3-8.8-2
		c-1.6,0.5-3,1.4-4.1,2.6c-1.3,1.4-2.4,2.9-3.1,4.7c1.1-9.6,2.4-19.6,4-30.2l-8.4-0.8c-2.3,20.5-4.2,44.2-5.9,71.3l8.4-0.1l1.4-22.2
		c0.3-3.7,1.3-7.3,3.1-10.5c1.8-3.5,3.8-5.5,5.7-6.1c2.2-0.7,3.8,0.9,4.8,4.6c0.2,0.9,0.8,3.4,1.7,7.3c0.9,4,1.5,6.3,1.6,7
		c0.8,3.7,3.1,6.9,6.3,8.9c3.2,1.8,7.1,2.2,10.6,0.9c5.6-1.7,9.2-5.8,10.8-12.3c1.4-5.6,1.6-14.6,0.4-27L393.7,160z"/>
	<path class="step9" d="M463.6,144.6l0.3-7.2c-11.3,0.6-22.5,1.7-33.7,3.1l1.2,7C441.1,146.2,451.9,145.3,463.6,144.6z"/>
	<path class="step9" d="M420.7,188.9l6.4-2.9c-2.8-7.3-4.3-15-4.2-22.9c-0.1-9.8,0.9-19.6,3.2-29.1l-6.7-1.3l0,0
		c-2.4,10.1-3.5,20.5-3.4,30.9C415.9,172.2,417.5,180.8,420.7,188.9z"/>
	<path class="step9" d="M435.9,182.4c3.6,1.6,9.1,2.3,16.5,1.9c3.3-0.2,8.2-0.7,14.6-1.6l-0.5-7.3c-4.7,0.9-9.5,1.5-14.3,1.8
		c-4.7,0.3-8.3,0.1-10.7-0.6c-2.9-0.8-4.3-2.1-4.3-4.1c0-2.3,1.1-5.5,3.5-9.6l-6.5-3c-2.8,5.5-4.2,10.1-4.2,13.5
		C430.2,177.6,432,180.6,435.9,182.4z"/>
	<path class="step9" d="M480.9,147.2c-0.1,0.3-0.1,0.7-0.2,1c-1,6-2.5,10.9-4.5,14.4l3.8,3.2c2.3-2.4,5-4.5,8-6.1
		c2.5-1.5,5.3-2.4,8.2-2.7c2-0.3,4,0.2,5.6,1.4c1.4,1.2,2.2,2.9,2.3,4.8c0.3,2.2-0.5,4.4-2,6c-1.9,2-5,3.2-9.3,3.6
		c-3.4,0.3-6.8,0.3-10.1,0v5.5c3.5,0.4,7.1,0.4,10.6,0c5.9-0.6,10.2-2.4,12.9-5.4c2.4-2.8,3.5-6.5,3-10.1c-0.1-3.4-1.7-6.6-4.3-8.7
		c-2.6-2-5.9-2.8-9.1-2.4c-3.9,0.4-7.9,2.1-12.1,5.2c1.2-3.3,2-6.8,2.4-10.3c7.6-0.9,15.1-1.9,22.3-3l-0.7-5.5c-6,1-13.1,2-21.1,3
		c0.2-2.5,0.2-5.3,0.2-8.1l-5,0.1c0,2.9-0.1,5.8-0.3,8.6c-3.5,0.3-7.3,0.7-11.2,1.1l0.5,5.5C474.2,147.9,477.5,147.5,480.9,147.2z"
		/>
	<path class="step9" d="M534.1,147.4c1.8-0.1,3.5-0.2,5.1-0.3c0.3,3.9,0.5,7,0.6,9.3c-1.6-0.4-3.2-0.6-4.8-0.5c-2.2,0-4.4,0.7-6.1,2
		c-1.5,1.2-2.3,3-2.2,4.9c0,2,1.1,3.9,2.8,4.9c1.9,1,4,1.5,6.1,1.3c3.2-0.1,5.6-1.2,7.1-3.2c0.7-1,1.2-2.2,1.4-3.4
		c2,1.3,3.9,2.7,5.8,4.1l2.4-3.3c-2.5-2.1-5.1-3.9-8-5.3c-0.1-2.7-0.4-6.4-0.8-11.2c2.5-0.2,4.7-0.6,6.8-0.9l-0.2-4.1
		c-2.1,0.4-4.4,0.7-6.9,0.9c-0.2-2.1-0.4-4.3-0.6-6.6l-4.4,0.2c0.2,2.4,0.4,4.7,0.6,6.8c-1.6,0.1-3.2,0.2-4.9,0.3
		c-2.8,0.1-5.4,0.1-8,0.1l0.2,4.1C528.3,147.6,531,147.5,534.1,147.4z M539.1,163.3c-0.8,1.2-2.2,1.8-3.6,1.8
		c-0.9,0.1-1.9-0.1-2.7-0.3c-0.9-0.3-1.5-1.1-1.5-2c0-0.8,0.3-1.6,1-2c0.9-0.6,1.9-1,3-0.9l0,0c1.6,0,3.2,0.2,4.8,0.7
		C539.9,161.5,539.7,162.5,539.1,163.3z"/>
	<path class="step9" d="M520.6,170l4-1.4c-1.7-3.6-2.7-7.4-2.7-11.4c-0.2-5.6,0.2-11.2,1.3-16.8l-4.3-0.4c-1.1,5.7-1.6,11.5-1.3,17.4
		C517.5,161.7,518.6,166.1,520.6,170z"/>
	<path class="step4" d="M1662.9,265c7.3,0.2,11-12.2,11.8-12.2c0.6,0,2.5,16.1,11.1,16.3c0.5,0,1,0,1.5-0.2c7.9-2.3,17.5-30.4,18-32.2
		l0,0c0.5-2-1.6-2.2-2.2-0.5c-0.7,1.8-11.3,27.5-13.3,27.5c-3-0.1-2.2-15.9-2.4-21.5c0-0.4,0-0.8,0-1.3c0-1.7-2.2-4.1-7.9-4.2
		c-5.5-0.1-5.6,2.8-5.6,4.5c-0.1,4.3-6.2,21.3-9,21.3s-3-5-3-8.1c0.3-15.1,8.6-29.6,17.6-29.4c3.4,0.1,3.9,6.8,3.9,8.7
		c0,1.8,3.3,0.9,3.3-0.2c0.2-12-6.5-12.2-16-12.4c-13.7-0.3-20.6,17.1-20.8,27.9C1649.8,260.3,1655.6,264.8,1662.9,265z"/>
	<path class="step4" d="M1724.1,266.3c3.8,0.2,5.1,0,5-0.8c0.6-0.1,1-0.6,1-1.2c0.4-7.5,8.9-29.3,8.9-29.3s4.5,1.5,4.3,5.4
		s-5,20.6-5.6,32.2c-0.7,11.7,17.2,12.4,17.3,9.5l0,0c0.1-1.2-2.5-2.6-1.9-12c0.4-7.5,3.4-22,3.8-28.6c0.4-6.5-12.9-9.1-17.1-9.4
		c-3.5-0.2-11.7,18.1-14.4,26.6c-1.3-3-1.8-6.3-1.6-9.5c1-17,9.6-39.1,9.8-42.7c0.2-3.7-9.1-5.3-12.4-5.5c-4.8-0.3-3.5,3-3.6,4.2
		C1717.4,209,1697.2,264.9,1724.1,266.3z"/>
	<path class="step4" d="M1786.9,286.1c23.3,2,35-25.1,37.3-49.6l0,0c2.3-24.3-5.2-34-15.5-34.9c-8.4-0.7-19.3-0.5-24.6,9.8
		c-13.2,1.5-18.2,19.7-19.6,34.8C1763,262.5,1765.9,284.3,1786.9,286.1z M1794.6,232.4c6.9-4.6,6.1-21.6,11.8-21.1l0,0
		c19,1.6,1.3,68-9.9,67C1785.6,277.5,1793,251.8,1794.6,232.4z"/>
	<path class="step4" d="M1817.9,289.7c-6.2-0.8-10.5-5.8-10.9-2.7c-0.4,3.1,4.4,8.2,13,9.2c17.2,2.1,30-14.7,32.5-33.3l0,0
		c2.5-18.6,3.2-42.3-2.7-43c-5.9-0.7-10.7-4.3-11.2-0.4c-0.7,5.1,3.1,9.8-1.3,43.2C1834.9,280.3,1824.1,290.4,1817.9,289.7z"/>
	<path class="step4" d="M1854.9,208.2c0.4-3.1-3.5-8.6-8-9.1c-4.4-0.5-8.2-1.1-8.8,3C1837.6,206.2,1853.9,215.5,1854.9,208.2z"/>
	<path class="step4" d="M1883.9,193.2c-3.9-0.7-4.1,0.8-4.4,3.7c-0.8,5.9-19.8,85.3-3,88.4l0,0c4.6,0.9,0.9-4.9,2.7-20.5
		c2.3-20,11-58.1,11.4-60.7c0-0.2,0-0.4,0-0.7v-0.1C1890.6,199.6,1887.5,193.8,1883.9,193.2z"/>
	<path class="step4" d="M1878.4,305.8c0.6-4.1-2.7-11.4-6.4-12.2c-3.8-0.8-6.9-1.8-7.6,3.7l0,0
		C1863.7,302.7,1877.1,315.4,1878.4,305.8z"/>
	<path class="step7" d="M956.3,166.4c-0.5,0.9-1.3,1.7-2.2,2.3c-1.1,0.6-2.3,0.9-3.5,1c-1.6,0.2-3.2-0.2-4.6-1.1
		c-1.2-0.9-2.2-2.1-2.7-3.6c-0.6-1.7-1-3.5-1-5.3c-0.1-1.9,0.1-3.8,0.6-5.7c0.4-1.5,1.2-2.8,2.4-3.9c1.2-1,2.7-1.6,4.2-1.6
		c1.7-0.2,3.5,0.3,4.8,1.5c1.2,1.1,1.9,2.6,2.1,4.1l10.1-0.5c-0.2-2.8-1.2-5.5-2.8-7.8c-1.6-2.2-3.7-4-6.1-5.1
		c-2.7-1.2-5.6-1.7-8.6-1.5c-2.7,0.1-5.3,0.8-7.7,2c-2.1,1.1-4,2.6-5.5,4.6c-1.4,1.9-2.5,4.1-3.1,6.4c-0.7,2.4-0.9,4.9-0.8,7.3
		l0.1,1.3c0.1,2.4,0.6,4.8,1.4,7c0.8,2.2,2.1,4.2,3.6,5.9c1.6,1.8,3.6,3.1,5.9,4c2.6,1,5.3,1.4,8.1,1.2l0,0c3-0.1,5.9-0.9,8.4-2.4
		c2.4-1.4,4.4-3.3,5.8-5.7c1.4-2.5,2.1-5.3,2.1-8.2l-10.1,0.5C957.2,164.3,956.8,165.4,956.3,166.4z"/>
	<polygon class="step7" points="988.1,168.4 988.5,167.9 988.1,167.4 	"/>
	<polygon class="step7" points="994,147.8 993.6,148.4 994,149 	"/>
	<polygon class="step7" points="992.3,146.9 992.8,147.5 993.6,147.5 	"/>
	<polygon class="step7" points="989.8,169.5 989.2,168.8 988.5,168.8 	"/>
	<polygon class="step7" points="989.8,169.5 988.5,168.8 989.2,168.8 988.5,167.9 988.1,168.4 988.1,167.4 988.5,167.9 1006.8,146.6 
		1006.8,138.7 975.5,139 975.5,147.7 992.8,147.5 992.3,146.9 993.6,147.5 992.8,147.5 993.6,148.4 994,147.8 994,149 993.6,148.4 
		975.3,169.7 975.3,177.5 1007.3,177.2 1007.3,168.6 989.2,168.8 	"/>
	<path class="step7" d="M1045.5,178.9c3.7-0.2,7.4-1.2,10.7-2.9c2.9-1.5,5.5-3.7,7.4-6.4c1.9-2.6,3.1-5.6,3.6-8.7l-13.1,1
		c-0.6,1.6-1.7,3-3.1,3.9c-4.1,2.4-9,2.6-13.3,0.8c-1.9-1-3.4-2.6-4.2-4.6c-0.5-1.2-0.9-2.5-1.2-3.8l-7.6,0.6l-0.5-7.8l7.7-0.6
		c0.1-1.2,0.4-2.3,0.7-3.5c0.6-2,1.9-3.8,3.6-5.1c1.8-1.3,4-2,6.2-2.1c2.1-0.2,4.3,0.1,6.2,1.1c1.7,1,3.1,2.5,4,4.3
		c0.5,1.1,0.9,2.3,1.2,3.5l4.9-0.4l-4.4,4c-0.1-1.2-0.2-2.4-0.5-3.6l-21.9,1.7c-0.3,2.6-0.2,5.3,0.4,7.8l35.5-2.7l-0.3-4.6
		c-0.2-4.1-1.5-8.1-3.7-11.7c-2.1-3.5-5.2-6.3-8.8-8.2c-4.2-2.1-8.8-2.9-13.4-2.4c-3.6,0.2-7.2,1.2-10.5,2.8c-2.9,1.5-5.4,3.5-7.4,6
		c-1.9,2.4-3.3,5.2-4.2,8.1c-0.9,3-1.2,6.1-1,9.2l0.1,1.7c0.2,3,1,6,2.3,8.8s3.1,5.3,5.3,7.4c2.4,2.2,5.2,3.9,8.3,4.9
		c2.5,0.8,5,1.2,7.6,1.3h1.9C1044.4,179,1044.9,179,1045.5,178.9L1045.5,178.9z"/>
	<path class="step7" d="M1058.5,148.4l-4.9,0.4c0.3,1.2,0.5,2.4,0.5,3.6L1058.5,148.4z"/>
	<path class="step7" d="M1031.8,150.5l-7.7,0.6l0.5,7.8l7.6-0.6C1031.6,155.7,1031.5,153.1,1031.8,150.5z"/>
	<polygon class="step7" points="1107.6,111.4 1092.9,112.5 1086.9,129.3 1099.4,128.4 	"/>
	<path class="step7" d="M1114.9,153c-3.6-2.1-8.5-3.2-14.6-3.3h-3.9c-1.9,0-3.9-0.3-5.7-0.9c-1.1-0.4-1.9-1.4-2-2.6
		c-0.2-1.3,0.5-2.5,1.6-3.1c1.6-0.9,3.3-1.4,5.1-1.5c2.2-0.3,4.5,0,6.5,1c1.4,0.7,2.5,1.9,3,3.3l12.7-1c-0.6-4.4-3.4-8.1-7.4-10
		c-4.2-2.1-9.4-2.9-15.8-2.4c-3.5,0.2-7,1-10.3,2.4c-2.6,1-4.9,2.8-6.6,5.1c-1.5,2.3-2.1,5-1.6,7.7c0.4,3.6,2.5,6.7,5.6,8.6
		c3.2,2.1,7.9,3.2,13.8,3.3h3.9c3.3,0.1,5.6,0.4,6.9,1.1c1.2,0.5,2.1,1.6,2.3,2.8c0.2,1.4-0.5,2.5-2,3.4c-1.9,1-4,1.5-6.1,1.6
		c-3.3,0.2-5.8-0.1-7.6-1c-1.5-0.6-2.7-1.9-3.3-3.4l-12.7,1c0.7,4.4,3.6,8.1,7.6,10c4.3,2.2,9.9,3,16.8,2.5l0,0
		c3.9-0.2,7.7-1.1,11.3-2.5c2.8-1.1,5.2-3,7-5.4c1.5-2.2,2.1-4.9,1.7-7.6C1120.6,158.1,1118.3,154.7,1114.9,153z"/>
	<path class="step7" d="M1164.7,155.1c0.2,1.4,0,2.9-0.6,4.2s-1.5,2.4-2.6,3.3c-3.3,2.2-7.5,2.8-11.3,1.6c-1.9-0.8-3.5-2.1-4.5-3.8
		c-1.2-1.9-2.1-4.1-2.6-6.3c-0.6-2.3-0.8-4.7-0.4-7c0.3-2,1.1-3.8,2.5-5.2c1.5-1.5,3.5-2.5,5.6-2.8c2.4-0.6,4.9-0.4,7.1,0.8
		c1.8,1,3.2,2.7,3.9,4.6l14.1-2.8c-1-3.4-3-6.5-5.7-8.9c-2.8-2.4-6.1-4.1-9.7-4.9c-7.8-1.5-15.9-0.1-22.7,4c-2.7,1.7-5,4-6.6,6.7
		c-1.6,2.6-2.6,5.5-3,8.4c-0.4,3-0.2,6.1,0.5,9.1l0.4,1.6c0.7,2.9,1.9,5.7,3.6,8.3s3.9,4.8,6.4,6.5c2.8,1.8,5.8,3.1,9.1,3.6
		c3.8,0.7,7.8,0.6,11.6-0.3l0,0c4.1-0.7,7.9-2.3,11.3-4.7c3-2.1,5.3-4.9,6.8-8.2c0.9-2,1.4-4.2,1.4-6.4v-0.8c0-1.1-0.1-2.2-0.3-3.3
		L1164.7,155.1z"/>
	<polygon class="step7" points="1140.1,125.4 1152.6,122.9 1158.8,103.7 1158.8,103.7 1144.1,106.6 	"/>
	<path class="step9" d="M84.9,182.7c2.3-1,4.4-2.6,6.1-4.5c1.7-2,3-4.3,3.9-6.9c0.9-2.7,1.3-5.6,1.3-8.5V161c0-2.9-0.4-5.7-1.3-8.5
		c-0.8-2.5-2.1-4.8-3.7-6.7s-3.7-3.4-5.9-4.5c-2.4-1.1-5.1-1.6-7.8-1.6c-3.1-0.1-6.2,0.8-8.9,2.4c-1.5,0.9-2.8,2.1-3.9,3.5v-18.2
		h-15V183h12.2v-6.8c1.4,2.5,3.4,4.6,5.9,6c2.8,1.5,5.9,2.3,9,2.2C79.6,184.4,82.4,183.8,84.9,182.7L84.9,182.7z M80.2,166.9
		c-0.6,1.4-1.7,2.5-2.9,3.4c-1.2,0.8-2.7,1.2-4.1,1.2c-1.5,0-2.9-0.3-4.2-1c-1.3-0.6-2.4-1.5-3.3-2.7c-0.9-1.3-1.4-2.8-1.3-4.3V161
		l0,0c0-1.6,0.4-3.2,1.2-4.5c0.8-1.2,1.9-2.2,3.1-2.9c1.3-0.7,2.8-1,4.3-1s2.9,0.3,4.2,1.1c1.2,0.8,2.2,1.9,2.9,3.2
		c0.7,1.5,1.1,3.2,1.1,4.9C81.3,163.6,80.9,165.3,80.2,166.9z"/>
	<path class="step9" d="M126.9,165.1c0.1,1.5-0.5,2.9-1.5,4c-1.1,1-2.5,1.5-3.9,1.4c-1.4,0.1-2.8-0.4-3.9-1.4c-1-1-1.5-2.4-1.4-3.8
		V141h-15v24.3c0,6.4,1.3,11.2,4,14.4s6.4,4.8,11.3,4.8h0.6c6,0,10.2-2.5,12.5-7.5v6.1h12.2v-42h-15L126.9,165.1L126.9,165.1z"/>
	<path class="step9" d="M176,139.6h-0.6c-2.9-0.1-5.8,0.7-8.2,2.3c-2.1,1.4-3.8,3.4-4.7,5.8V141h-12.2v42h15v-23.8
		c-0.1-1.5,0.5-3,1.5-4.2c1.1-1.1,2.6-1.6,4.1-1.6c1.5-0.1,3,0.5,4,1.6s1.5,2.5,1.4,4v24h15v-24c0-6.5-1.3-11.4-4-14.6
		C184.7,141.2,180.9,139.6,176,139.6z"/>
	<path class="step9" d="M205.8,132.9c2.6,2.6,6.2,3.9,10.9,3.9c4.6,0,8.2-1.3,10.8-3.9l0,0c2.5-2.6,3.9-6.6,4-12v-0.7h-11.1v0.8
		c-0.1,1.8-0.4,3-1,3.7c-0.7,0.6-1.7,1-2.7,0.9c-0.9,0.1-1.9-0.3-2.6-0.9c-0.6-0.6-0.9-1.8-1-3.7v-0.8h-11.4v0.7
		C201.8,126.3,203.2,130.3,205.8,132.9z"/>
	<path class="step9" d="M215,140.2c-4.5,0-9.4,0.2-14.6,0.7V154c7.2-0.5,12.6-0.7,16.2-0.7c1.8,0,3,0.3,3.7,1c0.6,0.6,1,1.4,1,2.3
		h-5.6c-3.4-0.1-6.9,0.4-10.2,1.4c-2.7,0.8-5.2,2.3-7,4.4c-1.8,2.2-2.7,5.1-2.6,7.9c-0.2,5.2,2.8,10,7.5,12.1c2.5,1.1,5.2,1.7,8,1.7
		c2.6,0.1,5.2-0.5,7.6-1.7c1.9-1,3.6-2.6,4.7-4.5v5.1h12.2v-26.7c-0.1-2.9-0.9-5.8-2.4-8.4C230.1,142.7,224,140.2,215,140.2z
		 M221.4,167.2L221.4,167.2c-0.2,2.9-1.1,4.7-2.9,5.5c-0.9,0.4-1.9,0.6-2.8,0.5c-1.3,0.1-2.6-0.3-3.7-1.1c-0.1-0.1-0.1-0.1-0.2-0.2
		c-1.5-1.6-1.4-4.1,0.2-5.6c1.1-0.8,2.4-1.2,3.7-1.1h5.7V167.2z"/>
	<path class="step6" d="M451.2,54.3c-4.2-5.2-10.2-7.8-18.2-7.8h-1c-8.4,0-14.6,3-18.7,8.9V27.7H388v85.8h25.3V76.8
		c-0.1-2.4,0.9-4.8,2.6-6.4c1.9-1.7,4.4-2.5,6.9-2.4c2.5-0.1,4.9,0.7,6.8,2.4c1.7,1.6,2.6,3.9,2.5,6.2v37h25.3V76.8
		C457.5,67,455.4,59.5,451.2,54.3z"/>
	<path class="step6" d="M486.8,59L486.8,59L486.8,59z"/>
	<path class="step6" d="M473.1,90.2c3.1,3.3,6.9,5.9,11.1,7.7c4.8,2.1,9.9,3.1,15.2,3c5.2,0.1,10.4-0.9,15.2-3
		c4.3-1.9,8.1-4.8,11.1-8.5l0,0c2.9-3.6,4.9-7.8,5.9-12.3c0-0.8,0.1-1.2,0.1-1.4h-21.6c-0.2-0.6-0.3-0.3-0.4,0.7
		c-0.8,1.6-2,2.8-3.6,3.6c-2.2,1-4.6,1.5-7,1.3c-2.5,0.1-5.1-0.5-7.3-1.7c-2.5-1.5-4.2-3.9-4.9-6.6l45.9,0.1v-7.8
		c0.1-5.9-1.3-11.7-4-16.9c-2.6-5.2-6.6-9.6-11.6-12.6c-5.1-3.2-11.2-4.8-18.5-4.8c-5-0.1-10,0.9-14.6,2.8c-4.1,1.8-7.9,4.3-11,7.6
		c-3,3.1-5.3,6.8-6.9,10.8s-2.4,8.3-2.4,12.6c0,0.8,0,1.6,0,2.4c0,4.2,0.8,8.4,2.3,12.4C467.8,83.4,470.2,87.1,473.1,90.2z
		 M486.8,59L486.8,59c0.2-0.8,0.5-1.5,0.8-2.2c2-4.2,5.7-6.3,11.1-6.2c6.1,0,9.8,2.9,11.3,8.5L486.8,59L486.8,59L486.8,59z"/>
	<path class="step6" d="M531.8,75.7L531.8,75.7C531.9,75.5,531.8,75.5,531.8,75.7z"/>
	<path class="step6" d="M547.6,54.1L547.6,54.1c0.8,9,1.5,17.8,2.2,26.7c0.2,2.9-1.7,4.5-5.9,4.7l-2.7,0.2l-1,0.1
		c0.3,3.6,0.6,7.7,1,12.3l1-0.1l2.4-0.1c4.9-0.2,9.8-1,14.4-2.6c3.3-1,6.2-3.1,8.1-6c1.6-2.5,2.3-5.8,1.9-9.7
		c-0.8-9-1.5-17.9-2.3-26.9c-0.3-3.2-0.6-6.7-0.9-10.6l-19.2,1.2l-7.3,0.4c0.3,4.1,0.6,7.7,0.9,10.9L547.6,54.1z"/>
	<path class="step6" d="M546.2,39.5c1.8,1.3,4.5,1.8,8,1.6s6-1,7.6-2.5c1.5-1.3,2.3-3.3,2.1-5.3c-0.2-2.1-1.3-3.9-3-5
		c-1.8-1.3-4.5-1.8-8-1.6c-3.5,0.2-6.1,1-7.7,2.5c-1.6,1.3-2.4,3.3-2.2,5.3C543.3,36.6,544.4,38.4,546.2,39.5z"/>
	<polygon class="step7" points="20.2,38.2 36,38.2 36,101.9 56.6,101.9 56.6,14.8 0,14.8 0,101.9 20.2,101.9 	"/>
	<path class="step7" d="M87.6,75.5c0.8,1.9,2,3.7,3.5,5.2c1.6,1.6,3.5,2.8,5.6,3.6c2.4,0.9,4.9,1.4,7.4,1.3
		c8.7,0.1,16.6-4.9,20.1-12.9c2.1-4.3,3.2-9.8,3.2-16.3c0-6.9-1.1-12.4-3.3-16.7c-3.6-7.6-11.3-12.5-19.8-12.4
		c-2.6-0.1-5.3,0.4-7.7,1.5c-2.1,0.9-4,2.2-5.6,3.9c-1.4,1.5-2.6,3.3-3.4,5.3h-0.5v-9.9H66v78.2h21.3V75.5H87.6z M86.8,56.4
		L86.8,56.4c-0.1-2.5,0.3-4.9,1.1-7.2c0.6-1.8,1.7-3.4,3.2-4.6c1.4-1.1,3.2-1.7,5-1.6c1.8-0.1,3.6,0.5,5,1.6
		c1.5,1.2,2.6,2.8,3.2,4.6c1.5,4.7,1.5,9.8,0,14.5c-0.6,1.8-1.7,3.4-3.2,4.6c-3,2.2-7,2.1-10,0c-1.5-1.2-2.6-2.8-3.2-4.7
		C87.2,61.3,86.8,58.8,86.8,56.4z"/>
	<polygon class="step7" points="171.1,68.7 171.1,105.2 191.2,105.2 191.2,38.1 171.1,38.1 154.6,74.5 154.6,38.1 134.6,38.1 
		134.6,105.2 154.6,105.2 	"/>
	<path class="step7" d="M240.6,101.5c3.1-1.2,5.8-3.3,7.6-6c1.8-3,2.7-6.5,2.6-10c0-2.5-0.6-5-1.7-7.3c-1.2-2.4-3.1-4.5-5.4-5.9
		c-2.9-1.7-6.2-2.6-9.6-2.7c4.3-0.9,7.6-2.5,9.8-5c2.2-2.3,3.4-5.4,3.4-8.6c0-6-2-10.4-6-13.4s-9.6-4.5-16.6-4.5h-22.9v65.4h26.4
		C232.4,103.6,236.6,103,240.6,101.5z M224.6,55.2c1.4-0.1,2.7,0.4,3.8,1.3c0.9,0.9,1.5,2.2,1.4,3.5c0,0.9-0.2,1.8-0.6,2.6
		c-0.4,0.7-0.9,1.3-1.6,1.6c-0.8,0.4-1.6,0.6-2.5,0.6h-6v-9.5L224.6,55.2L224.6,55.2z M219.2,76.6h9c1.3-0.1,2.7,0.4,3.6,1.4
		c0.9,1.1,1.4,2.5,1.3,3.9c0.1,1.4-0.4,2.7-1.3,3.7c-1,0.9-2.3,1.4-3.6,1.4h-9V76.6z"/>
	<path class="step7" d="M271,94.7c4.5,2.5,9.6,3.7,14.8,3.6l0,0c4.4,0.1,8.9-0.7,13-2.5c3.5-1.5,6.6-3.9,8.9-6.9
		c2.3-3.1,3.8-6.7,4.3-10.5h-17.6c-0.4,1.1-0.9,2-1.7,2.8c-0.8,0.8-1.8,1.4-2.8,1.8c-1.2,0.4-2.4,0.6-3.6,0.6
		c-1.7,0.1-3.4-0.4-4.9-1.3c-1.3-0.8-2.4-2-3.1-3.5c-0.7-1.6-1.1-3.3-1.1-5v-0.9h-13V61.4h13c0-1.6,0.4-3.1,1.2-4.4
		c0.8-1.2,1.8-2.3,3.1-3c1.3-0.7,2.8-1.1,4.3-1.1s3,0.3,4.3,1.1c1.3,0.7,2.3,1.8,3,3c0.8,1.3,1.2,2.9,1.2,4.4h-17.1l0,0v11.5H312V68
		c0.1-4.2-0.6-8.5-1.9-12.5c-1.1-3.5-3-6.7-5.4-9.4c-2.3-2.6-5.2-4.6-8.4-5.9c-3.5-1.4-7.2-2.1-11-2.1c-5.1-0.1-10,1.2-14.4,3.8
		c-4.1,2.5-7.4,6.2-9.4,10.5c-2.3,4.9-3.5,10.4-3.3,15.8c-0.2,5.6,1,11.1,3.3,16.2C263.6,88.7,266.9,92.3,271,94.7z"/>
	<polygon class="step7" points="277.2,61.4 264.2,61.4 264.2,72.9 277.2,72.9 	"/>
	<polygon class="step7" points="317.9,53.9 330.7,53.9 330.7,92.3 344.5,92.3 344.5,53.9 357.4,53.9 357.4,39.9 317.9,39.9 	"/>
	<path class="step7" d="M1069.5,61.7c0,4.3,0.7,8.6,2.2,12.7c0.2,0.5,0.4,0.9,0.6,1.4v-7.9L1069.5,61.7z"/>
	<path class="step7" d="M1070.4,54.1v-8.9c-0.7,2.9-1,5.9-1.1,8.8L1070.4,54.1z"/>
	<path class="step7" d="M1072.2,75.8c-0.2-0.5-0.4-0.9-0.6-1.4c-1.4-4.1-2.2-8.3-2.2-12.7l2.7,6.1L1072.2,75.8
		c0.9,2.3,2.4,4.3,4.4,5.8c3.9,3,9.3,3.1,13.4,0.4c2-1.4,3.7-3.3,5-5.5c1.5-2.5,2.5-5.3,3.1-8.1c0.7-3.3,1.1-6.6,1.1-10v-1.9
		c0-3.3-0.4-6.7-1.1-9.9c-0.6-2.8-1.7-5.6-3.2-8.1c-1.2-2.1-2.9-4-4.9-5.4c-1.9-1.3-4.2-1.9-6.5-1.9c-2.6,0-5.1,0.9-7,2.5
		c-2.3,2-4.1,4.7-5,7.6c-0.4,1.3-0.8,2.6-1.1,3.9v8.9l-1.1-0.1c0-3,0.4-5.9,1.1-8.8V32.7h-6.8v67.9h8.6V75.8z M1071.9,56
		c-0.1-2.6,0.4-5.2,1.3-7.7c0.7-1.9,1.9-3.6,3.5-4.8c1.3-1.1,3-1.6,4.7-1.6c1.8,0,3.6,0.7,4.9,2c1.5,1.5,2.6,3.4,3.2,5.4
		c0.8,2.7,1.2,5.4,1.2,8.2s-0.4,5.5-1.2,8.2c-0.6,2.1-1.7,4-3.2,5.6c-1.3,1.3-3,2-4.9,2c-1.7,0-3.3-0.6-4.6-1.6
		c-1.5-1.2-2.8-2.8-3.5-4.7c-1-2.3-1.4-4.8-1.4-7.3V56z"/>
	<path class="step7" d="M1123,40.2c1.2,0.1,2.3-0.4,3-1.3c0.6-1,1-2.1,0.9-3.2c0-1.1-0.3-2.3-0.9-3.2c0-0.1-0.1-0.1-0.2-0.2
		c-1.7-1.6-4.3-1.5-5.9,0.2c-0.7,0.9-1,2.1-0.9,3.2c0,1.2,0.3,2.3,0.9,3.2C1120.7,39.8,1121.9,40.3,1123,40.2z"/>
	<path class="step7" d="M1107.2,74.2c2.5,3.4,6.5,5.4,10.7,5.3l0,0c2.1,0,4.2-0.4,6.1-1.4c1.8-0.9,3.3-2.3,4.4-3.9
		c1.2-1.8,2-3.8,2.4-5.9h-6.6c-0.3,1.2-1.1,2.3-2.1,3c-1.2,0.9-2.7,1.3-4.2,1.2c-1.5,0.1-3.1-0.4-4.3-1.4c-1.2-1-2-2.3-2.5-3.7
		c-0.4-1.1-0.6-2.3-0.7-3.5h-3.7v-5.1h3.9c0.1-0.9,0.3-1.7,0.6-2.6c0.5-1.4,1.3-2.7,2.5-3.6c1.2-0.9,2.6-1.3,4-1.3
		c1.4-0.1,2.8,0.4,3.9,1.2c1.1,0.9,1.9,2.1,2.3,3.4c0.3,0.9,0.5,1.9,0.6,2.8h2.3l-2.2,2.5c0-0.8,0-1.7-0.1-2.5h-14
		c-0.2,1-0.3,2.1-0.2,3.1c0,0.7,0,1.3,0.1,2h20.9v-3c0-2.8-0.5-5.5-1.5-8.1c-0.9-2.4-2.5-4.5-4.6-6.1c-2.2-1.6-4.8-2.4-7.5-2.3
		c-2.1,0-4.2,0.4-6,1.4c-1.7,0.9-3.2,2.2-4.4,3.8c-1.2,1.6-2.1,3.5-2.7,5.4c-0.6,2-0.9,4.2-0.9,6.3v1.1c0,2.1,0.3,4.1,0.9,6.1
		C1105.1,70.7,1106,72.5,1107.2,74.2z"/>
	<path class="step7" d="M1126.8,58.9h-2.3c0.1,0.8,0.2,1.7,0.1,2.5L1126.8,58.9z"/>
	<path class="step7" d="M1110.5,58.9h-3.9V64h3.7c-0.1-0.7-0.1-1.3-0.1-2C1110.3,61,1110.4,60,1110.5,58.9z"/>
	<path class="step7" d="M1112.3,40.2c1.2,0.1,2.3-0.4,3-1.3c0.6-1,1-2.1,0.9-3.2c0-1.1-0.3-2.3-0.9-3.2c0-0.1-0.1-0.1-0.2-0.2
		c-1.7-1.6-4.3-1.5-5.9,0.2c-0.7,0.9-1,2.1-0.9,3.2c0,1.2,0.3,2.3,0.9,3.2C1110,39.8,1111.1,40.3,1112.3,40.2z"/>
	<path class="step7" d="M1144.3,56.4c0-3.7,0.7-6.5,2-8.4c1.2-1.9,3.3-3,5.6-2.9h1.9v-9.4h-1c-3.2-0.1-6.2,1.8-7.5,4.7
		c-1.3,2.3-2.1,5.5-2.4,9.5v4.2h-0.2c0-1.5,0.1-2.9,0.2-4.2V36.2h-5.6v42.1h7.1L1144.3,56.4L1144.3,56.4z"/>
	<path class="step7" d="M1142.9,54.1v-4.2c-0.1,1.3-0.2,2.7-0.2,4.2H1142.9z"/>
	<path class="step7" d="M1168.8,71.2c-1.7,0.1-3.4-0.5-4.5-1.8c-0.9-1.1-1.5-2.5-1.6-4h-6.4c0.1,4.4,1.2,7.8,3.4,10.2
		c2.3,2.5,5.6,3.9,9,3.7l0,0c2.3,0.1,4.5-0.5,6.4-1.7c1.8-1.2,3.3-2.8,4.2-4.8c1.1-2.3,1.6-4.8,1.5-7.3c0-3.8-0.9-6.8-2.8-9
		c-2-2.3-4.7-3.8-7.7-4.1l-2.5-0.4c-1.2-0.1-2.4-0.6-3.3-1.5c-0.7-0.9-1.1-2-1-3.1c-0.1-1.3,0.4-2.5,1.2-3.4
		c0.9-0.9,2.2-1.4,3.5-1.3c1.4-0.1,2.9,0.5,3.8,1.6c0.9,1,1.4,2.4,1.4,3.7h6.4c-0.1-4.4-1.2-7.8-3.3-10.1c-2.1-2.3-5.2-3.5-8.3-3.4
		c-2,0-4,0.5-5.8,1.5c-1.7,1.1-3.1,2.6-4,4.5c-1,2.3-1.5,4.8-1.4,7.3c-0.2,3.1,0.7,6.2,2.5,8.7c1.8,2.2,4.3,3.7,7.2,4.1l2.5,0.4
		c1.5,0.1,2.8,0.7,3.9,1.6c0.8,0.9,1.2,2.1,1.2,3.4c0.1,1.4-0.5,2.8-1.5,3.8C1171.7,70.8,1170.3,71.3,1168.8,71.2z"/>
	<path class="step7" d="M1195.4,51.6c1-1.3,2.6-2.1,4.2-2c1.5,0,3,0.6,4,1.8c1.1,1.4,1.6,3.2,1.5,4.9v19.4h7.1V57.1
		c0-4.9-0.8-8.6-2.5-11.2c-1.5-2.5-4.3-4-7.2-3.8h-0.3c-2-0.1-3.9,0.6-5.4,1.8c-1.4,1.3-2.5,3-3,4.8v7.5
		C1193.9,54.6,1194.4,53,1195.4,51.6z"/>
	<path class="step7" d="M1192.6,57.5h1.2v-1.3l0,0v-7.5c0,0.1-0.1,0.3-0.2,0.4C1192.9,51.9,1192.5,54.7,1192.6,57.5z"/>
	<path class="step7" d="M1193.8,56.9c0-0.2,0-0.4,0-0.7v1.3h-1.2c-0.1-2.8,0.3-5.6,1.1-8.4c0-0.2,0.1-0.3,0.2-0.4V31.9h-7.1v43.9h7.1
		L1193.8,56.9L1193.8,56.9z"/>
	<path class="step7" d="M1241.2,56.8h-2.3c0.1,0.8,0.2,1.5,0.1,2.3L1241.2,56.8z"/>
	<path class="step7" d="M1221.6,70.9c1.2,1.5,2.7,2.7,4.5,3.6c2,0.9,4.1,1.4,6.3,1.3l0,0c2.1,0,4.2-0.4,6.1-1.3
		c1.8-0.8,3.3-2.1,4.4-3.6c1.2-1.6,2-3.5,2.4-5.4h-6.6c-0.3,1.2-1.1,2.1-2.1,2.8c-1.3,0.8-2.7,1.2-4.2,1.1c-1.5,0.1-3-0.4-4.3-1.2
		c-1.2-0.9-2-2.1-2.5-3.4c-0.4-1-0.6-2.1-0.7-3.2h-3.7v-4.7h3.9c0.1-0.8,0.3-1.6,0.6-2.4c0.5-1.3,1.3-2.5,2.5-3.4
		c1.2-0.8,2.6-1.2,4-1.2c2.8-0.2,5.4,1.6,6.2,4.3c0.3,0.8,0.5,1.7,0.6,2.6h2.3l-2.2,2.3c0-0.8,0-1.6-0.1-2.3h-14
		c-0.2,1-0.3,1.9-0.2,2.9c0,0.6,0,1.2,0.1,1.8h20.9v-2.8c0-2.6-0.5-5.1-1.5-7.5c-1-2.3-2.6-4.2-4.6-5.6c-2.2-1.5-4.9-2.2-7.6-2.1
		c-2.1,0-4.2,0.4-6,1.3c-1.7,0.8-3.2,2-4.4,3.5c-1.2,1.5-2.1,3.2-2.7,5c-0.6,1.9-0.9,3.8-0.9,5.8v1.1c0,1.9,0.3,3.8,0.9,5.7
		C1219.5,67.7,1220.4,69.4,1221.6,70.9z"/>
	<path class="step7" d="M1226.6,39.5c1.1,0.1,2.3-0.3,3-1.2c0.6-0.9,1-1.9,0.9-3c0-1.1-0.3-2.1-0.9-3c-1.7-1.6-4.3-1.6-6,0
		c-0.6,0.8-1,1.9-0.9,3c0,1.1,0.3,2.1,0.9,3C1224.4,39.1,1225.5,39.6,1226.6,39.5z"/>
	<path class="step7" d="M1224.9,56.8h-3.9v4.7h3.7c-0.1-0.6-0.1-1.2-0.1-1.8C1224.6,58.7,1224.7,57.7,1224.9,56.8z"/>
	<path class="step7" d="M1226.6,39.5L1226.6,39.5L1226.6,39.5z"/>
	<path class="step7" d="M1237.3,39.5c1.1,0.1,2.3-0.3,3-1.2c0.6-0.9,1-1.9,0.9-3c0-1.1-0.3-2.1-0.9-3c-1.7-1.6-4.3-1.6-6,0
		c-0.6,0.8-1,1.9-0.9,3c0,1.1,0.3,2.1,0.9,3C1235.1,39.1,1236.2,39.6,1237.3,39.5z"/>
	<path class="step7" d="M1257.2,51.3v-6.9c-0.4,2.3-0.6,4.6-0.5,6.9H1257.2z"/>
	<path class="step7" d="M1258.7,50.7c-0.1-2.1,0.5-4.2,1.6-6c0.9-1.4,2.5-2.3,4.2-2.2c1.6,0,3.2,0.8,4,2.2c1,1.7,1.6,3.7,1.5,5.8v23
		h7.1V51.3c0-5.9-0.9-10.3-2.6-13.3c-1.4-2.8-4.4-4.5-7.5-4.4h-0.3c-2-0.1-4,0.6-5.6,2c-1.7,1.6-2.8,3.7-3.4,5.9c-0.3,1-0.4,2-0.6,3
		v6.9h-0.5c-0.1-2.3,0.1-4.6,0.5-6.9v-9.7h-5.6v38.7h7.1V50.7H1258.7z"/>
	<path class="step7" d="M1287.1,66.5c1.2,1.8,2.9,3.3,4.8,4.4c1.8,1,3.9,1.6,6,1.6l0,0c2.3,0,4.6-0.7,6.6-2c2.1-1.6,3.7-3.7,4.7-6.1
		c0.2-0.5,0.4-1.1,0.6-1.6v-8.6h1.4c0,2.9-0.5,5.8-1.4,8.6v8.4h6.3v-54h-8v19.5c0.2,0.4,0.4,0.8,0.5,1.2c1.2,3.3,1.8,6.7,1.8,10.2
		l-2.4-3.5v-7.9c-0.9-1.9-2.3-3.6-3.9-4.9c-1.9-1.4-4.1-2.1-6.5-2c-2.1,0-4.2,0.5-6.1,1.6c-1.9,1.1-3.4,2.6-4.6,4.4
		c-1.3,2-2.4,4.2-3,6.6c-0.7,2.6-1.1,5.3-1.1,8.1v1.6c0,2.7,0.3,5.5,1.1,8.1C1284.6,62.3,1285.7,64.6,1287.1,66.5z M1292,44.4
		c0.6-1.7,1.7-3.3,3.1-4.5c1.3-1,2.9-1.6,4.6-1.6c1.5,0,3,0.4,4.2,1.3c1.4,0.9,2.4,2.2,3.2,3.7c0.9,1.9,1.3,3.9,1.2,5.9v3
		c0,2.1-0.4,4.2-1.2,6.2c-0.7,1.6-1.7,3-3.1,4c-1.3,0.9-2.8,1.4-4.3,1.4l0,0c-1.6,0-3.2-0.5-4.5-1.6c-1.4-1.2-2.5-2.7-3.1-4.4
		c-0.8-2.1-1.2-4.4-1.1-6.7C1290.8,48.9,1291.2,46.6,1292,44.4z"/>
	<path class="step7" d="M1309.7,54.1v8.6c0.9-2.8,1.4-5.7,1.4-8.6H1309.7z"/>
	<path class="step7" d="M1310.4,48.1c0-3.5-0.6-6.9-1.8-10.2c-0.2-0.4-0.3-0.8-0.5-1.2v7.9L1310.4,48.1z"/>
	<path class="step7" d="M1324.7,65.1c1.2,2.1,2.9,3.9,4.9,5.2c2,1.3,4.4,2,6.8,1.9l0,0c2.4,0,4.7-0.6,6.7-1.9s3.7-3.1,4.8-5.3
		c1.3-2.5,2.2-5.1,2.6-7.9h-7.1c-0.3,1.6-1.1,3-2.3,4.1c-1.3,1.1-2.9,1.7-4.6,1.7c-1.7,0.1-3.4-0.6-4.7-1.8c-1.3-1.4-2.3-3.1-2.7-5
		c-0.4-1.5-0.7-3.1-0.8-4.7h-4.1v-6.9h4.2c0.2-1.2,0.4-2.3,0.7-3.4c0.4-1.8,1.4-3.5,2.7-4.9c1.2-1.1,2.7-1.7,4.3-1.7
		c1.6,0,3.1,0.5,4.3,1.6c1.2,1.3,2.1,2.9,2.5,4.6c0.3,1.2,0.5,2.5,0.7,3.8h2.6l-2.4,3.4c0-1.1,0-2.3-0.2-3.4h-15.2
		c-0.2,1.4-0.3,2.8-0.3,4.2c0,0.9,0,1.8,0.1,2.7h22.7v-4c0-3.7-0.5-7.4-1.7-10.9c-0.9-3.1-2.7-5.9-5-8.2c-4.1-3.6-10.1-4.1-14.8-1.2
		c-1.9,1.3-3.6,3.1-4.8,5.1c-1.3,2.3-2.3,4.7-2.9,7.3c-0.7,2.8-1,5.6-1,8.4v1.5c0,2.8,0.3,5.5,1,8.2
		C1322.4,60.3,1323.4,62.8,1324.7,65.1z"/>
	<path class="step7" d="M1328.3,44.6h-4.2v6.9h4.1c-0.1-0.9-0.1-1.8-0.1-2.7C1328,47.4,1328.1,46,1328.3,44.6z"/>
	<path class="step7" d="M1346.1,44.6h-2.6c0.1,1.1,0.2,2.3,0.2,3.4L1346.1,44.6z"/>
	<polygon class="step7" points="1377.2,33.2 1377.2,24.2 1366.7,24.2 1366.7,33.2 	"/>
	<path class="step7" d="M1358.5,54.3c-0.1,3.8,0.4,7.5,1.5,11.2c0.8,2.4,2.4,4.5,4.6,5.9c2.4,1.2,5.1,1.8,7.8,1.7h4.9V62.5h-5.4
		c-1.5,0.1-3-0.6-3.9-1.9c-1-1.6-1.5-3.5-1.4-5.5V33.2h-8.2L1358.5,54.3z"/>
	<polygon class="step7" points="1366.7,10.6 1358.5,10.6 1358.5,24.2 1366.7,24.2 	"/>
	<polygon class="step7" points="1366.7,33.2 1366.7,24.2 1358.5,24.2 1358.5,33.2 	"/>
	<polygon class="step7" points="1358.5,24.2 1353,24.2 1353,33.2 1358.5,33.2 	"/>
	<path class="step7" d="M1392.6,85.1c2.6-1,4.8-2.9,6.1-5.4c1.3-2.5,2-5.8,2-9.9V24.5l0,0v8.7h-11.5v37.3c0.1,1.8-0.5,3.5-1.7,4.7
		c-1.3,1.2-3.1,1.8-4.9,1.7h-3.6v9.9h2.8C1385.4,86.9,1389.1,86.3,1392.6,85.1z"/>
	<rect x="1389.1" y="24.5" class="step7" width="11.5" height="8.7"/>
	<rect x="1382.3" y="24.5" class="step7" width="6.8" height="8.7"/>
	<path class="step7" d="M1386.2,12.4c-0.1,1.7,0.5,3.3,1.7,4.5c1.4,1.3,3.2,1.9,5.1,1.8c2.3,0,4.1-0.6,5.2-1.8s1.7-2.9,1.7-4.5
		c0.1-1.7-0.5-3.3-1.7-4.5c-1.1-1.1-2.8-1.7-5-1.7h-1.2c-1.5,0.1-2.9,0.7-4.1,1.7C1386.7,9.2,1386.1,10.8,1386.2,12.4z"/>
	<path class="step5" d="M1443.5,36.6h-3.7c0.2,1.6,0.3,3.3,0.2,4.9L1443.5,36.6z"/>
	<path class="step7" d="M1440.8,13.2c-6.1-5.3-14.9-6-21.7-1.8c-2.8,1.9-5.2,4.4-7,7.4c-2,3.3-3.4,6.8-4.2,10.5c-1,4-1.4,8.1-1.4,12.2
		v2.2c0,4,0.5,8,1.4,11.9c0.9,3.7,2.3,7.3,4.2,10.6c1.8,3,4.2,5.6,7.1,7.5c3,1.9,6.5,2.9,10,2.8l0,0c3.4,0.1,6.8-0.9,9.8-2.7
		c3-1.9,5.4-4.5,7.1-7.6c1.9-3.6,3.2-7.4,3.8-11.5h-10.4c-0.5,2.3-1.6,4.3-3.3,5.9c-1.9,1.6-4.3,2.5-6.8,2.4c-2.5,0.1-5-0.9-6.9-2.6
		c-1.9-2-3.3-4.5-4-7.3c-0.6-2.2-1-4.5-1.1-6.7h-6v-9.9h6.2c0.2-1.7,0.5-3.3,1-5c0.7-2.7,2-5.1,4-7.1c1.7-1.6,4-2.5,6.4-2.5
		c2.3-0.1,4.6,0.8,6.2,2.3c1.8,1.8,3.1,4.1,3.7,6.7c0.5,1.8,0.8,3.6,1,5.5h3.7l-3.5,4.9c0-1.6-0.1-3.3-0.2-4.9h-22.3
		c-0.3,2-0.4,4-0.4,6.1c0,1.3,0,2.6,0.2,3.9h33.3v-6.3c0-5.2-0.8-10.4-2.4-15.3C1446.7,20.5,1444.2,16.4,1440.8,13.2z"/>
	<path class="step7" d="M1417.5,36.6h-6.2v9.9h6c-0.1-1.3-0.2-2.6-0.2-3.9C1417.1,40.6,1417.2,38.6,1417.5,36.6z"/>
</g>
</svg>
