<svg width="1193" height="213" viewBox="0 0 1193 213" fill="none" xmlns="http://www.w3.org/2000/svg">
<path d="M957.557 171.873C1003.52 171.873 1040.78 134.612 1040.78 88.6477C1040.78 42.6836 1003.52 5.42236 957.557 5.42236C911.593 5.42236 874.331 42.6836 874.331 88.6477C874.331 134.612 911.593 171.873 957.557 171.873Z" fill="white"/>
<path d="M836.678 210.303C882.942 210.303 920.447 172.798 920.447 126.534C920.447 80.2694 882.942 42.7646 836.678 42.7646C790.413 42.7646 752.909 80.2694 752.909 126.534C752.909 172.798 790.413 210.303 836.678 210.303Z" fill="white"/>
<path d="M1134.73 164.169C1166.91 164.169 1193 138.079 1193 105.895C1193 73.7108 1166.91 47.6206 1134.73 47.6206C1102.54 47.6206 1076.45 73.7108 1076.45 105.895C1076.45 138.079 1102.54 164.169 1134.73 164.169Z" fill="white"/>
<path d="M1042.76 164.169C1082.82 164.169 1115.3 131.692 1115.3 91.63C1115.3 51.5677 1082.82 19.0908 1042.76 19.0908C1002.7 19.0908 970.223 51.5677 970.223 91.63C970.223 131.692 1002.7 164.169 1042.76 164.169Z" fill="white"/>
<path d="M302.946 65.9328C269.337 65.9328 242.091 93.1785 242.091 126.788C242.091 160.397 269.337 187.643 302.946 187.643C336.555 187.643 363.801 160.397 363.801 126.788C363.801 93.1785 336.555 65.9328 302.946 65.9328Z" fill="white"/>
<path d="M254.008 -3.05176e-05C210.094 -3.05176e-05 174.495 35.599 174.495 79.5127C174.495 123.426 210.094 159.025 254.008 159.025C297.921 159.025 333.52 123.426 333.52 79.5127C333.52 35.599 297.921 -3.05176e-05 254.008 -3.05176e-05Z" fill="white"/>
<path d="M58.2742 47.499C26.0902 47.499 -7.62939e-06 73.5892 -7.62939e-06 105.773C-7.62939e-06 137.957 26.0902 164.047 58.2742 164.047C90.4582 164.047 116.548 137.957 116.548 105.773C116.548 73.5892 90.4582 47.499 58.2742 47.499Z" fill="white"/>
<path d="M203.423 90.3596C169.813 90.3596 142.568 117.605 142.568 151.214C142.568 184.824 169.813 212.069 203.423 212.069C237.032 212.069 264.278 184.824 264.278 151.214C264.278 117.605 237.032 90.3596 203.423 90.3596Z" fill="white"/>
<path d="M150.238 13.5729C110.176 13.5729 77.6988 46.0498 77.6988 86.1122C77.6988 126.174 110.176 158.651 150.238 158.651C190.3 158.651 222.777 126.174 222.777 86.1122C222.777 46.0498 190.3 13.5729 150.238 13.5729Z" fill="white"/>
<path d="M639.42 167.378C673.029 167.378 700.275 140.133 700.275 106.523C700.275 72.9141 673.029 45.6685 639.42 45.6685C605.811 45.6685 578.565 72.9141 578.565 106.523C578.565 140.133 605.811 167.378 639.42 167.378Z" fill="white"/>
<path d="M726.503 155.182C757.179 155.182 782.046 130.315 782.046 99.6398C782.046 68.9645 757.179 44.0972 726.503 44.0972C695.828 44.0972 670.961 68.9645 670.961 99.6398C670.961 130.315 695.828 155.182 726.503 155.182Z" fill="white"/>
<path d="M551.33 192.293C598.831 192.293 637.339 153.508 637.339 105.664C637.339 57.8206 598.831 19.0356 551.33 19.0356C503.828 19.0356 465.32 57.8206 465.32 105.664C465.32 153.508 503.828 192.293 551.33 192.293Z" fill="white"/>
<path d="M457.896 152.147C485.051 152.147 507.064 130.134 507.064 102.978C507.064 75.8232 485.051 53.8096 457.896 53.8096C430.74 53.8096 408.727 75.8232 408.727 102.978C408.727 130.134 430.74 152.147 457.896 152.147Z" fill="white"/>
<path d="M386.866 179.004C416.348 179.004 440.249 155.104 440.249 125.621C440.249 96.1386 416.348 72.2383 386.866 72.2383C357.383 72.2383 333.483 96.1386 333.483 125.621C333.483 155.104 357.383 179.004 386.866 179.004Z" fill="white"/>
<path d="M313.996 170.697C343.478 170.697 367.379 146.797 367.379 117.314C367.379 87.8319 343.478 63.9316 313.996 63.9316C284.513 63.9316 260.613 87.8319 260.613 117.314C260.613 146.797 284.513 170.697 313.996 170.697Z" fill="white"/>
</svg>
